%TF.GenerationSoftware,KiCad,Pcbnew,9.0.2*%
%TF.CreationDate,2025-10-14T12:10:58+02:00*%
%TF.ProjectId,1p6V_to_m1p6V_bias_gum,31703656-5f74-46f5-9f6d-317036565f62,rev?*%
%TF.SameCoordinates,Original*%
%TF.FileFunction,Copper,L2,Inr*%
%TF.FilePolarity,Positive*%
%FSLAX46Y46*%
G04 Gerber Fmt 4.6, Leading zero omitted, Abs format (unit mm)*
G04 Created by KiCad (PCBNEW 9.0.2) date 2025-10-14 12:10:58*
%MOMM*%
%LPD*%
G01*
G04 APERTURE LIST*
%TA.AperFunction,ComponentPad*%
%ADD10C,2.000000*%
%TD*%
%TA.AperFunction,ComponentPad*%
%ADD11R,1.700000X1.700000*%
%TD*%
%TA.AperFunction,ComponentPad*%
%ADD12C,1.700000*%
%TD*%
%TA.AperFunction,ViaPad*%
%ADD13C,0.600000*%
%TD*%
%TA.AperFunction,Conductor*%
%ADD14C,0.500000*%
%TD*%
%TA.AperFunction,Conductor*%
%ADD15C,0.250000*%
%TD*%
G04 APERTURE END LIST*
D10*
%TO.N,/3.3VA*%
%TO.C,TP1*%
X82750000Y-75200000D03*
%TD*%
D11*
%TO.N,/5V*%
%TO.C,CG1*%
X82240000Y-62150000D03*
D12*
%TO.N,/3.3V*%
X82240000Y-64690000D03*
%TO.N,/SDA*%
X82240000Y-67230000D03*
%TO.N,/SCL*%
X82240000Y-69770000D03*
%TO.N,GND*%
X82240000Y-72310000D03*
D11*
%TO.N,/5V*%
X94940000Y-62150000D03*
D12*
%TO.N,unconnected-(CG1-VDDIO-PadB2)*%
X94940000Y-64690000D03*
%TO.N,/-5V*%
X94940000Y-67230000D03*
%TO.N,/enable*%
X94940000Y-69770000D03*
%TO.N,GND*%
X94940000Y-72310000D03*
D11*
X82240000Y-86915000D03*
D12*
%TO.N,/V_bias*%
X84780000Y-86915000D03*
X87320000Y-86915000D03*
%TO.N,/Vout_diff*%
X89860000Y-86915000D03*
%TO.N,/Vout_B*%
X92400000Y-86915000D03*
%TO.N,GND*%
X94940000Y-86915000D03*
%TD*%
D10*
%TO.N,/V_bias*%
%TO.C,TP4*%
X91175000Y-61425000D03*
%TD*%
%TO.N,/-3.3VA*%
%TO.C,TP2*%
X94450000Y-76050000D03*
%TD*%
D13*
%TO.N,GND*%
X90050000Y-75575000D03*
X83700000Y-64275000D03*
X85377500Y-58997500D03*
X93720000Y-85730000D03*
X95370000Y-58380000D03*
X92250000Y-74375000D03*
X86330000Y-69450000D03*
X81630000Y-59580000D03*
X90125000Y-82375000D03*
X95390000Y-59620000D03*
X93425000Y-63800000D03*
X95390000Y-55980000D03*
X81630000Y-57200000D03*
X87950000Y-66300000D03*
X81630000Y-55940000D03*
X93450000Y-60825000D03*
X92625000Y-78675000D03*
X81610000Y-58340000D03*
X95390000Y-57240000D03*
%TO.N,/enable*%
X95120000Y-81490000D03*
X90300000Y-72225000D03*
X90719975Y-69480025D03*
%TO.N,/5V*%
X88950000Y-73135000D03*
X93420000Y-83600000D03*
X87500000Y-62625000D03*
%TO.N,/-5V*%
X92081251Y-69631251D03*
%TO.N,/3.3VA*%
X88060000Y-78330000D03*
X94350000Y-79625000D03*
X85375000Y-71375000D03*
%TO.N,/V_bias*%
X86550000Y-57925000D03*
X83820000Y-81030000D03*
%TO.N,Net-(U1-FB)*%
X87160000Y-85170000D03*
X85810000Y-77470000D03*
%TO.N,/SCL*%
X85857500Y-64950000D03*
%TO.N,/SDA*%
X83707264Y-65822753D03*
%TD*%
D14*
%TO.N,GND*%
X87360000Y-66890000D02*
X87360000Y-68420000D01*
X87950000Y-66300000D02*
X87360000Y-66890000D01*
X87360000Y-68420000D02*
X86330000Y-69450000D01*
D15*
%TO.N,/enable*%
X94940000Y-69770000D02*
X96075000Y-70905000D01*
X96075000Y-70905000D02*
X96075000Y-80535000D01*
X96075000Y-80535000D02*
X95120000Y-81490000D01*
X90719975Y-69705025D02*
X90300000Y-70125000D01*
X90719975Y-69480025D02*
X90719975Y-69705025D01*
X90300000Y-70125000D02*
X90300000Y-72225000D01*
D14*
%TO.N,/3.3VA*%
X88460000Y-78330000D02*
X88060000Y-78330000D01*
X93116364Y-79175000D02*
X92915364Y-79376000D01*
X92334636Y-79376000D02*
X92133636Y-79175000D01*
X93900000Y-79175000D02*
X93116364Y-79175000D01*
X92133636Y-79175000D02*
X89305000Y-79175000D01*
X94350000Y-79625000D02*
X93900000Y-79175000D01*
X92915364Y-79376000D02*
X92334636Y-79376000D01*
X89305000Y-79175000D02*
X88460000Y-78330000D01*
D15*
%TO.N,/V_bias*%
X87675000Y-57925000D02*
X86550000Y-57925000D01*
X91175000Y-61425000D02*
X87675000Y-57925000D01*
D14*
%TO.N,Net-(U1-FB)*%
X85810000Y-77470000D02*
X87160000Y-78820000D01*
X87160000Y-78820000D02*
X87160000Y-85170000D01*
%TO.N,/SCL*%
X85857500Y-64950000D02*
X85857500Y-66152500D01*
X85857500Y-66152500D02*
X82240000Y-69770000D01*
%TO.N,/SDA*%
X83707264Y-65822753D02*
X83577247Y-65822753D01*
X82240000Y-67160000D02*
X82240000Y-67230000D01*
X83577247Y-65822753D02*
X82240000Y-67160000D01*
%TD*%
%TA.AperFunction,Conductor*%
%TO.N,GND*%
G36*
X94474075Y-87107993D02*
G01*
X94539901Y-87222007D01*
X94632993Y-87315099D01*
X94747007Y-87380925D01*
X94810590Y-87397962D01*
X94178282Y-88030269D01*
X94179109Y-88040770D01*
X94164745Y-88109148D01*
X94115694Y-88158905D01*
X94055491Y-88174500D01*
X93345689Y-88174500D01*
X93278650Y-88154815D01*
X93232895Y-88102011D01*
X93222951Y-88032853D01*
X93251976Y-87969297D01*
X93272804Y-87950181D01*
X93279792Y-87945104D01*
X93430104Y-87794792D01*
X93430106Y-87794788D01*
X93430109Y-87794786D01*
X93506055Y-87690254D01*
X93555051Y-87622816D01*
X93559793Y-87613508D01*
X93607763Y-87562711D01*
X93675583Y-87545911D01*
X93741719Y-87568445D01*
X93780763Y-87613500D01*
X93785373Y-87622547D01*
X93824728Y-87676716D01*
X94457037Y-87044408D01*
X94474075Y-87107993D01*
G37*
%TD.AperFunction*%
%TA.AperFunction,Conductor*%
G36*
X96055269Y-87676716D02*
G01*
X96065770Y-87675890D01*
X96134148Y-87690254D01*
X96183905Y-87739305D01*
X96199500Y-87799508D01*
X96199500Y-88050500D01*
X96179815Y-88117539D01*
X96127011Y-88163294D01*
X96075500Y-88174500D01*
X95824509Y-88174500D01*
X95757470Y-88154815D01*
X95711715Y-88102011D01*
X95700891Y-88040772D01*
X95701717Y-88030270D01*
X95069408Y-87397962D01*
X95132993Y-87380925D01*
X95247007Y-87315099D01*
X95340099Y-87222007D01*
X95405925Y-87107993D01*
X95422962Y-87044408D01*
X96055269Y-87676716D01*
G37*
%TD.AperFunction*%
%TA.AperFunction,Conductor*%
G36*
X96142539Y-53950185D02*
G01*
X96188294Y-54002989D01*
X96199500Y-54054500D01*
X96199500Y-60739960D01*
X96179815Y-60806999D01*
X96127011Y-60852754D01*
X96057853Y-60862698D01*
X96032167Y-60856142D01*
X95897482Y-60805908D01*
X95897483Y-60805908D01*
X95837883Y-60799501D01*
X95837881Y-60799500D01*
X95837873Y-60799500D01*
X95837864Y-60799500D01*
X94042129Y-60799500D01*
X94042123Y-60799501D01*
X93982516Y-60805908D01*
X93847671Y-60856202D01*
X93847664Y-60856206D01*
X93732455Y-60942452D01*
X93732452Y-60942455D01*
X93646206Y-61057664D01*
X93646202Y-61057671D01*
X93595908Y-61192517D01*
X93589501Y-61252116D01*
X93589501Y-61252123D01*
X93589500Y-61252135D01*
X93589500Y-63047870D01*
X93589501Y-63047876D01*
X93595908Y-63107483D01*
X93646202Y-63242328D01*
X93646206Y-63242335D01*
X93732452Y-63357544D01*
X93732455Y-63357547D01*
X93847664Y-63443793D01*
X93847671Y-63443797D01*
X93979082Y-63492810D01*
X94035016Y-63534681D01*
X94059433Y-63600145D01*
X94044582Y-63668418D01*
X94023431Y-63696673D01*
X93909889Y-63810215D01*
X93784951Y-63982179D01*
X93688444Y-64171585D01*
X93622753Y-64373760D01*
X93589500Y-64583713D01*
X93589500Y-64796286D01*
X93613808Y-64949764D01*
X93622754Y-65006243D01*
X93688033Y-65207151D01*
X93688444Y-65208414D01*
X93784951Y-65397820D01*
X93909890Y-65569786D01*
X94060213Y-65720109D01*
X94232182Y-65845050D01*
X94240946Y-65849516D01*
X94291742Y-65897491D01*
X94308536Y-65965312D01*
X94285998Y-66031447D01*
X94240946Y-66070484D01*
X94232182Y-66074949D01*
X94060213Y-66199890D01*
X93909890Y-66350213D01*
X93784951Y-66522179D01*
X93688444Y-66711585D01*
X93622753Y-66913760D01*
X93589500Y-67123713D01*
X93589500Y-67336286D01*
X93622753Y-67546239D01*
X93688444Y-67748414D01*
X93784951Y-67937820D01*
X93909890Y-68109786D01*
X94060213Y-68260109D01*
X94232182Y-68385050D01*
X94240946Y-68389516D01*
X94291742Y-68437491D01*
X94308536Y-68505312D01*
X94285998Y-68571447D01*
X94240946Y-68610484D01*
X94232182Y-68614949D01*
X94060213Y-68739890D01*
X93909890Y-68890213D01*
X93784951Y-69062179D01*
X93688444Y-69251585D01*
X93622753Y-69453760D01*
X93589500Y-69663713D01*
X93589500Y-69876286D01*
X93622494Y-70084605D01*
X93622754Y-70086243D01*
X93645332Y-70155732D01*
X93688444Y-70288414D01*
X93784951Y-70477820D01*
X93909890Y-70649786D01*
X94060213Y-70800109D01*
X94232179Y-70925048D01*
X94232181Y-70925049D01*
X94232184Y-70925051D01*
X94241493Y-70929794D01*
X94292290Y-70977766D01*
X94309087Y-71045587D01*
X94286552Y-71111722D01*
X94241505Y-71150760D01*
X94232446Y-71155376D01*
X94232440Y-71155380D01*
X94178282Y-71194727D01*
X94178282Y-71194728D01*
X94810591Y-71827037D01*
X94747007Y-71844075D01*
X94632993Y-71909901D01*
X94539901Y-72002993D01*
X94474075Y-72117007D01*
X94457037Y-72180591D01*
X93824728Y-71548282D01*
X93824727Y-71548282D01*
X93785380Y-71602439D01*
X93688904Y-71791782D01*
X93623242Y-71993869D01*
X93623242Y-71993872D01*
X93590000Y-72203753D01*
X93590000Y-72416246D01*
X93623242Y-72626127D01*
X93623242Y-72626130D01*
X93688904Y-72828217D01*
X93785375Y-73017550D01*
X93824728Y-73071716D01*
X94457037Y-72439408D01*
X94474075Y-72502993D01*
X94539901Y-72617007D01*
X94632993Y-72710099D01*
X94747007Y-72775925D01*
X94810589Y-72792962D01*
X94178282Y-73425269D01*
X94178282Y-73425270D01*
X94232449Y-73464624D01*
X94421782Y-73561095D01*
X94623870Y-73626757D01*
X94833754Y-73660000D01*
X95046246Y-73660000D01*
X95256127Y-73626757D01*
X95256129Y-73626757D01*
X95287179Y-73616668D01*
X95357020Y-73614671D01*
X95416854Y-73650750D01*
X95447683Y-73713450D01*
X95449500Y-73734598D01*
X95449500Y-74678095D01*
X95429815Y-74745134D01*
X95377011Y-74790889D01*
X95307853Y-74800833D01*
X95252615Y-74778414D01*
X95236432Y-74766656D01*
X95025996Y-74659433D01*
X94801368Y-74586446D01*
X94568097Y-74549500D01*
X94568092Y-74549500D01*
X94331908Y-74549500D01*
X94331903Y-74549500D01*
X94098631Y-74586446D01*
X93874003Y-74659433D01*
X93663566Y-74766657D01*
X93554550Y-74845862D01*
X93472490Y-74905483D01*
X93472488Y-74905485D01*
X93472487Y-74905485D01*
X93305485Y-75072487D01*
X93305485Y-75072488D01*
X93305483Y-75072490D01*
X93245862Y-75154550D01*
X93166657Y-75263566D01*
X93059433Y-75474003D01*
X92986446Y-75698631D01*
X92949500Y-75931902D01*
X92949500Y-76168097D01*
X92986446Y-76401368D01*
X93059433Y-76625996D01*
X93166657Y-76836433D01*
X93305483Y-77027510D01*
X93472490Y-77194517D01*
X93663567Y-77333343D01*
X93723802Y-77364034D01*
X93874003Y-77440566D01*
X93874005Y-77440566D01*
X93874008Y-77440568D01*
X93994412Y-77479689D01*
X94098631Y-77513553D01*
X94331903Y-77550500D01*
X94331908Y-77550500D01*
X94568097Y-77550500D01*
X94801368Y-77513553D01*
X95025992Y-77440568D01*
X95236433Y-77333343D01*
X95252612Y-77321587D01*
X95318418Y-77298106D01*
X95386472Y-77313930D01*
X95435168Y-77364034D01*
X95449500Y-77421904D01*
X95449500Y-80224547D01*
X95429815Y-80291586D01*
X95413181Y-80312228D01*
X95061203Y-80664205D01*
X94999880Y-80697690D01*
X94997714Y-80698141D01*
X94886508Y-80720261D01*
X94886498Y-80720264D01*
X94740827Y-80780602D01*
X94740814Y-80780609D01*
X94609711Y-80868210D01*
X94609707Y-80868213D01*
X94498213Y-80979707D01*
X94498210Y-80979711D01*
X94410609Y-81110814D01*
X94410602Y-81110827D01*
X94350264Y-81256498D01*
X94350261Y-81256510D01*
X94319500Y-81411153D01*
X94319500Y-81568846D01*
X94350261Y-81723489D01*
X94350264Y-81723501D01*
X94410602Y-81869172D01*
X94410609Y-81869185D01*
X94498210Y-82000288D01*
X94498213Y-82000292D01*
X94609707Y-82111786D01*
X94609711Y-82111789D01*
X94740814Y-82199390D01*
X94740827Y-82199397D01*
X94886498Y-82259735D01*
X94886503Y-82259737D01*
X95041153Y-82290499D01*
X95041156Y-82290500D01*
X95041158Y-82290500D01*
X95198844Y-82290500D01*
X95198845Y-82290499D01*
X95353497Y-82259737D01*
X95499179Y-82199394D01*
X95630289Y-82111789D01*
X95741789Y-82000289D01*
X95829394Y-81869179D01*
X95889737Y-81723497D01*
X95911858Y-81612282D01*
X95920623Y-81595526D01*
X95924643Y-81577048D01*
X95943380Y-81552017D01*
X95944240Y-81550375D01*
X95945730Y-81548858D01*
X95987820Y-81506768D01*
X96049143Y-81473284D01*
X96118835Y-81478270D01*
X96174768Y-81520142D01*
X96199184Y-81585606D01*
X96199500Y-81594451D01*
X96199500Y-86030490D01*
X96179815Y-86097529D01*
X96127011Y-86143284D01*
X96065772Y-86154108D01*
X96055270Y-86153281D01*
X95422962Y-86785590D01*
X95405925Y-86722007D01*
X95340099Y-86607993D01*
X95247007Y-86514901D01*
X95132993Y-86449075D01*
X95069409Y-86432037D01*
X95701716Y-85799728D01*
X95647550Y-85760375D01*
X95458217Y-85663904D01*
X95256129Y-85598242D01*
X95046246Y-85565000D01*
X94833754Y-85565000D01*
X94623872Y-85598242D01*
X94623869Y-85598242D01*
X94421782Y-85663904D01*
X94232439Y-85760380D01*
X94178282Y-85799727D01*
X94178282Y-85799728D01*
X94810591Y-86432037D01*
X94747007Y-86449075D01*
X94632993Y-86514901D01*
X94539901Y-86607993D01*
X94474075Y-86722007D01*
X94457037Y-86785591D01*
X93824728Y-86153282D01*
X93824727Y-86153282D01*
X93785380Y-86207440D01*
X93785376Y-86207446D01*
X93780760Y-86216505D01*
X93732781Y-86267297D01*
X93664959Y-86284087D01*
X93598826Y-86261543D01*
X93559794Y-86216493D01*
X93555051Y-86207184D01*
X93555049Y-86207181D01*
X93555048Y-86207179D01*
X93430109Y-86035213D01*
X93279786Y-85884890D01*
X93107820Y-85759951D01*
X92918414Y-85663444D01*
X92918413Y-85663443D01*
X92918412Y-85663443D01*
X92716243Y-85597754D01*
X92716241Y-85597753D01*
X92716240Y-85597753D01*
X92554957Y-85572208D01*
X92506287Y-85564500D01*
X92293713Y-85564500D01*
X92245042Y-85572208D01*
X92083760Y-85597753D01*
X91881585Y-85663444D01*
X91692179Y-85759951D01*
X91520213Y-85884890D01*
X91369890Y-86035213D01*
X91244949Y-86207182D01*
X91240484Y-86215946D01*
X91192509Y-86266742D01*
X91124688Y-86283536D01*
X91058553Y-86260998D01*
X91019516Y-86215946D01*
X91015050Y-86207182D01*
X90890109Y-86035213D01*
X90739786Y-85884890D01*
X90567820Y-85759951D01*
X90378414Y-85663444D01*
X90378413Y-85663443D01*
X90378412Y-85663443D01*
X90176243Y-85597754D01*
X90176241Y-85597753D01*
X90176240Y-85597753D01*
X90014957Y-85572208D01*
X89966287Y-85564500D01*
X89753713Y-85564500D01*
X89705042Y-85572208D01*
X89543760Y-85597753D01*
X89341585Y-85663444D01*
X89152179Y-85759951D01*
X88980213Y-85884890D01*
X88829890Y-86035213D01*
X88704949Y-86207182D01*
X88700484Y-86215946D01*
X88652509Y-86266742D01*
X88584688Y-86283536D01*
X88518553Y-86260998D01*
X88479516Y-86215946D01*
X88475050Y-86207182D01*
X88350109Y-86035213D01*
X88199786Y-85884890D01*
X88027819Y-85759951D01*
X88027818Y-85759950D01*
X88027816Y-85759949D01*
X87927044Y-85708603D01*
X87876248Y-85660628D01*
X87859453Y-85592807D01*
X87868778Y-85550665D01*
X87869394Y-85549179D01*
X87929737Y-85403497D01*
X87960500Y-85248842D01*
X87960500Y-85091158D01*
X87960500Y-85091155D01*
X87960499Y-85091153D01*
X87929739Y-84936511D01*
X87929738Y-84936508D01*
X87929737Y-84936503D01*
X87919937Y-84912844D01*
X87910500Y-84865396D01*
X87910500Y-83521153D01*
X92619500Y-83521153D01*
X92619500Y-83678846D01*
X92650261Y-83833489D01*
X92650264Y-83833501D01*
X92710602Y-83979172D01*
X92710609Y-83979185D01*
X92798210Y-84110288D01*
X92798213Y-84110292D01*
X92909707Y-84221786D01*
X92909711Y-84221789D01*
X93040814Y-84309390D01*
X93040827Y-84309397D01*
X93186498Y-84369735D01*
X93186503Y-84369737D01*
X93341153Y-84400499D01*
X93341156Y-84400500D01*
X93341158Y-84400500D01*
X93498844Y-84400500D01*
X93498845Y-84400499D01*
X93653497Y-84369737D01*
X93799179Y-84309394D01*
X93930289Y-84221789D01*
X94041789Y-84110289D01*
X94129394Y-83979179D01*
X94189737Y-83833497D01*
X94220500Y-83678842D01*
X94220500Y-83521158D01*
X94220500Y-83521155D01*
X94220499Y-83521153D01*
X94189738Y-83366510D01*
X94189737Y-83366503D01*
X94189735Y-83366498D01*
X94129397Y-83220827D01*
X94129390Y-83220814D01*
X94041789Y-83089711D01*
X94041786Y-83089707D01*
X93930292Y-82978213D01*
X93930288Y-82978210D01*
X93799185Y-82890609D01*
X93799172Y-82890602D01*
X93653501Y-82830264D01*
X93653489Y-82830261D01*
X93498845Y-82799500D01*
X93498842Y-82799500D01*
X93341158Y-82799500D01*
X93341155Y-82799500D01*
X93186510Y-82830261D01*
X93186498Y-82830264D01*
X93040827Y-82890602D01*
X93040814Y-82890609D01*
X92909711Y-82978210D01*
X92909707Y-82978213D01*
X92798213Y-83089707D01*
X92798210Y-83089711D01*
X92710609Y-83220814D01*
X92710602Y-83220827D01*
X92650264Y-83366498D01*
X92650261Y-83366510D01*
X92619500Y-83521153D01*
X87910500Y-83521153D01*
X87910500Y-79254500D01*
X87913011Y-79245948D01*
X87911723Y-79237130D01*
X87922702Y-79212944D01*
X87930185Y-79187461D01*
X87936919Y-79181625D01*
X87940604Y-79173509D01*
X87962918Y-79159096D01*
X87982989Y-79141706D01*
X87993357Y-79139438D01*
X87999297Y-79135602D01*
X88033670Y-79130620D01*
X88034220Y-79130500D01*
X88138842Y-79130500D01*
X88140042Y-79130261D01*
X88147235Y-79130245D01*
X88175280Y-79138411D01*
X88203973Y-79143844D01*
X88210668Y-79148715D01*
X88214319Y-79149779D01*
X88218102Y-79154125D01*
X88235196Y-79166564D01*
X88614786Y-79546153D01*
X88722048Y-79653415D01*
X88722049Y-79653416D01*
X88826584Y-79757951D01*
X88826585Y-79757952D01*
X88949498Y-79840080D01*
X88949511Y-79840087D01*
X89086082Y-79896656D01*
X89086087Y-79896658D01*
X89086091Y-79896658D01*
X89086092Y-79896659D01*
X89231079Y-79925500D01*
X89231082Y-79925500D01*
X91771406Y-79925500D01*
X91838445Y-79945185D01*
X91841901Y-79947488D01*
X91851141Y-79953873D01*
X91856220Y-79958952D01*
X91923909Y-80004179D01*
X91979141Y-80041084D01*
X91979143Y-80041085D01*
X91979147Y-80041087D01*
X92115718Y-80097656D01*
X92115723Y-80097658D01*
X92115727Y-80097658D01*
X92115728Y-80097659D01*
X92260715Y-80126500D01*
X92260718Y-80126500D01*
X92989284Y-80126500D01*
X93086826Y-80107096D01*
X93134277Y-80097658D01*
X93270859Y-80041084D01*
X93326091Y-80004179D01*
X93393780Y-79958952D01*
X93398858Y-79953873D01*
X93408099Y-79947488D01*
X93431035Y-79939910D01*
X93452236Y-79928334D01*
X93472752Y-79926128D01*
X93474442Y-79925570D01*
X93475473Y-79925835D01*
X93478594Y-79925500D01*
X93525162Y-79925500D01*
X93592201Y-79945185D01*
X93637956Y-79997989D01*
X93639722Y-80002046D01*
X93640604Y-80004175D01*
X93640607Y-80004182D01*
X93728210Y-80135288D01*
X93728213Y-80135292D01*
X93839707Y-80246786D01*
X93839711Y-80246789D01*
X93970814Y-80334390D01*
X93970827Y-80334397D01*
X94116498Y-80394735D01*
X94116503Y-80394737D01*
X94271153Y-80425499D01*
X94271156Y-80425500D01*
X94271158Y-80425500D01*
X94428844Y-80425500D01*
X94428845Y-80425499D01*
X94583497Y-80394737D01*
X94729179Y-80334394D01*
X94860289Y-80246789D01*
X94971789Y-80135289D01*
X95059394Y-80004179D01*
X95119737Y-79858497D01*
X95150500Y-79703842D01*
X95150500Y-79546158D01*
X95150500Y-79546155D01*
X95150499Y-79546153D01*
X95119738Y-79391510D01*
X95119737Y-79391503D01*
X95059447Y-79245948D01*
X95059397Y-79245827D01*
X95059390Y-79245814D01*
X94971789Y-79114711D01*
X94971786Y-79114707D01*
X94860292Y-79003213D01*
X94860288Y-79003210D01*
X94729182Y-78915607D01*
X94705522Y-78905807D01*
X94665296Y-78878929D01*
X94378416Y-78592048D01*
X94378415Y-78592047D01*
X94378414Y-78592046D01*
X94304729Y-78542812D01*
X94304729Y-78542813D01*
X94255491Y-78509913D01*
X94118917Y-78453343D01*
X94118907Y-78453340D01*
X93973920Y-78424500D01*
X93973918Y-78424500D01*
X93042446Y-78424500D01*
X93042444Y-78424500D01*
X92897456Y-78453340D01*
X92897450Y-78453342D01*
X92760872Y-78509914D01*
X92760860Y-78509921D01*
X92711633Y-78542813D01*
X92711631Y-78542814D01*
X92693886Y-78554670D01*
X92627208Y-78575546D01*
X92559829Y-78557059D01*
X92556109Y-78554669D01*
X92538365Y-78542813D01*
X92489127Y-78509913D01*
X92352553Y-78453343D01*
X92352543Y-78453340D01*
X92207556Y-78424500D01*
X92207554Y-78424500D01*
X89667229Y-78424500D01*
X89600190Y-78404815D01*
X89579548Y-78388181D01*
X88938421Y-77747052D01*
X88938414Y-77747046D01*
X88864729Y-77697812D01*
X88864729Y-77697813D01*
X88815491Y-77664913D01*
X88678917Y-77608343D01*
X88678907Y-77608340D01*
X88533920Y-77579500D01*
X88533918Y-77579500D01*
X88364604Y-77579500D01*
X88317155Y-77570062D01*
X88293497Y-77560263D01*
X88293493Y-77560262D01*
X88293488Y-77560260D01*
X88138845Y-77529500D01*
X88138842Y-77529500D01*
X87981158Y-77529500D01*
X87981155Y-77529500D01*
X87826510Y-77560261D01*
X87826498Y-77560264D01*
X87680827Y-77620602D01*
X87680814Y-77620609D01*
X87549711Y-77708210D01*
X87549707Y-77708213D01*
X87438217Y-77819704D01*
X87438212Y-77819709D01*
X87435181Y-77824246D01*
X87381567Y-77869050D01*
X87312242Y-77877755D01*
X87249215Y-77847598D01*
X87244400Y-77843033D01*
X86930867Y-77529500D01*
X86556071Y-77154703D01*
X86529191Y-77114475D01*
X86519394Y-77090821D01*
X86519389Y-77090814D01*
X86431789Y-76959710D01*
X86320292Y-76848213D01*
X86320288Y-76848210D01*
X86189185Y-76760609D01*
X86189172Y-76760602D01*
X86043501Y-76700264D01*
X86043489Y-76700261D01*
X85888845Y-76669500D01*
X85888842Y-76669500D01*
X85731158Y-76669500D01*
X85731155Y-76669500D01*
X85576510Y-76700261D01*
X85576498Y-76700264D01*
X85430827Y-76760602D01*
X85430814Y-76760609D01*
X85299711Y-76848210D01*
X85299707Y-76848213D01*
X85188213Y-76959707D01*
X85188210Y-76959711D01*
X85100609Y-77090814D01*
X85100602Y-77090827D01*
X85040264Y-77236498D01*
X85040261Y-77236510D01*
X85009500Y-77391153D01*
X85009500Y-77548846D01*
X85040261Y-77703489D01*
X85040264Y-77703501D01*
X85100602Y-77849172D01*
X85100609Y-77849185D01*
X85188210Y-77980288D01*
X85188213Y-77980292D01*
X85299710Y-78091789D01*
X85430815Y-78179390D01*
X85430821Y-78179394D01*
X85454475Y-78189191D01*
X85494703Y-78216071D01*
X86373181Y-79094548D01*
X86406666Y-79155871D01*
X86409500Y-79182229D01*
X86409500Y-84865396D01*
X86400062Y-84912844D01*
X86390263Y-84936503D01*
X86390262Y-84936506D01*
X86390260Y-84936511D01*
X86359500Y-85091153D01*
X86359500Y-85248846D01*
X86390261Y-85403489D01*
X86390264Y-85403501D01*
X86450602Y-85549172D01*
X86450612Y-85549190D01*
X86531979Y-85670965D01*
X86552857Y-85737642D01*
X86534372Y-85805022D01*
X86501763Y-85840173D01*
X86440209Y-85884894D01*
X86289890Y-86035213D01*
X86164949Y-86207182D01*
X86160484Y-86215946D01*
X86112509Y-86266742D01*
X86044688Y-86283536D01*
X85978553Y-86260998D01*
X85939516Y-86215946D01*
X85935050Y-86207182D01*
X85810109Y-86035213D01*
X85659786Y-85884890D01*
X85487820Y-85759951D01*
X85298414Y-85663444D01*
X85298413Y-85663443D01*
X85298412Y-85663443D01*
X85096243Y-85597754D01*
X85096241Y-85597753D01*
X85096240Y-85597753D01*
X84934957Y-85572208D01*
X84886287Y-85564500D01*
X84673713Y-85564500D01*
X84625042Y-85572208D01*
X84463760Y-85597753D01*
X84261585Y-85663444D01*
X84072179Y-85759951D01*
X83900215Y-85884889D01*
X83786285Y-85998819D01*
X83724962Y-86032303D01*
X83655270Y-86027319D01*
X83599337Y-85985447D01*
X83582422Y-85954470D01*
X83533354Y-85822913D01*
X83533350Y-85822906D01*
X83447190Y-85707812D01*
X83447187Y-85707809D01*
X83332093Y-85621649D01*
X83332086Y-85621645D01*
X83197379Y-85571403D01*
X83197372Y-85571401D01*
X83137844Y-85565000D01*
X82490000Y-85565000D01*
X82490000Y-86481988D01*
X82432993Y-86449075D01*
X82305826Y-86415000D01*
X82174174Y-86415000D01*
X82047007Y-86449075D01*
X81990000Y-86481988D01*
X81990000Y-85565000D01*
X81342155Y-85565000D01*
X81282627Y-85571401D01*
X81282619Y-85571403D01*
X81147833Y-85621675D01*
X81078141Y-85626659D01*
X81016818Y-85593174D01*
X80983334Y-85531850D01*
X80980500Y-85505493D01*
X80980500Y-80951153D01*
X83019500Y-80951153D01*
X83019500Y-81108846D01*
X83050261Y-81263489D01*
X83050264Y-81263501D01*
X83110602Y-81409172D01*
X83110609Y-81409185D01*
X83198210Y-81540288D01*
X83198213Y-81540292D01*
X83309707Y-81651786D01*
X83309711Y-81651789D01*
X83440814Y-81739390D01*
X83440827Y-81739397D01*
X83586498Y-81799735D01*
X83586503Y-81799737D01*
X83741153Y-81830499D01*
X83741156Y-81830500D01*
X83741158Y-81830500D01*
X83898844Y-81830500D01*
X83898845Y-81830499D01*
X84053497Y-81799737D01*
X84199179Y-81739394D01*
X84330289Y-81651789D01*
X84441789Y-81540289D01*
X84529394Y-81409179D01*
X84589737Y-81263497D01*
X84620500Y-81108842D01*
X84620500Y-80951158D01*
X84620500Y-80951155D01*
X84620499Y-80951153D01*
X84604001Y-80868213D01*
X84589737Y-80796503D01*
X84558157Y-80720261D01*
X84529397Y-80650827D01*
X84529390Y-80650814D01*
X84441789Y-80519711D01*
X84441786Y-80519707D01*
X84330292Y-80408213D01*
X84330288Y-80408210D01*
X84199185Y-80320609D01*
X84199172Y-80320602D01*
X84053501Y-80260264D01*
X84053489Y-80260261D01*
X83898845Y-80229500D01*
X83898842Y-80229500D01*
X83741158Y-80229500D01*
X83741155Y-80229500D01*
X83586510Y-80260261D01*
X83586498Y-80260264D01*
X83440827Y-80320602D01*
X83440814Y-80320609D01*
X83309711Y-80408210D01*
X83309707Y-80408213D01*
X83198213Y-80519707D01*
X83198210Y-80519711D01*
X83110609Y-80650814D01*
X83110602Y-80650827D01*
X83050264Y-80796498D01*
X83050261Y-80796510D01*
X83019500Y-80951153D01*
X80980500Y-80951153D01*
X80980500Y-73194508D01*
X81000185Y-73127469D01*
X81052989Y-73081714D01*
X81114230Y-73070890D01*
X81124728Y-73071716D01*
X81757037Y-72439408D01*
X81774075Y-72502993D01*
X81839901Y-72617007D01*
X81932993Y-72710099D01*
X82047007Y-72775925D01*
X82110590Y-72792962D01*
X81478282Y-73425269D01*
X81478282Y-73425270D01*
X81532449Y-73464624D01*
X81721782Y-73561095D01*
X81923869Y-73626757D01*
X81923873Y-73626758D01*
X82011258Y-73640598D01*
X82074393Y-73670527D01*
X82111325Y-73729838D01*
X82110327Y-73799700D01*
X82071718Y-73857933D01*
X82048157Y-73873555D01*
X81963569Y-73916655D01*
X81868028Y-73986070D01*
X81772490Y-74055483D01*
X81772488Y-74055485D01*
X81772487Y-74055485D01*
X81605485Y-74222487D01*
X81605485Y-74222488D01*
X81605483Y-74222490D01*
X81545862Y-74304550D01*
X81466657Y-74413566D01*
X81359433Y-74624003D01*
X81286446Y-74848631D01*
X81249500Y-75081902D01*
X81249500Y-75318097D01*
X81286446Y-75551368D01*
X81359433Y-75775996D01*
X81438872Y-75931902D01*
X81466657Y-75986433D01*
X81605483Y-76177510D01*
X81772490Y-76344517D01*
X81963567Y-76483343D01*
X82062991Y-76534002D01*
X82174003Y-76590566D01*
X82174005Y-76590566D01*
X82174008Y-76590568D01*
X82283032Y-76625992D01*
X82398631Y-76663553D01*
X82631903Y-76700500D01*
X82631908Y-76700500D01*
X82868097Y-76700500D01*
X83101368Y-76663553D01*
X83325992Y-76590568D01*
X83536433Y-76483343D01*
X83727510Y-76344517D01*
X83894517Y-76177510D01*
X84033343Y-75986433D01*
X84140568Y-75775992D01*
X84213553Y-75551368D01*
X84225806Y-75474008D01*
X84250500Y-75318097D01*
X84250500Y-75081902D01*
X84213553Y-74848631D01*
X84140566Y-74624003D01*
X84033342Y-74413566D01*
X83894517Y-74222490D01*
X83727510Y-74055483D01*
X83536433Y-73916657D01*
X83451841Y-73873555D01*
X83325996Y-73809433D01*
X83101369Y-73736447D01*
X82953985Y-73713103D01*
X82890851Y-73683173D01*
X82853920Y-73623862D01*
X82854918Y-73553999D01*
X82893528Y-73495767D01*
X82917091Y-73480144D01*
X82947554Y-73464622D01*
X83001716Y-73425270D01*
X83001717Y-73425270D01*
X82369408Y-72792962D01*
X82432993Y-72775925D01*
X82547007Y-72710099D01*
X82640099Y-72617007D01*
X82705925Y-72502993D01*
X82722962Y-72439408D01*
X83355270Y-73071717D01*
X83355270Y-73071716D01*
X83366577Y-73056153D01*
X88149500Y-73056153D01*
X88149500Y-73213846D01*
X88180261Y-73368489D01*
X88180264Y-73368501D01*
X88240602Y-73514172D01*
X88240609Y-73514185D01*
X88328210Y-73645288D01*
X88328213Y-73645292D01*
X88439707Y-73756786D01*
X88439711Y-73756789D01*
X88570814Y-73844390D01*
X88570827Y-73844397D01*
X88641222Y-73873555D01*
X88716503Y-73904737D01*
X88871153Y-73935499D01*
X88871156Y-73935500D01*
X88871158Y-73935500D01*
X89028844Y-73935500D01*
X89028845Y-73935499D01*
X89183497Y-73904737D01*
X89329179Y-73844394D01*
X89460289Y-73756789D01*
X89571789Y-73645289D01*
X89659394Y-73514179D01*
X89719737Y-73368497D01*
X89750500Y-73213842D01*
X89750500Y-73056158D01*
X89750500Y-73050066D01*
X89753209Y-73050066D01*
X89764049Y-72992906D01*
X89812113Y-72942195D01*
X89879964Y-72925519D01*
X89921884Y-72934834D01*
X90066503Y-72994737D01*
X90221153Y-73025499D01*
X90221156Y-73025500D01*
X90221158Y-73025500D01*
X90378844Y-73025500D01*
X90378845Y-73025499D01*
X90533497Y-72994737D01*
X90660346Y-72942195D01*
X90679172Y-72934397D01*
X90679172Y-72934396D01*
X90679179Y-72934394D01*
X90810289Y-72846789D01*
X90921789Y-72735289D01*
X91009394Y-72604179D01*
X91069737Y-72458497D01*
X91100500Y-72303842D01*
X91100500Y-72146158D01*
X91100500Y-72146155D01*
X91100499Y-72146153D01*
X91080486Y-72045542D01*
X91069737Y-71991503D01*
X91009394Y-71845821D01*
X90946397Y-71751539D01*
X90925520Y-71684863D01*
X90925500Y-71682650D01*
X90925500Y-70435452D01*
X90945185Y-70368413D01*
X90961819Y-70347771D01*
X91056553Y-70253037D01*
X91153864Y-70155725D01*
X91166948Y-70144356D01*
X91169733Y-70142258D01*
X91230264Y-70101814D01*
X91251053Y-70081024D01*
X91257997Y-70075796D01*
X91282884Y-70066433D01*
X91306226Y-70053687D01*
X91315082Y-70054320D01*
X91323392Y-70051194D01*
X91349391Y-70056773D01*
X91375917Y-70058670D01*
X91383025Y-70063990D01*
X91391707Y-70065854D01*
X91410564Y-70084605D01*
X91431852Y-70100540D01*
X91435689Y-70105962D01*
X91459461Y-70141539D01*
X91459464Y-70141543D01*
X91570958Y-70253037D01*
X91570962Y-70253040D01*
X91702065Y-70340641D01*
X91702078Y-70340648D01*
X91769110Y-70368413D01*
X91847754Y-70400988D01*
X92002404Y-70431750D01*
X92002407Y-70431751D01*
X92002409Y-70431751D01*
X92160095Y-70431751D01*
X92160096Y-70431750D01*
X92314748Y-70400988D01*
X92460430Y-70340645D01*
X92591540Y-70253040D01*
X92703040Y-70141540D01*
X92790645Y-70010430D01*
X92850988Y-69864748D01*
X92881751Y-69710093D01*
X92881751Y-69552409D01*
X92881751Y-69552406D01*
X92881750Y-69552404D01*
X92871123Y-69498979D01*
X92850988Y-69397754D01*
X92800570Y-69276033D01*
X92790648Y-69252078D01*
X92790641Y-69252065D01*
X92703040Y-69120962D01*
X92703037Y-69120958D01*
X92591543Y-69009464D01*
X92591539Y-69009461D01*
X92460436Y-68921860D01*
X92460423Y-68921853D01*
X92314752Y-68861515D01*
X92314740Y-68861512D01*
X92160096Y-68830751D01*
X92160093Y-68830751D01*
X92002409Y-68830751D01*
X92002406Y-68830751D01*
X91847761Y-68861512D01*
X91847749Y-68861515D01*
X91702078Y-68921853D01*
X91702065Y-68921860D01*
X91570962Y-69009461D01*
X91556317Y-69024106D01*
X91494993Y-69057589D01*
X91425301Y-69052603D01*
X91369369Y-69010730D01*
X91365536Y-69005313D01*
X91341764Y-68969735D01*
X91230267Y-68858238D01*
X91230263Y-68858235D01*
X91099160Y-68770634D01*
X91099147Y-68770627D01*
X90953476Y-68710289D01*
X90953464Y-68710286D01*
X90798820Y-68679525D01*
X90798817Y-68679525D01*
X90641133Y-68679525D01*
X90641130Y-68679525D01*
X90486485Y-68710286D01*
X90486473Y-68710289D01*
X90340802Y-68770627D01*
X90340789Y-68770634D01*
X90209686Y-68858235D01*
X90209682Y-68858238D01*
X90098188Y-68969732D01*
X90098185Y-68969736D01*
X90010584Y-69100839D01*
X90010577Y-69100852D01*
X89950239Y-69246523D01*
X89950236Y-69246535D01*
X89919475Y-69401178D01*
X89919475Y-69564958D01*
X89917787Y-69564958D01*
X89913256Y-69588825D01*
X89908591Y-69620870D01*
X89906641Y-69623672D01*
X89906263Y-69625667D01*
X89889456Y-69650527D01*
X89886614Y-69653794D01*
X89814142Y-69726267D01*
X89787172Y-69766631D01*
X89782808Y-69773160D01*
X89782799Y-69773172D01*
X89745690Y-69828709D01*
X89745688Y-69828713D01*
X89745688Y-69828714D01*
X89721348Y-69887477D01*
X89698538Y-69942544D01*
X89698535Y-69942556D01*
X89674500Y-70063389D01*
X89674500Y-71682650D01*
X89654815Y-71749689D01*
X89653602Y-71751541D01*
X89590609Y-71845815D01*
X89590602Y-71845828D01*
X89530264Y-71991498D01*
X89530261Y-71991510D01*
X89499500Y-72146153D01*
X89499500Y-72309934D01*
X89496821Y-72309934D01*
X89485875Y-72367240D01*
X89437743Y-72417887D01*
X89369870Y-72434472D01*
X89328113Y-72425164D01*
X89183501Y-72365264D01*
X89183489Y-72365261D01*
X89028845Y-72334500D01*
X89028842Y-72334500D01*
X88871158Y-72334500D01*
X88871155Y-72334500D01*
X88716510Y-72365261D01*
X88716498Y-72365264D01*
X88570827Y-72425602D01*
X88570814Y-72425609D01*
X88439711Y-72513210D01*
X88439707Y-72513213D01*
X88328213Y-72624707D01*
X88328210Y-72624711D01*
X88240609Y-72755814D01*
X88240602Y-72755827D01*
X88180264Y-72901498D01*
X88180261Y-72901510D01*
X88149500Y-73056153D01*
X83366577Y-73056153D01*
X83394622Y-73017554D01*
X83406741Y-72993771D01*
X83491095Y-72828217D01*
X83556757Y-72626130D01*
X83556757Y-72626127D01*
X83590000Y-72416246D01*
X83590000Y-72203753D01*
X83556757Y-71993872D01*
X83556757Y-71993869D01*
X83491095Y-71791782D01*
X83394624Y-71602449D01*
X83355270Y-71548282D01*
X83355269Y-71548282D01*
X82722962Y-72180590D01*
X82705925Y-72117007D01*
X82640099Y-72002993D01*
X82547007Y-71909901D01*
X82432993Y-71844075D01*
X82369409Y-71827037D01*
X82900292Y-71296153D01*
X84574500Y-71296153D01*
X84574500Y-71453846D01*
X84605261Y-71608489D01*
X84605264Y-71608501D01*
X84665602Y-71754172D01*
X84665609Y-71754185D01*
X84753210Y-71885288D01*
X84753213Y-71885292D01*
X84864707Y-71996786D01*
X84864711Y-71996789D01*
X84995814Y-72084390D01*
X84995827Y-72084397D01*
X85074556Y-72117007D01*
X85141503Y-72144737D01*
X85296153Y-72175499D01*
X85296156Y-72175500D01*
X85296158Y-72175500D01*
X85453844Y-72175500D01*
X85453845Y-72175499D01*
X85608497Y-72144737D01*
X85754179Y-72084394D01*
X85885289Y-71996789D01*
X85996789Y-71885289D01*
X86084394Y-71754179D01*
X86144737Y-71608497D01*
X86175500Y-71453842D01*
X86175500Y-71296158D01*
X86175500Y-71296155D01*
X86175499Y-71296153D01*
X86147497Y-71155380D01*
X86144737Y-71141503D01*
X86136037Y-71120500D01*
X86084397Y-70995827D01*
X86084390Y-70995814D01*
X85996789Y-70864711D01*
X85996786Y-70864707D01*
X85885292Y-70753213D01*
X85885288Y-70753210D01*
X85754185Y-70665609D01*
X85754172Y-70665602D01*
X85608501Y-70605264D01*
X85608489Y-70605261D01*
X85453845Y-70574500D01*
X85453842Y-70574500D01*
X85296158Y-70574500D01*
X85296155Y-70574500D01*
X85141510Y-70605261D01*
X85141498Y-70605264D01*
X84995827Y-70665602D01*
X84995814Y-70665609D01*
X84864711Y-70753210D01*
X84864707Y-70753213D01*
X84753213Y-70864707D01*
X84753210Y-70864711D01*
X84665609Y-70995814D01*
X84665602Y-70995827D01*
X84605264Y-71141498D01*
X84605261Y-71141510D01*
X84574500Y-71296153D01*
X82900292Y-71296153D01*
X82994060Y-71202385D01*
X83001716Y-71194728D01*
X82947547Y-71155373D01*
X82947547Y-71155372D01*
X82938500Y-71150763D01*
X82887706Y-71102788D01*
X82870912Y-71034966D01*
X82893451Y-70968832D01*
X82938508Y-70929793D01*
X82947816Y-70925051D01*
X83027007Y-70867515D01*
X83119786Y-70800109D01*
X83119788Y-70800106D01*
X83119792Y-70800104D01*
X83270104Y-70649792D01*
X83270106Y-70649788D01*
X83270109Y-70649786D01*
X83395048Y-70477820D01*
X83395047Y-70477820D01*
X83395051Y-70477816D01*
X83491557Y-70288412D01*
X83557246Y-70086243D01*
X83590500Y-69876287D01*
X83590500Y-69663713D01*
X83575382Y-69568268D01*
X83584336Y-69498979D01*
X83610171Y-69461195D01*
X86440452Y-66630915D01*
X86478980Y-66573253D01*
X86522584Y-66507995D01*
X86563382Y-66409500D01*
X86579159Y-66371412D01*
X86608000Y-66226417D01*
X86608000Y-66078582D01*
X86608000Y-65254604D01*
X86617439Y-65207151D01*
X86620002Y-65200963D01*
X86627237Y-65183497D01*
X86658000Y-65028842D01*
X86658000Y-64871158D01*
X86658000Y-64871155D01*
X86657999Y-64871153D01*
X86627238Y-64716510D01*
X86627237Y-64716503D01*
X86572234Y-64583713D01*
X86566897Y-64570827D01*
X86566890Y-64570814D01*
X86479289Y-64439711D01*
X86479286Y-64439707D01*
X86367792Y-64328213D01*
X86367788Y-64328210D01*
X86236685Y-64240609D01*
X86236672Y-64240602D01*
X86091001Y-64180264D01*
X86090989Y-64180261D01*
X85936345Y-64149500D01*
X85936342Y-64149500D01*
X85778658Y-64149500D01*
X85778655Y-64149500D01*
X85624010Y-64180261D01*
X85623998Y-64180264D01*
X85478327Y-64240602D01*
X85478314Y-64240609D01*
X85347211Y-64328210D01*
X85347207Y-64328213D01*
X85235713Y-64439707D01*
X85235710Y-64439711D01*
X85148109Y-64570814D01*
X85148102Y-64570827D01*
X85087764Y-64716498D01*
X85087761Y-64716510D01*
X85057000Y-64871153D01*
X85057000Y-65028846D01*
X85087761Y-65183489D01*
X85087763Y-65183497D01*
X85097561Y-65207151D01*
X85107000Y-65254604D01*
X85107000Y-65790269D01*
X85087315Y-65857308D01*
X85070681Y-65877950D01*
X84624086Y-66324545D01*
X84562763Y-66358030D01*
X84493071Y-66353046D01*
X84437138Y-66311174D01*
X84412721Y-66245710D01*
X84421844Y-66189411D01*
X84477001Y-66056250D01*
X84507764Y-65901595D01*
X84507764Y-65743911D01*
X84507764Y-65743908D01*
X84507763Y-65743906D01*
X84477002Y-65589263D01*
X84477001Y-65589256D01*
X84466044Y-65562804D01*
X84416661Y-65443580D01*
X84416654Y-65443567D01*
X84329053Y-65312464D01*
X84329050Y-65312460D01*
X84217556Y-65200966D01*
X84217552Y-65200963D01*
X84086449Y-65113362D01*
X84086436Y-65113355D01*
X83940765Y-65053017D01*
X83940753Y-65053014D01*
X83786109Y-65022253D01*
X83786106Y-65022253D01*
X83699895Y-65022253D01*
X83632856Y-65002568D01*
X83587101Y-64949764D01*
X83577157Y-64880606D01*
X83577422Y-64878855D01*
X83578642Y-64871158D01*
X83590500Y-64796287D01*
X83590500Y-64583713D01*
X83557246Y-64373757D01*
X83491557Y-64171588D01*
X83395051Y-63982184D01*
X83395049Y-63982181D01*
X83395048Y-63982179D01*
X83270109Y-63810213D01*
X83156569Y-63696673D01*
X83123084Y-63635350D01*
X83128068Y-63565658D01*
X83169940Y-63509725D01*
X83200915Y-63492810D01*
X83332331Y-63443796D01*
X83447546Y-63357546D01*
X83533796Y-63242331D01*
X83584091Y-63107483D01*
X83590500Y-63047873D01*
X83590499Y-62546153D01*
X86699500Y-62546153D01*
X86699500Y-62703846D01*
X86730261Y-62858489D01*
X86730264Y-62858501D01*
X86790602Y-63004172D01*
X86790609Y-63004185D01*
X86878210Y-63135288D01*
X86878213Y-63135292D01*
X86989707Y-63246786D01*
X86989711Y-63246789D01*
X87120814Y-63334390D01*
X87120827Y-63334397D01*
X87266498Y-63394735D01*
X87266503Y-63394737D01*
X87421153Y-63425499D01*
X87421156Y-63425500D01*
X87421158Y-63425500D01*
X87578844Y-63425500D01*
X87578845Y-63425499D01*
X87733497Y-63394737D01*
X87879179Y-63334394D01*
X88010289Y-63246789D01*
X88121789Y-63135289D01*
X88209394Y-63004179D01*
X88269737Y-62858497D01*
X88300500Y-62703842D01*
X88300500Y-62546158D01*
X88300500Y-62546155D01*
X88300499Y-62546153D01*
X88299288Y-62540066D01*
X88269737Y-62391503D01*
X88269735Y-62391498D01*
X88209397Y-62245827D01*
X88209390Y-62245814D01*
X88121789Y-62114711D01*
X88121786Y-62114707D01*
X88010292Y-62003213D01*
X88010288Y-62003210D01*
X87879185Y-61915609D01*
X87879172Y-61915602D01*
X87733501Y-61855264D01*
X87733489Y-61855261D01*
X87578845Y-61824500D01*
X87578842Y-61824500D01*
X87421158Y-61824500D01*
X87421155Y-61824500D01*
X87266510Y-61855261D01*
X87266498Y-61855264D01*
X87120827Y-61915602D01*
X87120814Y-61915609D01*
X86989711Y-62003210D01*
X86989707Y-62003213D01*
X86878213Y-62114707D01*
X86878210Y-62114711D01*
X86790609Y-62245814D01*
X86790602Y-62245827D01*
X86730264Y-62391498D01*
X86730261Y-62391510D01*
X86699500Y-62546153D01*
X83590499Y-62546153D01*
X83590499Y-62114711D01*
X83590499Y-61252129D01*
X83590498Y-61252123D01*
X83590497Y-61252116D01*
X83584091Y-61192517D01*
X83539749Y-61073631D01*
X83533797Y-61057671D01*
X83533793Y-61057664D01*
X83447547Y-60942455D01*
X83447544Y-60942452D01*
X83332335Y-60856206D01*
X83332328Y-60856202D01*
X83197482Y-60805908D01*
X83197483Y-60805908D01*
X83137883Y-60799501D01*
X83137881Y-60799500D01*
X83137873Y-60799500D01*
X83137864Y-60799500D01*
X81342129Y-60799500D01*
X81342123Y-60799501D01*
X81282516Y-60805908D01*
X81147833Y-60856142D01*
X81078141Y-60861126D01*
X81016818Y-60827641D01*
X80983334Y-60766317D01*
X80980500Y-60739960D01*
X80980500Y-57846153D01*
X85749500Y-57846153D01*
X85749500Y-58003846D01*
X85780261Y-58158489D01*
X85780264Y-58158501D01*
X85840602Y-58304172D01*
X85840609Y-58304185D01*
X85928210Y-58435288D01*
X85928213Y-58435292D01*
X86039707Y-58546786D01*
X86039711Y-58546789D01*
X86170814Y-58634390D01*
X86170827Y-58634397D01*
X86316498Y-58694735D01*
X86316503Y-58694737D01*
X86471153Y-58725499D01*
X86471156Y-58725500D01*
X86471158Y-58725500D01*
X86628844Y-58725500D01*
X86628845Y-58725499D01*
X86783497Y-58694737D01*
X86929179Y-58634394D01*
X87023459Y-58571398D01*
X87090136Y-58550520D01*
X87092350Y-58550500D01*
X87364548Y-58550500D01*
X87431587Y-58570185D01*
X87452229Y-58586819D01*
X89713529Y-60848120D01*
X89747014Y-60909443D01*
X89743779Y-60974118D01*
X89711447Y-61073628D01*
X89674500Y-61306902D01*
X89674500Y-61543097D01*
X89711446Y-61776368D01*
X89784433Y-62000996D01*
X89891657Y-62211433D01*
X90030483Y-62402510D01*
X90197490Y-62569517D01*
X90388567Y-62708343D01*
X90487991Y-62759002D01*
X90599003Y-62815566D01*
X90599005Y-62815566D01*
X90599008Y-62815568D01*
X90719412Y-62854689D01*
X90823631Y-62888553D01*
X91056903Y-62925500D01*
X91056908Y-62925500D01*
X91293097Y-62925500D01*
X91526368Y-62888553D01*
X91750992Y-62815568D01*
X91961433Y-62708343D01*
X92152510Y-62569517D01*
X92319517Y-62402510D01*
X92458343Y-62211433D01*
X92565568Y-62000992D01*
X92638553Y-61776368D01*
X92675500Y-61543097D01*
X92675500Y-61306902D01*
X92638553Y-61073631D01*
X92595931Y-60942455D01*
X92565568Y-60849008D01*
X92565566Y-60849005D01*
X92565566Y-60849003D01*
X92458342Y-60638566D01*
X92319517Y-60447490D01*
X92152510Y-60280483D01*
X91961433Y-60141657D01*
X91750996Y-60034433D01*
X91526368Y-59961446D01*
X91293097Y-59924500D01*
X91293092Y-59924500D01*
X91056908Y-59924500D01*
X91056903Y-59924500D01*
X90823628Y-59961447D01*
X90724118Y-59993779D01*
X90654276Y-59995774D01*
X90598120Y-59963529D01*
X88170822Y-57536232D01*
X88160859Y-57526269D01*
X88160858Y-57526267D01*
X88073733Y-57439142D01*
X88022509Y-57404915D01*
X87971286Y-57370688D01*
X87971283Y-57370686D01*
X87971280Y-57370685D01*
X87897603Y-57340168D01*
X87897601Y-57340167D01*
X87890792Y-57337347D01*
X87857452Y-57323537D01*
X87797029Y-57311518D01*
X87792306Y-57310578D01*
X87792304Y-57310578D01*
X87736610Y-57299500D01*
X87736607Y-57299500D01*
X87736606Y-57299500D01*
X87092350Y-57299500D01*
X87025311Y-57279815D01*
X87023459Y-57278602D01*
X86929184Y-57215609D01*
X86929172Y-57215602D01*
X86783501Y-57155264D01*
X86783489Y-57155261D01*
X86628845Y-57124500D01*
X86628842Y-57124500D01*
X86471158Y-57124500D01*
X86471155Y-57124500D01*
X86316510Y-57155261D01*
X86316498Y-57155264D01*
X86170827Y-57215602D01*
X86170814Y-57215609D01*
X86039711Y-57303210D01*
X86039707Y-57303213D01*
X85928213Y-57414707D01*
X85928210Y-57414711D01*
X85840609Y-57545814D01*
X85840602Y-57545827D01*
X85780264Y-57691498D01*
X85780261Y-57691510D01*
X85749500Y-57846153D01*
X80980500Y-57846153D01*
X80980500Y-54054500D01*
X81000185Y-53987461D01*
X81052989Y-53941706D01*
X81104500Y-53930500D01*
X96075500Y-53930500D01*
X96142539Y-53950185D01*
G37*
%TD.AperFunction*%
%TA.AperFunction,Conductor*%
G36*
X81185703Y-70621976D02*
G01*
X81204819Y-70642804D01*
X81209896Y-70649792D01*
X81360213Y-70800109D01*
X81532179Y-70925048D01*
X81532181Y-70925049D01*
X81532184Y-70925051D01*
X81541493Y-70929794D01*
X81592290Y-70977766D01*
X81609087Y-71045587D01*
X81586552Y-71111722D01*
X81541505Y-71150760D01*
X81532446Y-71155376D01*
X81532440Y-71155380D01*
X81478282Y-71194727D01*
X81478282Y-71194728D01*
X82110591Y-71827037D01*
X82047007Y-71844075D01*
X81932993Y-71909901D01*
X81839901Y-72002993D01*
X81774075Y-72117007D01*
X81757037Y-72180591D01*
X81124727Y-71548281D01*
X81114228Y-71549108D01*
X81045851Y-71534743D01*
X80996095Y-71485692D01*
X80980500Y-71425490D01*
X80980500Y-70715689D01*
X81000185Y-70648650D01*
X81052989Y-70602895D01*
X81122147Y-70592951D01*
X81185703Y-70621976D01*
G37*
%TD.AperFunction*%
%TD*%
M02*
