%TF.GenerationSoftware,KiCad,Pcbnew,9.0.2*%
%TF.CreationDate,2025-10-14T12:10:58+02:00*%
%TF.ProjectId,1p6V_to_m1p6V_bias_gum,31703656-5f74-46f5-9f6d-317036565f62,rev?*%
%TF.SameCoordinates,Original*%
%TF.FileFunction,Copper,L3,Inr*%
%TF.FilePolarity,Positive*%
%FSLAX46Y46*%
G04 Gerber Fmt 4.6, Leading zero omitted, Abs format (unit mm)*
G04 Created by KiCad (PCBNEW 9.0.2) date 2025-10-14 12:10:58*
%MOMM*%
%LPD*%
G01*
G04 APERTURE LIST*
%TA.AperFunction,ComponentPad*%
%ADD10C,2.000000*%
%TD*%
%TA.AperFunction,ComponentPad*%
%ADD11R,1.700000X1.700000*%
%TD*%
%TA.AperFunction,ComponentPad*%
%ADD12C,1.700000*%
%TD*%
%TA.AperFunction,ViaPad*%
%ADD13C,0.600000*%
%TD*%
%TA.AperFunction,Conductor*%
%ADD14C,0.500000*%
%TD*%
%TA.AperFunction,Conductor*%
%ADD15C,0.200000*%
%TD*%
G04 APERTURE END LIST*
D10*
%TO.N,/3.3VA*%
%TO.C,TP1*%
X82750000Y-75200000D03*
%TD*%
D11*
%TO.N,/5V*%
%TO.C,CG1*%
X82240000Y-62150000D03*
D12*
%TO.N,/3.3V*%
X82240000Y-64690000D03*
%TO.N,/SDA*%
X82240000Y-67230000D03*
%TO.N,/SCL*%
X82240000Y-69770000D03*
%TO.N,GND*%
X82240000Y-72310000D03*
D11*
%TO.N,/5V*%
X94940000Y-62150000D03*
D12*
%TO.N,unconnected-(CG1-VDDIO-PadB2)*%
X94940000Y-64690000D03*
%TO.N,/-5V*%
X94940000Y-67230000D03*
%TO.N,/enable*%
X94940000Y-69770000D03*
%TO.N,GND*%
X94940000Y-72310000D03*
D11*
X82240000Y-86915000D03*
D12*
%TO.N,/V_bias*%
X84780000Y-86915000D03*
X87320000Y-86915000D03*
%TO.N,/Vout_diff*%
X89860000Y-86915000D03*
%TO.N,/Vout_B*%
X92400000Y-86915000D03*
%TO.N,GND*%
X94940000Y-86915000D03*
%TD*%
D10*
%TO.N,/V_bias*%
%TO.C,TP4*%
X91175000Y-61425000D03*
%TD*%
%TO.N,/-3.3VA*%
%TO.C,TP2*%
X94450000Y-76050000D03*
%TD*%
D13*
%TO.N,GND*%
X90050000Y-75575000D03*
X83700000Y-64275000D03*
X85377500Y-58997500D03*
X93720000Y-85730000D03*
X95370000Y-58380000D03*
X92250000Y-74375000D03*
X86330000Y-69450000D03*
X81630000Y-59580000D03*
X90125000Y-82375000D03*
X95390000Y-59620000D03*
X93425000Y-63800000D03*
X95390000Y-55980000D03*
X81630000Y-57200000D03*
X87950000Y-66300000D03*
X81630000Y-55940000D03*
X93450000Y-60825000D03*
X92625000Y-78675000D03*
X81610000Y-58340000D03*
X95390000Y-57240000D03*
%TO.N,/enable*%
X95120000Y-81490000D03*
X90300000Y-72225000D03*
X90719975Y-69480025D03*
%TO.N,/5V*%
X88950000Y-73135000D03*
X93420000Y-83600000D03*
X87500000Y-62625000D03*
%TO.N,/-5V*%
X92081251Y-69631251D03*
%TO.N,/3.3VA*%
X88060000Y-78330000D03*
X94350000Y-79625000D03*
X85375000Y-71375000D03*
%TO.N,/V_bias*%
X86550000Y-57925000D03*
X83820000Y-81030000D03*
%TO.N,Net-(U1-FB)*%
X87160000Y-85170000D03*
X85810000Y-77470000D03*
%TO.N,/SCL*%
X85857500Y-64950000D03*
%TO.N,/SDA*%
X83707264Y-65822753D03*
%TD*%
D14*
%TO.N,/5V*%
X93420000Y-83600000D02*
X92875000Y-83600000D01*
X87500000Y-62625000D02*
X87025000Y-62150000D01*
X88950000Y-79675000D02*
X88950000Y-73135000D01*
X92875000Y-83600000D02*
X88950000Y-79675000D01*
X87025000Y-62150000D02*
X82240000Y-62150000D01*
D15*
%TO.N,/V_bias*%
X81081000Y-60919000D02*
X81081000Y-75100000D01*
X81081000Y-78291000D02*
X83820000Y-81030000D01*
X84075000Y-57925000D02*
X81081000Y-60919000D01*
X81081000Y-75100000D02*
X81125000Y-75100000D01*
X86550000Y-57925000D02*
X84075000Y-57925000D01*
X81081000Y-75100000D02*
X81081000Y-78291000D01*
%TD*%
%TA.AperFunction,Conductor*%
%TO.N,GND*%
G36*
X94474075Y-87107993D02*
G01*
X94539901Y-87222007D01*
X94632993Y-87315099D01*
X94747007Y-87380925D01*
X94810590Y-87397962D01*
X94178282Y-88030269D01*
X94179109Y-88040770D01*
X94164745Y-88109148D01*
X94115694Y-88158905D01*
X94055491Y-88174500D01*
X93345689Y-88174500D01*
X93278650Y-88154815D01*
X93232895Y-88102011D01*
X93222951Y-88032853D01*
X93251976Y-87969297D01*
X93272804Y-87950181D01*
X93279792Y-87945104D01*
X93430104Y-87794792D01*
X93430106Y-87794788D01*
X93430109Y-87794786D01*
X93506055Y-87690254D01*
X93555051Y-87622816D01*
X93559793Y-87613508D01*
X93607763Y-87562711D01*
X93675583Y-87545911D01*
X93741719Y-87568445D01*
X93780763Y-87613500D01*
X93785373Y-87622547D01*
X93824728Y-87676716D01*
X94457037Y-87044408D01*
X94474075Y-87107993D01*
G37*
%TD.AperFunction*%
%TA.AperFunction,Conductor*%
G36*
X96055269Y-87676716D02*
G01*
X96065770Y-87675890D01*
X96134148Y-87690254D01*
X96183905Y-87739305D01*
X96199500Y-87799508D01*
X96199500Y-88050500D01*
X96179815Y-88117539D01*
X96127011Y-88163294D01*
X96075500Y-88174500D01*
X95824509Y-88174500D01*
X95757470Y-88154815D01*
X95711715Y-88102011D01*
X95700891Y-88040772D01*
X95701717Y-88030270D01*
X95069408Y-87397962D01*
X95132993Y-87380925D01*
X95247007Y-87315099D01*
X95340099Y-87222007D01*
X95405925Y-87107993D01*
X95422962Y-87044408D01*
X96055269Y-87676716D01*
G37*
%TD.AperFunction*%
%TA.AperFunction,Conductor*%
G36*
X96142539Y-53950185D02*
G01*
X96188294Y-54002989D01*
X96199500Y-54054500D01*
X96199500Y-60739960D01*
X96179815Y-60806999D01*
X96127011Y-60852754D01*
X96057853Y-60862698D01*
X96032167Y-60856142D01*
X95897482Y-60805908D01*
X95897483Y-60805908D01*
X95837883Y-60799501D01*
X95837881Y-60799500D01*
X95837873Y-60799500D01*
X95837864Y-60799500D01*
X94042129Y-60799500D01*
X94042123Y-60799501D01*
X93982516Y-60805908D01*
X93847671Y-60856202D01*
X93847664Y-60856206D01*
X93732455Y-60942452D01*
X93732452Y-60942455D01*
X93646206Y-61057664D01*
X93646202Y-61057671D01*
X93595908Y-61192517D01*
X93589501Y-61252116D01*
X93589501Y-61252123D01*
X93589500Y-61252135D01*
X93589500Y-63047870D01*
X93589501Y-63047876D01*
X93595908Y-63107483D01*
X93646202Y-63242328D01*
X93646206Y-63242335D01*
X93732452Y-63357544D01*
X93732455Y-63357547D01*
X93847664Y-63443793D01*
X93847671Y-63443797D01*
X93979082Y-63492810D01*
X94035016Y-63534681D01*
X94059433Y-63600145D01*
X94044582Y-63668418D01*
X94023431Y-63696673D01*
X93909889Y-63810215D01*
X93784951Y-63982179D01*
X93688444Y-64171585D01*
X93622753Y-64373760D01*
X93589500Y-64583713D01*
X93589500Y-64796286D01*
X93615838Y-64962581D01*
X93622754Y-65006243D01*
X93657559Y-65113362D01*
X93688444Y-65208414D01*
X93784951Y-65397820D01*
X93909890Y-65569786D01*
X94060213Y-65720109D01*
X94232182Y-65845050D01*
X94240946Y-65849516D01*
X94291742Y-65897491D01*
X94308536Y-65965312D01*
X94285998Y-66031447D01*
X94240946Y-66070484D01*
X94232182Y-66074949D01*
X94060213Y-66199890D01*
X93909890Y-66350213D01*
X93784951Y-66522179D01*
X93688444Y-66711585D01*
X93622753Y-66913760D01*
X93589500Y-67123713D01*
X93589500Y-67336286D01*
X93622753Y-67546239D01*
X93688444Y-67748414D01*
X93784951Y-67937820D01*
X93909890Y-68109786D01*
X94060213Y-68260109D01*
X94232182Y-68385050D01*
X94240946Y-68389516D01*
X94291742Y-68437491D01*
X94308536Y-68505312D01*
X94285998Y-68571447D01*
X94240946Y-68610484D01*
X94232182Y-68614949D01*
X94060213Y-68739890D01*
X93909890Y-68890213D01*
X93784951Y-69062179D01*
X93688444Y-69251585D01*
X93622753Y-69453760D01*
X93589500Y-69663713D01*
X93589500Y-69876286D01*
X93617597Y-70053687D01*
X93622754Y-70086243D01*
X93685880Y-70280525D01*
X93688444Y-70288414D01*
X93784951Y-70477820D01*
X93909890Y-70649786D01*
X94060213Y-70800109D01*
X94232179Y-70925048D01*
X94232181Y-70925049D01*
X94232184Y-70925051D01*
X94241493Y-70929794D01*
X94292290Y-70977766D01*
X94309087Y-71045587D01*
X94286552Y-71111722D01*
X94241505Y-71150760D01*
X94232446Y-71155376D01*
X94232440Y-71155380D01*
X94178282Y-71194727D01*
X94178282Y-71194728D01*
X94810591Y-71827037D01*
X94747007Y-71844075D01*
X94632993Y-71909901D01*
X94539901Y-72002993D01*
X94474075Y-72117007D01*
X94457037Y-72180591D01*
X93824728Y-71548282D01*
X93824727Y-71548282D01*
X93785380Y-71602439D01*
X93688904Y-71791782D01*
X93623242Y-71993869D01*
X93623242Y-71993872D01*
X93590000Y-72203753D01*
X93590000Y-72416246D01*
X93623242Y-72626127D01*
X93623242Y-72626130D01*
X93688904Y-72828217D01*
X93785375Y-73017550D01*
X93824728Y-73071716D01*
X94457037Y-72439408D01*
X94474075Y-72502993D01*
X94539901Y-72617007D01*
X94632993Y-72710099D01*
X94747007Y-72775925D01*
X94810590Y-72792962D01*
X94178282Y-73425269D01*
X94178282Y-73425270D01*
X94232449Y-73464624D01*
X94421782Y-73561095D01*
X94623870Y-73626757D01*
X94833754Y-73660000D01*
X95046246Y-73660000D01*
X95256127Y-73626757D01*
X95256130Y-73626757D01*
X95458217Y-73561095D01*
X95647554Y-73464622D01*
X95701716Y-73425270D01*
X95701717Y-73425270D01*
X95069408Y-72792962D01*
X95132993Y-72775925D01*
X95247007Y-72710099D01*
X95340099Y-72617007D01*
X95405925Y-72502993D01*
X95422962Y-72439408D01*
X96055269Y-73071716D01*
X96065770Y-73070890D01*
X96134148Y-73085254D01*
X96183905Y-73134305D01*
X96199500Y-73194508D01*
X96199500Y-86030490D01*
X96179815Y-86097529D01*
X96127011Y-86143284D01*
X96065772Y-86154108D01*
X96055270Y-86153281D01*
X95422962Y-86785590D01*
X95405925Y-86722007D01*
X95340099Y-86607993D01*
X95247007Y-86514901D01*
X95132993Y-86449075D01*
X95069409Y-86432037D01*
X95701716Y-85799728D01*
X95647550Y-85760375D01*
X95458217Y-85663904D01*
X95256129Y-85598242D01*
X95046246Y-85565000D01*
X94833754Y-85565000D01*
X94623872Y-85598242D01*
X94623869Y-85598242D01*
X94421782Y-85663904D01*
X94232439Y-85760380D01*
X94178282Y-85799727D01*
X94178282Y-85799728D01*
X94810591Y-86432037D01*
X94747007Y-86449075D01*
X94632993Y-86514901D01*
X94539901Y-86607993D01*
X94474075Y-86722007D01*
X94457037Y-86785591D01*
X93824728Y-86153282D01*
X93824727Y-86153282D01*
X93785380Y-86207440D01*
X93785376Y-86207446D01*
X93780760Y-86216505D01*
X93732781Y-86267297D01*
X93664959Y-86284087D01*
X93598826Y-86261543D01*
X93559794Y-86216493D01*
X93555051Y-86207184D01*
X93555049Y-86207181D01*
X93555048Y-86207179D01*
X93430109Y-86035213D01*
X93279786Y-85884890D01*
X93107820Y-85759951D01*
X92918414Y-85663444D01*
X92918413Y-85663443D01*
X92918412Y-85663443D01*
X92716243Y-85597754D01*
X92716241Y-85597753D01*
X92716240Y-85597753D01*
X92554957Y-85572208D01*
X92506287Y-85564500D01*
X92293713Y-85564500D01*
X92245042Y-85572208D01*
X92083760Y-85597753D01*
X91881585Y-85663444D01*
X91692179Y-85759951D01*
X91520213Y-85884890D01*
X91369890Y-86035213D01*
X91244949Y-86207182D01*
X91240484Y-86215946D01*
X91192509Y-86266742D01*
X91124688Y-86283536D01*
X91058553Y-86260998D01*
X91019516Y-86215946D01*
X91015050Y-86207182D01*
X90890109Y-86035213D01*
X90739786Y-85884890D01*
X90567820Y-85759951D01*
X90378414Y-85663444D01*
X90378413Y-85663443D01*
X90378412Y-85663443D01*
X90176243Y-85597754D01*
X90176241Y-85597753D01*
X90176240Y-85597753D01*
X90014957Y-85572208D01*
X89966287Y-85564500D01*
X89753713Y-85564500D01*
X89705042Y-85572208D01*
X89543760Y-85597753D01*
X89341585Y-85663444D01*
X89152179Y-85759951D01*
X88980213Y-85884890D01*
X88829890Y-86035213D01*
X88704949Y-86207182D01*
X88700484Y-86215946D01*
X88652509Y-86266742D01*
X88584688Y-86283536D01*
X88518553Y-86260998D01*
X88479516Y-86215946D01*
X88475050Y-86207182D01*
X88350109Y-86035213D01*
X88199786Y-85884890D01*
X88027819Y-85759951D01*
X88027818Y-85759950D01*
X88027816Y-85759949D01*
X87927044Y-85708603D01*
X87876248Y-85660628D01*
X87859453Y-85592807D01*
X87868778Y-85550665D01*
X87869394Y-85549179D01*
X87929737Y-85403497D01*
X87960500Y-85248842D01*
X87960500Y-85091158D01*
X87960500Y-85091155D01*
X87960499Y-85091153D01*
X87929738Y-84936510D01*
X87929737Y-84936503D01*
X87929735Y-84936498D01*
X87869397Y-84790827D01*
X87869390Y-84790814D01*
X87781789Y-84659711D01*
X87781786Y-84659707D01*
X87670292Y-84548213D01*
X87670288Y-84548210D01*
X87539185Y-84460609D01*
X87539172Y-84460602D01*
X87393501Y-84400264D01*
X87393489Y-84400261D01*
X87238845Y-84369500D01*
X87238842Y-84369500D01*
X87081158Y-84369500D01*
X87081155Y-84369500D01*
X86926510Y-84400261D01*
X86926498Y-84400264D01*
X86780827Y-84460602D01*
X86780814Y-84460609D01*
X86649711Y-84548210D01*
X86649707Y-84548213D01*
X86538213Y-84659707D01*
X86538210Y-84659711D01*
X86450609Y-84790814D01*
X86450602Y-84790827D01*
X86390264Y-84936498D01*
X86390261Y-84936510D01*
X86359500Y-85091153D01*
X86359500Y-85248846D01*
X86390261Y-85403489D01*
X86390264Y-85403501D01*
X86450602Y-85549172D01*
X86450612Y-85549190D01*
X86531979Y-85670965D01*
X86552857Y-85737642D01*
X86534372Y-85805022D01*
X86501763Y-85840173D01*
X86440209Y-85884894D01*
X86289890Y-86035213D01*
X86164949Y-86207182D01*
X86160484Y-86215946D01*
X86112509Y-86266742D01*
X86044688Y-86283536D01*
X85978553Y-86260998D01*
X85939516Y-86215946D01*
X85935050Y-86207182D01*
X85810109Y-86035213D01*
X85659786Y-85884890D01*
X85487820Y-85759951D01*
X85298414Y-85663444D01*
X85298413Y-85663443D01*
X85298412Y-85663443D01*
X85096243Y-85597754D01*
X85096241Y-85597753D01*
X85096240Y-85597753D01*
X84934957Y-85572208D01*
X84886287Y-85564500D01*
X84673713Y-85564500D01*
X84625042Y-85572208D01*
X84463760Y-85597753D01*
X84261585Y-85663444D01*
X84072179Y-85759951D01*
X83900215Y-85884889D01*
X83786285Y-85998819D01*
X83724962Y-86032303D01*
X83655270Y-86027319D01*
X83599337Y-85985447D01*
X83582422Y-85954470D01*
X83533354Y-85822913D01*
X83533350Y-85822906D01*
X83447190Y-85707812D01*
X83447187Y-85707809D01*
X83332093Y-85621649D01*
X83332086Y-85621645D01*
X83197379Y-85571403D01*
X83197372Y-85571401D01*
X83137844Y-85565000D01*
X82490000Y-85565000D01*
X82490000Y-86481988D01*
X82432993Y-86449075D01*
X82305826Y-86415000D01*
X82174174Y-86415000D01*
X82047007Y-86449075D01*
X81990000Y-86481988D01*
X81990000Y-85565000D01*
X81342155Y-85565000D01*
X81282627Y-85571401D01*
X81282619Y-85571403D01*
X81147833Y-85621675D01*
X81078141Y-85626659D01*
X81016818Y-85593174D01*
X80983334Y-85531850D01*
X80980500Y-85505493D01*
X80980500Y-79339097D01*
X81000185Y-79272058D01*
X81052989Y-79226303D01*
X81122147Y-79216359D01*
X81185703Y-79245384D01*
X81192181Y-79251416D01*
X82985425Y-81044660D01*
X83018910Y-81105983D01*
X83019361Y-81108149D01*
X83050261Y-81263491D01*
X83050264Y-81263501D01*
X83110602Y-81409172D01*
X83110609Y-81409185D01*
X83198210Y-81540288D01*
X83198213Y-81540292D01*
X83309707Y-81651786D01*
X83309711Y-81651789D01*
X83440814Y-81739390D01*
X83440827Y-81739397D01*
X83586498Y-81799735D01*
X83586503Y-81799737D01*
X83741153Y-81830499D01*
X83741156Y-81830500D01*
X83741158Y-81830500D01*
X83898844Y-81830500D01*
X83898845Y-81830499D01*
X84053497Y-81799737D01*
X84199179Y-81739394D01*
X84330289Y-81651789D01*
X84441789Y-81540289D01*
X84529394Y-81409179D01*
X84589737Y-81263497D01*
X84620500Y-81108842D01*
X84620500Y-80951158D01*
X84620500Y-80951155D01*
X84620499Y-80951153D01*
X84604001Y-80868213D01*
X84589737Y-80796503D01*
X84558157Y-80720261D01*
X84529397Y-80650827D01*
X84529390Y-80650814D01*
X84441789Y-80519711D01*
X84441786Y-80519707D01*
X84330292Y-80408213D01*
X84330288Y-80408210D01*
X84199185Y-80320609D01*
X84199172Y-80320602D01*
X84053501Y-80260264D01*
X84053491Y-80260261D01*
X83898149Y-80229361D01*
X83836238Y-80196976D01*
X83834660Y-80195425D01*
X81717819Y-78078584D01*
X81684334Y-78017261D01*
X81681500Y-77990903D01*
X81681500Y-77391153D01*
X85009500Y-77391153D01*
X85009500Y-77548846D01*
X85040261Y-77703489D01*
X85040264Y-77703501D01*
X85100602Y-77849172D01*
X85100609Y-77849185D01*
X85188210Y-77980288D01*
X85188213Y-77980292D01*
X85299707Y-78091786D01*
X85299711Y-78091789D01*
X85430814Y-78179390D01*
X85430827Y-78179397D01*
X85576498Y-78239735D01*
X85576503Y-78239737D01*
X85731153Y-78270499D01*
X85731156Y-78270500D01*
X85731158Y-78270500D01*
X85888844Y-78270500D01*
X85888845Y-78270499D01*
X85986105Y-78251153D01*
X87259500Y-78251153D01*
X87259500Y-78408846D01*
X87290261Y-78563489D01*
X87290264Y-78563501D01*
X87350602Y-78709172D01*
X87350609Y-78709185D01*
X87438210Y-78840288D01*
X87438213Y-78840292D01*
X87549707Y-78951786D01*
X87549711Y-78951789D01*
X87680814Y-79039390D01*
X87680827Y-79039397D01*
X87826498Y-79099735D01*
X87826503Y-79099737D01*
X87920499Y-79118434D01*
X87981153Y-79130499D01*
X87981156Y-79130500D01*
X88075500Y-79130500D01*
X88142539Y-79150185D01*
X88188294Y-79202989D01*
X88199500Y-79254500D01*
X88199500Y-79748918D01*
X88199500Y-79748920D01*
X88199499Y-79748920D01*
X88228340Y-79893907D01*
X88228343Y-79893917D01*
X88284913Y-80030490D01*
X88284916Y-80030495D01*
X88301695Y-80055608D01*
X88367046Y-80153414D01*
X88367052Y-80153421D01*
X92396580Y-84182948D01*
X92396584Y-84182951D01*
X92519498Y-84265080D01*
X92519511Y-84265087D01*
X92626469Y-84309390D01*
X92656087Y-84321658D01*
X92656091Y-84321658D01*
X92656092Y-84321659D01*
X92801079Y-84350500D01*
X92801082Y-84350500D01*
X92948917Y-84350500D01*
X93115396Y-84350500D01*
X93162844Y-84359937D01*
X93186503Y-84369737D01*
X93186508Y-84369738D01*
X93186511Y-84369739D01*
X93341153Y-84400499D01*
X93341156Y-84400500D01*
X93341158Y-84400500D01*
X93498844Y-84400500D01*
X93498845Y-84400499D01*
X93653497Y-84369737D01*
X93799179Y-84309394D01*
X93930289Y-84221789D01*
X94041789Y-84110289D01*
X94129394Y-83979179D01*
X94189737Y-83833497D01*
X94220500Y-83678842D01*
X94220500Y-83521158D01*
X94220500Y-83521155D01*
X94220499Y-83521153D01*
X94189738Y-83366510D01*
X94189737Y-83366503D01*
X94189735Y-83366498D01*
X94129397Y-83220827D01*
X94129390Y-83220814D01*
X94041789Y-83089711D01*
X94041786Y-83089707D01*
X93930292Y-82978213D01*
X93930288Y-82978210D01*
X93799185Y-82890609D01*
X93799172Y-82890602D01*
X93653501Y-82830264D01*
X93653489Y-82830261D01*
X93498845Y-82799500D01*
X93498842Y-82799500D01*
X93341158Y-82799500D01*
X93341155Y-82799500D01*
X93234932Y-82820629D01*
X93165341Y-82814402D01*
X93123060Y-82786693D01*
X91829114Y-81492747D01*
X91747520Y-81411153D01*
X94319500Y-81411153D01*
X94319500Y-81568846D01*
X94350261Y-81723489D01*
X94350264Y-81723501D01*
X94410602Y-81869172D01*
X94410609Y-81869185D01*
X94498210Y-82000288D01*
X94498213Y-82000292D01*
X94609707Y-82111786D01*
X94609711Y-82111789D01*
X94740814Y-82199390D01*
X94740827Y-82199397D01*
X94886498Y-82259735D01*
X94886503Y-82259737D01*
X95041153Y-82290499D01*
X95041156Y-82290500D01*
X95041158Y-82290500D01*
X95198844Y-82290500D01*
X95198845Y-82290499D01*
X95353497Y-82259737D01*
X95499179Y-82199394D01*
X95630289Y-82111789D01*
X95741789Y-82000289D01*
X95829394Y-81869179D01*
X95889737Y-81723497D01*
X95920500Y-81568842D01*
X95920500Y-81411158D01*
X95920500Y-81411155D01*
X95920499Y-81411153D01*
X95891127Y-81263491D01*
X95889737Y-81256503D01*
X95889735Y-81256498D01*
X95829397Y-81110827D01*
X95829390Y-81110814D01*
X95741789Y-80979711D01*
X95741786Y-80979707D01*
X95630292Y-80868213D01*
X95630288Y-80868210D01*
X95499185Y-80780609D01*
X95499172Y-80780602D01*
X95353501Y-80720264D01*
X95353489Y-80720261D01*
X95198845Y-80689500D01*
X95198842Y-80689500D01*
X95041158Y-80689500D01*
X95041155Y-80689500D01*
X94886510Y-80720261D01*
X94886498Y-80720264D01*
X94740827Y-80780602D01*
X94740814Y-80780609D01*
X94609711Y-80868210D01*
X94609707Y-80868213D01*
X94498213Y-80979707D01*
X94498210Y-80979711D01*
X94410609Y-81110814D01*
X94410602Y-81110827D01*
X94350264Y-81256498D01*
X94350261Y-81256510D01*
X94319500Y-81411153D01*
X91747520Y-81411153D01*
X91415102Y-81078735D01*
X89882521Y-79546153D01*
X93549500Y-79546153D01*
X93549500Y-79703846D01*
X93580261Y-79858489D01*
X93580264Y-79858501D01*
X93640602Y-80004172D01*
X93640609Y-80004185D01*
X93728210Y-80135288D01*
X93728213Y-80135292D01*
X93839707Y-80246786D01*
X93839711Y-80246789D01*
X93970814Y-80334390D01*
X93970827Y-80334397D01*
X94116498Y-80394735D01*
X94116503Y-80394737D01*
X94271153Y-80425499D01*
X94271156Y-80425500D01*
X94271158Y-80425500D01*
X94428844Y-80425500D01*
X94428845Y-80425499D01*
X94583497Y-80394737D01*
X94729179Y-80334394D01*
X94860289Y-80246789D01*
X94971789Y-80135289D01*
X95059394Y-80004179D01*
X95119737Y-79858497D01*
X95150500Y-79703842D01*
X95150500Y-79546158D01*
X95150500Y-79546155D01*
X95150499Y-79546153D01*
X95119738Y-79391510D01*
X95119737Y-79391503D01*
X95061712Y-79251416D01*
X95059397Y-79245827D01*
X95059390Y-79245814D01*
X94971789Y-79114711D01*
X94971786Y-79114707D01*
X94860292Y-79003213D01*
X94860288Y-79003210D01*
X94729185Y-78915609D01*
X94729172Y-78915602D01*
X94583501Y-78855264D01*
X94583489Y-78855261D01*
X94428845Y-78824500D01*
X94428842Y-78824500D01*
X94271158Y-78824500D01*
X94271155Y-78824500D01*
X94116510Y-78855261D01*
X94116498Y-78855264D01*
X93970827Y-78915602D01*
X93970814Y-78915609D01*
X93839711Y-79003210D01*
X93839707Y-79003213D01*
X93728213Y-79114707D01*
X93728210Y-79114711D01*
X93640609Y-79245814D01*
X93640602Y-79245827D01*
X93580264Y-79391498D01*
X93580261Y-79391510D01*
X93549500Y-79546153D01*
X89882521Y-79546153D01*
X89736819Y-79400451D01*
X89703334Y-79339128D01*
X89700500Y-79312770D01*
X89700500Y-75931902D01*
X92949500Y-75931902D01*
X92949500Y-76168097D01*
X92986446Y-76401368D01*
X93059433Y-76625996D01*
X93166657Y-76836433D01*
X93305483Y-77027510D01*
X93472490Y-77194517D01*
X93663567Y-77333343D01*
X93762991Y-77384002D01*
X93874003Y-77440566D01*
X93874005Y-77440566D01*
X93874008Y-77440568D01*
X93994412Y-77479689D01*
X94098631Y-77513553D01*
X94331903Y-77550500D01*
X94331908Y-77550500D01*
X94568097Y-77550500D01*
X94801368Y-77513553D01*
X95025992Y-77440568D01*
X95236433Y-77333343D01*
X95427510Y-77194517D01*
X95594517Y-77027510D01*
X95733343Y-76836433D01*
X95840568Y-76625992D01*
X95913553Y-76401368D01*
X95936969Y-76253527D01*
X95950500Y-76168097D01*
X95950500Y-75931902D01*
X95913553Y-75698631D01*
X95840566Y-75474003D01*
X95733342Y-75263566D01*
X95594517Y-75072490D01*
X95427510Y-74905483D01*
X95236433Y-74766657D01*
X95025996Y-74659433D01*
X94801368Y-74586446D01*
X94568097Y-74549500D01*
X94568092Y-74549500D01*
X94331908Y-74549500D01*
X94331903Y-74549500D01*
X94098631Y-74586446D01*
X93874003Y-74659433D01*
X93663566Y-74766657D01*
X93554550Y-74845862D01*
X93472490Y-74905483D01*
X93472488Y-74905485D01*
X93472487Y-74905485D01*
X93305485Y-75072487D01*
X93305485Y-75072488D01*
X93305483Y-75072490D01*
X93245862Y-75154550D01*
X93166657Y-75263566D01*
X93059433Y-75474003D01*
X92986446Y-75698631D01*
X92949500Y-75931902D01*
X89700500Y-75931902D01*
X89700500Y-73439604D01*
X89700820Y-73437555D01*
X89700539Y-73436498D01*
X89702251Y-73428421D01*
X89706435Y-73401700D01*
X89707989Y-73396857D01*
X89719737Y-73368497D01*
X89750500Y-73213842D01*
X89750500Y-73056158D01*
X89750500Y-73050066D01*
X89753209Y-73050066D01*
X89764049Y-72992906D01*
X89812113Y-72942195D01*
X89879964Y-72925519D01*
X89921884Y-72934834D01*
X90066503Y-72994737D01*
X90221153Y-73025499D01*
X90221156Y-73025500D01*
X90221158Y-73025500D01*
X90378844Y-73025500D01*
X90378845Y-73025499D01*
X90533497Y-72994737D01*
X90660346Y-72942195D01*
X90679172Y-72934397D01*
X90679172Y-72934396D01*
X90679179Y-72934394D01*
X90810289Y-72846789D01*
X90921789Y-72735289D01*
X91009394Y-72604179D01*
X91069737Y-72458497D01*
X91100500Y-72303842D01*
X91100500Y-72146158D01*
X91100500Y-72146155D01*
X91100499Y-72146153D01*
X91080486Y-72045541D01*
X91069737Y-71991503D01*
X91035937Y-71909901D01*
X91009397Y-71845827D01*
X91009390Y-71845814D01*
X90921789Y-71714711D01*
X90921786Y-71714707D01*
X90810292Y-71603213D01*
X90810288Y-71603210D01*
X90679185Y-71515609D01*
X90679172Y-71515602D01*
X90533501Y-71455264D01*
X90533489Y-71455261D01*
X90378845Y-71424500D01*
X90378842Y-71424500D01*
X90221158Y-71424500D01*
X90221155Y-71424500D01*
X90066510Y-71455261D01*
X90066498Y-71455264D01*
X89920827Y-71515602D01*
X89920814Y-71515609D01*
X89789711Y-71603210D01*
X89789707Y-71603213D01*
X89678213Y-71714707D01*
X89678210Y-71714711D01*
X89590609Y-71845814D01*
X89590602Y-71845827D01*
X89530264Y-71991498D01*
X89530261Y-71991510D01*
X89499500Y-72146153D01*
X89499500Y-72309934D01*
X89496821Y-72309934D01*
X89485875Y-72367240D01*
X89437743Y-72417887D01*
X89369870Y-72434472D01*
X89328113Y-72425164D01*
X89183501Y-72365264D01*
X89183489Y-72365261D01*
X89028845Y-72334500D01*
X89028842Y-72334500D01*
X88871158Y-72334500D01*
X88871155Y-72334500D01*
X88716510Y-72365261D01*
X88716498Y-72365264D01*
X88570827Y-72425602D01*
X88570814Y-72425609D01*
X88439711Y-72513210D01*
X88439707Y-72513213D01*
X88328213Y-72624707D01*
X88328210Y-72624711D01*
X88240609Y-72755814D01*
X88240602Y-72755827D01*
X88180264Y-72901498D01*
X88180261Y-72901510D01*
X88149500Y-73056153D01*
X88149500Y-73213846D01*
X88180261Y-73368489D01*
X88180263Y-73368497D01*
X88190061Y-73392151D01*
X88199500Y-73439604D01*
X88199500Y-77405500D01*
X88179815Y-77472539D01*
X88127011Y-77518294D01*
X88075500Y-77529500D01*
X87981155Y-77529500D01*
X87826510Y-77560261D01*
X87826498Y-77560264D01*
X87680827Y-77620602D01*
X87680814Y-77620609D01*
X87549711Y-77708210D01*
X87549707Y-77708213D01*
X87438213Y-77819707D01*
X87438210Y-77819711D01*
X87350609Y-77950814D01*
X87350602Y-77950827D01*
X87290264Y-78096498D01*
X87290261Y-78096510D01*
X87259500Y-78251153D01*
X85986105Y-78251153D01*
X86043497Y-78239737D01*
X86189179Y-78179394D01*
X86189185Y-78179390D01*
X86245198Y-78141964D01*
X86284691Y-78115574D01*
X86320289Y-78091789D01*
X86431789Y-77980289D01*
X86519394Y-77849179D01*
X86579737Y-77703497D01*
X86610500Y-77548842D01*
X86610500Y-77391158D01*
X86610500Y-77391155D01*
X86610499Y-77391153D01*
X86599000Y-77333343D01*
X86579737Y-77236503D01*
X86562345Y-77194514D01*
X86519397Y-77090827D01*
X86519390Y-77090814D01*
X86431789Y-76959711D01*
X86431786Y-76959707D01*
X86320292Y-76848213D01*
X86320288Y-76848210D01*
X86189185Y-76760609D01*
X86189172Y-76760602D01*
X86043501Y-76700264D01*
X86043489Y-76700261D01*
X85888845Y-76669500D01*
X85888842Y-76669500D01*
X85731158Y-76669500D01*
X85731155Y-76669500D01*
X85576510Y-76700261D01*
X85576498Y-76700264D01*
X85430827Y-76760602D01*
X85430814Y-76760609D01*
X85299711Y-76848210D01*
X85299707Y-76848213D01*
X85188213Y-76959707D01*
X85188210Y-76959711D01*
X85100609Y-77090814D01*
X85100602Y-77090827D01*
X85040264Y-77236498D01*
X85040261Y-77236510D01*
X85009500Y-77391153D01*
X81681500Y-77391153D01*
X81681500Y-76521772D01*
X81701185Y-76454733D01*
X81753989Y-76408978D01*
X81823147Y-76399034D01*
X81878386Y-76421455D01*
X81963562Y-76483340D01*
X81963564Y-76483341D01*
X81963567Y-76483343D01*
X82038988Y-76521772D01*
X82174003Y-76590566D01*
X82174005Y-76590566D01*
X82174008Y-76590568D01*
X82283032Y-76625992D01*
X82398631Y-76663553D01*
X82631903Y-76700500D01*
X82631908Y-76700500D01*
X82868097Y-76700500D01*
X83101368Y-76663553D01*
X83325992Y-76590568D01*
X83536433Y-76483343D01*
X83727510Y-76344517D01*
X83894517Y-76177510D01*
X84033343Y-75986433D01*
X84140568Y-75775992D01*
X84213553Y-75551368D01*
X84225806Y-75474008D01*
X84250500Y-75318097D01*
X84250500Y-75081902D01*
X84213553Y-74848631D01*
X84140566Y-74624003D01*
X84033342Y-74413566D01*
X83894517Y-74222490D01*
X83727510Y-74055483D01*
X83536433Y-73916657D01*
X83325996Y-73809433D01*
X83101369Y-73736447D01*
X82953985Y-73713103D01*
X82890851Y-73683173D01*
X82853920Y-73623862D01*
X82854918Y-73553999D01*
X82893528Y-73495767D01*
X82917091Y-73480144D01*
X82947554Y-73464622D01*
X83001716Y-73425270D01*
X83001717Y-73425270D01*
X82369409Y-72792962D01*
X82432993Y-72775925D01*
X82547007Y-72710099D01*
X82640099Y-72617007D01*
X82705925Y-72502993D01*
X82722962Y-72439408D01*
X83355270Y-73071717D01*
X83355270Y-73071716D01*
X83394622Y-73017554D01*
X83491095Y-72828217D01*
X83556757Y-72626130D01*
X83556757Y-72626127D01*
X83590000Y-72416246D01*
X83590000Y-72203753D01*
X83556757Y-71993872D01*
X83556757Y-71993869D01*
X83491095Y-71791782D01*
X83394624Y-71602449D01*
X83355270Y-71548282D01*
X83355269Y-71548282D01*
X82722962Y-72180590D01*
X82705925Y-72117007D01*
X82640099Y-72002993D01*
X82547007Y-71909901D01*
X82432993Y-71844075D01*
X82369407Y-71827036D01*
X82900292Y-71296153D01*
X84574500Y-71296153D01*
X84574500Y-71453846D01*
X84605261Y-71608489D01*
X84605264Y-71608501D01*
X84665602Y-71754172D01*
X84665609Y-71754185D01*
X84753210Y-71885288D01*
X84753213Y-71885292D01*
X84864707Y-71996786D01*
X84864711Y-71996789D01*
X84995814Y-72084390D01*
X84995827Y-72084397D01*
X85074556Y-72117007D01*
X85141503Y-72144737D01*
X85296153Y-72175499D01*
X85296156Y-72175500D01*
X85296158Y-72175500D01*
X85453844Y-72175500D01*
X85453845Y-72175499D01*
X85608497Y-72144737D01*
X85754179Y-72084394D01*
X85885289Y-71996789D01*
X85996789Y-71885289D01*
X86084394Y-71754179D01*
X86144737Y-71608497D01*
X86175500Y-71453842D01*
X86175500Y-71296158D01*
X86175500Y-71296155D01*
X86175499Y-71296153D01*
X86147497Y-71155380D01*
X86144737Y-71141503D01*
X86136037Y-71120500D01*
X86084397Y-70995827D01*
X86084390Y-70995814D01*
X85996789Y-70864711D01*
X85996786Y-70864707D01*
X85885292Y-70753213D01*
X85885288Y-70753210D01*
X85754185Y-70665609D01*
X85754172Y-70665602D01*
X85608501Y-70605264D01*
X85608489Y-70605261D01*
X85453845Y-70574500D01*
X85453842Y-70574500D01*
X85296158Y-70574500D01*
X85296155Y-70574500D01*
X85141510Y-70605261D01*
X85141498Y-70605264D01*
X84995827Y-70665602D01*
X84995814Y-70665609D01*
X84864711Y-70753210D01*
X84864707Y-70753213D01*
X84753213Y-70864707D01*
X84753210Y-70864711D01*
X84665609Y-70995814D01*
X84665602Y-70995827D01*
X84605264Y-71141498D01*
X84605261Y-71141510D01*
X84574500Y-71296153D01*
X82900292Y-71296153D01*
X82994060Y-71202385D01*
X83001716Y-71194728D01*
X82947547Y-71155373D01*
X82947547Y-71155372D01*
X82938500Y-71150763D01*
X82887706Y-71102788D01*
X82870912Y-71034966D01*
X82893451Y-70968832D01*
X82938508Y-70929793D01*
X82947816Y-70925051D01*
X83027007Y-70867515D01*
X83119786Y-70800109D01*
X83119788Y-70800106D01*
X83119792Y-70800104D01*
X83270104Y-70649792D01*
X83270106Y-70649788D01*
X83270109Y-70649786D01*
X83395048Y-70477820D01*
X83395047Y-70477820D01*
X83395051Y-70477816D01*
X83491557Y-70288412D01*
X83557246Y-70086243D01*
X83590500Y-69876287D01*
X83590500Y-69663713D01*
X83557246Y-69453757D01*
X83540162Y-69401178D01*
X89919475Y-69401178D01*
X89919475Y-69558871D01*
X89950236Y-69713514D01*
X89950239Y-69713526D01*
X90010577Y-69859197D01*
X90010584Y-69859210D01*
X90098185Y-69990313D01*
X90098188Y-69990317D01*
X90209682Y-70101811D01*
X90209686Y-70101814D01*
X90340789Y-70189415D01*
X90340802Y-70189422D01*
X90486473Y-70249760D01*
X90486478Y-70249762D01*
X90641128Y-70280524D01*
X90641131Y-70280525D01*
X90641133Y-70280525D01*
X90798819Y-70280525D01*
X90798820Y-70280524D01*
X90953472Y-70249762D01*
X91066141Y-70203092D01*
X91099147Y-70189422D01*
X91099147Y-70189421D01*
X91099154Y-70189419D01*
X91230264Y-70101814D01*
X91244905Y-70087172D01*
X91306226Y-70053687D01*
X91375917Y-70058670D01*
X91431852Y-70100540D01*
X91435689Y-70105962D01*
X91459461Y-70141539D01*
X91459464Y-70141543D01*
X91570958Y-70253037D01*
X91570962Y-70253040D01*
X91702065Y-70340641D01*
X91702078Y-70340648D01*
X91847749Y-70400986D01*
X91847754Y-70400988D01*
X92002404Y-70431750D01*
X92002407Y-70431751D01*
X92002409Y-70431751D01*
X92160095Y-70431751D01*
X92160096Y-70431750D01*
X92314748Y-70400988D01*
X92460430Y-70340645D01*
X92591540Y-70253040D01*
X92703040Y-70141540D01*
X92790645Y-70010430D01*
X92850988Y-69864748D01*
X92881751Y-69710093D01*
X92881751Y-69552409D01*
X92881751Y-69552406D01*
X92881750Y-69552404D01*
X92850989Y-69397761D01*
X92850988Y-69397754D01*
X92800570Y-69276033D01*
X92790648Y-69252078D01*
X92790641Y-69252065D01*
X92703040Y-69120962D01*
X92703037Y-69120958D01*
X92591543Y-69009464D01*
X92591539Y-69009461D01*
X92460436Y-68921860D01*
X92460423Y-68921853D01*
X92314752Y-68861515D01*
X92314740Y-68861512D01*
X92160096Y-68830751D01*
X92160093Y-68830751D01*
X92002409Y-68830751D01*
X92002406Y-68830751D01*
X91847761Y-68861512D01*
X91847749Y-68861515D01*
X91702078Y-68921853D01*
X91702065Y-68921860D01*
X91570962Y-69009461D01*
X91556317Y-69024106D01*
X91494993Y-69057589D01*
X91425301Y-69052603D01*
X91369369Y-69010730D01*
X91365536Y-69005313D01*
X91341764Y-68969735D01*
X91230267Y-68858238D01*
X91230263Y-68858235D01*
X91099160Y-68770634D01*
X91099147Y-68770627D01*
X90953476Y-68710289D01*
X90953464Y-68710286D01*
X90798820Y-68679525D01*
X90798817Y-68679525D01*
X90641133Y-68679525D01*
X90641130Y-68679525D01*
X90486485Y-68710286D01*
X90486473Y-68710289D01*
X90340802Y-68770627D01*
X90340789Y-68770634D01*
X90209686Y-68858235D01*
X90209682Y-68858238D01*
X90098188Y-68969732D01*
X90098185Y-68969736D01*
X90010584Y-69100839D01*
X90010577Y-69100852D01*
X89950239Y-69246523D01*
X89950236Y-69246535D01*
X89919475Y-69401178D01*
X83540162Y-69401178D01*
X83491557Y-69251588D01*
X83395051Y-69062184D01*
X83395049Y-69062181D01*
X83395048Y-69062179D01*
X83270109Y-68890213D01*
X83119786Y-68739890D01*
X82947820Y-68614951D01*
X82947115Y-68614591D01*
X82939054Y-68610485D01*
X82888259Y-68562512D01*
X82871463Y-68494692D01*
X82893999Y-68428556D01*
X82939054Y-68389515D01*
X82947816Y-68385051D01*
X82969789Y-68369086D01*
X83119786Y-68260109D01*
X83119788Y-68260106D01*
X83119792Y-68260104D01*
X83270104Y-68109792D01*
X83270106Y-68109788D01*
X83270109Y-68109786D01*
X83395048Y-67937820D01*
X83395047Y-67937820D01*
X83395051Y-67937816D01*
X83491557Y-67748412D01*
X83557246Y-67546243D01*
X83590500Y-67336287D01*
X83590500Y-67123713D01*
X83557246Y-66913757D01*
X83515594Y-66785568D01*
X83513600Y-66715730D01*
X83549680Y-66655897D01*
X83612381Y-66625069D01*
X83633526Y-66623253D01*
X83786108Y-66623253D01*
X83786109Y-66623252D01*
X83940761Y-66592490D01*
X84086443Y-66532147D01*
X84217553Y-66444542D01*
X84329053Y-66333042D01*
X84416658Y-66201932D01*
X84477001Y-66056250D01*
X84507764Y-65901595D01*
X84507764Y-65743911D01*
X84507764Y-65743908D01*
X84507763Y-65743906D01*
X84490952Y-65659394D01*
X84477001Y-65589256D01*
X84466044Y-65562804D01*
X84416661Y-65443580D01*
X84416654Y-65443567D01*
X84329053Y-65312464D01*
X84329050Y-65312460D01*
X84217556Y-65200966D01*
X84217552Y-65200963D01*
X84086449Y-65113362D01*
X84086436Y-65113355D01*
X83940765Y-65053017D01*
X83940753Y-65053014D01*
X83786109Y-65022253D01*
X83786106Y-65022253D01*
X83699895Y-65022253D01*
X83681957Y-65016986D01*
X83663266Y-65016719D01*
X83649129Y-65007346D01*
X83632856Y-65002568D01*
X83620614Y-64988440D01*
X83605033Y-64978110D01*
X83598207Y-64962581D01*
X83587101Y-64949764D01*
X83584440Y-64931261D01*
X83576918Y-64914147D01*
X83577374Y-64882118D01*
X83577157Y-64880606D01*
X83577395Y-64879023D01*
X83578642Y-64871153D01*
X85057000Y-64871153D01*
X85057000Y-65028846D01*
X85087761Y-65183489D01*
X85087764Y-65183501D01*
X85148102Y-65329172D01*
X85148109Y-65329185D01*
X85235710Y-65460288D01*
X85235713Y-65460292D01*
X85347207Y-65571786D01*
X85347211Y-65571789D01*
X85478314Y-65659390D01*
X85478327Y-65659397D01*
X85623998Y-65719735D01*
X85624003Y-65719737D01*
X85778653Y-65750499D01*
X85778656Y-65750500D01*
X85778658Y-65750500D01*
X85936344Y-65750500D01*
X85936345Y-65750499D01*
X86090997Y-65719737D01*
X86236679Y-65659394D01*
X86367789Y-65571789D01*
X86479289Y-65460289D01*
X86566894Y-65329179D01*
X86627237Y-65183497D01*
X86658000Y-65028842D01*
X86658000Y-64871158D01*
X86658000Y-64871155D01*
X86657999Y-64871153D01*
X86643107Y-64796286D01*
X86627237Y-64716503D01*
X86572234Y-64583713D01*
X86566897Y-64570827D01*
X86566890Y-64570814D01*
X86479289Y-64439711D01*
X86479286Y-64439707D01*
X86367792Y-64328213D01*
X86367788Y-64328210D01*
X86236685Y-64240609D01*
X86236672Y-64240602D01*
X86091001Y-64180264D01*
X86090989Y-64180261D01*
X85936345Y-64149500D01*
X85936342Y-64149500D01*
X85778658Y-64149500D01*
X85778655Y-64149500D01*
X85624010Y-64180261D01*
X85623998Y-64180264D01*
X85478327Y-64240602D01*
X85478314Y-64240609D01*
X85347211Y-64328210D01*
X85347207Y-64328213D01*
X85235713Y-64439707D01*
X85235710Y-64439711D01*
X85148109Y-64570814D01*
X85148102Y-64570827D01*
X85087764Y-64716498D01*
X85087761Y-64716510D01*
X85057000Y-64871153D01*
X83578642Y-64871153D01*
X83590500Y-64796287D01*
X83590500Y-64583713D01*
X83557246Y-64373757D01*
X83491557Y-64171588D01*
X83395051Y-63982184D01*
X83395049Y-63982181D01*
X83395048Y-63982179D01*
X83270109Y-63810213D01*
X83156569Y-63696673D01*
X83123084Y-63635350D01*
X83128068Y-63565658D01*
X83169940Y-63509725D01*
X83200915Y-63492810D01*
X83332331Y-63443796D01*
X83447546Y-63357546D01*
X83533796Y-63242331D01*
X83584091Y-63107483D01*
X83590500Y-63047873D01*
X83590500Y-63024500D01*
X83610185Y-62957461D01*
X83662989Y-62911706D01*
X83714500Y-62900500D01*
X86662771Y-62900500D01*
X86692216Y-62909146D01*
X86722214Y-62915676D01*
X86727219Y-62919424D01*
X86729810Y-62920185D01*
X86750457Y-62936825D01*
X86753940Y-62940307D01*
X86780806Y-62980521D01*
X86790606Y-63004180D01*
X86790607Y-63004182D01*
X86878210Y-63135288D01*
X86878213Y-63135292D01*
X86989707Y-63246786D01*
X86989711Y-63246789D01*
X87120814Y-63334390D01*
X87120827Y-63334397D01*
X87266498Y-63394735D01*
X87266503Y-63394737D01*
X87421153Y-63425499D01*
X87421156Y-63425500D01*
X87421158Y-63425500D01*
X87578844Y-63425500D01*
X87578845Y-63425499D01*
X87733497Y-63394737D01*
X87879179Y-63334394D01*
X88010289Y-63246789D01*
X88121789Y-63135289D01*
X88209394Y-63004179D01*
X88269737Y-62858497D01*
X88300500Y-62703842D01*
X88300500Y-62546158D01*
X88300500Y-62546155D01*
X88300499Y-62546153D01*
X88269737Y-62391503D01*
X88269735Y-62391498D01*
X88209397Y-62245827D01*
X88209390Y-62245814D01*
X88121789Y-62114711D01*
X88121786Y-62114707D01*
X88010292Y-62003213D01*
X88010288Y-62003210D01*
X87879182Y-61915607D01*
X87855522Y-61905807D01*
X87815296Y-61878929D01*
X87503416Y-61567048D01*
X87421355Y-61512218D01*
X87380495Y-61484916D01*
X87380494Y-61484915D01*
X87380492Y-61484914D01*
X87380490Y-61484913D01*
X87243917Y-61428343D01*
X87243907Y-61428340D01*
X87220342Y-61423653D01*
X87098920Y-61399500D01*
X87098918Y-61399500D01*
X83714499Y-61399500D01*
X83647460Y-61379815D01*
X83601705Y-61327011D01*
X83597330Y-61306902D01*
X89674500Y-61306902D01*
X89674500Y-61543097D01*
X89711446Y-61776368D01*
X89784433Y-62000996D01*
X89891657Y-62211433D01*
X90030483Y-62402510D01*
X90197490Y-62569517D01*
X90388567Y-62708343D01*
X90487991Y-62759002D01*
X90599003Y-62815566D01*
X90599005Y-62815566D01*
X90599008Y-62815568D01*
X90719412Y-62854689D01*
X90823631Y-62888553D01*
X91056903Y-62925500D01*
X91056908Y-62925500D01*
X91293097Y-62925500D01*
X91526368Y-62888553D01*
X91750992Y-62815568D01*
X91961433Y-62708343D01*
X92152510Y-62569517D01*
X92319517Y-62402510D01*
X92458343Y-62211433D01*
X92565568Y-62000992D01*
X92638553Y-61776368D01*
X92671706Y-61567048D01*
X92675500Y-61543097D01*
X92675500Y-61306902D01*
X92638553Y-61073631D01*
X92595931Y-60942455D01*
X92565568Y-60849008D01*
X92565566Y-60849005D01*
X92565566Y-60849003D01*
X92483130Y-60687215D01*
X92458343Y-60638567D01*
X92319517Y-60447490D01*
X92152510Y-60280483D01*
X91961433Y-60141657D01*
X91750996Y-60034433D01*
X91526368Y-59961446D01*
X91293097Y-59924500D01*
X91293092Y-59924500D01*
X91056908Y-59924500D01*
X91056903Y-59924500D01*
X90823631Y-59961446D01*
X90599003Y-60034433D01*
X90388566Y-60141657D01*
X90279550Y-60220862D01*
X90197490Y-60280483D01*
X90197488Y-60280485D01*
X90197487Y-60280485D01*
X90030485Y-60447487D01*
X90030485Y-60447488D01*
X90030483Y-60447490D01*
X89970862Y-60529550D01*
X89891657Y-60638566D01*
X89784433Y-60849003D01*
X89711446Y-61073631D01*
X89674500Y-61306902D01*
X83597330Y-61306902D01*
X83590499Y-61275500D01*
X83590499Y-61252129D01*
X83590498Y-61252123D01*
X83590497Y-61252116D01*
X83584091Y-61192517D01*
X83539749Y-61073631D01*
X83533797Y-61057671D01*
X83533793Y-61057664D01*
X83447547Y-60942455D01*
X83447544Y-60942452D01*
X83332335Y-60856206D01*
X83332328Y-60856202D01*
X83197482Y-60805908D01*
X83197483Y-60805908D01*
X83137883Y-60799501D01*
X83137881Y-60799500D01*
X83137873Y-60799500D01*
X83137865Y-60799500D01*
X82349096Y-60799500D01*
X82282057Y-60779815D01*
X82236302Y-60727011D01*
X82226358Y-60657853D01*
X82255383Y-60594297D01*
X82261415Y-60587819D01*
X84287416Y-58561819D01*
X84348739Y-58528334D01*
X84375097Y-58525500D01*
X85970234Y-58525500D01*
X86037273Y-58545185D01*
X86039125Y-58546398D01*
X86170814Y-58634390D01*
X86170827Y-58634397D01*
X86316498Y-58694735D01*
X86316503Y-58694737D01*
X86471153Y-58725499D01*
X86471156Y-58725500D01*
X86471158Y-58725500D01*
X86628844Y-58725500D01*
X86628845Y-58725499D01*
X86783497Y-58694737D01*
X86929179Y-58634394D01*
X87060289Y-58546789D01*
X87171789Y-58435289D01*
X87259394Y-58304179D01*
X87319737Y-58158497D01*
X87350500Y-58003842D01*
X87350500Y-57846158D01*
X87350500Y-57846155D01*
X87350499Y-57846153D01*
X87319738Y-57691510D01*
X87319737Y-57691503D01*
X87263728Y-57556284D01*
X87259397Y-57545827D01*
X87259390Y-57545814D01*
X87171789Y-57414711D01*
X87171786Y-57414707D01*
X87060292Y-57303213D01*
X87060288Y-57303210D01*
X86929185Y-57215609D01*
X86929172Y-57215602D01*
X86783501Y-57155264D01*
X86783489Y-57155261D01*
X86628845Y-57124500D01*
X86628842Y-57124500D01*
X86471158Y-57124500D01*
X86471155Y-57124500D01*
X86316510Y-57155261D01*
X86316498Y-57155264D01*
X86170827Y-57215602D01*
X86170814Y-57215609D01*
X86039125Y-57303602D01*
X85972447Y-57324480D01*
X85970234Y-57324500D01*
X83995940Y-57324500D01*
X83955019Y-57335464D01*
X83955019Y-57335465D01*
X83917751Y-57345451D01*
X83843214Y-57365423D01*
X83843209Y-57365426D01*
X83706290Y-57444475D01*
X83706282Y-57444481D01*
X81192181Y-59958583D01*
X81130858Y-59992068D01*
X81061166Y-59987084D01*
X81005233Y-59945212D01*
X80980816Y-59879748D01*
X80980500Y-59870902D01*
X80980500Y-54054500D01*
X81000185Y-53987461D01*
X81052989Y-53941706D01*
X81104500Y-53930500D01*
X96075500Y-53930500D01*
X96142539Y-53950185D01*
G37*
%TD.AperFunction*%
%TA.AperFunction,Conductor*%
G36*
X96161920Y-70626764D02*
G01*
X96196277Y-70687603D01*
X96199500Y-70715689D01*
X96199500Y-71425490D01*
X96179815Y-71492529D01*
X96127011Y-71538284D01*
X96065772Y-71549108D01*
X96055270Y-71548281D01*
X95422962Y-72180590D01*
X95405925Y-72117007D01*
X95340099Y-72002993D01*
X95247007Y-71909901D01*
X95132993Y-71844075D01*
X95069409Y-71827037D01*
X95701716Y-71194728D01*
X95647547Y-71155373D01*
X95647547Y-71155372D01*
X95638500Y-71150763D01*
X95587706Y-71102788D01*
X95570912Y-71034966D01*
X95593451Y-70968832D01*
X95638508Y-70929793D01*
X95647816Y-70925051D01*
X95727007Y-70867515D01*
X95819786Y-70800109D01*
X95819788Y-70800106D01*
X95819792Y-70800104D01*
X95970104Y-70649792D01*
X95975181Y-70642803D01*
X96030511Y-70600138D01*
X96100124Y-70594159D01*
X96161920Y-70626764D01*
G37*
%TD.AperFunction*%
%TD*%
M02*
