%TF.GenerationSoftware,KiCad,Pcbnew,9.0.2*%
%TF.CreationDate,2025-10-14T12:10:58+02:00*%
%TF.ProjectId,1p6V_to_m1p6V_bias_gum,31703656-5f74-46f5-9f6d-317036565f62,rev?*%
%TF.SameCoordinates,Original*%
%TF.FileFunction,Copper,L1,Top*%
%TF.FilePolarity,Positive*%
%FSLAX46Y46*%
G04 Gerber Fmt 4.6, Leading zero omitted, Abs format (unit mm)*
G04 Created by KiCad (PCBNEW 9.0.2) date 2025-10-14 12:10:58*
%MOMM*%
%LPD*%
G01*
G04 APERTURE LIST*
G04 Aperture macros list*
%AMRoundRect*
0 Rectangle with rounded corners*
0 $1 Rounding radius*
0 $2 $3 $4 $5 $6 $7 $8 $9 X,Y pos of 4 corners*
0 Add a 4 corners polygon primitive as box body*
4,1,4,$2,$3,$4,$5,$6,$7,$8,$9,$2,$3,0*
0 Add four circle primitives for the rounded corners*
1,1,$1+$1,$2,$3*
1,1,$1+$1,$4,$5*
1,1,$1+$1,$6,$7*
1,1,$1+$1,$8,$9*
0 Add four rect primitives between the rounded corners*
20,1,$1+$1,$2,$3,$4,$5,0*
20,1,$1+$1,$4,$5,$6,$7,0*
20,1,$1+$1,$6,$7,$8,$9,0*
20,1,$1+$1,$8,$9,$2,$3,0*%
G04 Aperture macros list end*
%TA.AperFunction,SMDPad,CuDef*%
%ADD10RoundRect,0.200000X0.200000X0.275000X-0.200000X0.275000X-0.200000X-0.275000X0.200000X-0.275000X0*%
%TD*%
%TA.AperFunction,SMDPad,CuDef*%
%ADD11RoundRect,0.150000X-0.150000X0.825000X-0.150000X-0.825000X0.150000X-0.825000X0.150000X0.825000X0*%
%TD*%
%TA.AperFunction,ComponentPad*%
%ADD12C,2.000000*%
%TD*%
%TA.AperFunction,SMDPad,CuDef*%
%ADD13RoundRect,0.135000X0.135000X0.185000X-0.135000X0.185000X-0.135000X-0.185000X0.135000X-0.185000X0*%
%TD*%
%TA.AperFunction,SMDPad,CuDef*%
%ADD14RoundRect,0.225000X0.225000X0.250000X-0.225000X0.250000X-0.225000X-0.250000X0.225000X-0.250000X0*%
%TD*%
%TA.AperFunction,SMDPad,CuDef*%
%ADD15RoundRect,0.200000X0.275000X-0.200000X0.275000X0.200000X-0.275000X0.200000X-0.275000X-0.200000X0*%
%TD*%
%TA.AperFunction,ComponentPad*%
%ADD16R,1.700000X1.700000*%
%TD*%
%TA.AperFunction,ComponentPad*%
%ADD17C,1.700000*%
%TD*%
%TA.AperFunction,SMDPad,CuDef*%
%ADD18RoundRect,0.200000X-0.200000X-0.275000X0.200000X-0.275000X0.200000X0.275000X-0.200000X0.275000X0*%
%TD*%
%TA.AperFunction,SMDPad,CuDef*%
%ADD19RoundRect,0.225000X-0.250000X0.225000X-0.250000X-0.225000X0.250000X-0.225000X0.250000X0.225000X0*%
%TD*%
%TA.AperFunction,SMDPad,CuDef*%
%ADD20R,1.500000X5.080000*%
%TD*%
%TA.AperFunction,SMDPad,CuDef*%
%ADD21RoundRect,0.225000X-0.225000X-0.250000X0.225000X-0.250000X0.225000X0.250000X-0.225000X0.250000X0*%
%TD*%
%TA.AperFunction,SMDPad,CuDef*%
%ADD22RoundRect,0.225000X0.250000X-0.225000X0.250000X0.225000X-0.250000X0.225000X-0.250000X-0.225000X0*%
%TD*%
%TA.AperFunction,SMDPad,CuDef*%
%ADD23RoundRect,0.250000X-1.650000X-0.750000X1.650000X-0.750000X1.650000X0.750000X-1.650000X0.750000X0*%
%TD*%
%TA.AperFunction,SMDPad,CuDef*%
%ADD24RoundRect,0.150000X0.512500X0.150000X-0.512500X0.150000X-0.512500X-0.150000X0.512500X-0.150000X0*%
%TD*%
%TA.AperFunction,SMDPad,CuDef*%
%ADD25RoundRect,0.150000X0.150000X-0.512500X0.150000X0.512500X-0.150000X0.512500X-0.150000X-0.512500X0*%
%TD*%
%TA.AperFunction,SMDPad,CuDef*%
%ADD26RoundRect,0.150000X-0.512500X-0.150000X0.512500X-0.150000X0.512500X0.150000X-0.512500X0.150000X0*%
%TD*%
%TA.AperFunction,ViaPad*%
%ADD27C,0.600000*%
%TD*%
%TA.AperFunction,Conductor*%
%ADD28C,0.250000*%
%TD*%
%TA.AperFunction,Conductor*%
%ADD29C,0.400000*%
%TD*%
%TA.AperFunction,Conductor*%
%ADD30C,0.500000*%
%TD*%
%TA.AperFunction,Conductor*%
%ADD31C,0.750000*%
%TD*%
%TA.AperFunction,Conductor*%
%ADD32C,0.200000*%
%TD*%
G04 APERTURE END LIST*
D10*
%TO.P,R2,1*%
%TO.N,Net-(U2-FB)*%
X92990000Y-65280000D03*
%TO.P,R2,2*%
%TO.N,GND*%
X91340000Y-65280000D03*
%TD*%
D11*
%TO.P,U1,1,GND*%
%TO.N,/-3.3VA*%
X89135000Y-75593000D03*
%TO.P,U1,2,NC*%
%TO.N,unconnected-(U1-NC-Pad2)*%
X87865000Y-75593000D03*
%TO.P,U1,3,EN*%
%TO.N,/enable*%
X86595000Y-75593000D03*
%TO.P,U1,4,FB*%
%TO.N,Net-(U1-FB)*%
X85325000Y-75593000D03*
%TO.P,U1,5,IN*%
%TO.N,/3.3VA*%
X85325000Y-80543000D03*
%TO.P,U1,6,OUT*%
%TO.N,/V_bias*%
X86595000Y-80543000D03*
%TO.P,U1,7,IN*%
%TO.N,/3.3VA*%
X87865000Y-80543000D03*
%TO.P,U1,8,GND*%
%TO.N,/-3.3VA*%
X89135000Y-80543000D03*
%TD*%
D12*
%TO.P,TP1,1*%
%TO.N,/3.3VA*%
X82750000Y-75200000D03*
%TD*%
D13*
%TO.P,R10,1*%
%TO.N,/3.3VA*%
X92170000Y-80075000D03*
%TO.P,R10,2*%
%TO.N,Net-(U3-FB)*%
X91150000Y-80075000D03*
%TD*%
D14*
%TO.P,C8,1*%
%TO.N,/V_bias*%
X83320000Y-83860000D03*
%TO.P,C8,2*%
%TO.N,GND*%
X81770000Y-83860000D03*
%TD*%
D15*
%TO.P,R11,1*%
%TO.N,/-3.3VA*%
X90900000Y-76825000D03*
%TO.P,R11,2*%
%TO.N,GND*%
X90900000Y-75175000D03*
%TD*%
D16*
%TO.P,CG1,A1,5V*%
%TO.N,/5V*%
X82240000Y-62150000D03*
D17*
%TO.P,CG1,A2,3V3*%
%TO.N,/3.3V*%
X82240000Y-64690000D03*
%TO.P,CG1,A3,SDA*%
%TO.N,/SDA*%
X82240000Y-67230000D03*
%TO.P,CG1,A4,SCL*%
%TO.N,/SCL*%
X82240000Y-69770000D03*
%TO.P,CG1,A5,GND*%
%TO.N,GND*%
X82240000Y-72310000D03*
D16*
%TO.P,CG1,B1,5V*%
%TO.N,/5V*%
X94940000Y-62150000D03*
D17*
%TO.P,CG1,B2,VDDIO*%
%TO.N,unconnected-(CG1-VDDIO-PadB2)*%
X94940000Y-64690000D03*
%TO.P,CG1,B3,-5V*%
%TO.N,/-5V*%
X94940000Y-67230000D03*
%TO.P,CG1,B4,ENABLE*%
%TO.N,/enable*%
X94940000Y-69770000D03*
%TO.P,CG1,B5,GND*%
%TO.N,GND*%
X94940000Y-72310000D03*
D16*
%TO.P,CG1,C1,GND*%
X82240000Y-86915000D03*
D17*
%TO.P,CG1,C2,OUT_1*%
%TO.N,/V_bias*%
X84780000Y-86915000D03*
%TO.P,CG1,C3,OUT_2*%
X87320000Y-86915000D03*
%TO.P,CG1,C4,OUT_3*%
%TO.N,/Vout_diff*%
X89860000Y-86915000D03*
%TO.P,CG1,C5,OUT_4*%
%TO.N,/Vout_B*%
X92400000Y-86915000D03*
%TO.P,CG1,C6,GND*%
%TO.N,GND*%
X94940000Y-86915000D03*
%TD*%
D12*
%TO.P,TP4,1*%
%TO.N,/V_bias*%
X91175000Y-61425000D03*
%TD*%
D18*
%TO.P,R1,1*%
%TO.N,/-3.3VA*%
X91340000Y-66920000D03*
%TO.P,R1,2*%
%TO.N,Net-(U2-FB)*%
X92990000Y-66920000D03*
%TD*%
D19*
%TO.P,C3,1*%
%TO.N,/-3.3VA*%
X91560000Y-72120000D03*
%TO.P,C3,2*%
%TO.N,GND*%
X91560000Y-73670000D03*
%TD*%
D20*
%TO.P,J1,1,In*%
%TO.N,/V_bias*%
X88325000Y-56500000D03*
%TO.P,J1,2,Ext*%
%TO.N,GND*%
X84075000Y-56500000D03*
X92575000Y-56500000D03*
%TD*%
D21*
%TO.P,C9,1*%
%TO.N,/5V*%
X93620000Y-84400000D03*
%TO.P,C9,2*%
%TO.N,GND*%
X95170000Y-84400000D03*
%TD*%
D22*
%TO.P,C7,1*%
%TO.N,/-3.3VA*%
X90910000Y-83885000D03*
%TO.P,C7,2*%
%TO.N,GND*%
X90910000Y-82335000D03*
%TD*%
D18*
%TO.P,R5,1*%
%TO.N,Net-(U1-FB)*%
X87295000Y-72210000D03*
%TO.P,R5,2*%
%TO.N,/DAC_out*%
X88945000Y-72210000D03*
%TD*%
D21*
%TO.P,C2,1*%
%TO.N,/3.3V*%
X85425000Y-66925000D03*
%TO.P,C2,2*%
%TO.N,GND*%
X86975000Y-66925000D03*
%TD*%
D23*
%TO.P,TP3,1*%
%TO.N,GND*%
X85975000Y-61125000D03*
%TD*%
D12*
%TO.P,TP2,1*%
%TO.N,/-3.3VA*%
X94450000Y-76050000D03*
%TD*%
D24*
%TO.P,U4,1,Vout*%
%TO.N,/DAC_out*%
X87477500Y-70610000D03*
%TO.P,U4,2,VSS*%
%TO.N,GND*%
X87477500Y-69660000D03*
%TO.P,U4,3,VDD*%
%TO.N,/3.3V*%
X87477500Y-68710000D03*
%TO.P,U4,4,SDA*%
%TO.N,/SDA*%
X85202500Y-68710000D03*
%TO.P,U4,5,SCL*%
%TO.N,/SCL*%
X85202500Y-69660000D03*
%TO.P,U4,6,Vref*%
%TO.N,/3.3VA*%
X85202500Y-70610000D03*
%TD*%
D18*
%TO.P,R3,1*%
%TO.N,/V_bias*%
X84760000Y-83860000D03*
%TO.P,R3,2*%
%TO.N,Net-(U1-FB)*%
X86410000Y-83860000D03*
%TD*%
D13*
%TO.P,R8,1*%
%TO.N,Net-(U3-FB)*%
X92170000Y-81082500D03*
%TO.P,R8,2*%
%TO.N,GND*%
X91150000Y-81082500D03*
%TD*%
D24*
%TO.P,U2,1,GND*%
%TO.N,GND*%
X92925000Y-70400000D03*
%TO.P,U2,2,IN*%
%TO.N,/-5V*%
X92925000Y-69450000D03*
%TO.P,U2,3,EN*%
%TO.N,/enable*%
X92925000Y-68500000D03*
%TO.P,U2,4,FB*%
%TO.N,Net-(U2-FB)*%
X90650000Y-68500000D03*
%TO.P,U2,5,OUT*%
%TO.N,/-3.3VA*%
X90650000Y-70400000D03*
%TD*%
D25*
%TO.P,U3,1,IN*%
%TO.N,/5V*%
X93420000Y-82620000D03*
%TO.P,U3,2,GND*%
%TO.N,GND*%
X94370000Y-82620000D03*
%TO.P,U3,3,EN*%
%TO.N,/enable*%
X95320000Y-82620000D03*
%TO.P,U3,4,FB*%
%TO.N,Net-(U3-FB)*%
X95320000Y-80345000D03*
%TO.P,U3,5,OUT*%
%TO.N,/3.3VA*%
X93420000Y-80345000D03*
%TD*%
D14*
%TO.P,C6,1*%
%TO.N,/3.3VA*%
X83525000Y-79350000D03*
%TO.P,C6,2*%
%TO.N,GND*%
X81975000Y-79350000D03*
%TD*%
%TO.P,C5,1*%
%TO.N,/3.3VA*%
X95150000Y-78650000D03*
%TO.P,C5,2*%
%TO.N,GND*%
X93600000Y-78650000D03*
%TD*%
D18*
%TO.P,R4,1*%
%TO.N,Net-(U1-FB)*%
X87780000Y-83860000D03*
%TO.P,R4,2*%
%TO.N,/-3.3VA*%
X89430000Y-83860000D03*
%TD*%
D19*
%TO.P,C10,1*%
%TO.N,/3.3V*%
X89175000Y-64125000D03*
%TO.P,C10,2*%
%TO.N,GND*%
X89175000Y-65675000D03*
%TD*%
D10*
%TO.P,R6,1*%
%TO.N,/V_bias*%
X83395000Y-82190000D03*
%TO.P,R6,2*%
%TO.N,GND*%
X81745000Y-82190000D03*
%TD*%
D26*
%TO.P,U5,1,SCL*%
%TO.N,/SCL*%
X84762500Y-63375000D03*
%TO.P,U5,2,V_{SS}*%
%TO.N,GND*%
X84762500Y-64325000D03*
%TO.P,U5,3,SDA*%
%TO.N,/SDA*%
X84762500Y-65275000D03*
%TO.P,U5,4,V_{CC}*%
%TO.N,/3.3V*%
X87037500Y-65275000D03*
%TO.P,U5,5,NC*%
%TO.N,unconnected-(U5-NC-Pad5)*%
X87037500Y-63375000D03*
%TD*%
D14*
%TO.P,C1,1*%
%TO.N,/3.3VA*%
X85760000Y-72210000D03*
%TO.P,C1,2*%
%TO.N,GND*%
X84210000Y-72210000D03*
%TD*%
D19*
%TO.P,C4,1*%
%TO.N,/-5V*%
X93130000Y-72110000D03*
%TO.P,C4,2*%
%TO.N,GND*%
X93130000Y-73660000D03*
%TD*%
D27*
%TO.N,GND*%
X90050000Y-75575000D03*
X83700000Y-64275000D03*
X85377500Y-58997500D03*
X93720000Y-85730000D03*
X95370000Y-58380000D03*
X92250000Y-74375000D03*
X86330000Y-69450000D03*
X81630000Y-59580000D03*
X90125000Y-82375000D03*
X95390000Y-59620000D03*
X93425000Y-63800000D03*
X95390000Y-55980000D03*
X81630000Y-57200000D03*
X87950000Y-66300000D03*
X81630000Y-55940000D03*
X93450000Y-60825000D03*
X92625000Y-78675000D03*
X81610000Y-58340000D03*
X95390000Y-57240000D03*
%TO.N,/enable*%
X95120000Y-81490000D03*
X90300000Y-72225000D03*
X90719975Y-69480025D03*
%TO.N,/5V*%
X88950000Y-73135000D03*
X93420000Y-83600000D03*
X87500000Y-62625000D03*
%TO.N,/-5V*%
X92081251Y-69631251D03*
%TO.N,/3.3VA*%
X88060000Y-78330000D03*
X94350000Y-79625000D03*
X85375000Y-71375000D03*
%TO.N,/V_bias*%
X86550000Y-57925000D03*
X83820000Y-81030000D03*
%TO.N,Net-(U1-FB)*%
X87160000Y-85170000D03*
X85810000Y-77470000D03*
%TO.N,/SCL*%
X85857500Y-64950000D03*
%TO.N,/SDA*%
X83707264Y-65822753D03*
%TD*%
D28*
%TO.N,GND*%
X93600000Y-78650000D02*
X92650000Y-78650000D01*
D29*
X93450000Y-60825000D02*
X94185000Y-60825000D01*
D30*
X91820000Y-64800000D02*
X91340000Y-65280000D01*
X92925000Y-70400000D02*
X93030000Y-70400000D01*
X91820000Y-63330000D02*
X91820000Y-64800000D01*
X90330000Y-65280000D02*
X91340000Y-65280000D01*
X90900000Y-75175000D02*
X90450000Y-75175000D01*
D28*
X86540000Y-69660000D02*
X86330000Y-69450000D01*
X90910000Y-82335000D02*
X90165000Y-82335000D01*
D30*
X89175000Y-65675000D02*
X89935000Y-65675000D01*
D29*
X94185000Y-60825000D02*
X95390000Y-59620000D01*
D28*
X92650000Y-78650000D02*
X92625000Y-78675000D01*
X92415000Y-74375000D02*
X93130000Y-73660000D01*
D30*
X82340000Y-72210000D02*
X82240000Y-72310000D01*
X86697000Y-61125000D02*
X83700000Y-61125000D01*
X83700000Y-61125000D02*
X82155000Y-59580000D01*
X94370000Y-83600000D02*
X95170000Y-84400000D01*
X81975000Y-79350000D02*
X81975000Y-81960000D01*
D28*
X87175000Y-67125000D02*
X86850000Y-67125000D01*
D30*
X91560000Y-73670000D02*
X91560000Y-73685000D01*
X90450000Y-75175000D02*
X90050000Y-75575000D01*
X93590000Y-73660000D02*
X94940000Y-72310000D01*
X89935000Y-65675000D02*
X90330000Y-65280000D01*
X87950000Y-66300000D02*
X88550000Y-66300000D01*
D28*
X87477500Y-69660000D02*
X86540000Y-69660000D01*
D30*
X92925000Y-70400000D02*
X93280000Y-70400000D01*
X84075000Y-57695000D02*
X87101000Y-60721000D01*
X91560000Y-73670000D02*
X93120000Y-73670000D01*
X81745000Y-82190000D02*
X81745000Y-83835000D01*
X93130000Y-73660000D02*
X93590000Y-73660000D01*
D28*
X92250000Y-74375000D02*
X92415000Y-74375000D01*
D30*
X91560000Y-73670000D02*
X91560000Y-74515000D01*
X88550000Y-66300000D02*
X89175000Y-65675000D01*
D28*
X91150000Y-81082500D02*
X91150000Y-82095000D01*
D30*
X95170000Y-84400000D02*
X95170000Y-86685000D01*
X81770000Y-86445000D02*
X82240000Y-86915000D01*
D28*
X91150000Y-82095000D02*
X90910000Y-82335000D01*
D30*
X91560000Y-73685000D02*
X92250000Y-74375000D01*
D28*
X84762500Y-64325000D02*
X83750000Y-64325000D01*
D30*
X87984112Y-59750000D02*
X88991000Y-59750000D01*
X91820000Y-63330000D02*
X91820000Y-63320000D01*
X93425000Y-61715000D02*
X93425000Y-57350000D01*
X95170000Y-86685000D02*
X94940000Y-86915000D01*
D28*
X90165000Y-82335000D02*
X90125000Y-82375000D01*
D30*
X81745000Y-83835000D02*
X81770000Y-83860000D01*
X82155000Y-59580000D02*
X81630000Y-59580000D01*
X93030000Y-70400000D02*
X94940000Y-72310000D01*
D28*
X83750000Y-64325000D02*
X83700000Y-64275000D01*
D30*
X93120000Y-73670000D02*
X93130000Y-73660000D01*
X92575000Y-57865000D02*
X92575000Y-56500000D01*
X87013112Y-60721000D02*
X87984112Y-59750000D01*
X87101000Y-60721000D02*
X86697000Y-61125000D01*
X88991000Y-59750000D02*
X90690000Y-59750000D01*
X81975000Y-81960000D02*
X81745000Y-82190000D01*
X81770000Y-83860000D02*
X81770000Y-86445000D01*
X91820000Y-63320000D02*
X93425000Y-61715000D01*
X84075000Y-56500000D02*
X84075000Y-57695000D01*
X90690000Y-59750000D02*
X92575000Y-57865000D01*
X93425000Y-57350000D02*
X92575000Y-56500000D01*
X84110000Y-72310000D02*
X84210000Y-72210000D01*
X84210000Y-72210000D02*
X82340000Y-72210000D01*
X91560000Y-74515000D02*
X90900000Y-75175000D01*
X94370000Y-82620000D02*
X94370000Y-83600000D01*
D28*
%TO.N,/3.3V*%
X89175000Y-64125000D02*
X88187500Y-64125000D01*
D30*
X83006264Y-66113117D02*
X83416900Y-66523753D01*
X87210000Y-68710000D02*
X87477500Y-68710000D01*
X85425000Y-66925000D02*
X85425000Y-66887500D01*
X84270000Y-66925000D02*
X85425000Y-66925000D01*
X85425000Y-66887500D02*
X87037500Y-65275000D01*
X83868753Y-66523753D02*
X84270000Y-66925000D01*
X82240000Y-64895000D02*
X83006264Y-65661264D01*
X83416900Y-66523753D02*
X83868753Y-66523753D01*
X83006264Y-65661264D02*
X83006264Y-66113117D01*
D28*
X88187500Y-64125000D02*
X87037500Y-65275000D01*
D30*
X82240000Y-64690000D02*
X82240000Y-64895000D01*
X85425000Y-66925000D02*
X87210000Y-68710000D01*
D28*
%TO.N,/enable*%
X90944975Y-69480025D02*
X91925000Y-68500000D01*
X87502001Y-73711000D02*
X89225124Y-73711000D01*
D30*
X95320000Y-82620000D02*
X95320000Y-81690000D01*
D28*
X86595000Y-75593000D02*
X86595000Y-74618001D01*
X91925000Y-68500000D02*
X92925000Y-68500000D01*
X89225124Y-73711000D02*
X90300000Y-72636124D01*
X90719975Y-69480025D02*
X90944975Y-69480025D01*
D30*
X95320000Y-81690000D02*
X95120000Y-81490000D01*
D28*
X94940000Y-69770000D02*
X93670000Y-68500000D01*
X90300000Y-72636124D02*
X90300000Y-72225000D01*
X86595000Y-74618001D02*
X87502001Y-73711000D01*
X93670000Y-68500000D02*
X92925000Y-68500000D01*
D30*
%TO.N,/5V*%
X93420000Y-84200000D02*
X93620000Y-84400000D01*
X93420000Y-83600000D02*
X93420000Y-82620000D01*
X93420000Y-82620000D02*
X93420000Y-84200000D01*
D28*
%TO.N,/-3.3VA*%
X91875000Y-76050000D02*
X94450000Y-76050000D01*
D30*
X89586500Y-70061500D02*
X89925000Y-70400000D01*
X89430000Y-83860000D02*
X90885000Y-83860000D01*
X90650000Y-71210000D02*
X91560000Y-72120000D01*
X90005000Y-66920000D02*
X89586500Y-67338500D01*
X90375000Y-73305000D02*
X90375000Y-74125000D01*
D28*
X91100000Y-76825000D02*
X91875000Y-76050000D01*
X90900000Y-76825000D02*
X91100000Y-76825000D01*
D30*
X90650000Y-70400000D02*
X90650000Y-71210000D01*
X89130000Y-81370000D02*
X89130000Y-76825000D01*
X90885000Y-83860000D02*
X90910000Y-83885000D01*
X90375000Y-74125000D02*
X89734000Y-74766000D01*
X89130000Y-83560000D02*
X89430000Y-83860000D01*
X89130000Y-81370000D02*
X89130000Y-83560000D01*
X91560000Y-72120000D02*
X90375000Y-73305000D01*
X89586500Y-67338500D02*
X89586500Y-70061500D01*
X91340000Y-66920000D02*
X90005000Y-66920000D01*
X89734000Y-74766000D02*
X89130000Y-74766000D01*
X89925000Y-70400000D02*
X90650000Y-70400000D01*
D28*
X90900000Y-76825000D02*
X89130000Y-76825000D01*
D30*
X89130000Y-74766000D02*
X89130000Y-76825000D01*
%TO.N,/-5V*%
X91861500Y-70841500D02*
X91861500Y-69851001D01*
X92262501Y-69450000D02*
X92925000Y-69450000D01*
X91861500Y-69851001D02*
X92081251Y-69631251D01*
X93130000Y-72110000D02*
X91861500Y-70841500D01*
X92081251Y-69631251D02*
X92262501Y-69450000D01*
D28*
%TO.N,/3.3VA*%
X85760000Y-72210000D02*
X85760000Y-71760000D01*
X92170000Y-80075000D02*
X93150000Y-80075000D01*
X93630000Y-80345000D02*
X94350000Y-79625000D01*
D30*
X83525000Y-79350000D02*
X83525000Y-79400000D01*
X86590000Y-78330000D02*
X87865000Y-79605000D01*
X84663000Y-80538000D02*
X85320000Y-80538000D01*
X85202500Y-70610000D02*
X85202500Y-71202500D01*
X84545000Y-78330000D02*
X86590000Y-78330000D01*
D28*
X93420000Y-80345000D02*
X93630000Y-80345000D01*
D30*
X87865000Y-79605000D02*
X87865000Y-80543000D01*
D28*
X95150000Y-78650000D02*
X95115000Y-78650000D01*
X95150000Y-78650000D02*
X95150000Y-78825000D01*
D30*
X85202500Y-71202500D02*
X85375000Y-71375000D01*
D28*
X95150000Y-78825000D02*
X94350000Y-79625000D01*
D30*
X88060000Y-78330000D02*
X84545000Y-78330000D01*
X83525000Y-79350000D02*
X84545000Y-78330000D01*
D28*
X93150000Y-80075000D02*
X93420000Y-80345000D01*
X85760000Y-71760000D02*
X85375000Y-71375000D01*
D30*
X83525000Y-79400000D02*
X84663000Y-80538000D01*
D31*
%TO.N,/V_bias*%
X84760000Y-83860000D02*
X84760000Y-86895000D01*
D30*
X84760000Y-83015000D02*
X84760000Y-83860000D01*
X83320000Y-83860000D02*
X84760000Y-83860000D01*
X83820000Y-81030000D02*
X83820000Y-81765000D01*
X83820000Y-81765000D02*
X83395000Y-82190000D01*
X86590000Y-81370000D02*
X86405000Y-81370000D01*
D32*
X86695000Y-57780000D02*
X86550000Y-57925000D01*
X88325000Y-56500000D02*
X87045000Y-57780000D01*
D31*
X84780000Y-86915000D02*
X87320000Y-86915000D01*
X83395000Y-83785000D02*
X83320000Y-83860000D01*
D30*
X86405000Y-81370000D02*
X84760000Y-83015000D01*
D31*
X84760000Y-86895000D02*
X84780000Y-86915000D01*
D32*
X87045000Y-57780000D02*
X86695000Y-57780000D01*
D31*
X83395000Y-82190000D02*
X83395000Y-83785000D01*
D28*
%TO.N,Net-(U2-FB)*%
X90650000Y-68500000D02*
X90950000Y-68500000D01*
X90950000Y-68500000D02*
X92530000Y-66920000D01*
D30*
X92990000Y-65280000D02*
X92990000Y-66920000D01*
D28*
X92530000Y-66920000D02*
X92990000Y-66920000D01*
D30*
%TO.N,Net-(U1-FB)*%
X85808000Y-73095000D02*
X85320000Y-73583000D01*
X87160000Y-83970000D02*
X87050000Y-83860000D01*
X87295000Y-72210000D02*
X86410000Y-73095000D01*
X85320000Y-74766000D02*
X85320000Y-76980000D01*
X85320000Y-76980000D02*
X85810000Y-77470000D01*
X87050000Y-83860000D02*
X87780000Y-83860000D01*
X85320000Y-73583000D02*
X85320000Y-74766000D01*
X86410000Y-83860000D02*
X87050000Y-83860000D01*
X86410000Y-73095000D02*
X85808000Y-73095000D01*
X87160000Y-85170000D02*
X87160000Y-83970000D01*
%TO.N,/DAC_out*%
X88050000Y-70610000D02*
X88050000Y-71315000D01*
X88050000Y-71315000D02*
X88945000Y-72210000D01*
D28*
%TO.N,Net-(U3-FB)*%
X91162500Y-80075000D02*
X92170000Y-81082500D01*
X94381500Y-81283500D02*
X92371000Y-81283500D01*
X91150000Y-80075000D02*
X91162500Y-80075000D01*
X92371000Y-81283500D02*
X92170000Y-81082500D01*
X95320000Y-80345000D02*
X94381500Y-81283500D01*
%TO.N,/SCL*%
X85081612Y-63375000D02*
X84762500Y-63375000D01*
D30*
X84520000Y-69770000D02*
X84630000Y-69660000D01*
X82240000Y-69770000D02*
X84520000Y-69770000D01*
D28*
X85857500Y-64150888D02*
X85081612Y-63375000D01*
X85857500Y-64950000D02*
X85857500Y-64150888D01*
D30*
%TO.N,/SDA*%
X82240000Y-67230000D02*
X82730000Y-67230000D01*
X82730000Y-67230000D02*
X84210000Y-68710000D01*
D28*
X84762500Y-65275000D02*
X84255017Y-65275000D01*
X84255017Y-65275000D02*
X83707264Y-65822753D01*
D30*
X84210000Y-68710000D02*
X84630000Y-68710000D01*
%TD*%
%TA.AperFunction,Conductor*%
%TO.N,GND*%
G36*
X94474075Y-87107993D02*
G01*
X94539901Y-87222007D01*
X94632993Y-87315099D01*
X94747007Y-87380925D01*
X94810590Y-87397962D01*
X94178282Y-88030269D01*
X94179109Y-88040770D01*
X94164745Y-88109148D01*
X94115694Y-88158905D01*
X94055491Y-88174500D01*
X93345689Y-88174500D01*
X93278650Y-88154815D01*
X93232895Y-88102011D01*
X93222951Y-88032853D01*
X93251976Y-87969297D01*
X93272804Y-87950181D01*
X93279792Y-87945104D01*
X93430104Y-87794792D01*
X93430106Y-87794788D01*
X93430109Y-87794786D01*
X93506055Y-87690254D01*
X93555051Y-87622816D01*
X93559793Y-87613508D01*
X93607763Y-87562711D01*
X93675583Y-87545911D01*
X93741719Y-87568445D01*
X93780763Y-87613500D01*
X93785373Y-87622547D01*
X93824728Y-87676716D01*
X94457037Y-87044408D01*
X94474075Y-87107993D01*
G37*
%TD.AperFunction*%
%TA.AperFunction,Conductor*%
G36*
X96055269Y-87676716D02*
G01*
X96065770Y-87675890D01*
X96134148Y-87690254D01*
X96183905Y-87739305D01*
X96199500Y-87799508D01*
X96199500Y-88050500D01*
X96179815Y-88117539D01*
X96127011Y-88163294D01*
X96075500Y-88174500D01*
X95824509Y-88174500D01*
X95757470Y-88154815D01*
X95711715Y-88102011D01*
X95700891Y-88040772D01*
X95701717Y-88030270D01*
X95069408Y-87397962D01*
X95132993Y-87380925D01*
X95247007Y-87315099D01*
X95340099Y-87222007D01*
X95405925Y-87107993D01*
X95422962Y-87044408D01*
X96055269Y-87676716D01*
G37*
%TD.AperFunction*%
%TA.AperFunction,Conductor*%
G36*
X93023272Y-76679787D02*
G01*
X93038477Y-76679136D01*
X93056115Y-76689431D01*
X93075709Y-76695185D01*
X93086605Y-76707229D01*
X93098819Y-76714358D01*
X93119155Y-76743205D01*
X93166657Y-76836433D01*
X93305483Y-77027510D01*
X93472490Y-77194517D01*
X93663567Y-77333343D01*
X93872923Y-77440015D01*
X93873904Y-77440515D01*
X93924700Y-77488490D01*
X93941495Y-77556311D01*
X93918958Y-77622445D01*
X93864243Y-77665897D01*
X93857856Y-77667143D01*
X93850000Y-77675000D01*
X93850000Y-78526000D01*
X93830315Y-78593039D01*
X93777511Y-78638794D01*
X93726000Y-78650000D01*
X93600000Y-78650000D01*
X93600000Y-78776000D01*
X93580315Y-78843039D01*
X93527511Y-78888794D01*
X93476000Y-78900000D01*
X92650001Y-78900000D01*
X92650001Y-78948322D01*
X92660144Y-79047607D01*
X92690015Y-79137752D01*
X92692417Y-79207581D01*
X92656685Y-79267622D01*
X92594164Y-79298815D01*
X92537714Y-79295832D01*
X92405208Y-79257335D01*
X92405202Y-79257334D01*
X92369181Y-79254500D01*
X91970830Y-79254500D01*
X91970808Y-79254501D01*
X91934794Y-79257335D01*
X91780611Y-79302129D01*
X91780604Y-79302132D01*
X91723119Y-79336128D01*
X91655395Y-79353309D01*
X91596881Y-79336128D01*
X91539395Y-79302132D01*
X91539388Y-79302129D01*
X91385208Y-79257335D01*
X91385202Y-79257334D01*
X91349181Y-79254500D01*
X90950830Y-79254500D01*
X90950808Y-79254501D01*
X90914794Y-79257335D01*
X90760611Y-79302129D01*
X90760606Y-79302131D01*
X90622404Y-79383863D01*
X90622396Y-79383869D01*
X90508869Y-79497396D01*
X90508863Y-79497404D01*
X90427131Y-79635606D01*
X90427129Y-79635611D01*
X90382335Y-79789791D01*
X90382334Y-79789797D01*
X90379500Y-79825811D01*
X90379500Y-80324169D01*
X90379501Y-80324191D01*
X90382334Y-80360200D01*
X90427131Y-80514394D01*
X90428155Y-80516125D01*
X90428543Y-80517656D01*
X90430228Y-80521549D01*
X90429599Y-80521820D01*
X90445334Y-80583850D01*
X90430060Y-80635875D01*
X90430692Y-80636149D01*
X90428477Y-80641266D01*
X90428159Y-80642351D01*
X90427596Y-80643303D01*
X90427592Y-80643311D01*
X90382833Y-80797371D01*
X90382832Y-80797377D01*
X90380069Y-80832500D01*
X90700697Y-80832500D01*
X90752609Y-80846702D01*
X90753446Y-80844770D01*
X90760602Y-80847866D01*
X90760607Y-80847869D01*
X90801268Y-80859682D01*
X90914791Y-80892664D01*
X90914794Y-80892664D01*
X90914796Y-80892665D01*
X90950819Y-80895500D01*
X91025999Y-80895499D01*
X91093038Y-80915183D01*
X91138794Y-80967986D01*
X91150000Y-81019499D01*
X91150000Y-81082500D01*
X91234048Y-81082500D01*
X91263488Y-81091144D01*
X91293475Y-81097668D01*
X91298490Y-81101422D01*
X91301087Y-81102185D01*
X91321729Y-81118819D01*
X91363181Y-81160271D01*
X91396666Y-81221594D01*
X91399500Y-81247951D01*
X91399500Y-81331670D01*
X91399501Y-81331682D01*
X91399618Y-81333163D01*
X91400000Y-81342893D01*
X91400000Y-81908500D01*
X91380315Y-81975539D01*
X91327511Y-82021294D01*
X91276000Y-82032500D01*
X91160000Y-82032500D01*
X91160000Y-82085000D01*
X91884999Y-82085000D01*
X91884999Y-82061692D01*
X91884998Y-82061677D01*
X91882743Y-82039601D01*
X91895513Y-81970908D01*
X91943393Y-81920024D01*
X92006097Y-81902999D01*
X92267014Y-81902999D01*
X92270263Y-81903042D01*
X92280834Y-81903319D01*
X92309393Y-81909000D01*
X92309394Y-81909000D01*
X92497421Y-81909000D01*
X92499060Y-81909043D01*
X92530833Y-81919284D01*
X92562848Y-81928685D01*
X92563952Y-81929959D01*
X92565561Y-81930478D01*
X92586764Y-81956285D01*
X92608603Y-81981489D01*
X92608913Y-81983245D01*
X92609915Y-81984464D01*
X92611454Y-81997605D01*
X92618836Y-82039338D01*
X92619596Y-82039368D01*
X92619500Y-82041813D01*
X92619500Y-83198201D01*
X92622401Y-83235067D01*
X92622402Y-83235073D01*
X92646009Y-83316325D01*
X92648550Y-83375111D01*
X92619500Y-83521153D01*
X92619500Y-83678846D01*
X92650261Y-83833489D01*
X92650263Y-83833497D01*
X92660061Y-83857151D01*
X92669500Y-83904604D01*
X92669500Y-84698337D01*
X92669501Y-84698355D01*
X92679650Y-84797707D01*
X92679651Y-84797710D01*
X92732996Y-84958694D01*
X92733001Y-84958705D01*
X92822029Y-85103040D01*
X92822032Y-85103044D01*
X92941955Y-85222967D01*
X92941959Y-85222970D01*
X93086294Y-85311998D01*
X93086297Y-85311999D01*
X93086303Y-85312003D01*
X93247292Y-85365349D01*
X93346655Y-85375500D01*
X93893344Y-85375499D01*
X93893352Y-85375498D01*
X93893355Y-85375498D01*
X93947760Y-85369940D01*
X93992708Y-85365349D01*
X94153697Y-85312003D01*
X94298044Y-85222968D01*
X94307668Y-85213343D01*
X94368987Y-85179856D01*
X94438679Y-85184835D01*
X94483034Y-85213339D01*
X94492267Y-85222572D01*
X94492271Y-85222575D01*
X94636507Y-85311542D01*
X94636520Y-85311548D01*
X94733746Y-85343765D01*
X94791191Y-85383537D01*
X94818015Y-85448053D01*
X94805700Y-85516829D01*
X94758158Y-85568029D01*
X94714142Y-85583944D01*
X94623871Y-85598242D01*
X94623869Y-85598242D01*
X94421782Y-85663904D01*
X94232439Y-85760380D01*
X94178282Y-85799727D01*
X94178282Y-85799728D01*
X94810591Y-86432037D01*
X94747007Y-86449075D01*
X94632993Y-86514901D01*
X94539901Y-86607993D01*
X94474075Y-86722007D01*
X94457037Y-86785591D01*
X93824728Y-86153282D01*
X93824727Y-86153282D01*
X93785380Y-86207440D01*
X93785376Y-86207446D01*
X93780760Y-86216505D01*
X93732781Y-86267297D01*
X93664959Y-86284087D01*
X93598826Y-86261543D01*
X93559794Y-86216493D01*
X93555051Y-86207184D01*
X93555049Y-86207181D01*
X93555048Y-86207179D01*
X93430109Y-86035213D01*
X93279786Y-85884890D01*
X93107820Y-85759951D01*
X92918414Y-85663444D01*
X92918413Y-85663443D01*
X92918412Y-85663443D01*
X92716243Y-85597754D01*
X92716241Y-85597753D01*
X92716240Y-85597753D01*
X92554957Y-85572208D01*
X92506287Y-85564500D01*
X92293713Y-85564500D01*
X92245042Y-85572208D01*
X92083760Y-85597753D01*
X91881585Y-85663444D01*
X91692179Y-85759951D01*
X91520213Y-85884890D01*
X91369890Y-86035213D01*
X91244949Y-86207182D01*
X91240484Y-86215946D01*
X91192509Y-86266742D01*
X91124688Y-86283536D01*
X91058553Y-86260998D01*
X91019516Y-86215946D01*
X91015050Y-86207182D01*
X90890109Y-86035213D01*
X90739786Y-85884890D01*
X90567820Y-85759951D01*
X90378414Y-85663444D01*
X90378413Y-85663443D01*
X90378412Y-85663443D01*
X90176243Y-85597754D01*
X90176241Y-85597753D01*
X90176240Y-85597753D01*
X90014957Y-85572208D01*
X89966287Y-85564500D01*
X89753713Y-85564500D01*
X89705042Y-85572208D01*
X89543760Y-85597753D01*
X89341585Y-85663444D01*
X89152179Y-85759951D01*
X88980213Y-85884890D01*
X88829890Y-86035213D01*
X88704949Y-86207182D01*
X88700484Y-86215946D01*
X88652509Y-86266742D01*
X88584688Y-86283536D01*
X88518553Y-86260998D01*
X88479516Y-86215946D01*
X88475050Y-86207182D01*
X88350109Y-86035213D01*
X88199786Y-85884890D01*
X88027819Y-85759951D01*
X88027818Y-85759950D01*
X88027816Y-85759949D01*
X87927044Y-85708603D01*
X87876248Y-85660628D01*
X87859453Y-85592807D01*
X87868778Y-85550665D01*
X87869394Y-85549179D01*
X87929737Y-85403497D01*
X87960500Y-85248842D01*
X87960500Y-85091158D01*
X87960500Y-85091155D01*
X87938795Y-84982040D01*
X87945022Y-84912448D01*
X87987885Y-84857271D01*
X88049188Y-84834357D01*
X88107196Y-84829086D01*
X88269606Y-84778478D01*
X88415185Y-84690472D01*
X88465801Y-84639856D01*
X88517319Y-84588339D01*
X88578642Y-84554854D01*
X88648334Y-84559838D01*
X88692681Y-84588339D01*
X88794811Y-84690469D01*
X88794813Y-84690470D01*
X88794815Y-84690472D01*
X88940394Y-84778478D01*
X89102804Y-84829086D01*
X89173384Y-84835500D01*
X89173387Y-84835500D01*
X89686613Y-84835500D01*
X89686616Y-84835500D01*
X89757196Y-84829086D01*
X89919606Y-84778478D01*
X90065185Y-84690472D01*
X90065186Y-84690470D01*
X90071604Y-84686591D01*
X90072290Y-84687726D01*
X90129869Y-84664791D01*
X90198453Y-84678133D01*
X90206540Y-84682712D01*
X90351294Y-84771998D01*
X90351297Y-84771999D01*
X90351303Y-84772003D01*
X90512292Y-84825349D01*
X90611655Y-84835500D01*
X91208344Y-84835499D01*
X91208352Y-84835498D01*
X91208355Y-84835498D01*
X91271124Y-84829086D01*
X91307708Y-84825349D01*
X91468697Y-84772003D01*
X91613044Y-84682968D01*
X91732968Y-84563044D01*
X91822003Y-84418697D01*
X91875349Y-84257708D01*
X91885500Y-84158345D01*
X91885499Y-83611656D01*
X91880391Y-83561655D01*
X91875349Y-83512292D01*
X91875348Y-83512289D01*
X91829892Y-83375111D01*
X91822003Y-83351303D01*
X91821999Y-83351297D01*
X91821998Y-83351294D01*
X91732970Y-83206959D01*
X91732967Y-83206955D01*
X91723339Y-83197327D01*
X91689854Y-83136004D01*
X91694838Y-83066312D01*
X91723345Y-83021959D01*
X91732573Y-83012731D01*
X91821542Y-82868492D01*
X91821547Y-82868481D01*
X91874855Y-82707606D01*
X91884999Y-82608322D01*
X91885000Y-82608309D01*
X91885000Y-82585000D01*
X91034000Y-82585000D01*
X90966961Y-82565315D01*
X90921206Y-82512511D01*
X90910000Y-82461000D01*
X90910000Y-82335000D01*
X90784000Y-82335000D01*
X90716961Y-82315315D01*
X90671206Y-82262511D01*
X90660000Y-82211000D01*
X90660000Y-81332500D01*
X90380068Y-81332500D01*
X90381507Y-81350785D01*
X90367142Y-81419162D01*
X90322987Y-81466049D01*
X90207270Y-81537425D01*
X90134238Y-81610457D01*
X90072914Y-81643941D01*
X90003223Y-81638956D01*
X89947289Y-81597085D01*
X89922873Y-81531620D01*
X89927481Y-81488179D01*
X89932598Y-81470569D01*
X89935500Y-81433694D01*
X89935500Y-79652306D01*
X89932598Y-79615431D01*
X89898308Y-79497404D01*
X89885424Y-79453057D01*
X89880500Y-79418462D01*
X89880500Y-78351677D01*
X92650000Y-78351677D01*
X92650000Y-78400000D01*
X93350000Y-78400000D01*
X93350000Y-77674999D01*
X93326693Y-77675000D01*
X93326674Y-77675001D01*
X93227392Y-77685144D01*
X93066518Y-77738452D01*
X93066507Y-77738457D01*
X92922271Y-77827424D01*
X92922267Y-77827427D01*
X92802427Y-77947267D01*
X92802424Y-77947271D01*
X92713457Y-78091507D01*
X92713452Y-78091518D01*
X92660144Y-78252393D01*
X92650000Y-78351677D01*
X89880500Y-78351677D01*
X89880500Y-77574500D01*
X89883050Y-77565814D01*
X89881762Y-77556853D01*
X89892740Y-77532812D01*
X89900185Y-77507461D01*
X89907025Y-77501533D01*
X89910787Y-77493297D01*
X89933021Y-77479007D01*
X89952989Y-77461706D01*
X89963503Y-77459418D01*
X89969565Y-77455523D01*
X90004500Y-77450500D01*
X90008480Y-77450500D01*
X90075519Y-77470185D01*
X90096161Y-77486819D01*
X90189811Y-77580469D01*
X90189813Y-77580470D01*
X90189815Y-77580472D01*
X90335394Y-77668478D01*
X90497804Y-77719086D01*
X90568384Y-77725500D01*
X90568387Y-77725500D01*
X91231613Y-77725500D01*
X91231616Y-77725500D01*
X91302196Y-77719086D01*
X91464606Y-77668478D01*
X91610185Y-77580472D01*
X91730472Y-77460185D01*
X91818478Y-77314606D01*
X91869086Y-77152196D01*
X91875500Y-77081616D01*
X91875500Y-76985452D01*
X91895185Y-76918413D01*
X91911819Y-76897771D01*
X92097772Y-76711819D01*
X92159095Y-76678334D01*
X92185453Y-76675500D01*
X93008670Y-76675500D01*
X93023272Y-76679787D01*
G37*
%TD.AperFunction*%
%TA.AperFunction,Conductor*%
G36*
X96154951Y-85068754D02*
G01*
X96193809Y-85126821D01*
X96199500Y-85163956D01*
X96199500Y-86030490D01*
X96179815Y-86097529D01*
X96127011Y-86143284D01*
X96065772Y-86154108D01*
X96055270Y-86153281D01*
X95422962Y-86785590D01*
X95405925Y-86722007D01*
X95340099Y-86607993D01*
X95247007Y-86514901D01*
X95132993Y-86449075D01*
X95069409Y-86432037D01*
X95701716Y-85799728D01*
X95647550Y-85760375D01*
X95458217Y-85663904D01*
X95313644Y-85616930D01*
X95255969Y-85577493D01*
X95228770Y-85513134D01*
X95240685Y-85444288D01*
X95287929Y-85392812D01*
X95351962Y-85374999D01*
X95443307Y-85374999D01*
X95443323Y-85374998D01*
X95542607Y-85364855D01*
X95703481Y-85311547D01*
X95703492Y-85311542D01*
X95847728Y-85222575D01*
X95847732Y-85222572D01*
X95967572Y-85102732D01*
X95967573Y-85102730D01*
X95969960Y-85098862D01*
X96021906Y-85052136D01*
X96090868Y-85040912D01*
X96154951Y-85068754D01*
G37*
%TD.AperFunction*%
%TA.AperFunction,Conductor*%
G36*
X84403039Y-72229685D02*
G01*
X84448794Y-72282489D01*
X84460000Y-72334000D01*
X84460000Y-73184999D01*
X84486470Y-73184999D01*
X84486470Y-73186552D01*
X84548511Y-73201333D01*
X84596934Y-73251701D01*
X84610439Y-73320253D01*
X84601517Y-73356419D01*
X84598344Y-73364079D01*
X84598340Y-73364092D01*
X84569500Y-73509079D01*
X84569500Y-74502883D01*
X84564576Y-74537478D01*
X84527402Y-74665426D01*
X84527401Y-74665432D01*
X84524500Y-74702298D01*
X84524500Y-76483701D01*
X84527401Y-76520567D01*
X84527402Y-76520569D01*
X84564576Y-76648522D01*
X84569500Y-76683115D01*
X84569500Y-77053918D01*
X84569500Y-77053920D01*
X84569499Y-77053920D01*
X84598340Y-77198907D01*
X84598343Y-77198917D01*
X84654912Y-77335488D01*
X84654920Y-77335502D01*
X84683996Y-77379016D01*
X84684193Y-77379311D01*
X84689074Y-77386616D01*
X84700653Y-77423607D01*
X84709947Y-77453287D01*
X84709945Y-77453291D01*
X84709947Y-77453295D01*
X84700748Y-77486819D01*
X84691462Y-77520667D01*
X84691459Y-77520669D01*
X84691458Y-77520674D01*
X84667086Y-77542563D01*
X84639483Y-77567357D01*
X84639479Y-77567357D01*
X84639476Y-77567361D01*
X84639438Y-77567367D01*
X84585967Y-77579500D01*
X84471080Y-77579500D01*
X84326092Y-77608340D01*
X84326082Y-77608343D01*
X84189511Y-77664912D01*
X84189499Y-77664919D01*
X84153592Y-77688912D01*
X84153591Y-77688913D01*
X84066582Y-77747049D01*
X84066581Y-77747050D01*
X83475449Y-78338181D01*
X83414126Y-78371666D01*
X83387769Y-78374500D01*
X83251663Y-78374500D01*
X83251644Y-78374501D01*
X83152292Y-78384650D01*
X83152289Y-78384651D01*
X82991305Y-78437996D01*
X82991294Y-78438001D01*
X82846959Y-78527029D01*
X82846953Y-78527033D01*
X82837324Y-78536663D01*
X82776000Y-78570146D01*
X82706308Y-78565159D01*
X82661965Y-78536660D01*
X82652732Y-78527427D01*
X82652728Y-78527424D01*
X82508492Y-78438457D01*
X82508481Y-78438452D01*
X82347606Y-78385144D01*
X82248322Y-78375000D01*
X82225000Y-78375000D01*
X82225000Y-80324999D01*
X82248308Y-80324999D01*
X82248322Y-80324998D01*
X82347607Y-80314855D01*
X82508481Y-80261547D01*
X82508492Y-80261542D01*
X82652731Y-80172573D01*
X82661959Y-80163345D01*
X82723279Y-80129856D01*
X82792971Y-80134835D01*
X82837327Y-80163339D01*
X82846955Y-80172967D01*
X82846959Y-80172970D01*
X82991294Y-80261998D01*
X82991297Y-80261999D01*
X82991303Y-80262003D01*
X83134619Y-80309492D01*
X83149449Y-80314407D01*
X83206894Y-80354180D01*
X83233717Y-80418695D01*
X83221402Y-80487471D01*
X83201764Y-80514745D01*
X83202076Y-80515001D01*
X83198210Y-80519711D01*
X83110609Y-80650814D01*
X83110602Y-80650827D01*
X83050264Y-80796498D01*
X83050261Y-80796510D01*
X83019500Y-80951153D01*
X83019500Y-81108842D01*
X83021551Y-81119154D01*
X83015322Y-81188745D01*
X82972458Y-81243922D01*
X82936826Y-81261727D01*
X82920471Y-81266824D01*
X82905393Y-81271522D01*
X82759811Y-81359530D01*
X82759810Y-81359531D01*
X82657327Y-81462015D01*
X82596004Y-81495500D01*
X82526312Y-81490516D01*
X82481965Y-81462015D01*
X82379877Y-81359927D01*
X82234395Y-81271980D01*
X82234396Y-81271980D01*
X82072105Y-81221409D01*
X82072106Y-81221409D01*
X82001572Y-81215000D01*
X81995000Y-81215000D01*
X81995000Y-82764410D01*
X82017166Y-82805004D01*
X82020000Y-82831362D01*
X82020000Y-84834999D01*
X82043308Y-84834999D01*
X82043322Y-84834998D01*
X82142607Y-84824855D01*
X82303481Y-84771547D01*
X82303492Y-84771542D01*
X82447731Y-84682573D01*
X82456959Y-84673345D01*
X82518279Y-84639856D01*
X82587971Y-84644835D01*
X82632327Y-84673339D01*
X82641955Y-84682967D01*
X82641959Y-84682970D01*
X82786294Y-84771998D01*
X82786297Y-84771999D01*
X82786303Y-84772003D01*
X82947292Y-84825349D01*
X83046655Y-84835500D01*
X83593344Y-84835499D01*
X83593352Y-84835498D01*
X83593355Y-84835498D01*
X83656124Y-84829086D01*
X83692708Y-84825349D01*
X83721495Y-84815809D01*
X83791322Y-84813407D01*
X83851364Y-84849137D01*
X83882558Y-84911657D01*
X83884500Y-84933515D01*
X83884500Y-85849242D01*
X83875855Y-85878679D01*
X83869332Y-85908670D01*
X83865576Y-85913686D01*
X83864815Y-85916281D01*
X83848185Y-85936918D01*
X83799657Y-85985447D01*
X83786285Y-85998819D01*
X83724961Y-86032303D01*
X83655270Y-86027318D01*
X83599336Y-85985447D01*
X83582422Y-85954470D01*
X83533354Y-85822913D01*
X83533350Y-85822906D01*
X83447190Y-85707812D01*
X83447187Y-85707809D01*
X83332093Y-85621649D01*
X83332086Y-85621645D01*
X83197379Y-85571403D01*
X83197372Y-85571401D01*
X83137844Y-85565000D01*
X82490000Y-85565000D01*
X82490000Y-86481988D01*
X82432993Y-86449075D01*
X82305826Y-86415000D01*
X82174174Y-86415000D01*
X82047007Y-86449075D01*
X81990000Y-86481988D01*
X81990000Y-85565000D01*
X81342155Y-85565000D01*
X81282627Y-85571401D01*
X81282619Y-85571403D01*
X81147833Y-85621675D01*
X81078141Y-85626659D01*
X81016818Y-85593174D01*
X80983334Y-85531850D01*
X80980500Y-85505493D01*
X80980500Y-84835809D01*
X81000185Y-84768770D01*
X81052989Y-84723015D01*
X81122147Y-84713071D01*
X81169597Y-84730271D01*
X81236507Y-84771542D01*
X81236518Y-84771547D01*
X81397393Y-84824855D01*
X81496683Y-84834999D01*
X81520000Y-84834998D01*
X81520000Y-83285589D01*
X81497834Y-83244996D01*
X81495000Y-83218638D01*
X81495000Y-81215000D01*
X81494999Y-81214999D01*
X81488436Y-81215000D01*
X81488417Y-81215001D01*
X81417897Y-81221408D01*
X81417892Y-81221409D01*
X81255603Y-81271981D01*
X81168650Y-81324546D01*
X81101095Y-81342382D01*
X81034621Y-81320864D01*
X80990334Y-81266824D01*
X80980500Y-81218429D01*
X80980500Y-80155167D01*
X81000185Y-80088128D01*
X81052989Y-80042373D01*
X81122147Y-80032429D01*
X81185703Y-80061454D01*
X81192181Y-80067486D01*
X81297267Y-80172572D01*
X81297271Y-80172575D01*
X81441507Y-80261542D01*
X81441518Y-80261547D01*
X81602393Y-80314855D01*
X81701683Y-80324999D01*
X81725000Y-80324998D01*
X81725000Y-78374999D01*
X81701693Y-78375000D01*
X81701674Y-78375001D01*
X81602392Y-78385144D01*
X81441518Y-78438452D01*
X81441507Y-78438457D01*
X81297271Y-78527424D01*
X81297267Y-78527427D01*
X81192181Y-78632514D01*
X81130858Y-78665999D01*
X81061166Y-78661015D01*
X81005233Y-78619143D01*
X80980816Y-78553679D01*
X80980500Y-78544833D01*
X80980500Y-73194508D01*
X81000185Y-73127469D01*
X81052989Y-73081714D01*
X81114230Y-73070890D01*
X81124728Y-73071716D01*
X81757037Y-72439408D01*
X81774075Y-72502993D01*
X81839901Y-72617007D01*
X81932993Y-72710099D01*
X82047007Y-72775925D01*
X82110590Y-72792962D01*
X81478282Y-73425269D01*
X81478282Y-73425270D01*
X81532449Y-73464624D01*
X81721782Y-73561095D01*
X81923869Y-73626757D01*
X81923873Y-73626758D01*
X82011258Y-73640598D01*
X82074393Y-73670527D01*
X82111325Y-73729838D01*
X82110327Y-73799700D01*
X82071718Y-73857933D01*
X82048157Y-73873555D01*
X81963569Y-73916655D01*
X81868028Y-73986070D01*
X81772490Y-74055483D01*
X81772488Y-74055485D01*
X81772487Y-74055485D01*
X81605485Y-74222487D01*
X81605485Y-74222488D01*
X81605483Y-74222490D01*
X81597313Y-74233735D01*
X81466657Y-74413566D01*
X81359433Y-74624003D01*
X81286446Y-74848631D01*
X81249500Y-75081902D01*
X81249500Y-75318097D01*
X81286446Y-75551368D01*
X81359433Y-75775996D01*
X81438872Y-75931902D01*
X81466657Y-75986433D01*
X81605483Y-76177510D01*
X81772490Y-76344517D01*
X81963567Y-76483343D01*
X82036623Y-76520567D01*
X82174003Y-76590566D01*
X82174005Y-76590566D01*
X82174008Y-76590568D01*
X82283032Y-76625992D01*
X82398631Y-76663553D01*
X82631903Y-76700500D01*
X82631908Y-76700500D01*
X82868097Y-76700500D01*
X83101368Y-76663553D01*
X83325992Y-76590568D01*
X83536433Y-76483343D01*
X83727510Y-76344517D01*
X83894517Y-76177510D01*
X84033343Y-75986433D01*
X84140568Y-75775992D01*
X84213553Y-75551368D01*
X84225806Y-75474008D01*
X84250500Y-75318097D01*
X84250500Y-75081902D01*
X84213553Y-74848631D01*
X84165579Y-74700984D01*
X84140568Y-74624008D01*
X84140566Y-74624005D01*
X84140566Y-74624003D01*
X84078852Y-74502883D01*
X84033343Y-74413567D01*
X83894517Y-74222490D01*
X83727510Y-74055483D01*
X83536433Y-73916657D01*
X83504360Y-73900315D01*
X83325996Y-73809433D01*
X83101369Y-73736447D01*
X82953985Y-73713103D01*
X82890851Y-73683173D01*
X82853920Y-73623862D01*
X82854918Y-73553999D01*
X82893528Y-73495767D01*
X82917091Y-73480144D01*
X82947554Y-73464622D01*
X83001716Y-73425270D01*
X83001717Y-73425270D01*
X82369408Y-72792962D01*
X82432993Y-72775925D01*
X82547007Y-72710099D01*
X82640099Y-72617007D01*
X82705925Y-72502993D01*
X82722962Y-72439408D01*
X83355269Y-73071716D01*
X83362110Y-73062302D01*
X83417440Y-73019636D01*
X83487053Y-73013657D01*
X83527526Y-73029649D01*
X83676507Y-73121542D01*
X83676518Y-73121547D01*
X83837393Y-73174855D01*
X83936683Y-73184999D01*
X83960000Y-73184998D01*
X83960000Y-72334000D01*
X83979685Y-72266961D01*
X84032489Y-72221206D01*
X84084000Y-72210000D01*
X84336000Y-72210000D01*
X84403039Y-72229685D01*
G37*
%TD.AperFunction*%
%TA.AperFunction,Conductor*%
G36*
X96055269Y-73071716D02*
G01*
X96065770Y-73070890D01*
X96134148Y-73085254D01*
X96183905Y-73134305D01*
X96199500Y-73194508D01*
X96199500Y-77917515D01*
X96179815Y-77984554D01*
X96127011Y-78030309D01*
X96057853Y-78040253D01*
X95994297Y-78011228D01*
X95969962Y-77982613D01*
X95947968Y-77946956D01*
X95828044Y-77827032D01*
X95828040Y-77827029D01*
X95683705Y-77738001D01*
X95683699Y-77737998D01*
X95683697Y-77737997D01*
X95626627Y-77719086D01*
X95522709Y-77684651D01*
X95423352Y-77674500D01*
X95083371Y-77674500D01*
X95016332Y-77654815D01*
X94970577Y-77602011D01*
X94960633Y-77532853D01*
X94989658Y-77469297D01*
X95027073Y-77440016D01*
X95236433Y-77333343D01*
X95427510Y-77194517D01*
X95594517Y-77027510D01*
X95733343Y-76836433D01*
X95840568Y-76625992D01*
X95913553Y-76401368D01*
X95945526Y-76199500D01*
X95950500Y-76168097D01*
X95950500Y-75931902D01*
X95913553Y-75698631D01*
X95840566Y-75474003D01*
X95733342Y-75263566D01*
X95594517Y-75072490D01*
X95427510Y-74905483D01*
X95236433Y-74766657D01*
X95167630Y-74731600D01*
X95025996Y-74659433D01*
X94801368Y-74586446D01*
X94568097Y-74549500D01*
X94568092Y-74549500D01*
X94331908Y-74549500D01*
X94331903Y-74549500D01*
X94098630Y-74586447D01*
X94098627Y-74586447D01*
X94005068Y-74616847D01*
X93935227Y-74618842D01*
X93875394Y-74582762D01*
X93844566Y-74520061D01*
X93852531Y-74450646D01*
X93879069Y-74411234D01*
X93952576Y-74337727D01*
X94041542Y-74193492D01*
X94041547Y-74193481D01*
X94094855Y-74032606D01*
X94104999Y-73933322D01*
X94105000Y-73933309D01*
X94105000Y-73910000D01*
X93380000Y-73910000D01*
X93380000Y-74609999D01*
X93428308Y-74609999D01*
X93428322Y-74609998D01*
X93495248Y-74603161D01*
X93563940Y-74615930D01*
X93614825Y-74663811D01*
X93631746Y-74731600D01*
X93609331Y-74797777D01*
X93580736Y-74826837D01*
X93472488Y-74905484D01*
X93305485Y-75072487D01*
X93305485Y-75072488D01*
X93305483Y-75072490D01*
X93245862Y-75154550D01*
X93166657Y-75263566D01*
X93119155Y-75356795D01*
X93071180Y-75407591D01*
X93008670Y-75424500D01*
X91936612Y-75424500D01*
X91936607Y-75424499D01*
X91813394Y-75424499D01*
X91811030Y-75424969D01*
X91802657Y-75424999D01*
X91802596Y-75424981D01*
X91802216Y-75425000D01*
X91024000Y-75425000D01*
X90956961Y-75405315D01*
X90911206Y-75352511D01*
X90900000Y-75301000D01*
X90900000Y-75049000D01*
X90919685Y-74981961D01*
X90972489Y-74936206D01*
X91024000Y-74925000D01*
X91874999Y-74925000D01*
X91874999Y-74918417D01*
X91868591Y-74847897D01*
X91868590Y-74847892D01*
X91844581Y-74770844D01*
X91843429Y-74700984D01*
X91880230Y-74641591D01*
X91943298Y-74611523D01*
X91950372Y-74610594D01*
X91957609Y-74609855D01*
X92118481Y-74556547D01*
X92118492Y-74556542D01*
X92262728Y-74467575D01*
X92262931Y-74467373D01*
X92263105Y-74467277D01*
X92268395Y-74463095D01*
X92269109Y-74463998D01*
X92324251Y-74433882D01*
X92393943Y-74438860D01*
X92420942Y-74454070D01*
X92421121Y-74453782D01*
X92571507Y-74546542D01*
X92571518Y-74546547D01*
X92732393Y-74599855D01*
X92831683Y-74609999D01*
X92879999Y-74609998D01*
X92880000Y-74609998D01*
X92880000Y-73910000D01*
X92643120Y-73910000D01*
X92629996Y-73917166D01*
X92603638Y-73920000D01*
X91684000Y-73920000D01*
X91616961Y-73900315D01*
X91571206Y-73847511D01*
X91560000Y-73796000D01*
X91560000Y-73544000D01*
X91579685Y-73476961D01*
X91632489Y-73431206D01*
X91684000Y-73420000D01*
X92046880Y-73420000D01*
X92060004Y-73412834D01*
X92086362Y-73410000D01*
X94131286Y-73410000D01*
X94198325Y-73429685D01*
X94232599Y-73464700D01*
X94421777Y-73561092D01*
X94623871Y-73626757D01*
X94833754Y-73660000D01*
X95046246Y-73660000D01*
X95256127Y-73626757D01*
X95256130Y-73626757D01*
X95458217Y-73561095D01*
X95647554Y-73464622D01*
X95701716Y-73425270D01*
X95701717Y-73425270D01*
X95069408Y-72792962D01*
X95132993Y-72775925D01*
X95247007Y-72710099D01*
X95340099Y-72617007D01*
X95405925Y-72502993D01*
X95422962Y-72439408D01*
X96055269Y-73071716D01*
G37*
%TD.AperFunction*%
%TA.AperFunction,Conductor*%
G36*
X81185703Y-70621976D02*
G01*
X81204819Y-70642804D01*
X81209896Y-70649792D01*
X81360213Y-70800109D01*
X81532179Y-70925048D01*
X81532181Y-70925049D01*
X81532184Y-70925051D01*
X81541493Y-70929794D01*
X81592290Y-70977766D01*
X81609087Y-71045587D01*
X81586552Y-71111722D01*
X81541505Y-71150760D01*
X81532446Y-71155376D01*
X81532440Y-71155380D01*
X81478282Y-71194727D01*
X81478282Y-71194728D01*
X82110591Y-71827037D01*
X82047007Y-71844075D01*
X81932993Y-71909901D01*
X81839901Y-72002993D01*
X81774075Y-72117007D01*
X81757037Y-72180591D01*
X81124727Y-71548281D01*
X81114228Y-71549108D01*
X81045851Y-71534743D01*
X80996095Y-71485692D01*
X80980500Y-71425490D01*
X80980500Y-70715689D01*
X81000185Y-70648650D01*
X81052989Y-70602895D01*
X81122147Y-70592951D01*
X81185703Y-70621976D01*
G37*
%TD.AperFunction*%
%TA.AperFunction,Conductor*%
G36*
X94113644Y-70854458D02*
G01*
X94125322Y-70854816D01*
X94153259Y-70869086D01*
X94156962Y-70870454D01*
X94158337Y-70871398D01*
X94232184Y-70925051D01*
X94248721Y-70933477D01*
X94255404Y-70938067D01*
X94272546Y-70959120D01*
X94292290Y-70977766D01*
X94294284Y-70985817D01*
X94299520Y-70992248D01*
X94302559Y-71019231D01*
X94309087Y-71045587D01*
X94306412Y-71053435D01*
X94307341Y-71061678D01*
X94295309Y-71086022D01*
X94286552Y-71111722D01*
X94279651Y-71117702D01*
X94276383Y-71124315D01*
X94262193Y-71132831D01*
X94241505Y-71150760D01*
X94232446Y-71155376D01*
X94232440Y-71155380D01*
X94178282Y-71194727D01*
X94178282Y-71194728D01*
X94810591Y-71827037D01*
X94747007Y-71844075D01*
X94632993Y-71909901D01*
X94539901Y-72002993D01*
X94474075Y-72117007D01*
X94457037Y-72180591D01*
X94135827Y-71859381D01*
X94102342Y-71798058D01*
X94100152Y-71784312D01*
X94095349Y-71737292D01*
X94042003Y-71576303D01*
X94041999Y-71576297D01*
X94041998Y-71576294D01*
X93952970Y-71431959D01*
X93952967Y-71431955D01*
X93833043Y-71312031D01*
X93808468Y-71296873D01*
X93761744Y-71244924D01*
X93750523Y-71175962D01*
X93778367Y-71111880D01*
X93810447Y-71084602D01*
X93839052Y-71067685D01*
X93839061Y-71067678D01*
X93955178Y-70951561D01*
X93955182Y-70951555D01*
X93980026Y-70909547D01*
X93989707Y-70900506D01*
X93995577Y-70888632D01*
X94014749Y-70877124D01*
X94031095Y-70861863D01*
X94044128Y-70859492D01*
X94055485Y-70852676D01*
X94077835Y-70853360D01*
X94099836Y-70849359D01*
X94113644Y-70854458D01*
G37*
%TD.AperFunction*%
%TA.AperFunction,Conductor*%
G36*
X83982539Y-70540185D02*
G01*
X84028294Y-70592989D01*
X84039500Y-70644500D01*
X84039500Y-70825701D01*
X84042401Y-70862567D01*
X84042402Y-70862573D01*
X84088254Y-71020393D01*
X84088254Y-71020394D01*
X84088255Y-71020396D01*
X84088256Y-71020398D01*
X84103153Y-71045587D01*
X84104509Y-71047880D01*
X84121690Y-71115604D01*
X84099530Y-71181866D01*
X84045064Y-71225629D01*
X83997778Y-71235000D01*
X83936693Y-71235000D01*
X83936676Y-71235001D01*
X83837392Y-71245144D01*
X83676518Y-71298452D01*
X83676507Y-71298457D01*
X83532271Y-71387424D01*
X83410654Y-71509040D01*
X83375099Y-71528453D01*
X82722962Y-72180590D01*
X82705925Y-72117007D01*
X82640099Y-72002993D01*
X82547007Y-71909901D01*
X82432993Y-71844075D01*
X82369409Y-71827037D01*
X83001716Y-71194728D01*
X82947547Y-71155373D01*
X82947547Y-71155372D01*
X82938500Y-71150763D01*
X82887706Y-71102788D01*
X82870912Y-71034966D01*
X82893451Y-70968832D01*
X82938508Y-70929793D01*
X82947816Y-70925051D01*
X83033816Y-70862569D01*
X83119786Y-70800109D01*
X83119788Y-70800106D01*
X83119792Y-70800104D01*
X83270104Y-70649792D01*
X83286835Y-70626764D01*
X83326903Y-70571615D01*
X83382233Y-70528949D01*
X83427221Y-70520500D01*
X83915500Y-70520500D01*
X83982539Y-70540185D01*
G37*
%TD.AperFunction*%
%TA.AperFunction,Conductor*%
G36*
X96161920Y-70626764D02*
G01*
X96196277Y-70687603D01*
X96199500Y-70715689D01*
X96199500Y-71425490D01*
X96179815Y-71492529D01*
X96127011Y-71538284D01*
X96065772Y-71549108D01*
X96055270Y-71548281D01*
X95422962Y-72180590D01*
X95405925Y-72117007D01*
X95340099Y-72002993D01*
X95247007Y-71909901D01*
X95132993Y-71844075D01*
X95069409Y-71827037D01*
X95701716Y-71194728D01*
X95647547Y-71155373D01*
X95647547Y-71155372D01*
X95638500Y-71150763D01*
X95587706Y-71102788D01*
X95570912Y-71034966D01*
X95593451Y-70968832D01*
X95638508Y-70929793D01*
X95647816Y-70925051D01*
X95733816Y-70862569D01*
X95819786Y-70800109D01*
X95819788Y-70800106D01*
X95819792Y-70800104D01*
X95970104Y-70649792D01*
X95975181Y-70642803D01*
X96030511Y-70600138D01*
X96100124Y-70594159D01*
X96161920Y-70626764D01*
G37*
%TD.AperFunction*%
%TA.AperFunction,Conductor*%
G36*
X88123010Y-65874448D02*
G01*
X88178944Y-65916318D01*
X88203036Y-65978028D01*
X88210144Y-66047607D01*
X88263452Y-66208481D01*
X88263457Y-66208492D01*
X88352424Y-66352728D01*
X88352427Y-66352732D01*
X88472267Y-66472572D01*
X88472271Y-66472575D01*
X88616507Y-66561542D01*
X88616518Y-66561547D01*
X88777393Y-66614855D01*
X88876683Y-66624999D01*
X88939268Y-66624999D01*
X88953323Y-66629125D01*
X88967955Y-66628362D01*
X88986177Y-66638772D01*
X89006308Y-66644683D01*
X89015901Y-66655753D01*
X89028622Y-66663021D01*
X89038322Y-66681627D01*
X89052064Y-66697486D01*
X89054149Y-66711987D01*
X89060921Y-66724977D01*
X89059021Y-66745873D01*
X89062008Y-66766644D01*
X89055809Y-66781211D01*
X89054596Y-66794560D01*
X89041894Y-66813913D01*
X89037089Y-66825206D01*
X89032374Y-66831257D01*
X89003548Y-66860084D01*
X88967686Y-66913757D01*
X88965179Y-66917508D01*
X88965175Y-66917514D01*
X88921419Y-66982999D01*
X88921412Y-66983011D01*
X88864843Y-67119582D01*
X88864840Y-67119592D01*
X88836000Y-67264579D01*
X88836000Y-68269066D01*
X88816315Y-68336105D01*
X88763511Y-68381860D01*
X88694353Y-68391804D01*
X88630797Y-68362779D01*
X88593023Y-68304001D01*
X88592924Y-68303662D01*
X88591745Y-68299605D01*
X88591744Y-68299603D01*
X88591744Y-68299602D01*
X88508081Y-68158135D01*
X88508079Y-68158133D01*
X88508076Y-68158129D01*
X88391870Y-68041923D01*
X88391862Y-68041917D01*
X88250396Y-67958255D01*
X88250393Y-67958254D01*
X88092573Y-67912402D01*
X88092567Y-67912401D01*
X88055701Y-67909500D01*
X88055694Y-67909500D01*
X87790167Y-67909500D01*
X87723128Y-67889815D01*
X87677373Y-67837011D01*
X87667429Y-67767853D01*
X87696454Y-67704297D01*
X87702486Y-67697819D01*
X87772572Y-67627732D01*
X87772575Y-67627728D01*
X87861542Y-67483492D01*
X87861547Y-67483481D01*
X87914855Y-67322606D01*
X87924999Y-67223322D01*
X87925000Y-67223309D01*
X87925000Y-67175000D01*
X87099000Y-67175000D01*
X87031961Y-67155315D01*
X86986206Y-67102511D01*
X86975000Y-67051000D01*
X86975000Y-66799000D01*
X86994685Y-66731961D01*
X87047489Y-66686206D01*
X87099000Y-66675000D01*
X87924999Y-66675000D01*
X87924999Y-66626692D01*
X87924998Y-66626677D01*
X87914855Y-66527392D01*
X87861547Y-66366518D01*
X87861542Y-66366507D01*
X87772575Y-66222271D01*
X87768095Y-66216605D01*
X87770322Y-66214843D01*
X87743062Y-66164919D01*
X87748046Y-66095227D01*
X87789918Y-66039294D01*
X87803946Y-66031161D01*
X87803683Y-66030715D01*
X87810398Y-66026744D01*
X87951865Y-65943081D01*
X87991996Y-65902950D01*
X88053319Y-65869464D01*
X88123010Y-65874448D01*
G37*
%TD.AperFunction*%
%TA.AperFunction,Conductor*%
G36*
X82768039Y-53950185D02*
G01*
X82813794Y-54002989D01*
X82825000Y-54054500D01*
X82825000Y-56250000D01*
X85325000Y-56250000D01*
X85325000Y-54054500D01*
X85344685Y-53987461D01*
X85397489Y-53941706D01*
X85449000Y-53930500D01*
X86950500Y-53930500D01*
X87017539Y-53950185D01*
X87063294Y-54002989D01*
X87074500Y-54054500D01*
X87074500Y-56849902D01*
X87054815Y-56916941D01*
X87038181Y-56937583D01*
X86861228Y-57114535D01*
X86799905Y-57148020D01*
X86749356Y-57148471D01*
X86628846Y-57124500D01*
X86628842Y-57124500D01*
X86471158Y-57124500D01*
X86471155Y-57124500D01*
X86316510Y-57155261D01*
X86316498Y-57155264D01*
X86170827Y-57215602D01*
X86170814Y-57215609D01*
X86039711Y-57303210D01*
X86039707Y-57303213D01*
X85928213Y-57414707D01*
X85928210Y-57414711D01*
X85840609Y-57545814D01*
X85840602Y-57545827D01*
X85780264Y-57691498D01*
X85780261Y-57691510D01*
X85749500Y-57846153D01*
X85749500Y-58003846D01*
X85780261Y-58158489D01*
X85780264Y-58158501D01*
X85840602Y-58304172D01*
X85840609Y-58304185D01*
X85928210Y-58435288D01*
X85928213Y-58435292D01*
X86039707Y-58546786D01*
X86039711Y-58546789D01*
X86170814Y-58634390D01*
X86170827Y-58634397D01*
X86316498Y-58694735D01*
X86316503Y-58694737D01*
X86471153Y-58725499D01*
X86471156Y-58725500D01*
X86471158Y-58725500D01*
X86628844Y-58725500D01*
X86628845Y-58725499D01*
X86783497Y-58694737D01*
X86850631Y-58666929D01*
X86903048Y-58645218D01*
X86972517Y-58637749D01*
X87034996Y-58669024D01*
X87070648Y-58729113D01*
X87074500Y-58759779D01*
X87074500Y-59087869D01*
X87074501Y-59087876D01*
X87080908Y-59147483D01*
X87131202Y-59282328D01*
X87131206Y-59282335D01*
X87200358Y-59374709D01*
X87217454Y-59397546D01*
X87223049Y-59401734D01*
X87264919Y-59457667D01*
X87269903Y-59527359D01*
X87236418Y-59588682D01*
X87175094Y-59622166D01*
X87148737Y-59625000D01*
X86225000Y-59625000D01*
X86225000Y-60875000D01*
X88374999Y-60875000D01*
X88374999Y-60325028D01*
X88374998Y-60325013D01*
X88364505Y-60222302D01*
X88309358Y-60055880D01*
X88309356Y-60055875D01*
X88217315Y-59906654D01*
X88093343Y-59782682D01*
X88072842Y-59770037D01*
X88026118Y-59718089D01*
X88014897Y-59649126D01*
X88042741Y-59585044D01*
X88100810Y-59546189D01*
X88137935Y-59540499D01*
X89122872Y-59540499D01*
X89182483Y-59534091D01*
X89317331Y-59483796D01*
X89432546Y-59397546D01*
X89518796Y-59282331D01*
X89569091Y-59147483D01*
X89575500Y-59087873D01*
X89575500Y-59087844D01*
X91325000Y-59087844D01*
X91331401Y-59147372D01*
X91331403Y-59147379D01*
X91381645Y-59282086D01*
X91381649Y-59282093D01*
X91467809Y-59397187D01*
X91467812Y-59397190D01*
X91582906Y-59483350D01*
X91582913Y-59483354D01*
X91717620Y-59533596D01*
X91717627Y-59533598D01*
X91777155Y-59539999D01*
X91777172Y-59540000D01*
X92325000Y-59540000D01*
X92825000Y-59540000D01*
X93372828Y-59540000D01*
X93372844Y-59539999D01*
X93432372Y-59533598D01*
X93432379Y-59533596D01*
X93567086Y-59483354D01*
X93567093Y-59483350D01*
X93682187Y-59397190D01*
X93682190Y-59397187D01*
X93768350Y-59282093D01*
X93768354Y-59282086D01*
X93818596Y-59147379D01*
X93818598Y-59147372D01*
X93824999Y-59087844D01*
X93825000Y-59087827D01*
X93825000Y-56750000D01*
X92825000Y-56750000D01*
X92825000Y-59540000D01*
X92325000Y-59540000D01*
X92325000Y-56750000D01*
X91325000Y-56750000D01*
X91325000Y-59087844D01*
X89575500Y-59087844D01*
X89575499Y-56250000D01*
X89575499Y-54054500D01*
X89595184Y-53987461D01*
X89647987Y-53941706D01*
X89699499Y-53930500D01*
X91201000Y-53930500D01*
X91268039Y-53950185D01*
X91313794Y-54002989D01*
X91325000Y-54054500D01*
X91325000Y-56250000D01*
X93825000Y-56250000D01*
X93825000Y-54054500D01*
X93844685Y-53987461D01*
X93897489Y-53941706D01*
X93949000Y-53930500D01*
X96075500Y-53930500D01*
X96142539Y-53950185D01*
X96188294Y-54002989D01*
X96199500Y-54054500D01*
X96199500Y-60739960D01*
X96179815Y-60806999D01*
X96127011Y-60852754D01*
X96057853Y-60862698D01*
X96032167Y-60856142D01*
X95897482Y-60805908D01*
X95897483Y-60805908D01*
X95837883Y-60799501D01*
X95837881Y-60799500D01*
X95837873Y-60799500D01*
X95837864Y-60799500D01*
X94042129Y-60799500D01*
X94042123Y-60799501D01*
X93982516Y-60805908D01*
X93847671Y-60856202D01*
X93847664Y-60856206D01*
X93732455Y-60942452D01*
X93732452Y-60942455D01*
X93646206Y-61057664D01*
X93646202Y-61057671D01*
X93595908Y-61192517D01*
X93589501Y-61252116D01*
X93589500Y-61252135D01*
X93589500Y-63047870D01*
X93589501Y-63047876D01*
X93595908Y-63107483D01*
X93646202Y-63242328D01*
X93646206Y-63242335D01*
X93732452Y-63357544D01*
X93732455Y-63357547D01*
X93847664Y-63443793D01*
X93847671Y-63443797D01*
X93979082Y-63492810D01*
X94035016Y-63534681D01*
X94059433Y-63600145D01*
X94044582Y-63668418D01*
X94023431Y-63696673D01*
X93909889Y-63810215D01*
X93784951Y-63982179D01*
X93688444Y-64171583D01*
X93650689Y-64287783D01*
X93611251Y-64345458D01*
X93546892Y-64372656D01*
X93486901Y-64363323D01*
X93486767Y-64363754D01*
X93483872Y-64362851D01*
X93481867Y-64362540D01*
X93479609Y-64361524D01*
X93479606Y-64361522D01*
X93317196Y-64310914D01*
X93317194Y-64310913D01*
X93317192Y-64310913D01*
X93267778Y-64306423D01*
X93246616Y-64304500D01*
X92733384Y-64304500D01*
X92714145Y-64306248D01*
X92662807Y-64310913D01*
X92500393Y-64361522D01*
X92354811Y-64449530D01*
X92354810Y-64449531D01*
X92252327Y-64552015D01*
X92191004Y-64585500D01*
X92121312Y-64580516D01*
X92076965Y-64552015D01*
X91974877Y-64449927D01*
X91829395Y-64361980D01*
X91829396Y-64361980D01*
X91667105Y-64311409D01*
X91667106Y-64311409D01*
X91596572Y-64305000D01*
X91590000Y-64305000D01*
X91590000Y-65156000D01*
X91570315Y-65223039D01*
X91517511Y-65268794D01*
X91466000Y-65280000D01*
X91340000Y-65280000D01*
X91340000Y-65406000D01*
X91320315Y-65473039D01*
X91267511Y-65518794D01*
X91216000Y-65530000D01*
X90440001Y-65530000D01*
X90440001Y-65611582D01*
X90446408Y-65682102D01*
X90446409Y-65682107D01*
X90496981Y-65844396D01*
X90579773Y-65981350D01*
X90581646Y-65988445D01*
X90586450Y-65993989D01*
X90590444Y-66021766D01*
X90597609Y-66048904D01*
X90595349Y-66055883D01*
X90596394Y-66063147D01*
X90584734Y-66088677D01*
X90576092Y-66115378D01*
X90570416Y-66120028D01*
X90567369Y-66126703D01*
X90543756Y-66141877D01*
X90522051Y-66159666D01*
X90513314Y-66161441D01*
X90508591Y-66164477D01*
X90473656Y-66169500D01*
X90264717Y-66169500D01*
X90197678Y-66149815D01*
X90151923Y-66097011D01*
X90141359Y-66032897D01*
X90149999Y-65948322D01*
X90150000Y-65948309D01*
X90150000Y-65925000D01*
X89299000Y-65925000D01*
X89231961Y-65905315D01*
X89186206Y-65852511D01*
X89175000Y-65801000D01*
X89175000Y-65549000D01*
X89194685Y-65481961D01*
X89247489Y-65436206D01*
X89299000Y-65425000D01*
X90149999Y-65425000D01*
X90149999Y-65401692D01*
X90149998Y-65401677D01*
X90139855Y-65302392D01*
X90086547Y-65141518D01*
X90086542Y-65141507D01*
X90009480Y-65016571D01*
X89978329Y-64976724D01*
X89968115Y-64950997D01*
X89966712Y-64948427D01*
X90440000Y-64948427D01*
X90440000Y-65030000D01*
X91090000Y-65030000D01*
X91090000Y-64305000D01*
X91089999Y-64304999D01*
X91083436Y-64305000D01*
X91083417Y-64305001D01*
X91012897Y-64311408D01*
X91012892Y-64311409D01*
X90850603Y-64361981D01*
X90705122Y-64449927D01*
X90584927Y-64570122D01*
X90496980Y-64715604D01*
X90446409Y-64877893D01*
X90440000Y-64948427D01*
X89966712Y-64948427D01*
X89954854Y-64926711D01*
X89955406Y-64918985D01*
X89952548Y-64911785D01*
X89957863Y-64884623D01*
X89959838Y-64857019D01*
X89964767Y-64849349D01*
X89965968Y-64843216D01*
X89974280Y-64834547D01*
X89988343Y-64812668D01*
X89997968Y-64803044D01*
X90087003Y-64658697D01*
X90140349Y-64497708D01*
X90150500Y-64398345D01*
X90150499Y-63851656D01*
X90140349Y-63752292D01*
X90087003Y-63591303D01*
X90086999Y-63591297D01*
X90086998Y-63591294D01*
X89997970Y-63446959D01*
X89997967Y-63446955D01*
X89878044Y-63327032D01*
X89878040Y-63327029D01*
X89733705Y-63238001D01*
X89733699Y-63237998D01*
X89733697Y-63237997D01*
X89733694Y-63237996D01*
X89572709Y-63184651D01*
X89473346Y-63174500D01*
X88876662Y-63174500D01*
X88876644Y-63174501D01*
X88777292Y-63184650D01*
X88777289Y-63184651D01*
X88616305Y-63237996D01*
X88616294Y-63238001D01*
X88471959Y-63327029D01*
X88412181Y-63386807D01*
X88395576Y-63395873D01*
X88381961Y-63409008D01*
X88365544Y-63412271D01*
X88350857Y-63420291D01*
X88331988Y-63418941D01*
X88313432Y-63422630D01*
X88297857Y-63416499D01*
X88281166Y-63415306D01*
X88266021Y-63403969D01*
X88248417Y-63397040D01*
X88238630Y-63383464D01*
X88225232Y-63373435D01*
X88218620Y-63355708D01*
X88207558Y-63340363D01*
X88203029Y-63313905D01*
X88200816Y-63307970D01*
X88200677Y-63305746D01*
X88200500Y-63302436D01*
X88200500Y-63159306D01*
X88197598Y-63122431D01*
X88189357Y-63094067D01*
X88188595Y-63079807D01*
X88193480Y-63059144D01*
X88193541Y-63037913D01*
X88203537Y-63016609D01*
X88204672Y-63011812D01*
X88206712Y-63009843D01*
X88206786Y-63009685D01*
X88206525Y-63009546D01*
X88209201Y-63004539D01*
X88209315Y-63004297D01*
X88209394Y-63004179D01*
X88269737Y-62858497D01*
X88300500Y-62703842D01*
X88300500Y-62546158D01*
X88300500Y-62546155D01*
X88300499Y-62546153D01*
X88269737Y-62391503D01*
X88261007Y-62370428D01*
X88253539Y-62300961D01*
X88270032Y-62257878D01*
X88309356Y-62194126D01*
X88364505Y-62027697D01*
X88364506Y-62027690D01*
X88374999Y-61924986D01*
X88375000Y-61924973D01*
X88375000Y-61375000D01*
X86225000Y-61375000D01*
X86225000Y-62575947D01*
X86205315Y-62642986D01*
X86164122Y-62682678D01*
X86123140Y-62706914D01*
X86123129Y-62706923D01*
X86006923Y-62823129D01*
X86006914Y-62823140D01*
X86006729Y-62823455D01*
X86006519Y-62823650D01*
X86002139Y-62829298D01*
X86001227Y-62828591D01*
X85955657Y-62871136D01*
X85886915Y-62883637D01*
X85822327Y-62856988D01*
X85808736Y-62844274D01*
X85799903Y-62834671D01*
X85793081Y-62823135D01*
X85745837Y-62775891D01*
X85744071Y-62773971D01*
X85729719Y-62744862D01*
X85714169Y-62716384D01*
X85714360Y-62713709D01*
X85713174Y-62711304D01*
X85716838Y-62679057D01*
X85719153Y-62646692D01*
X85720809Y-62644115D01*
X85721063Y-62641881D01*
X85725000Y-62637055D01*
X85725000Y-61306902D01*
X89674500Y-61306902D01*
X89674500Y-61543097D01*
X89711446Y-61776368D01*
X89784433Y-62000996D01*
X89882839Y-62194126D01*
X89891657Y-62211433D01*
X90030483Y-62402510D01*
X90197490Y-62569517D01*
X90388567Y-62708343D01*
X90460240Y-62744862D01*
X90599003Y-62815566D01*
X90599005Y-62815566D01*
X90599008Y-62815568D01*
X90687356Y-62844274D01*
X90823631Y-62888553D01*
X91056903Y-62925500D01*
X91056908Y-62925500D01*
X91293097Y-62925500D01*
X91526368Y-62888553D01*
X91541498Y-62883637D01*
X91750992Y-62815568D01*
X91961433Y-62708343D01*
X92152510Y-62569517D01*
X92319517Y-62402510D01*
X92458343Y-62211433D01*
X92565568Y-62000992D01*
X92638553Y-61776368D01*
X92675500Y-61543097D01*
X92675500Y-61306902D01*
X92638553Y-61073631D01*
X92595931Y-60942455D01*
X92565568Y-60849008D01*
X92565566Y-60849005D01*
X92565566Y-60849003D01*
X92458342Y-60638566D01*
X92319517Y-60447490D01*
X92152510Y-60280483D01*
X91961433Y-60141657D01*
X91750996Y-60034433D01*
X91526368Y-59961446D01*
X91293097Y-59924500D01*
X91293092Y-59924500D01*
X91056908Y-59924500D01*
X91056903Y-59924500D01*
X90823631Y-59961446D01*
X90599003Y-60034433D01*
X90388566Y-60141657D01*
X90279550Y-60220862D01*
X90197490Y-60280483D01*
X90197488Y-60280485D01*
X90197487Y-60280485D01*
X90030485Y-60447487D01*
X90030485Y-60447488D01*
X90030483Y-60447490D01*
X89970862Y-60529550D01*
X89891657Y-60638566D01*
X89784433Y-60849003D01*
X89711446Y-61073631D01*
X89674500Y-61306902D01*
X85725000Y-61306902D01*
X85725000Y-59625000D01*
X85250428Y-59625000D01*
X85183389Y-59605315D01*
X85137634Y-59552511D01*
X85127690Y-59483353D01*
X85156715Y-59419797D01*
X85176121Y-59401730D01*
X85182191Y-59397185D01*
X85268350Y-59282093D01*
X85268354Y-59282086D01*
X85318596Y-59147379D01*
X85318598Y-59147372D01*
X85324999Y-59087844D01*
X85325000Y-59087827D01*
X85325000Y-56750000D01*
X82825000Y-56750000D01*
X82825000Y-59087844D01*
X82831401Y-59147372D01*
X82831403Y-59147379D01*
X82881645Y-59282086D01*
X82881649Y-59282093D01*
X82967809Y-59397187D01*
X82967812Y-59397190D01*
X83082906Y-59483350D01*
X83082913Y-59483354D01*
X83217620Y-59533596D01*
X83217627Y-59533598D01*
X83277155Y-59539999D01*
X83277172Y-59540000D01*
X83812870Y-59540000D01*
X83879909Y-59559685D01*
X83925664Y-59612489D01*
X83935608Y-59681647D01*
X83906583Y-59745203D01*
X83877966Y-59769539D01*
X83856656Y-59782682D01*
X83732684Y-59906654D01*
X83640643Y-60055875D01*
X83640641Y-60055880D01*
X83585494Y-60222302D01*
X83585493Y-60222309D01*
X83575000Y-60325013D01*
X83575000Y-60790143D01*
X83555315Y-60857182D01*
X83502511Y-60902937D01*
X83433353Y-60912881D01*
X83376690Y-60889410D01*
X83332334Y-60856206D01*
X83332328Y-60856202D01*
X83197482Y-60805908D01*
X83197483Y-60805908D01*
X83137883Y-60799501D01*
X83137881Y-60799500D01*
X83137873Y-60799500D01*
X83137864Y-60799500D01*
X81342129Y-60799500D01*
X81342123Y-60799501D01*
X81282516Y-60805908D01*
X81147833Y-60856142D01*
X81078141Y-60861126D01*
X81016818Y-60827641D01*
X80983334Y-60766317D01*
X80980500Y-60739960D01*
X80980500Y-54054500D01*
X81000185Y-53987461D01*
X81052989Y-53941706D01*
X81104500Y-53930500D01*
X82701000Y-53930500D01*
X82768039Y-53950185D01*
G37*
%TD.AperFunction*%
%TA.AperFunction,Conductor*%
G36*
X83534925Y-63382682D02*
G01*
X83584331Y-63432087D01*
X83599500Y-63491515D01*
X83599500Y-63590701D01*
X83602401Y-63627567D01*
X83602402Y-63627573D01*
X83648254Y-63785393D01*
X83648256Y-63785399D01*
X83649426Y-63787377D01*
X83649869Y-63789126D01*
X83651353Y-63792554D01*
X83650799Y-63792793D01*
X83666603Y-63855102D01*
X83660083Y-63890423D01*
X83629829Y-63979363D01*
X83611261Y-64005733D01*
X83593904Y-64032912D01*
X83591272Y-64034123D01*
X83589604Y-64036492D01*
X83559727Y-64048637D01*
X83530431Y-64062117D01*
X83527562Y-64061712D01*
X83524878Y-64062804D01*
X83493174Y-64056868D01*
X83461245Y-64052370D01*
X83459050Y-64050479D01*
X83456202Y-64049946D01*
X83432740Y-64027812D01*
X83408311Y-64006766D01*
X83405786Y-64002384D01*
X83405379Y-64002000D01*
X83405237Y-64001431D01*
X83401949Y-63995723D01*
X83395048Y-63982179D01*
X83270109Y-63810213D01*
X83156569Y-63696673D01*
X83123084Y-63635350D01*
X83128068Y-63565658D01*
X83169940Y-63509725D01*
X83200915Y-63492810D01*
X83332331Y-63443796D01*
X83401189Y-63392248D01*
X83466652Y-63367831D01*
X83534925Y-63382682D01*
G37*
%TD.AperFunction*%
%TD*%
M02*
