%TF.GenerationSoftware,KiCad,Pcbnew,9.0.2*%
%TF.CreationDate,2025-10-14T12:10:58+02:00*%
%TF.ProjectId,1p6V_to_m1p6V_bias_gum,31703656-5f74-46f5-9f6d-317036565f62,rev?*%
%TF.SameCoordinates,Original*%
%TF.FileFunction,Legend,Bot*%
%TF.FilePolarity,Positive*%
%FSLAX46Y46*%
G04 Gerber Fmt 4.6, Leading zero omitted, Abs format (unit mm)*
G04 Created by KiCad (PCBNEW 9.0.2) date 2025-10-14 12:10:58*
%MOMM*%
%LPD*%
G01*
G04 APERTURE LIST*
%ADD10C,0.150000*%
%ADD11C,0.100000*%
%ADD12C,0.000000*%
%ADD13C,2.000000*%
%ADD14R,1.700000X1.700000*%
%ADD15C,1.700000*%
%ADD16R,1.500000X5.080000*%
G04 APERTURE END LIST*
D10*
X86565965Y-80963220D02*
X86565965Y-80201316D01*
X86185012Y-80582268D02*
X86946917Y-80582268D01*
X87232632Y-79010840D02*
X85946917Y-79867982D01*
X86565965Y-78677506D02*
X86565965Y-77915602D01*
X86185012Y-76915602D02*
X86185012Y-77487030D01*
X86185012Y-77201316D02*
X87185012Y-77201316D01*
X87185012Y-77201316D02*
X87042155Y-77296554D01*
X87042155Y-77296554D02*
X86946917Y-77391792D01*
X86946917Y-77391792D02*
X86899298Y-77487030D01*
X86280251Y-76487030D02*
X86232632Y-76439411D01*
X86232632Y-76439411D02*
X86185012Y-76487030D01*
X86185012Y-76487030D02*
X86232632Y-76534649D01*
X86232632Y-76534649D02*
X86280251Y-76487030D01*
X86280251Y-76487030D02*
X86185012Y-76487030D01*
X87185012Y-75534650D02*
X87185012Y-76010840D01*
X87185012Y-76010840D02*
X86708822Y-76058459D01*
X86708822Y-76058459D02*
X86756441Y-76010840D01*
X86756441Y-76010840D02*
X86804060Y-75915602D01*
X86804060Y-75915602D02*
X86804060Y-75677507D01*
X86804060Y-75677507D02*
X86756441Y-75582269D01*
X86756441Y-75582269D02*
X86708822Y-75534650D01*
X86708822Y-75534650D02*
X86613584Y-75487031D01*
X86613584Y-75487031D02*
X86375489Y-75487031D01*
X86375489Y-75487031D02*
X86280251Y-75534650D01*
X86280251Y-75534650D02*
X86232632Y-75582269D01*
X86232632Y-75582269D02*
X86185012Y-75677507D01*
X86185012Y-75677507D02*
X86185012Y-75915602D01*
X86185012Y-75915602D02*
X86232632Y-76010840D01*
X86232632Y-76010840D02*
X86280251Y-76058459D01*
X87185012Y-75201316D02*
X86185012Y-74867983D01*
X86185012Y-74867983D02*
X87185012Y-74534650D01*
X86851679Y-73439411D02*
X85851679Y-73439411D01*
X86804060Y-73439411D02*
X86851679Y-73344173D01*
X86851679Y-73344173D02*
X86851679Y-73153697D01*
X86851679Y-73153697D02*
X86804060Y-73058459D01*
X86804060Y-73058459D02*
X86756441Y-73010840D01*
X86756441Y-73010840D02*
X86661203Y-72963221D01*
X86661203Y-72963221D02*
X86375489Y-72963221D01*
X86375489Y-72963221D02*
X86280251Y-73010840D01*
X86280251Y-73010840D02*
X86232632Y-73058459D01*
X86232632Y-73058459D02*
X86185012Y-73153697D01*
X86185012Y-73153697D02*
X86185012Y-73344173D01*
X86185012Y-73344173D02*
X86232632Y-73439411D01*
X86185012Y-72534649D02*
X86851679Y-72534649D01*
X86661203Y-72534649D02*
X86756441Y-72487030D01*
X86756441Y-72487030D02*
X86804060Y-72439411D01*
X86804060Y-72439411D02*
X86851679Y-72344173D01*
X86851679Y-72344173D02*
X86851679Y-72248935D01*
X86185012Y-71772744D02*
X86232632Y-71867982D01*
X86232632Y-71867982D02*
X86280251Y-71915601D01*
X86280251Y-71915601D02*
X86375489Y-71963220D01*
X86375489Y-71963220D02*
X86661203Y-71963220D01*
X86661203Y-71963220D02*
X86756441Y-71915601D01*
X86756441Y-71915601D02*
X86804060Y-71867982D01*
X86804060Y-71867982D02*
X86851679Y-71772744D01*
X86851679Y-71772744D02*
X86851679Y-71629887D01*
X86851679Y-71629887D02*
X86804060Y-71534649D01*
X86804060Y-71534649D02*
X86756441Y-71487030D01*
X86756441Y-71487030D02*
X86661203Y-71439411D01*
X86661203Y-71439411D02*
X86375489Y-71439411D01*
X86375489Y-71439411D02*
X86280251Y-71487030D01*
X86280251Y-71487030D02*
X86232632Y-71534649D01*
X86232632Y-71534649D02*
X86185012Y-71629887D01*
X86185012Y-71629887D02*
X86185012Y-71772744D01*
X86851679Y-70582268D02*
X86042155Y-70582268D01*
X86042155Y-70582268D02*
X85946917Y-70629887D01*
X85946917Y-70629887D02*
X85899298Y-70677506D01*
X85899298Y-70677506D02*
X85851679Y-70772744D01*
X85851679Y-70772744D02*
X85851679Y-70915601D01*
X85851679Y-70915601D02*
X85899298Y-71010839D01*
X86232632Y-70582268D02*
X86185012Y-70677506D01*
X86185012Y-70677506D02*
X86185012Y-70867982D01*
X86185012Y-70867982D02*
X86232632Y-70963220D01*
X86232632Y-70963220D02*
X86280251Y-71010839D01*
X86280251Y-71010839D02*
X86375489Y-71058458D01*
X86375489Y-71058458D02*
X86661203Y-71058458D01*
X86661203Y-71058458D02*
X86756441Y-71010839D01*
X86756441Y-71010839D02*
X86804060Y-70963220D01*
X86804060Y-70963220D02*
X86851679Y-70867982D01*
X86851679Y-70867982D02*
X86851679Y-70677506D01*
X86851679Y-70677506D02*
X86804060Y-70582268D01*
X86185012Y-70106077D02*
X86851679Y-70106077D01*
X86661203Y-70106077D02*
X86756441Y-70058458D01*
X86756441Y-70058458D02*
X86804060Y-70010839D01*
X86804060Y-70010839D02*
X86851679Y-69915601D01*
X86851679Y-69915601D02*
X86851679Y-69820363D01*
X86185012Y-69058458D02*
X86708822Y-69058458D01*
X86708822Y-69058458D02*
X86804060Y-69106077D01*
X86804060Y-69106077D02*
X86851679Y-69201315D01*
X86851679Y-69201315D02*
X86851679Y-69391791D01*
X86851679Y-69391791D02*
X86804060Y-69487029D01*
X86232632Y-69058458D02*
X86185012Y-69153696D01*
X86185012Y-69153696D02*
X86185012Y-69391791D01*
X86185012Y-69391791D02*
X86232632Y-69487029D01*
X86232632Y-69487029D02*
X86327870Y-69534648D01*
X86327870Y-69534648D02*
X86423108Y-69534648D01*
X86423108Y-69534648D02*
X86518346Y-69487029D01*
X86518346Y-69487029D02*
X86565965Y-69391791D01*
X86565965Y-69391791D02*
X86565965Y-69153696D01*
X86565965Y-69153696D02*
X86613584Y-69058458D01*
X86185012Y-68582267D02*
X86851679Y-68582267D01*
X86756441Y-68582267D02*
X86804060Y-68534648D01*
X86804060Y-68534648D02*
X86851679Y-68439410D01*
X86851679Y-68439410D02*
X86851679Y-68296553D01*
X86851679Y-68296553D02*
X86804060Y-68201315D01*
X86804060Y-68201315D02*
X86708822Y-68153696D01*
X86708822Y-68153696D02*
X86185012Y-68153696D01*
X86708822Y-68153696D02*
X86804060Y-68106077D01*
X86804060Y-68106077D02*
X86851679Y-68010839D01*
X86851679Y-68010839D02*
X86851679Y-67867982D01*
X86851679Y-67867982D02*
X86804060Y-67772743D01*
X86804060Y-67772743D02*
X86708822Y-67725124D01*
X86708822Y-67725124D02*
X86185012Y-67725124D01*
X86185012Y-67248934D02*
X86851679Y-67248934D01*
X86756441Y-67248934D02*
X86804060Y-67201315D01*
X86804060Y-67201315D02*
X86851679Y-67106077D01*
X86851679Y-67106077D02*
X86851679Y-66963220D01*
X86851679Y-66963220D02*
X86804060Y-66867982D01*
X86804060Y-66867982D02*
X86708822Y-66820363D01*
X86708822Y-66820363D02*
X86185012Y-66820363D01*
X86708822Y-66820363D02*
X86804060Y-66772744D01*
X86804060Y-66772744D02*
X86851679Y-66677506D01*
X86851679Y-66677506D02*
X86851679Y-66534649D01*
X86851679Y-66534649D02*
X86804060Y-66439410D01*
X86804060Y-66439410D02*
X86708822Y-66391791D01*
X86708822Y-66391791D02*
X86185012Y-66391791D01*
X86185012Y-65487030D02*
X86708822Y-65487030D01*
X86708822Y-65487030D02*
X86804060Y-65534649D01*
X86804060Y-65534649D02*
X86851679Y-65629887D01*
X86851679Y-65629887D02*
X86851679Y-65820363D01*
X86851679Y-65820363D02*
X86804060Y-65915601D01*
X86232632Y-65487030D02*
X86185012Y-65582268D01*
X86185012Y-65582268D02*
X86185012Y-65820363D01*
X86185012Y-65820363D02*
X86232632Y-65915601D01*
X86232632Y-65915601D02*
X86327870Y-65963220D01*
X86327870Y-65963220D02*
X86423108Y-65963220D01*
X86423108Y-65963220D02*
X86518346Y-65915601D01*
X86518346Y-65915601D02*
X86565965Y-65820363D01*
X86565965Y-65820363D02*
X86565965Y-65582268D01*
X86565965Y-65582268D02*
X86613584Y-65487030D01*
X86185012Y-65010839D02*
X87185012Y-65010839D01*
X86804060Y-65010839D02*
X86851679Y-64915601D01*
X86851679Y-64915601D02*
X86851679Y-64725125D01*
X86851679Y-64725125D02*
X86804060Y-64629887D01*
X86804060Y-64629887D02*
X86756441Y-64582268D01*
X86756441Y-64582268D02*
X86661203Y-64534649D01*
X86661203Y-64534649D02*
X86375489Y-64534649D01*
X86375489Y-64534649D02*
X86280251Y-64582268D01*
X86280251Y-64582268D02*
X86232632Y-64629887D01*
X86232632Y-64629887D02*
X86185012Y-64725125D01*
X86185012Y-64725125D02*
X86185012Y-64915601D01*
X86185012Y-64915601D02*
X86232632Y-65010839D01*
X86185012Y-63963220D02*
X86232632Y-64058458D01*
X86232632Y-64058458D02*
X86327870Y-64106077D01*
X86327870Y-64106077D02*
X87185012Y-64106077D01*
X86232632Y-63201315D02*
X86185012Y-63296553D01*
X86185012Y-63296553D02*
X86185012Y-63487029D01*
X86185012Y-63487029D02*
X86232632Y-63582267D01*
X86232632Y-63582267D02*
X86327870Y-63629886D01*
X86327870Y-63629886D02*
X86708822Y-63629886D01*
X86708822Y-63629886D02*
X86804060Y-63582267D01*
X86804060Y-63582267D02*
X86851679Y-63487029D01*
X86851679Y-63487029D02*
X86851679Y-63296553D01*
X86851679Y-63296553D02*
X86804060Y-63201315D01*
X86804060Y-63201315D02*
X86708822Y-63153696D01*
X86708822Y-63153696D02*
X86613584Y-63153696D01*
X86613584Y-63153696D02*
X86518346Y-63629886D01*
X84622688Y-81010839D02*
X84575068Y-80867982D01*
X84575068Y-80867982D02*
X84575068Y-80629887D01*
X84575068Y-80629887D02*
X84622688Y-80534649D01*
X84622688Y-80534649D02*
X84670307Y-80487030D01*
X84670307Y-80487030D02*
X84765545Y-80439411D01*
X84765545Y-80439411D02*
X84860783Y-80439411D01*
X84860783Y-80439411D02*
X84956021Y-80487030D01*
X84956021Y-80487030D02*
X85003640Y-80534649D01*
X85003640Y-80534649D02*
X85051259Y-80629887D01*
X85051259Y-80629887D02*
X85098878Y-80820363D01*
X85098878Y-80820363D02*
X85146497Y-80915601D01*
X85146497Y-80915601D02*
X85194116Y-80963220D01*
X85194116Y-80963220D02*
X85289354Y-81010839D01*
X85289354Y-81010839D02*
X85384592Y-81010839D01*
X85384592Y-81010839D02*
X85479830Y-80963220D01*
X85479830Y-80963220D02*
X85527449Y-80915601D01*
X85527449Y-80915601D02*
X85575068Y-80820363D01*
X85575068Y-80820363D02*
X85575068Y-80582268D01*
X85575068Y-80582268D02*
X85527449Y-80439411D01*
X85241735Y-79582268D02*
X84575068Y-79582268D01*
X85241735Y-80010839D02*
X84717926Y-80010839D01*
X84717926Y-80010839D02*
X84622688Y-79963220D01*
X84622688Y-79963220D02*
X84575068Y-79867982D01*
X84575068Y-79867982D02*
X84575068Y-79725125D01*
X84575068Y-79725125D02*
X84622688Y-79629887D01*
X84622688Y-79629887D02*
X84670307Y-79582268D01*
X85241735Y-79106077D02*
X84241735Y-79106077D01*
X85194116Y-79106077D02*
X85241735Y-79010839D01*
X85241735Y-79010839D02*
X85241735Y-78820363D01*
X85241735Y-78820363D02*
X85194116Y-78725125D01*
X85194116Y-78725125D02*
X85146497Y-78677506D01*
X85146497Y-78677506D02*
X85051259Y-78629887D01*
X85051259Y-78629887D02*
X84765545Y-78629887D01*
X84765545Y-78629887D02*
X84670307Y-78677506D01*
X84670307Y-78677506D02*
X84622688Y-78725125D01*
X84622688Y-78725125D02*
X84575068Y-78820363D01*
X84575068Y-78820363D02*
X84575068Y-79010839D01*
X84575068Y-79010839D02*
X84622688Y-79106077D01*
X85241735Y-78201315D02*
X84241735Y-78201315D01*
X85194116Y-78201315D02*
X85241735Y-78106077D01*
X85241735Y-78106077D02*
X85241735Y-77915601D01*
X85241735Y-77915601D02*
X85194116Y-77820363D01*
X85194116Y-77820363D02*
X85146497Y-77772744D01*
X85146497Y-77772744D02*
X85051259Y-77725125D01*
X85051259Y-77725125D02*
X84765545Y-77725125D01*
X84765545Y-77725125D02*
X84670307Y-77772744D01*
X84670307Y-77772744D02*
X84622688Y-77820363D01*
X84622688Y-77820363D02*
X84575068Y-77915601D01*
X84575068Y-77915601D02*
X84575068Y-78106077D01*
X84575068Y-78106077D02*
X84622688Y-78201315D01*
X84575068Y-77153696D02*
X84622688Y-77248934D01*
X84622688Y-77248934D02*
X84717926Y-77296553D01*
X84717926Y-77296553D02*
X85575068Y-77296553D01*
X85241735Y-76867981D02*
X84575068Y-76629886D01*
X85241735Y-76391791D02*
X84575068Y-76629886D01*
X84575068Y-76629886D02*
X84336973Y-76725124D01*
X84336973Y-76725124D02*
X84289354Y-76772743D01*
X84289354Y-76772743D02*
X84241735Y-76867981D01*
X83488934Y-80963220D02*
X83488934Y-80629887D01*
X82965124Y-80487030D02*
X82965124Y-80963220D01*
X82965124Y-80963220D02*
X83965124Y-80963220D01*
X83965124Y-80963220D02*
X83965124Y-80487030D01*
X83012744Y-80106077D02*
X82965124Y-79963220D01*
X82965124Y-79963220D02*
X82965124Y-79725125D01*
X82965124Y-79725125D02*
X83012744Y-79629887D01*
X83012744Y-79629887D02*
X83060363Y-79582268D01*
X83060363Y-79582268D02*
X83155601Y-79534649D01*
X83155601Y-79534649D02*
X83250839Y-79534649D01*
X83250839Y-79534649D02*
X83346077Y-79582268D01*
X83346077Y-79582268D02*
X83393696Y-79629887D01*
X83393696Y-79629887D02*
X83441315Y-79725125D01*
X83441315Y-79725125D02*
X83488934Y-79915601D01*
X83488934Y-79915601D02*
X83536553Y-80010839D01*
X83536553Y-80010839D02*
X83584172Y-80058458D01*
X83584172Y-80058458D02*
X83679410Y-80106077D01*
X83679410Y-80106077D02*
X83774648Y-80106077D01*
X83774648Y-80106077D02*
X83869886Y-80058458D01*
X83869886Y-80058458D02*
X83917505Y-80010839D01*
X83917505Y-80010839D02*
X83965124Y-79915601D01*
X83965124Y-79915601D02*
X83965124Y-79677506D01*
X83965124Y-79677506D02*
X83917505Y-79534649D01*
X82965124Y-78629887D02*
X82965124Y-79106077D01*
X82965124Y-79106077D02*
X83965124Y-79106077D01*
X82259942Y-81010839D02*
X82307561Y-80963220D01*
X82307561Y-80963220D02*
X82355180Y-80867982D01*
X82355180Y-80867982D02*
X82355180Y-80629887D01*
X82355180Y-80629887D02*
X82307561Y-80534649D01*
X82307561Y-80534649D02*
X82259942Y-80487030D01*
X82259942Y-80487030D02*
X82164704Y-80439411D01*
X82164704Y-80439411D02*
X82069466Y-80439411D01*
X82069466Y-80439411D02*
X81926609Y-80487030D01*
X81926609Y-80487030D02*
X81355180Y-81058458D01*
X81355180Y-81058458D02*
X81355180Y-80439411D01*
X82355180Y-79820363D02*
X82355180Y-79725125D01*
X82355180Y-79725125D02*
X82307561Y-79629887D01*
X82307561Y-79629887D02*
X82259942Y-79582268D01*
X82259942Y-79582268D02*
X82164704Y-79534649D01*
X82164704Y-79534649D02*
X81974228Y-79487030D01*
X81974228Y-79487030D02*
X81736133Y-79487030D01*
X81736133Y-79487030D02*
X81545657Y-79534649D01*
X81545657Y-79534649D02*
X81450419Y-79582268D01*
X81450419Y-79582268D02*
X81402800Y-79629887D01*
X81402800Y-79629887D02*
X81355180Y-79725125D01*
X81355180Y-79725125D02*
X81355180Y-79820363D01*
X81355180Y-79820363D02*
X81402800Y-79915601D01*
X81402800Y-79915601D02*
X81450419Y-79963220D01*
X81450419Y-79963220D02*
X81545657Y-80010839D01*
X81545657Y-80010839D02*
X81736133Y-80058458D01*
X81736133Y-80058458D02*
X81974228Y-80058458D01*
X81974228Y-80058458D02*
X82164704Y-80010839D01*
X82164704Y-80010839D02*
X82259942Y-79963220D01*
X82259942Y-79963220D02*
X82307561Y-79915601D01*
X82307561Y-79915601D02*
X82355180Y-79820363D01*
X82259942Y-79106077D02*
X82307561Y-79058458D01*
X82307561Y-79058458D02*
X82355180Y-78963220D01*
X82355180Y-78963220D02*
X82355180Y-78725125D01*
X82355180Y-78725125D02*
X82307561Y-78629887D01*
X82307561Y-78629887D02*
X82259942Y-78582268D01*
X82259942Y-78582268D02*
X82164704Y-78534649D01*
X82164704Y-78534649D02*
X82069466Y-78534649D01*
X82069466Y-78534649D02*
X81926609Y-78582268D01*
X81926609Y-78582268D02*
X81355180Y-79153696D01*
X81355180Y-79153696D02*
X81355180Y-78534649D01*
X82355180Y-77629887D02*
X82355180Y-78106077D01*
X82355180Y-78106077D02*
X81878990Y-78153696D01*
X81878990Y-78153696D02*
X81926609Y-78106077D01*
X81926609Y-78106077D02*
X81974228Y-78010839D01*
X81974228Y-78010839D02*
X81974228Y-77772744D01*
X81974228Y-77772744D02*
X81926609Y-77677506D01*
X81926609Y-77677506D02*
X81878990Y-77629887D01*
X81878990Y-77629887D02*
X81783752Y-77582268D01*
X81783752Y-77582268D02*
X81545657Y-77582268D01*
X81545657Y-77582268D02*
X81450419Y-77629887D01*
X81450419Y-77629887D02*
X81402800Y-77677506D01*
X81402800Y-77677506D02*
X81355180Y-77772744D01*
X81355180Y-77772744D02*
X81355180Y-78010839D01*
X81355180Y-78010839D02*
X81402800Y-78106077D01*
X81402800Y-78106077D02*
X81450419Y-78153696D01*
D11*
X84283789Y-85380200D02*
X84283789Y-84846866D01*
X84317122Y-85346866D02*
X84317122Y-84880200D01*
X84350455Y-85346866D02*
X84350455Y-84880200D01*
X84383789Y-85313533D02*
X84383789Y-84913533D01*
X84417122Y-85313533D02*
X84417122Y-84913533D01*
X84450455Y-85280200D02*
X84450455Y-84946866D01*
X84483789Y-85280200D02*
X84483789Y-84946866D01*
X84517122Y-85246866D02*
X84517122Y-84980200D01*
X84550455Y-85213533D02*
X84550455Y-85013533D01*
X84583789Y-85213533D02*
X84583789Y-85013533D01*
X84617122Y-85180200D02*
X84617122Y-85046866D01*
X84650455Y-85180200D02*
X84650455Y-85046866D01*
X84683789Y-85113533D02*
X84717122Y-85113533D01*
X84683789Y-85146866D02*
X84683789Y-85080200D01*
X84250455Y-85380200D02*
X84750455Y-85113533D01*
X84750455Y-85113533D02*
X84250455Y-84846866D01*
X84783789Y-85113533D02*
X84250455Y-84813533D01*
X84250455Y-84813533D02*
X84250455Y-85413533D01*
X84250455Y-85413533D02*
X84783789Y-85113533D01*
X85483789Y-84846866D02*
X85083789Y-84846866D01*
X85283789Y-84846866D02*
X85283789Y-85546866D01*
X85283789Y-85546866D02*
X85217122Y-85446866D01*
X85217122Y-85446866D02*
X85150456Y-85380200D01*
X85150456Y-85380200D02*
X85083789Y-85346866D01*
X85750456Y-85046866D02*
X86083789Y-85046866D01*
X85683789Y-84846866D02*
X85917123Y-85546866D01*
X85917123Y-85546866D02*
X86150456Y-84846866D01*
X86883789Y-85580200D02*
X86283789Y-84680200D01*
X87483789Y-84846866D02*
X87083789Y-84846866D01*
X87283789Y-84846866D02*
X87283789Y-85546866D01*
X87283789Y-85546866D02*
X87217122Y-85446866D01*
X87217122Y-85446866D02*
X87150456Y-85380200D01*
X87150456Y-85380200D02*
X87083789Y-85346866D01*
X88017123Y-85213533D02*
X88117123Y-85180200D01*
X88117123Y-85180200D02*
X88150456Y-85146866D01*
X88150456Y-85146866D02*
X88183789Y-85080200D01*
X88183789Y-85080200D02*
X88183789Y-84980200D01*
X88183789Y-84980200D02*
X88150456Y-84913533D01*
X88150456Y-84913533D02*
X88117123Y-84880200D01*
X88117123Y-84880200D02*
X88050456Y-84846866D01*
X88050456Y-84846866D02*
X87783789Y-84846866D01*
X87783789Y-84846866D02*
X87783789Y-85546866D01*
X87783789Y-85546866D02*
X88017123Y-85546866D01*
X88017123Y-85546866D02*
X88083789Y-85513533D01*
X88083789Y-85513533D02*
X88117123Y-85480200D01*
X88117123Y-85480200D02*
X88150456Y-85413533D01*
X88150456Y-85413533D02*
X88150456Y-85346866D01*
X88150456Y-85346866D02*
X88117123Y-85280200D01*
X88117123Y-85280200D02*
X88083789Y-85246866D01*
X88083789Y-85246866D02*
X88017123Y-85213533D01*
X88017123Y-85213533D02*
X87783789Y-85213533D01*
X93744788Y-69820466D02*
X93511455Y-69820466D01*
X93411455Y-70187133D02*
X93744788Y-70187133D01*
X93744788Y-70187133D02*
X93744788Y-69487133D01*
X93744788Y-69487133D02*
X93411455Y-69487133D01*
X93111455Y-69720466D02*
X93111455Y-70187133D01*
X93111455Y-69787133D02*
X93078122Y-69753800D01*
X93078122Y-69753800D02*
X93011455Y-69720466D01*
X93011455Y-69720466D02*
X92911455Y-69720466D01*
X92911455Y-69720466D02*
X92844788Y-69753800D01*
X92844788Y-69753800D02*
X92811455Y-69820466D01*
X92811455Y-69820466D02*
X92811455Y-70187133D01*
X92178122Y-70187133D02*
X92178122Y-69820466D01*
X92178122Y-69820466D02*
X92211455Y-69753800D01*
X92211455Y-69753800D02*
X92278122Y-69720466D01*
X92278122Y-69720466D02*
X92411455Y-69720466D01*
X92411455Y-69720466D02*
X92478122Y-69753800D01*
X92178122Y-70153800D02*
X92244789Y-70187133D01*
X92244789Y-70187133D02*
X92411455Y-70187133D01*
X92411455Y-70187133D02*
X92478122Y-70153800D01*
X92478122Y-70153800D02*
X92511455Y-70087133D01*
X92511455Y-70087133D02*
X92511455Y-70020466D01*
X92511455Y-70020466D02*
X92478122Y-69953800D01*
X92478122Y-69953800D02*
X92411455Y-69920466D01*
X92411455Y-69920466D02*
X92244789Y-69920466D01*
X92244789Y-69920466D02*
X92178122Y-69887133D01*
X91844789Y-70187133D02*
X91844789Y-69487133D01*
X91844789Y-69753800D02*
X91778122Y-69720466D01*
X91778122Y-69720466D02*
X91644789Y-69720466D01*
X91644789Y-69720466D02*
X91578122Y-69753800D01*
X91578122Y-69753800D02*
X91544789Y-69787133D01*
X91544789Y-69787133D02*
X91511456Y-69853800D01*
X91511456Y-69853800D02*
X91511456Y-70053800D01*
X91511456Y-70053800D02*
X91544789Y-70120466D01*
X91544789Y-70120466D02*
X91578122Y-70153800D01*
X91578122Y-70153800D02*
X91644789Y-70187133D01*
X91644789Y-70187133D02*
X91778122Y-70187133D01*
X91778122Y-70187133D02*
X91844789Y-70153800D01*
X91111456Y-70187133D02*
X91178123Y-70153800D01*
X91178123Y-70153800D02*
X91211456Y-70087133D01*
X91211456Y-70087133D02*
X91211456Y-69487133D01*
X90578122Y-70153800D02*
X90644789Y-70187133D01*
X90644789Y-70187133D02*
X90778122Y-70187133D01*
X90778122Y-70187133D02*
X90844789Y-70153800D01*
X90844789Y-70153800D02*
X90878122Y-70087133D01*
X90878122Y-70087133D02*
X90878122Y-69820466D01*
X90878122Y-69820466D02*
X90844789Y-69753800D01*
X90844789Y-69753800D02*
X90778122Y-69720466D01*
X90778122Y-69720466D02*
X90644789Y-69720466D01*
X90644789Y-69720466D02*
X90578122Y-69753800D01*
X90578122Y-69753800D02*
X90544789Y-69820466D01*
X90544789Y-69820466D02*
X90544789Y-69887133D01*
X90544789Y-69887133D02*
X90878122Y-69953800D01*
X90211456Y-69653800D02*
X90211456Y-70187133D01*
X90178122Y-69687133D02*
X90178122Y-70153800D01*
X90144789Y-69687133D02*
X90144789Y-70153800D01*
X90111456Y-69720466D02*
X90111456Y-70120466D01*
X90078122Y-69720466D02*
X90078122Y-70120466D01*
X90044789Y-69753800D02*
X90044789Y-70087133D01*
X90011456Y-69753800D02*
X90011456Y-70087133D01*
X89978122Y-69787133D02*
X89978122Y-70053800D01*
X89944789Y-69820466D02*
X89944789Y-70020466D01*
X89911456Y-69820466D02*
X89911456Y-70020466D01*
X89878122Y-69853800D02*
X89878122Y-69987133D01*
X89844789Y-69853800D02*
X89844789Y-69987133D01*
X89811456Y-69920466D02*
X89778122Y-69920466D01*
X89811456Y-69887133D02*
X89811456Y-69953800D01*
X90244789Y-69653800D02*
X89744789Y-69920466D01*
X89744789Y-69920466D02*
X90244789Y-70187133D01*
X89711456Y-69920466D02*
X90244789Y-70220466D01*
X90244789Y-70220466D02*
X90244789Y-69620466D01*
X90244789Y-69620466D02*
X89711456Y-69920466D01*
X93797456Y-67253466D02*
X93264123Y-67253466D01*
X92597456Y-66820133D02*
X92930789Y-66820133D01*
X92930789Y-66820133D02*
X92964122Y-67153466D01*
X92964122Y-67153466D02*
X92930789Y-67120133D01*
X92930789Y-67120133D02*
X92864122Y-67086800D01*
X92864122Y-67086800D02*
X92697456Y-67086800D01*
X92697456Y-67086800D02*
X92630789Y-67120133D01*
X92630789Y-67120133D02*
X92597456Y-67153466D01*
X92597456Y-67153466D02*
X92564122Y-67220133D01*
X92564122Y-67220133D02*
X92564122Y-67386800D01*
X92564122Y-67386800D02*
X92597456Y-67453466D01*
X92597456Y-67453466D02*
X92630789Y-67486800D01*
X92630789Y-67486800D02*
X92697456Y-67520133D01*
X92697456Y-67520133D02*
X92864122Y-67520133D01*
X92864122Y-67520133D02*
X92930789Y-67486800D01*
X92930789Y-67486800D02*
X92964122Y-67453466D01*
X92364122Y-66820133D02*
X92130789Y-67520133D01*
X92130789Y-67520133D02*
X91897455Y-66820133D01*
X84215456Y-61740133D02*
X84548789Y-61740133D01*
X84548789Y-61740133D02*
X84582122Y-62073466D01*
X84582122Y-62073466D02*
X84548789Y-62040133D01*
X84548789Y-62040133D02*
X84482122Y-62006800D01*
X84482122Y-62006800D02*
X84315456Y-62006800D01*
X84315456Y-62006800D02*
X84248789Y-62040133D01*
X84248789Y-62040133D02*
X84215456Y-62073466D01*
X84215456Y-62073466D02*
X84182122Y-62140133D01*
X84182122Y-62140133D02*
X84182122Y-62306800D01*
X84182122Y-62306800D02*
X84215456Y-62373466D01*
X84215456Y-62373466D02*
X84248789Y-62406800D01*
X84248789Y-62406800D02*
X84315456Y-62440133D01*
X84315456Y-62440133D02*
X84482122Y-62440133D01*
X84482122Y-62440133D02*
X84548789Y-62406800D01*
X84548789Y-62406800D02*
X84582122Y-62373466D01*
X83982122Y-61740133D02*
X83748789Y-62440133D01*
X83748789Y-62440133D02*
X83515455Y-61740133D01*
X85282122Y-67486800D02*
X85182122Y-67520133D01*
X85182122Y-67520133D02*
X85015456Y-67520133D01*
X85015456Y-67520133D02*
X84948789Y-67486800D01*
X84948789Y-67486800D02*
X84915456Y-67453466D01*
X84915456Y-67453466D02*
X84882122Y-67386800D01*
X84882122Y-67386800D02*
X84882122Y-67320133D01*
X84882122Y-67320133D02*
X84915456Y-67253466D01*
X84915456Y-67253466D02*
X84948789Y-67220133D01*
X84948789Y-67220133D02*
X85015456Y-67186800D01*
X85015456Y-67186800D02*
X85148789Y-67153466D01*
X85148789Y-67153466D02*
X85215456Y-67120133D01*
X85215456Y-67120133D02*
X85248789Y-67086800D01*
X85248789Y-67086800D02*
X85282122Y-67020133D01*
X85282122Y-67020133D02*
X85282122Y-66953466D01*
X85282122Y-66953466D02*
X85248789Y-66886800D01*
X85248789Y-66886800D02*
X85215456Y-66853466D01*
X85215456Y-66853466D02*
X85148789Y-66820133D01*
X85148789Y-66820133D02*
X84982122Y-66820133D01*
X84982122Y-66820133D02*
X84882122Y-66853466D01*
X84582122Y-67520133D02*
X84582122Y-66820133D01*
X84582122Y-66820133D02*
X84415455Y-66820133D01*
X84415455Y-66820133D02*
X84315455Y-66853466D01*
X84315455Y-66853466D02*
X84248789Y-66920133D01*
X84248789Y-66920133D02*
X84215455Y-66986800D01*
X84215455Y-66986800D02*
X84182122Y-67120133D01*
X84182122Y-67120133D02*
X84182122Y-67220133D01*
X84182122Y-67220133D02*
X84215455Y-67353466D01*
X84215455Y-67353466D02*
X84248789Y-67420133D01*
X84248789Y-67420133D02*
X84315455Y-67486800D01*
X84315455Y-67486800D02*
X84415455Y-67520133D01*
X84415455Y-67520133D02*
X84582122Y-67520133D01*
X83915455Y-67320133D02*
X83582122Y-67320133D01*
X83982122Y-67520133D02*
X83748789Y-66820133D01*
X83748789Y-66820133D02*
X83515455Y-67520133D01*
X93687788Y-64407133D02*
X93454455Y-65107133D01*
X93454455Y-65107133D02*
X93221121Y-64407133D01*
X92987788Y-65107133D02*
X92987788Y-64407133D01*
X92987788Y-64407133D02*
X92821121Y-64407133D01*
X92821121Y-64407133D02*
X92721121Y-64440466D01*
X92721121Y-64440466D02*
X92654455Y-64507133D01*
X92654455Y-64507133D02*
X92621121Y-64573800D01*
X92621121Y-64573800D02*
X92587788Y-64707133D01*
X92587788Y-64707133D02*
X92587788Y-64807133D01*
X92587788Y-64807133D02*
X92621121Y-64940466D01*
X92621121Y-64940466D02*
X92654455Y-65007133D01*
X92654455Y-65007133D02*
X92721121Y-65073800D01*
X92721121Y-65073800D02*
X92821121Y-65107133D01*
X92821121Y-65107133D02*
X92987788Y-65107133D01*
X92287788Y-65107133D02*
X92287788Y-64407133D01*
X92287788Y-64407133D02*
X92121121Y-64407133D01*
X92121121Y-64407133D02*
X92021121Y-64440466D01*
X92021121Y-64440466D02*
X91954455Y-64507133D01*
X91954455Y-64507133D02*
X91921121Y-64573800D01*
X91921121Y-64573800D02*
X91887788Y-64707133D01*
X91887788Y-64707133D02*
X91887788Y-64807133D01*
X91887788Y-64807133D02*
X91921121Y-64940466D01*
X91921121Y-64940466D02*
X91954455Y-65007133D01*
X91954455Y-65007133D02*
X92021121Y-65073800D01*
X92021121Y-65073800D02*
X92121121Y-65107133D01*
X92121121Y-65107133D02*
X92287788Y-65107133D01*
X91587788Y-65107133D02*
X91587788Y-64407133D01*
X91121122Y-64407133D02*
X90987788Y-64407133D01*
X90987788Y-64407133D02*
X90921122Y-64440466D01*
X90921122Y-64440466D02*
X90854455Y-64507133D01*
X90854455Y-64507133D02*
X90821122Y-64640466D01*
X90821122Y-64640466D02*
X90821122Y-64873800D01*
X90821122Y-64873800D02*
X90854455Y-65007133D01*
X90854455Y-65007133D02*
X90921122Y-65073800D01*
X90921122Y-65073800D02*
X90987788Y-65107133D01*
X90987788Y-65107133D02*
X91121122Y-65107133D01*
X91121122Y-65107133D02*
X91187788Y-65073800D01*
X91187788Y-65073800D02*
X91254455Y-65007133D01*
X91254455Y-65007133D02*
X91287788Y-64873800D01*
X91287788Y-64873800D02*
X91287788Y-64640466D01*
X91287788Y-64640466D02*
X91254455Y-64507133D01*
X91254455Y-64507133D02*
X91187788Y-64440466D01*
X91187788Y-64440466D02*
X91121122Y-64407133D01*
X84921788Y-72060466D02*
X84988455Y-72027133D01*
X84988455Y-72027133D02*
X85088455Y-72027133D01*
X85088455Y-72027133D02*
X85188455Y-72060466D01*
X85188455Y-72060466D02*
X85255122Y-72127133D01*
X85255122Y-72127133D02*
X85288455Y-72193800D01*
X85288455Y-72193800D02*
X85321788Y-72327133D01*
X85321788Y-72327133D02*
X85321788Y-72427133D01*
X85321788Y-72427133D02*
X85288455Y-72560466D01*
X85288455Y-72560466D02*
X85255122Y-72627133D01*
X85255122Y-72627133D02*
X85188455Y-72693800D01*
X85188455Y-72693800D02*
X85088455Y-72727133D01*
X85088455Y-72727133D02*
X85021788Y-72727133D01*
X85021788Y-72727133D02*
X84921788Y-72693800D01*
X84921788Y-72693800D02*
X84888455Y-72660466D01*
X84888455Y-72660466D02*
X84888455Y-72427133D01*
X84888455Y-72427133D02*
X85021788Y-72427133D01*
X84588455Y-72727133D02*
X84588455Y-72027133D01*
X84588455Y-72027133D02*
X84188455Y-72727133D01*
X84188455Y-72727133D02*
X84188455Y-72027133D01*
X83855122Y-72727133D02*
X83855122Y-72027133D01*
X83855122Y-72027133D02*
X83688455Y-72027133D01*
X83688455Y-72027133D02*
X83588455Y-72060466D01*
X83588455Y-72060466D02*
X83521789Y-72127133D01*
X83521789Y-72127133D02*
X83488455Y-72193800D01*
X83488455Y-72193800D02*
X83455122Y-72327133D01*
X83455122Y-72327133D02*
X83455122Y-72427133D01*
X83455122Y-72427133D02*
X83488455Y-72560466D01*
X83488455Y-72560466D02*
X83521789Y-72627133D01*
X83521789Y-72627133D02*
X83588455Y-72693800D01*
X83588455Y-72693800D02*
X83688455Y-72727133D01*
X83688455Y-72727133D02*
X83855122Y-72727133D01*
X81482466Y-84339122D02*
X81449133Y-84272455D01*
X81449133Y-84272455D02*
X81449133Y-84172455D01*
X81449133Y-84172455D02*
X81482466Y-84072455D01*
X81482466Y-84072455D02*
X81549133Y-84005789D01*
X81549133Y-84005789D02*
X81615800Y-83972455D01*
X81615800Y-83972455D02*
X81749133Y-83939122D01*
X81749133Y-83939122D02*
X81849133Y-83939122D01*
X81849133Y-83939122D02*
X81982466Y-83972455D01*
X81982466Y-83972455D02*
X82049133Y-84005789D01*
X82049133Y-84005789D02*
X82115800Y-84072455D01*
X82115800Y-84072455D02*
X82149133Y-84172455D01*
X82149133Y-84172455D02*
X82149133Y-84239122D01*
X82149133Y-84239122D02*
X82115800Y-84339122D01*
X82115800Y-84339122D02*
X82082466Y-84372455D01*
X82082466Y-84372455D02*
X81849133Y-84372455D01*
X81849133Y-84372455D02*
X81849133Y-84239122D01*
X82149133Y-84672455D02*
X81449133Y-84672455D01*
X81449133Y-84672455D02*
X82149133Y-85072455D01*
X82149133Y-85072455D02*
X81449133Y-85072455D01*
X82149133Y-85405788D02*
X81449133Y-85405788D01*
X81449133Y-85405788D02*
X81449133Y-85572455D01*
X81449133Y-85572455D02*
X81482466Y-85672455D01*
X81482466Y-85672455D02*
X81549133Y-85739122D01*
X81549133Y-85739122D02*
X81615800Y-85772455D01*
X81615800Y-85772455D02*
X81749133Y-85805788D01*
X81749133Y-85805788D02*
X81849133Y-85805788D01*
X81849133Y-85805788D02*
X81982466Y-85772455D01*
X81982466Y-85772455D02*
X82049133Y-85739122D01*
X82049133Y-85739122D02*
X82115800Y-85672455D01*
X82115800Y-85672455D02*
X82149133Y-85572455D01*
X82149133Y-85572455D02*
X82149133Y-85405788D01*
X89490789Y-85380200D02*
X89490789Y-84846866D01*
X89524122Y-85346866D02*
X89524122Y-84880200D01*
X89557455Y-85346866D02*
X89557455Y-84880200D01*
X89590789Y-85313533D02*
X89590789Y-84913533D01*
X89624122Y-85313533D02*
X89624122Y-84913533D01*
X89657455Y-85280200D02*
X89657455Y-84946866D01*
X89690789Y-85280200D02*
X89690789Y-84946866D01*
X89724122Y-85246866D02*
X89724122Y-84980200D01*
X89757455Y-85213533D02*
X89757455Y-85013533D01*
X89790789Y-85213533D02*
X89790789Y-85013533D01*
X89824122Y-85180200D02*
X89824122Y-85046866D01*
X89857455Y-85180200D02*
X89857455Y-85046866D01*
X89890789Y-85113533D02*
X89924122Y-85113533D01*
X89890789Y-85146866D02*
X89890789Y-85080200D01*
X89457455Y-85380200D02*
X89957455Y-85113533D01*
X89957455Y-85113533D02*
X89457455Y-84846866D01*
X89990789Y-85113533D02*
X89457455Y-84813533D01*
X89457455Y-84813533D02*
X89457455Y-85413533D01*
X89457455Y-85413533D02*
X89990789Y-85113533D01*
X90257456Y-85546866D02*
X90690789Y-85546866D01*
X90690789Y-85546866D02*
X90457456Y-85280200D01*
X90457456Y-85280200D02*
X90557456Y-85280200D01*
X90557456Y-85280200D02*
X90624122Y-85246866D01*
X90624122Y-85246866D02*
X90657456Y-85213533D01*
X90657456Y-85213533D02*
X90690789Y-85146866D01*
X90690789Y-85146866D02*
X90690789Y-84980200D01*
X90690789Y-84980200D02*
X90657456Y-84913533D01*
X90657456Y-84913533D02*
X90624122Y-84880200D01*
X90624122Y-84880200D02*
X90557456Y-84846866D01*
X90557456Y-84846866D02*
X90357456Y-84846866D01*
X90357456Y-84846866D02*
X90290789Y-84880200D01*
X90290789Y-84880200D02*
X90257456Y-84913533D01*
X84961877Y-70153800D02*
X84861877Y-70187133D01*
X84861877Y-70187133D02*
X84695211Y-70187133D01*
X84695211Y-70187133D02*
X84628544Y-70153800D01*
X84628544Y-70153800D02*
X84595211Y-70120466D01*
X84595211Y-70120466D02*
X84561877Y-70053800D01*
X84561877Y-70053800D02*
X84561877Y-69987133D01*
X84561877Y-69987133D02*
X84595211Y-69920466D01*
X84595211Y-69920466D02*
X84628544Y-69887133D01*
X84628544Y-69887133D02*
X84695211Y-69853800D01*
X84695211Y-69853800D02*
X84828544Y-69820466D01*
X84828544Y-69820466D02*
X84895211Y-69787133D01*
X84895211Y-69787133D02*
X84928544Y-69753800D01*
X84928544Y-69753800D02*
X84961877Y-69687133D01*
X84961877Y-69687133D02*
X84961877Y-69620466D01*
X84961877Y-69620466D02*
X84928544Y-69553800D01*
X84928544Y-69553800D02*
X84895211Y-69520466D01*
X84895211Y-69520466D02*
X84828544Y-69487133D01*
X84828544Y-69487133D02*
X84661877Y-69487133D01*
X84661877Y-69487133D02*
X84561877Y-69520466D01*
X83861877Y-70120466D02*
X83895210Y-70153800D01*
X83895210Y-70153800D02*
X83995210Y-70187133D01*
X83995210Y-70187133D02*
X84061877Y-70187133D01*
X84061877Y-70187133D02*
X84161877Y-70153800D01*
X84161877Y-70153800D02*
X84228544Y-70087133D01*
X84228544Y-70087133D02*
X84261877Y-70020466D01*
X84261877Y-70020466D02*
X84295210Y-69887133D01*
X84295210Y-69887133D02*
X84295210Y-69787133D01*
X84295210Y-69787133D02*
X84261877Y-69653800D01*
X84261877Y-69653800D02*
X84228544Y-69587133D01*
X84228544Y-69587133D02*
X84161877Y-69520466D01*
X84161877Y-69520466D02*
X84061877Y-69487133D01*
X84061877Y-69487133D02*
X83995210Y-69487133D01*
X83995210Y-69487133D02*
X83895210Y-69520466D01*
X83895210Y-69520466D02*
X83861877Y-69553800D01*
X83228544Y-70187133D02*
X83561877Y-70187133D01*
X83561877Y-70187133D02*
X83561877Y-69487133D01*
X93303788Y-72060466D02*
X93370455Y-72027133D01*
X93370455Y-72027133D02*
X93470455Y-72027133D01*
X93470455Y-72027133D02*
X93570455Y-72060466D01*
X93570455Y-72060466D02*
X93637122Y-72127133D01*
X93637122Y-72127133D02*
X93670455Y-72193800D01*
X93670455Y-72193800D02*
X93703788Y-72327133D01*
X93703788Y-72327133D02*
X93703788Y-72427133D01*
X93703788Y-72427133D02*
X93670455Y-72560466D01*
X93670455Y-72560466D02*
X93637122Y-72627133D01*
X93637122Y-72627133D02*
X93570455Y-72693800D01*
X93570455Y-72693800D02*
X93470455Y-72727133D01*
X93470455Y-72727133D02*
X93403788Y-72727133D01*
X93403788Y-72727133D02*
X93303788Y-72693800D01*
X93303788Y-72693800D02*
X93270455Y-72660466D01*
X93270455Y-72660466D02*
X93270455Y-72427133D01*
X93270455Y-72427133D02*
X93403788Y-72427133D01*
X92970455Y-72727133D02*
X92970455Y-72027133D01*
X92970455Y-72027133D02*
X92570455Y-72727133D01*
X92570455Y-72727133D02*
X92570455Y-72027133D01*
X92237122Y-72727133D02*
X92237122Y-72027133D01*
X92237122Y-72027133D02*
X92070455Y-72027133D01*
X92070455Y-72027133D02*
X91970455Y-72060466D01*
X91970455Y-72060466D02*
X91903789Y-72127133D01*
X91903789Y-72127133D02*
X91870455Y-72193800D01*
X91870455Y-72193800D02*
X91837122Y-72327133D01*
X91837122Y-72327133D02*
X91837122Y-72427133D01*
X91837122Y-72427133D02*
X91870455Y-72560466D01*
X91870455Y-72560466D02*
X91903789Y-72627133D01*
X91903789Y-72627133D02*
X91970455Y-72693800D01*
X91970455Y-72693800D02*
X92070455Y-72727133D01*
X92070455Y-72727133D02*
X92237122Y-72727133D01*
X93359456Y-61740133D02*
X93692789Y-61740133D01*
X93692789Y-61740133D02*
X93726122Y-62073466D01*
X93726122Y-62073466D02*
X93692789Y-62040133D01*
X93692789Y-62040133D02*
X93626122Y-62006800D01*
X93626122Y-62006800D02*
X93459456Y-62006800D01*
X93459456Y-62006800D02*
X93392789Y-62040133D01*
X93392789Y-62040133D02*
X93359456Y-62073466D01*
X93359456Y-62073466D02*
X93326122Y-62140133D01*
X93326122Y-62140133D02*
X93326122Y-62306800D01*
X93326122Y-62306800D02*
X93359456Y-62373466D01*
X93359456Y-62373466D02*
X93392789Y-62406800D01*
X93392789Y-62406800D02*
X93459456Y-62440133D01*
X93459456Y-62440133D02*
X93626122Y-62440133D01*
X93626122Y-62440133D02*
X93692789Y-62406800D01*
X93692789Y-62406800D02*
X93726122Y-62373466D01*
X93126122Y-61740133D02*
X92892789Y-62440133D01*
X92892789Y-62440133D02*
X92659455Y-61740133D01*
X92030789Y-85380200D02*
X92030789Y-84846866D01*
X92064122Y-85346866D02*
X92064122Y-84880200D01*
X92097455Y-85346866D02*
X92097455Y-84880200D01*
X92130789Y-85313533D02*
X92130789Y-84913533D01*
X92164122Y-85313533D02*
X92164122Y-84913533D01*
X92197455Y-85280200D02*
X92197455Y-84946866D01*
X92230789Y-85280200D02*
X92230789Y-84946866D01*
X92264122Y-85246866D02*
X92264122Y-84980200D01*
X92297455Y-85213533D02*
X92297455Y-85013533D01*
X92330789Y-85213533D02*
X92330789Y-85013533D01*
X92364122Y-85180200D02*
X92364122Y-85046866D01*
X92397455Y-85180200D02*
X92397455Y-85046866D01*
X92430789Y-85113533D02*
X92464122Y-85113533D01*
X92430789Y-85146866D02*
X92430789Y-85080200D01*
X91997455Y-85380200D02*
X92497455Y-85113533D01*
X92497455Y-85113533D02*
X91997455Y-84846866D01*
X92530789Y-85113533D02*
X91997455Y-84813533D01*
X91997455Y-84813533D02*
X91997455Y-85413533D01*
X91997455Y-85413533D02*
X92530789Y-85113533D01*
X93164122Y-85313533D02*
X93164122Y-84846866D01*
X92997456Y-85580200D02*
X92830789Y-85080200D01*
X92830789Y-85080200D02*
X93264122Y-85080200D01*
X85282123Y-64153133D02*
X84848789Y-64153133D01*
X84848789Y-64153133D02*
X85082123Y-64419800D01*
X85082123Y-64419800D02*
X84982123Y-64419800D01*
X84982123Y-64419800D02*
X84915456Y-64453133D01*
X84915456Y-64453133D02*
X84882123Y-64486466D01*
X84882123Y-64486466D02*
X84848789Y-64553133D01*
X84848789Y-64553133D02*
X84848789Y-64719800D01*
X84848789Y-64719800D02*
X84882123Y-64786466D01*
X84882123Y-64786466D02*
X84915456Y-64819800D01*
X84915456Y-64819800D02*
X84982123Y-64853133D01*
X84982123Y-64853133D02*
X85182123Y-64853133D01*
X85182123Y-64853133D02*
X85248789Y-64819800D01*
X85248789Y-64819800D02*
X85282123Y-64786466D01*
X84648789Y-64153133D02*
X84415456Y-64853133D01*
X84415456Y-64853133D02*
X84182122Y-64153133D01*
X84015456Y-64153133D02*
X83582122Y-64153133D01*
X83582122Y-64153133D02*
X83815456Y-64419800D01*
X83815456Y-64419800D02*
X83715456Y-64419800D01*
X83715456Y-64419800D02*
X83648789Y-64453133D01*
X83648789Y-64453133D02*
X83615456Y-64486466D01*
X83615456Y-64486466D02*
X83582122Y-64553133D01*
X83582122Y-64553133D02*
X83582122Y-64719800D01*
X83582122Y-64719800D02*
X83615456Y-64786466D01*
X83615456Y-64786466D02*
X83648789Y-64819800D01*
X83648789Y-64819800D02*
X83715456Y-64853133D01*
X83715456Y-64853133D02*
X83915456Y-64853133D01*
X83915456Y-64853133D02*
X83982122Y-64819800D01*
X83982122Y-64819800D02*
X84015456Y-64786466D01*
X94690466Y-84212122D02*
X94657133Y-84145455D01*
X94657133Y-84145455D02*
X94657133Y-84045455D01*
X94657133Y-84045455D02*
X94690466Y-83945455D01*
X94690466Y-83945455D02*
X94757133Y-83878789D01*
X94757133Y-83878789D02*
X94823800Y-83845455D01*
X94823800Y-83845455D02*
X94957133Y-83812122D01*
X94957133Y-83812122D02*
X95057133Y-83812122D01*
X95057133Y-83812122D02*
X95190466Y-83845455D01*
X95190466Y-83845455D02*
X95257133Y-83878789D01*
X95257133Y-83878789D02*
X95323800Y-83945455D01*
X95323800Y-83945455D02*
X95357133Y-84045455D01*
X95357133Y-84045455D02*
X95357133Y-84112122D01*
X95357133Y-84112122D02*
X95323800Y-84212122D01*
X95323800Y-84212122D02*
X95290466Y-84245455D01*
X95290466Y-84245455D02*
X95057133Y-84245455D01*
X95057133Y-84245455D02*
X95057133Y-84112122D01*
X95357133Y-84545455D02*
X94657133Y-84545455D01*
X94657133Y-84545455D02*
X95357133Y-84945455D01*
X95357133Y-84945455D02*
X94657133Y-84945455D01*
X95357133Y-85278788D02*
X94657133Y-85278788D01*
X94657133Y-85278788D02*
X94657133Y-85445455D01*
X94657133Y-85445455D02*
X94690466Y-85545455D01*
X94690466Y-85545455D02*
X94757133Y-85612122D01*
X94757133Y-85612122D02*
X94823800Y-85645455D01*
X94823800Y-85645455D02*
X94957133Y-85678788D01*
X94957133Y-85678788D02*
X95057133Y-85678788D01*
X95057133Y-85678788D02*
X95190466Y-85645455D01*
X95190466Y-85645455D02*
X95257133Y-85612122D01*
X95257133Y-85612122D02*
X95323800Y-85545455D01*
X95323800Y-85545455D02*
X95357133Y-85445455D01*
X95357133Y-85445455D02*
X95357133Y-85278788D01*
D12*
%TO.C,G\u002A\u002A\u002A*%
G36*
X83850975Y-83626052D02*
G01*
X83847975Y-83629052D01*
X83844974Y-83626052D01*
X83847975Y-83623051D01*
X83850975Y-83626052D01*
G37*
G36*
X84211003Y-82972000D02*
G01*
X84208003Y-82975000D01*
X84205003Y-82972000D01*
X84208003Y-82969000D01*
X84211003Y-82972000D01*
G37*
G36*
X83726594Y-81978928D02*
G01*
X83762234Y-81979214D01*
X83793095Y-81979875D01*
X83817372Y-81980842D01*
X83833259Y-81982048D01*
X83838951Y-81983422D01*
X83838892Y-81983974D01*
X83835334Y-81992663D01*
X83827967Y-82005924D01*
X83825668Y-82009765D01*
X83817000Y-82024521D01*
X83803862Y-82047070D01*
X83787273Y-82075658D01*
X83768250Y-82108531D01*
X83747813Y-82143935D01*
X83732824Y-82169911D01*
X83710978Y-82207728D01*
X83684912Y-82252817D01*
X83655583Y-82303523D01*
X83623949Y-82358192D01*
X83590966Y-82415171D01*
X83557590Y-82472806D01*
X83524780Y-82529442D01*
X83515527Y-82545413D01*
X83486246Y-82595993D01*
X83459039Y-82643046D01*
X83434471Y-82685592D01*
X83413105Y-82722653D01*
X83395506Y-82753250D01*
X83382238Y-82776403D01*
X83373865Y-82791134D01*
X83370950Y-82796463D01*
X83375776Y-82796747D01*
X83391600Y-82797115D01*
X83417425Y-82797530D01*
X83452203Y-82797981D01*
X83494886Y-82798455D01*
X83544427Y-82798943D01*
X83599777Y-82799431D01*
X83659890Y-82799908D01*
X83723717Y-82800364D01*
X84076470Y-82802741D01*
X84193076Y-82598076D01*
X84309682Y-82393411D01*
X84431109Y-82391683D01*
X84552535Y-82389954D01*
X84642488Y-82545967D01*
X84660644Y-82577443D01*
X84691915Y-82631611D01*
X84725406Y-82689575D01*
X84759063Y-82747788D01*
X84790836Y-82802699D01*
X84818672Y-82850759D01*
X84904904Y-82999539D01*
X85019493Y-83000771D01*
X85134081Y-83002003D01*
X85115077Y-82968735D01*
X85110996Y-82961630D01*
X85100692Y-82943758D01*
X85085307Y-82917112D01*
X85065373Y-82882614D01*
X85041424Y-82841183D01*
X85013990Y-82793739D01*
X84983604Y-82741204D01*
X84950798Y-82684498D01*
X84916105Y-82624541D01*
X84880056Y-82562253D01*
X84664039Y-82189039D01*
X84548530Y-82188989D01*
X84544884Y-82188985D01*
X84509496Y-82188743D01*
X84478784Y-82188168D01*
X84454581Y-82187323D01*
X84438716Y-82186269D01*
X84433021Y-82185069D01*
X84433057Y-82184871D01*
X84436527Y-82177677D01*
X84445017Y-82161946D01*
X84457605Y-82139331D01*
X84473374Y-82111485D01*
X84491403Y-82080061D01*
X84549785Y-81978922D01*
X84665008Y-81978922D01*
X84780231Y-81978922D01*
X84791737Y-81995423D01*
X84792383Y-81996404D01*
X84798571Y-82006576D01*
X84810155Y-82026109D01*
X84826652Y-82054174D01*
X84847580Y-82089943D01*
X84872455Y-82132587D01*
X84900796Y-82181279D01*
X84932119Y-82235190D01*
X84965941Y-82293492D01*
X85001781Y-82355357D01*
X85039155Y-82419957D01*
X85041127Y-82423368D01*
X85079711Y-82490097D01*
X85117617Y-82555648D01*
X85154254Y-82618996D01*
X85189030Y-82679119D01*
X85221352Y-82734992D01*
X85250629Y-82785593D01*
X85276268Y-82829898D01*
X85297678Y-82866883D01*
X85314265Y-82895526D01*
X85325439Y-82914802D01*
X85337574Y-82936122D01*
X85352435Y-82963525D01*
X85363994Y-82986418D01*
X85371290Y-83002876D01*
X85373364Y-83010973D01*
X85371699Y-83014360D01*
X85364646Y-83027263D01*
X85352686Y-83048621D01*
X85336472Y-83077296D01*
X85316658Y-83112151D01*
X85293899Y-83152049D01*
X85268847Y-83195852D01*
X85242156Y-83242423D01*
X85214481Y-83290624D01*
X85186475Y-83339318D01*
X85158792Y-83387368D01*
X85132086Y-83433637D01*
X85107009Y-83476986D01*
X85084217Y-83516278D01*
X85064363Y-83550377D01*
X85048100Y-83578144D01*
X85036083Y-83598443D01*
X85028965Y-83610136D01*
X85027800Y-83612522D01*
X85026829Y-83615406D01*
X85025930Y-83617854D01*
X85024743Y-83619279D01*
X85022911Y-83619097D01*
X85020074Y-83616723D01*
X85015874Y-83611573D01*
X85009953Y-83603061D01*
X85001951Y-83590603D01*
X84991511Y-83573614D01*
X84978274Y-83551508D01*
X84961881Y-83523702D01*
X84941974Y-83489611D01*
X84918193Y-83448649D01*
X84890182Y-83400232D01*
X84857580Y-83343774D01*
X84820030Y-83278692D01*
X84777172Y-83204400D01*
X84728649Y-83120314D01*
X84704006Y-83077744D01*
X84671629Y-83022215D01*
X84641920Y-82971728D01*
X84615344Y-82927056D01*
X84592367Y-82888967D01*
X84573455Y-82858232D01*
X84559074Y-82835621D01*
X84549689Y-82821904D01*
X84545765Y-82817852D01*
X84542217Y-82822926D01*
X84533415Y-82837050D01*
X84520637Y-82858284D01*
X84504959Y-82884837D01*
X84487456Y-82914919D01*
X84434407Y-83006725D01*
X84453968Y-83040367D01*
X84460228Y-83051133D01*
X84504235Y-83126893D01*
X84546585Y-83199916D01*
X84586839Y-83269438D01*
X84624556Y-83334696D01*
X84659298Y-83394928D01*
X84690627Y-83449370D01*
X84718103Y-83497261D01*
X84741287Y-83537837D01*
X84759740Y-83570336D01*
X84773023Y-83593995D01*
X84780697Y-83608050D01*
X84784816Y-83615785D01*
X84797878Y-83639627D01*
X84814555Y-83669442D01*
X84833134Y-83702177D01*
X84851900Y-83734781D01*
X84863091Y-83754247D01*
X84878174Y-83781118D01*
X84890209Y-83803339D01*
X84898176Y-83819014D01*
X84901058Y-83826250D01*
X84901057Y-83826263D01*
X84898144Y-83833424D01*
X84890104Y-83849178D01*
X84877881Y-83871778D01*
X84862420Y-83899480D01*
X84844665Y-83930537D01*
X84788272Y-84028083D01*
X84193078Y-84028083D01*
X84191945Y-84028083D01*
X83720848Y-84028083D01*
X83597884Y-84028083D01*
X83440244Y-83755062D01*
X83419710Y-83719506D01*
X83381161Y-83652792D01*
X83340110Y-83581783D01*
X83297972Y-83508929D01*
X83256164Y-83436678D01*
X83216103Y-83367477D01*
X83179205Y-83303776D01*
X83146887Y-83248022D01*
X83129573Y-83218020D01*
X83371363Y-83218020D01*
X83527723Y-83488041D01*
X83536144Y-83502586D01*
X83566580Y-83555210D01*
X83595499Y-83605290D01*
X83622258Y-83651706D01*
X83646212Y-83693339D01*
X83666719Y-83729069D01*
X83683135Y-83757777D01*
X83694816Y-83778343D01*
X83701118Y-83789648D01*
X83709287Y-83803707D01*
X83716888Y-83814333D01*
X83720848Y-83816651D01*
X83724140Y-83810969D01*
X83732542Y-83796424D01*
X83745003Y-83774837D01*
X83760519Y-83747946D01*
X83778085Y-83717491D01*
X83794326Y-83689502D01*
X83810669Y-83661713D01*
X83824316Y-83638904D01*
X83833526Y-83623957D01*
X84079266Y-83623957D01*
X84079299Y-83624069D01*
X84082793Y-83630509D01*
X84091194Y-83645014D01*
X84103311Y-83665549D01*
X84117954Y-83690080D01*
X84132501Y-83714559D01*
X84149210Y-83743188D01*
X84163779Y-83768666D01*
X84174157Y-83787442D01*
X84191945Y-83820777D01*
X84239669Y-83738415D01*
X84248618Y-83722934D01*
X84265149Y-83694141D01*
X84279534Y-83668840D01*
X84290473Y-83649323D01*
X84296668Y-83637883D01*
X84298271Y-83634682D01*
X84300662Y-83628401D01*
X84301061Y-83621597D01*
X84298803Y-83612625D01*
X84293223Y-83599836D01*
X84283654Y-83581585D01*
X84269432Y-83556225D01*
X84249892Y-83522109D01*
X84193840Y-83424506D01*
X84168505Y-83468275D01*
X84162715Y-83478267D01*
X84146302Y-83506522D01*
X84128097Y-83537792D01*
X84111081Y-83566952D01*
X84100763Y-83584746D01*
X84089571Y-83604431D01*
X84081990Y-83618245D01*
X84079266Y-83623957D01*
X83833526Y-83623957D01*
X83834183Y-83622890D01*
X83839182Y-83615483D01*
X83843444Y-83609211D01*
X83852844Y-83593945D01*
X83866110Y-83571700D01*
X83882157Y-83544293D01*
X83899904Y-83513543D01*
X83954072Y-83419035D01*
X84070537Y-83419035D01*
X84096326Y-83418977D01*
X84132180Y-83418564D01*
X84157943Y-83417692D01*
X84174821Y-83416282D01*
X84184021Y-83414255D01*
X84186751Y-83411535D01*
X84183943Y-83404553D01*
X84175943Y-83388894D01*
X84163714Y-83366406D01*
X84148221Y-83338859D01*
X84130428Y-83308027D01*
X84074355Y-83212019D01*
X83889159Y-83210570D01*
X83845382Y-83210362D01*
X83782829Y-83210413D01*
X83716949Y-83210791D01*
X83651574Y-83211466D01*
X83590535Y-83212403D01*
X83537663Y-83213570D01*
X83371363Y-83218020D01*
X83129573Y-83218020D01*
X83125001Y-83210098D01*
X83098563Y-83163765D01*
X83074629Y-83121236D01*
X83053797Y-83083602D01*
X83036661Y-83051953D01*
X83023819Y-83027379D01*
X83015865Y-83010971D01*
X83013396Y-83003819D01*
X83014776Y-83000349D01*
X83019014Y-82991883D01*
X83026318Y-82978244D01*
X83036935Y-82959000D01*
X83051113Y-82933718D01*
X83069099Y-82901963D01*
X83091142Y-82863304D01*
X83117489Y-82817306D01*
X83148388Y-82763537D01*
X83184086Y-82701563D01*
X83224832Y-82630950D01*
X83270873Y-82551267D01*
X83322457Y-82462078D01*
X83379831Y-82362952D01*
X83389902Y-82345555D01*
X83419515Y-82294386D01*
X83448713Y-82243907D01*
X83476563Y-82195736D01*
X83502132Y-82151487D01*
X83524485Y-82112776D01*
X83542690Y-82081218D01*
X83555813Y-82058428D01*
X83601515Y-81978922D01*
X83720244Y-81978922D01*
X83726594Y-81978928D01*
G37*
G36*
X88638602Y-73133501D02*
G01*
X88638602Y-73768669D01*
X89656887Y-73768669D01*
X90675172Y-73768669D01*
X90675172Y-74040884D01*
X90675172Y-74313099D01*
X89425000Y-74313099D01*
X88174828Y-74313099D01*
X88174828Y-73405716D01*
X88174828Y-72498333D01*
X88406715Y-72498333D01*
X88638602Y-72498333D01*
X88638602Y-73133501D01*
G37*
G36*
X90675172Y-75603599D02*
G01*
X90675172Y-76510982D01*
X90164350Y-76510982D01*
X89653527Y-76510982D01*
X89653527Y-76242128D01*
X89653527Y-75973274D01*
X89425000Y-75973274D01*
X89196474Y-75973274D01*
X89196474Y-76242128D01*
X89196474Y-76510982D01*
X88685651Y-76510982D01*
X88174828Y-76510982D01*
X88174828Y-76238767D01*
X88174828Y-75966552D01*
X88682291Y-75966552D01*
X89189753Y-75966552D01*
X89189753Y-75385155D01*
X89189753Y-74803758D01*
X89425000Y-74803758D01*
X89660248Y-74803758D01*
X89660248Y-75385155D01*
X89660248Y-75966552D01*
X89935823Y-75966552D01*
X90211399Y-75966552D01*
X90211399Y-75331384D01*
X90211399Y-74696216D01*
X90443286Y-74696216D01*
X90675172Y-74696216D01*
X90675172Y-75603599D01*
G37*
G36*
X88638602Y-79925430D02*
G01*
X88638602Y-80557238D01*
X88914178Y-80557238D01*
X89189753Y-80557238D01*
X89189753Y-79979201D01*
X89189753Y-79401165D01*
X89425000Y-79401165D01*
X89660248Y-79401165D01*
X89660248Y-79979201D01*
X89660248Y-80557238D01*
X89935823Y-80557238D01*
X90211399Y-80557238D01*
X90211399Y-79925430D01*
X90211399Y-79293623D01*
X90443286Y-79293623D01*
X90675172Y-79293623D01*
X90675172Y-80197645D01*
X90675172Y-81101667D01*
X90164350Y-81101667D01*
X89653527Y-81101667D01*
X89653527Y-80832813D01*
X89653527Y-80563959D01*
X89425000Y-80563959D01*
X89196474Y-80563959D01*
X89196474Y-80832813D01*
X89196474Y-81101667D01*
X88685651Y-81101667D01*
X88174828Y-81101667D01*
X88174828Y-80197645D01*
X88174828Y-79293623D01*
X88406715Y-79293623D01*
X88638602Y-79293623D01*
X88638602Y-79925430D01*
G37*
G36*
X89975797Y-76849175D02*
G01*
X90030838Y-76852877D01*
X90081063Y-76858747D01*
X90122218Y-76866598D01*
X90193118Y-76887534D01*
X90279855Y-76923721D01*
X90357933Y-76969599D01*
X90427573Y-77025413D01*
X90488992Y-77091406D01*
X90542411Y-77167823D01*
X90588047Y-77254907D01*
X90626121Y-77352903D01*
X90656851Y-77462054D01*
X90658593Y-77469554D01*
X90660759Y-77479708D01*
X90662666Y-77490414D01*
X90664336Y-77502532D01*
X90665788Y-77516922D01*
X90667041Y-77534442D01*
X90668116Y-77555952D01*
X90669032Y-77582312D01*
X90669810Y-77614380D01*
X90670468Y-77653016D01*
X90671027Y-77699080D01*
X90671507Y-77753430D01*
X90671927Y-77816927D01*
X90672307Y-77890428D01*
X90672668Y-77974795D01*
X90673029Y-78070885D01*
X90673409Y-78179558D01*
X90675671Y-78836571D01*
X89935823Y-78836571D01*
X89425250Y-78836571D01*
X88174828Y-78836571D01*
X88174828Y-78564356D01*
X88174828Y-78292141D01*
X88681745Y-78292141D01*
X89188661Y-78292141D01*
X89190800Y-78033104D01*
X89660248Y-78033104D01*
X89660248Y-78292141D01*
X89935823Y-78292141D01*
X90211399Y-78292141D01*
X90211376Y-78051853D01*
X90211090Y-77967439D01*
X90210073Y-77887640D01*
X90208196Y-77818774D01*
X90205330Y-77759542D01*
X90201349Y-77708645D01*
X90196122Y-77664786D01*
X90189522Y-77626666D01*
X90181421Y-77592985D01*
X90171691Y-77562447D01*
X90160203Y-77533751D01*
X90149978Y-77512667D01*
X90117651Y-77464938D01*
X90077618Y-77428126D01*
X90030374Y-77402529D01*
X89976413Y-77388447D01*
X89916231Y-77386180D01*
X89892491Y-77388364D01*
X89846674Y-77398839D01*
X89806505Y-77418536D01*
X89767837Y-77449217D01*
X89747426Y-77471011D01*
X89718574Y-77514680D01*
X89695816Y-77568325D01*
X89678835Y-77632760D01*
X89667316Y-77708799D01*
X89667302Y-77708926D01*
X89665690Y-77730788D01*
X89664207Y-77764096D01*
X89662896Y-77806874D01*
X89661802Y-77857142D01*
X89660968Y-77912922D01*
X89660435Y-77972236D01*
X89660248Y-78033104D01*
X89190800Y-78033104D01*
X89191700Y-77924147D01*
X89191872Y-77903429D01*
X89192593Y-77821899D01*
X89193364Y-77752135D01*
X89194297Y-77692773D01*
X89195505Y-77642452D01*
X89197101Y-77599810D01*
X89199196Y-77563486D01*
X89201903Y-77532116D01*
X89205335Y-77504340D01*
X89209603Y-77478795D01*
X89214821Y-77454119D01*
X89221101Y-77428951D01*
X89228554Y-77401928D01*
X89237294Y-77371688D01*
X89257015Y-77311460D01*
X89297299Y-77218544D01*
X89346583Y-77135521D01*
X89404704Y-77062536D01*
X89471496Y-76999736D01*
X89546797Y-76947265D01*
X89630440Y-76905269D01*
X89722263Y-76873895D01*
X89822100Y-76853287D01*
X89824309Y-76852972D01*
X89868279Y-76849034D01*
X89920193Y-76847832D01*
X89975797Y-76849175D01*
G37*
%TD*%
%LPC*%
%TO.C,G\u002A\u002A\u002A*%
G36*
X84250334Y-83521613D02*
G01*
X84306347Y-83618931D01*
X84296869Y-83637493D01*
X84294270Y-83642389D01*
X84285368Y-83658462D01*
X84272404Y-83681405D01*
X84256680Y-83708919D01*
X84239501Y-83738705D01*
X84191609Y-83821356D01*
X84177735Y-83795293D01*
X84176841Y-83793627D01*
X84167757Y-83777286D01*
X84154436Y-83753929D01*
X84138526Y-83726423D01*
X84121673Y-83697641D01*
X84116689Y-83689172D01*
X84102041Y-83664148D01*
X84090177Y-83643676D01*
X84082206Y-83629680D01*
X84079239Y-83624086D01*
X84079857Y-83622575D01*
X84085123Y-83612657D01*
X84094882Y-83595146D01*
X84108065Y-83571912D01*
X84123600Y-83544827D01*
X84140418Y-83515761D01*
X84157447Y-83486584D01*
X84173617Y-83459168D01*
X84194321Y-83424294D01*
X84250334Y-83521613D01*
G37*
G36*
X83887274Y-82059402D02*
G01*
X83893448Y-82070101D01*
X83910447Y-82099626D01*
X83925934Y-82126607D01*
X83938407Y-82148431D01*
X83946369Y-82162482D01*
X83960121Y-82187030D01*
X83891181Y-82306493D01*
X83883230Y-82320268D01*
X83860628Y-82359401D01*
X83833995Y-82405486D01*
X83804727Y-82456108D01*
X83774224Y-82508848D01*
X83743882Y-82561289D01*
X83715099Y-82611016D01*
X83607956Y-82796075D01*
X83489450Y-82797031D01*
X83483289Y-82797078D01*
X83447665Y-82797261D01*
X83416810Y-82797268D01*
X83392532Y-82797109D01*
X83376640Y-82796796D01*
X83370940Y-82796338D01*
X83373754Y-82791115D01*
X83382211Y-82776162D01*
X83395927Y-82752153D01*
X83414514Y-82719758D01*
X83437588Y-82679647D01*
X83464760Y-82632492D01*
X83495644Y-82578960D01*
X83529854Y-82519724D01*
X83567004Y-82455452D01*
X83606706Y-82386814D01*
X83648573Y-82314481D01*
X83692221Y-82239123D01*
X83737261Y-82161410D01*
X83841930Y-81980869D01*
X83887274Y-82059402D01*
G37*
G36*
X83607956Y-83215274D02*
G01*
X83718964Y-83408072D01*
X83719989Y-83409852D01*
X83745211Y-83453862D01*
X83768482Y-83494837D01*
X83789124Y-83531552D01*
X83806457Y-83562783D01*
X83819802Y-83587307D01*
X83828479Y-83603901D01*
X83831809Y-83611340D01*
X83829852Y-83618804D01*
X83822678Y-83635080D01*
X83811157Y-83658095D01*
X83796219Y-83685998D01*
X83778792Y-83716938D01*
X83759865Y-83749645D01*
X83742731Y-83778839D01*
X83730221Y-83799462D01*
X83721662Y-83812532D01*
X83716381Y-83819069D01*
X83713706Y-83820090D01*
X83712964Y-83816615D01*
X83712588Y-83815329D01*
X83709332Y-83808483D01*
X83702545Y-83795664D01*
X83691999Y-83776472D01*
X83677465Y-83750508D01*
X83658717Y-83717372D01*
X83635524Y-83676664D01*
X83607660Y-83627985D01*
X83574897Y-83570934D01*
X83537006Y-83505112D01*
X83493759Y-83430119D01*
X83444928Y-83345556D01*
X83390286Y-83251022D01*
X83381144Y-83235057D01*
X83373897Y-83222065D01*
X83371069Y-83216519D01*
X83371223Y-83216441D01*
X83378679Y-83215998D01*
X83396034Y-83215627D01*
X83421484Y-83215347D01*
X83453223Y-83215180D01*
X83489446Y-83215146D01*
X83607956Y-83215274D01*
G37*
G36*
X84551909Y-82824777D02*
G01*
X84560059Y-82835341D01*
X84571573Y-82852555D01*
X84586943Y-82877189D01*
X84606662Y-82910010D01*
X84631221Y-82951787D01*
X84661113Y-83003288D01*
X84676708Y-83030272D01*
X84709758Y-83087452D01*
X84746168Y-83150435D01*
X84784205Y-83216228D01*
X84822138Y-83281835D01*
X84858236Y-83344263D01*
X84890768Y-83400517D01*
X84898732Y-83414293D01*
X84924551Y-83459040D01*
X84948323Y-83500363D01*
X84969383Y-83537103D01*
X84987070Y-83568099D01*
X85000723Y-83592193D01*
X85009678Y-83608224D01*
X85013274Y-83615034D01*
X85012446Y-83617835D01*
X85006444Y-83619971D01*
X84993877Y-83621454D01*
X84973386Y-83622383D01*
X84943613Y-83622854D01*
X84903200Y-83622967D01*
X84790049Y-83622882D01*
X84646037Y-83373106D01*
X84620520Y-83328857D01*
X84590863Y-83277453D01*
X84562561Y-83228422D01*
X84536387Y-83183100D01*
X84513113Y-83142826D01*
X84493513Y-83108937D01*
X84478359Y-83082771D01*
X84468423Y-83065666D01*
X84456758Y-83045318D01*
X84445702Y-83025249D01*
X84438423Y-83011074D01*
X84436099Y-83005003D01*
X84438151Y-83000899D01*
X84445589Y-82987363D01*
X84457002Y-82967232D01*
X84471150Y-82942631D01*
X84486790Y-82915688D01*
X84502682Y-82888529D01*
X84517584Y-82863281D01*
X84530254Y-82842072D01*
X84539451Y-82827027D01*
X84543933Y-82820274D01*
X84546631Y-82820096D01*
X84551909Y-82824777D01*
G37*
G36*
X84664039Y-82189000D02*
G01*
X84755003Y-82346482D01*
X84761484Y-82357700D01*
X84786417Y-82400833D01*
X84815755Y-82451556D01*
X84848256Y-82507725D01*
X84882681Y-82567196D01*
X84917787Y-82627825D01*
X84952335Y-82687468D01*
X84985083Y-82743982D01*
X85009908Y-82786823D01*
X85036921Y-82833464D01*
X85061637Y-82876165D01*
X85083436Y-82913853D01*
X85101697Y-82945454D01*
X85115800Y-82969895D01*
X85125123Y-82986102D01*
X85129047Y-82993002D01*
X85129703Y-82994942D01*
X85128021Y-82997557D01*
X85121560Y-82999379D01*
X85108877Y-83000509D01*
X85088528Y-83001050D01*
X85059068Y-83001103D01*
X85019054Y-83000771D01*
X84904215Y-82999539D01*
X84861720Y-82925765D01*
X84822202Y-82857190D01*
X84772198Y-82770527D01*
X84727774Y-82693679D01*
X84688718Y-82626286D01*
X84654822Y-82567990D01*
X84625875Y-82518435D01*
X84601668Y-82477263D01*
X84581991Y-82444116D01*
X84566635Y-82418635D01*
X84555389Y-82400465D01*
X84548044Y-82389246D01*
X84544390Y-82384621D01*
X84539725Y-82378924D01*
X84529774Y-82364170D01*
X84516013Y-82342380D01*
X84499585Y-82315367D01*
X84481631Y-82284946D01*
X84465713Y-82257536D01*
X84450404Y-82231069D01*
X84438252Y-82209948D01*
X84430222Y-82195847D01*
X84427274Y-82190439D01*
X84427422Y-82190360D01*
X84434846Y-82189911D01*
X84452171Y-82189525D01*
X84477595Y-82189225D01*
X84509316Y-82189032D01*
X84545530Y-82188969D01*
X84664039Y-82189000D01*
G37*
%TD*%
D13*
%TO.C,TP1*%
X82750000Y-75200000D03*
%TD*%
D14*
%TO.C,CG1*%
X82240000Y-62150000D03*
D15*
X82240000Y-64690000D03*
X82240000Y-67230000D03*
X82240000Y-69770000D03*
X82240000Y-72310000D03*
D14*
X94940000Y-62150000D03*
D15*
X94940000Y-64690000D03*
X94940000Y-67230000D03*
X94940000Y-69770000D03*
X94940000Y-72310000D03*
D14*
X82240000Y-86915000D03*
D15*
X84780000Y-86915000D03*
X87320000Y-86915000D03*
X89860000Y-86915000D03*
X92400000Y-86915000D03*
X94940000Y-86915000D03*
%TD*%
D13*
%TO.C,TP4*%
X91175000Y-61425000D03*
%TD*%
D16*
%TO.C,J1*%
X84075000Y-56500000D03*
X92575000Y-56500000D03*
%TD*%
D13*
%TO.C,TP2*%
X94450000Y-76050000D03*
%TD*%
%LPD*%
M02*
