%TF.GenerationSoftware,KiCad,Pcbnew,9.0.2*%
%TF.CreationDate,2025-10-14T12:10:58+02:00*%
%TF.ProjectId,1p6V_to_m1p6V_bias_gum,31703656-5f74-46f5-9f6d-317036565f62,rev?*%
%TF.SameCoordinates,Original*%
%TF.FileFunction,Soldermask,Bot*%
%TF.FilePolarity,Negative*%
%FSLAX46Y46*%
G04 Gerber Fmt 4.6, Leading zero omitted, Abs format (unit mm)*
G04 Created by KiCad (PCBNEW 9.0.2) date 2025-10-14 12:10:58*
%MOMM*%
%LPD*%
G01*
G04 APERTURE LIST*
%ADD10C,0.000000*%
%ADD11C,2.000000*%
%ADD12R,1.700000X1.700000*%
%ADD13C,1.700000*%
%ADD14R,1.500000X5.080000*%
G04 APERTURE END LIST*
D10*
%TO.C,G\u002A\u002A\u002A*%
G36*
X84250334Y-83521613D02*
G01*
X84306347Y-83618931D01*
X84296869Y-83637493D01*
X84294270Y-83642389D01*
X84285368Y-83658462D01*
X84272404Y-83681405D01*
X84256680Y-83708919D01*
X84239501Y-83738705D01*
X84191609Y-83821356D01*
X84177735Y-83795293D01*
X84176841Y-83793627D01*
X84167757Y-83777286D01*
X84154436Y-83753929D01*
X84138526Y-83726423D01*
X84121673Y-83697641D01*
X84116689Y-83689172D01*
X84102041Y-83664148D01*
X84090177Y-83643676D01*
X84082206Y-83629680D01*
X84079239Y-83624086D01*
X84079857Y-83622575D01*
X84085123Y-83612657D01*
X84094882Y-83595146D01*
X84108065Y-83571912D01*
X84123600Y-83544827D01*
X84140418Y-83515761D01*
X84157447Y-83486584D01*
X84173617Y-83459168D01*
X84194321Y-83424294D01*
X84250334Y-83521613D01*
G37*
G36*
X83887274Y-82059402D02*
G01*
X83893448Y-82070101D01*
X83910447Y-82099626D01*
X83925934Y-82126607D01*
X83938407Y-82148431D01*
X83946369Y-82162482D01*
X83960121Y-82187030D01*
X83891181Y-82306493D01*
X83883230Y-82320268D01*
X83860628Y-82359401D01*
X83833995Y-82405486D01*
X83804727Y-82456108D01*
X83774224Y-82508848D01*
X83743882Y-82561289D01*
X83715099Y-82611016D01*
X83607956Y-82796075D01*
X83489450Y-82797031D01*
X83483289Y-82797078D01*
X83447665Y-82797261D01*
X83416810Y-82797268D01*
X83392532Y-82797109D01*
X83376640Y-82796796D01*
X83370940Y-82796338D01*
X83373754Y-82791115D01*
X83382211Y-82776162D01*
X83395927Y-82752153D01*
X83414514Y-82719758D01*
X83437588Y-82679647D01*
X83464760Y-82632492D01*
X83495644Y-82578960D01*
X83529854Y-82519724D01*
X83567004Y-82455452D01*
X83606706Y-82386814D01*
X83648573Y-82314481D01*
X83692221Y-82239123D01*
X83737261Y-82161410D01*
X83841930Y-81980869D01*
X83887274Y-82059402D01*
G37*
G36*
X83607956Y-83215274D02*
G01*
X83718964Y-83408072D01*
X83719989Y-83409852D01*
X83745211Y-83453862D01*
X83768482Y-83494837D01*
X83789124Y-83531552D01*
X83806457Y-83562783D01*
X83819802Y-83587307D01*
X83828479Y-83603901D01*
X83831809Y-83611340D01*
X83829852Y-83618804D01*
X83822678Y-83635080D01*
X83811157Y-83658095D01*
X83796219Y-83685998D01*
X83778792Y-83716938D01*
X83759865Y-83749645D01*
X83742731Y-83778839D01*
X83730221Y-83799462D01*
X83721662Y-83812532D01*
X83716381Y-83819069D01*
X83713706Y-83820090D01*
X83712964Y-83816615D01*
X83712588Y-83815329D01*
X83709332Y-83808483D01*
X83702545Y-83795664D01*
X83691999Y-83776472D01*
X83677465Y-83750508D01*
X83658717Y-83717372D01*
X83635524Y-83676664D01*
X83607660Y-83627985D01*
X83574897Y-83570934D01*
X83537006Y-83505112D01*
X83493759Y-83430119D01*
X83444928Y-83345556D01*
X83390286Y-83251022D01*
X83381144Y-83235057D01*
X83373897Y-83222065D01*
X83371069Y-83216519D01*
X83371223Y-83216441D01*
X83378679Y-83215998D01*
X83396034Y-83215627D01*
X83421484Y-83215347D01*
X83453223Y-83215180D01*
X83489446Y-83215146D01*
X83607956Y-83215274D01*
G37*
G36*
X84551909Y-82824777D02*
G01*
X84560059Y-82835341D01*
X84571573Y-82852555D01*
X84586943Y-82877189D01*
X84606662Y-82910010D01*
X84631221Y-82951787D01*
X84661113Y-83003288D01*
X84676708Y-83030272D01*
X84709758Y-83087452D01*
X84746168Y-83150435D01*
X84784205Y-83216228D01*
X84822138Y-83281835D01*
X84858236Y-83344263D01*
X84890768Y-83400517D01*
X84898732Y-83414293D01*
X84924551Y-83459040D01*
X84948323Y-83500363D01*
X84969383Y-83537103D01*
X84987070Y-83568099D01*
X85000723Y-83592193D01*
X85009678Y-83608224D01*
X85013274Y-83615034D01*
X85012446Y-83617835D01*
X85006444Y-83619971D01*
X84993877Y-83621454D01*
X84973386Y-83622383D01*
X84943613Y-83622854D01*
X84903200Y-83622967D01*
X84790049Y-83622882D01*
X84646037Y-83373106D01*
X84620520Y-83328857D01*
X84590863Y-83277453D01*
X84562561Y-83228422D01*
X84536387Y-83183100D01*
X84513113Y-83142826D01*
X84493513Y-83108937D01*
X84478359Y-83082771D01*
X84468423Y-83065666D01*
X84456758Y-83045318D01*
X84445702Y-83025249D01*
X84438423Y-83011074D01*
X84436099Y-83005003D01*
X84438151Y-83000899D01*
X84445589Y-82987363D01*
X84457002Y-82967232D01*
X84471150Y-82942631D01*
X84486790Y-82915688D01*
X84502682Y-82888529D01*
X84517584Y-82863281D01*
X84530254Y-82842072D01*
X84539451Y-82827027D01*
X84543933Y-82820274D01*
X84546631Y-82820096D01*
X84551909Y-82824777D01*
G37*
G36*
X84664039Y-82189000D02*
G01*
X84755003Y-82346482D01*
X84761484Y-82357700D01*
X84786417Y-82400833D01*
X84815755Y-82451556D01*
X84848256Y-82507725D01*
X84882681Y-82567196D01*
X84917787Y-82627825D01*
X84952335Y-82687468D01*
X84985083Y-82743982D01*
X85009908Y-82786823D01*
X85036921Y-82833464D01*
X85061637Y-82876165D01*
X85083436Y-82913853D01*
X85101697Y-82945454D01*
X85115800Y-82969895D01*
X85125123Y-82986102D01*
X85129047Y-82993002D01*
X85129703Y-82994942D01*
X85128021Y-82997557D01*
X85121560Y-82999379D01*
X85108877Y-83000509D01*
X85088528Y-83001050D01*
X85059068Y-83001103D01*
X85019054Y-83000771D01*
X84904215Y-82999539D01*
X84861720Y-82925765D01*
X84822202Y-82857190D01*
X84772198Y-82770527D01*
X84727774Y-82693679D01*
X84688718Y-82626286D01*
X84654822Y-82567990D01*
X84625875Y-82518435D01*
X84601668Y-82477263D01*
X84581991Y-82444116D01*
X84566635Y-82418635D01*
X84555389Y-82400465D01*
X84548044Y-82389246D01*
X84544390Y-82384621D01*
X84539725Y-82378924D01*
X84529774Y-82364170D01*
X84516013Y-82342380D01*
X84499585Y-82315367D01*
X84481631Y-82284946D01*
X84465713Y-82257536D01*
X84450404Y-82231069D01*
X84438252Y-82209948D01*
X84430222Y-82195847D01*
X84427274Y-82190439D01*
X84427422Y-82190360D01*
X84434846Y-82189911D01*
X84452171Y-82189525D01*
X84477595Y-82189225D01*
X84509316Y-82189032D01*
X84545530Y-82188969D01*
X84664039Y-82189000D01*
G37*
%TD*%
D11*
%TO.C,TP1*%
X82750000Y-75200000D03*
%TD*%
D12*
%TO.C,CG1*%
X82240000Y-62150000D03*
D13*
X82240000Y-64690000D03*
X82240000Y-67230000D03*
X82240000Y-69770000D03*
X82240000Y-72310000D03*
D12*
X94940000Y-62150000D03*
D13*
X94940000Y-64690000D03*
X94940000Y-67230000D03*
X94940000Y-69770000D03*
X94940000Y-72310000D03*
D12*
X82240000Y-86915000D03*
D13*
X84780000Y-86915000D03*
X87320000Y-86915000D03*
X89860000Y-86915000D03*
X92400000Y-86915000D03*
X94940000Y-86915000D03*
%TD*%
D11*
%TO.C,TP4*%
X91175000Y-61425000D03*
%TD*%
D14*
%TO.C,J1*%
X84075000Y-56500000D03*
X92575000Y-56500000D03*
%TD*%
D11*
%TO.C,TP2*%
X94450000Y-76050000D03*
%TD*%
M02*
