M48
; DRILL file {KiCad 9.0.2} date 2025-10-14T12:10:58+0200
; FORMAT={-:-/ absolute / inch / decimal}
; #@! TF.CreationDate,2025-10-14T12:10:58+02:00
; #@! TF.GenerationSoftware,Kicad,Pcbnew,9.0.2
; #@! TF.FileFunction,Plated,1,4,PTH
FMAT,2
INCH
; #@! TA.AperFunction,Plated,PTH,ViaDrill
T1C0.0138
; #@! TA.AperFunction,Plated,PTH,ComponentDrill
T2C0.0394
%
G90
G05
T1
X3.213Y-2.2969
X3.2138Y-2.2024
X3.2138Y-2.252
X3.2138Y-2.3457
X3.2953Y-2.5305
X3.2956Y-2.5914
X3.3Y-3.1902
X3.3612Y-2.81
X3.3613Y-2.3227
X3.3783Y-3.05
X3.3802Y-2.5571
X3.3988Y-2.7343
X3.4075Y-2.2805
X3.4315Y-3.3531
X3.4449Y-2.4656
X3.4626Y-2.6102
X3.4669Y-3.0839
X3.502Y-2.8793
X3.5453Y-2.9754
X3.5482Y-3.2431
X3.5551Y-2.8435
X3.5717Y-2.7354
X3.6252Y-2.7414
X3.6319Y-2.9281
X3.6467Y-3.0974
X3.678Y-3.2913
X3.6781Y-2.5118
X3.6791Y-2.3947
X3.6898Y-3.3752
X3.7146Y-3.1348
X3.7449Y-3.2083
X3.7547Y-2.2984
X3.7555Y-2.2039
X3.7555Y-2.2535
X3.7555Y-2.3472
T2
X3.2378Y-2.4469
X3.2378Y-2.5469
X3.2378Y-2.6469
X3.2378Y-2.7469
X3.2378Y-2.8469
X3.2378Y-3.4219
X3.2579Y-2.9606
X3.3378Y-3.4219
X3.4378Y-3.4219
X3.5378Y-3.4219
X3.5896Y-2.4183
X3.6378Y-3.4219
X3.7185Y-2.9941
X3.7378Y-2.4469
X3.7378Y-2.5469
X3.7378Y-2.6469
X3.7378Y-2.7469
X3.7378Y-2.8469
X3.7378Y-3.4219
M30
