%TF.GenerationSoftware,KiCad,Pcbnew,9.0.2*%
%TF.CreationDate,2025-10-14T11:54:41+02:00*%
%TF.ProjectId,nA_current_shunt_monitor_gum,6e415f63-7572-4726-956e-745f7368756e,rev?*%
%TF.SameCoordinates,Original*%
%TF.FileFunction,Soldermask,Top*%
%TF.FilePolarity,Negative*%
%FSLAX46Y46*%
G04 Gerber Fmt 4.6, Leading zero omitted, Abs format (unit mm)*
G04 Created by KiCad (PCBNEW 9.0.2) date 2025-10-14 11:54:41*
%MOMM*%
%LPD*%
G01*
G04 APERTURE LIST*
G04 Aperture macros list*
%AMRoundRect*
0 Rectangle with rounded corners*
0 $1 Rounding radius*
0 $2 $3 $4 $5 $6 $7 $8 $9 X,Y pos of 4 corners*
0 Add a 4 corners polygon primitive as box body*
4,1,4,$2,$3,$4,$5,$6,$7,$8,$9,$2,$3,0*
0 Add four circle primitives for the rounded corners*
1,1,$1+$1,$2,$3*
1,1,$1+$1,$4,$5*
1,1,$1+$1,$6,$7*
1,1,$1+$1,$8,$9*
0 Add four rect primitives between the rounded corners*
20,1,$1+$1,$2,$3,$4,$5,0*
20,1,$1+$1,$4,$5,$6,$7,0*
20,1,$1+$1,$6,$7,$8,$9,0*
20,1,$1+$1,$8,$9,$2,$3,0*%
G04 Aperture macros list end*
%ADD10R,1.500000X5.080000*%
%ADD11R,1.700000X1.700000*%
%ADD12C,1.700000*%
%ADD13RoundRect,0.200000X-0.200000X-0.275000X0.200000X-0.275000X0.200000X0.275000X-0.200000X0.275000X0*%
%ADD14RoundRect,0.200000X0.200000X0.275000X-0.200000X0.275000X-0.200000X-0.275000X0.200000X-0.275000X0*%
%ADD15RoundRect,0.225000X-0.225000X-0.250000X0.225000X-0.250000X0.225000X0.250000X-0.225000X0.250000X0*%
%ADD16RoundRect,0.225000X0.250000X-0.225000X0.250000X0.225000X-0.250000X0.225000X-0.250000X-0.225000X0*%
%ADD17RoundRect,0.200000X0.275000X-0.200000X0.275000X0.200000X-0.275000X0.200000X-0.275000X-0.200000X0*%
%ADD18RoundRect,0.150000X-0.150000X0.512500X-0.150000X-0.512500X0.150000X-0.512500X0.150000X0.512500X0*%
%ADD19RoundRect,0.062500X-0.375000X-0.062500X0.375000X-0.062500X0.375000X0.062500X-0.375000X0.062500X0*%
%ADD20RoundRect,0.062500X-0.062500X-0.375000X0.062500X-0.375000X0.062500X0.375000X-0.062500X0.375000X0*%
%ADD21R,0.800000X0.800000*%
%ADD22RoundRect,0.225000X-0.250000X0.225000X-0.250000X-0.225000X0.250000X-0.225000X0.250000X0.225000X0*%
%ADD23RoundRect,0.250000X0.750000X-1.650000X0.750000X1.650000X-0.750000X1.650000X-0.750000X-1.650000X0*%
%ADD24RoundRect,0.100000X0.225000X0.100000X-0.225000X0.100000X-0.225000X-0.100000X0.225000X-0.100000X0*%
%ADD25C,1.440000*%
%ADD26RoundRect,0.225000X0.225000X0.250000X-0.225000X0.250000X-0.225000X-0.250000X0.225000X-0.250000X0*%
%ADD27RoundRect,0.218750X0.218750X0.256250X-0.218750X0.256250X-0.218750X-0.256250X0.218750X-0.256250X0*%
%ADD28RoundRect,0.135000X0.135000X0.185000X-0.135000X0.185000X-0.135000X-0.185000X0.135000X-0.185000X0*%
%ADD29C,2.000000*%
%ADD30RoundRect,0.150000X0.512500X0.150000X-0.512500X0.150000X-0.512500X-0.150000X0.512500X-0.150000X0*%
G04 APERTURE END LIST*
D10*
%TO.C,J1*%
X131725000Y-69325000D03*
X127475000Y-69325000D03*
X135975000Y-69325000D03*
%TD*%
D11*
%TO.C,CG1*%
X123320000Y-86485000D03*
D12*
X123320000Y-89025000D03*
X123320000Y-91565000D03*
X123320000Y-94105000D03*
X123320000Y-96645000D03*
D11*
X136020000Y-86485000D03*
D12*
X136020000Y-89025000D03*
X136020000Y-91565000D03*
X136020000Y-94105000D03*
X136020000Y-96645000D03*
D11*
X123320000Y-111250000D03*
D12*
X125860000Y-111250000D03*
X128400000Y-111250000D03*
X130940000Y-111250000D03*
X133480000Y-111250000D03*
X136020000Y-111250000D03*
%TD*%
D13*
%TO.C,R4*%
X122950000Y-79930000D03*
X124600000Y-79930000D03*
%TD*%
D14*
%TO.C,R2*%
X133860000Y-84430000D03*
X132210000Y-84430000D03*
%TD*%
D15*
%TO.C,C5*%
X129010000Y-101380000D03*
X130560000Y-101380000D03*
%TD*%
D16*
%TO.C,C6*%
X136290000Y-100660000D03*
X136290000Y-99110000D03*
%TD*%
D17*
%TO.C,R9*%
X124090000Y-100160000D03*
X124090000Y-98510000D03*
%TD*%
D15*
%TO.C,C10*%
X125170000Y-89860000D03*
X126720000Y-89860000D03*
%TD*%
D18*
%TO.C,U3*%
X127540000Y-97495000D03*
X126590000Y-97495000D03*
X125640000Y-97495000D03*
X125640000Y-99770000D03*
X127540000Y-99770000D03*
%TD*%
D19*
%TO.C,U2*%
X132912500Y-102522500D03*
X132912500Y-103022500D03*
X132912500Y-103522500D03*
X132912500Y-104022500D03*
D20*
X133600000Y-104710000D03*
X134100000Y-104710000D03*
X134600000Y-104710000D03*
X135100000Y-104710000D03*
D19*
X135787500Y-104022500D03*
X135787500Y-103522500D03*
X135787500Y-103022500D03*
X135787500Y-102522500D03*
D20*
X135100000Y-101835000D03*
X134600000Y-101835000D03*
X134100000Y-101835000D03*
X133600000Y-101835000D03*
D21*
X134350000Y-103272500D03*
%TD*%
D17*
%TO.C,R7*%
X133530000Y-100200000D03*
X133530000Y-98550000D03*
%TD*%
D11*
%TO.C,J2*%
X133560000Y-95410000D03*
D12*
X133560000Y-92870000D03*
X133560000Y-90330000D03*
%TD*%
D16*
%TO.C,C3*%
X129290000Y-94340000D03*
X129290000Y-92790000D03*
%TD*%
D18*
%TO.C,U4*%
X135075000Y-78237500D03*
X134125000Y-78237500D03*
X133175000Y-78237500D03*
X133175000Y-80512500D03*
X134125000Y-80512500D03*
X135075000Y-80512500D03*
%TD*%
D22*
%TO.C,C1*%
X135875000Y-82475000D03*
X135875000Y-84025000D03*
%TD*%
D15*
%TO.C,C2*%
X133325000Y-76275000D03*
X134875000Y-76275000D03*
%TD*%
D13*
%TO.C,R6*%
X128130000Y-91130000D03*
X129780000Y-91130000D03*
%TD*%
D23*
%TO.C,TP14*%
X123650000Y-69200000D03*
%TD*%
D24*
%TO.C,IC6*%
X131340000Y-104490000D03*
X131340000Y-103840000D03*
X131340000Y-103190000D03*
X129440000Y-103190000D03*
X129440000Y-103840000D03*
X129440000Y-104490000D03*
%TD*%
D13*
%TO.C,R3*%
X132210000Y-86020000D03*
X133860000Y-86020000D03*
%TD*%
D25*
%TO.C,RV1*%
X124730000Y-76290000D03*
X127270000Y-76290000D03*
X129810000Y-76290000D03*
%TD*%
D26*
%TO.C,C8*%
X127375000Y-104750000D03*
X125825000Y-104750000D03*
%TD*%
D27*
%TO.C,D1*%
X133785000Y-87600000D03*
X132210000Y-87600000D03*
%TD*%
D15*
%TO.C,C7*%
X129075000Y-99580000D03*
X130625000Y-99580000D03*
%TD*%
D28*
%TO.C,R13*%
X130110000Y-106075000D03*
X129090000Y-106075000D03*
%TD*%
D14*
%TO.C,R8*%
X127395000Y-101540000D03*
X125745000Y-101540000D03*
%TD*%
D11*
%TO.C,J3*%
X129155000Y-82615000D03*
D12*
X126615000Y-82615000D03*
X124075000Y-82615000D03*
%TD*%
D29*
%TO.C,TP2*%
X132625000Y-108750000D03*
%TD*%
D30*
%TO.C,U5*%
X127487500Y-94522500D03*
X127487500Y-93572500D03*
X127487500Y-92622500D03*
X125212500Y-92622500D03*
X125212500Y-94522500D03*
%TD*%
D18*
%TO.C,U1*%
X130530000Y-86900000D03*
X129580000Y-86900000D03*
X128630000Y-86900000D03*
X128630000Y-89175000D03*
X130530000Y-89175000D03*
%TD*%
D11*
%TO.C,J7*%
X123920000Y-108400000D03*
D12*
X126460000Y-108400000D03*
X129000000Y-108400000D03*
%TD*%
D14*
%TO.C,R5*%
X130310000Y-79890000D03*
X128660000Y-79890000D03*
%TD*%
%TO.C,R10*%
X127400000Y-103130000D03*
X125750000Y-103130000D03*
%TD*%
D15*
%TO.C,C9*%
X129235000Y-97870000D03*
X130785000Y-97870000D03*
%TD*%
D26*
%TO.C,C4*%
X126670000Y-86980000D03*
X125120000Y-86980000D03*
%TD*%
M02*
