%TF.GenerationSoftware,KiCad,Pcbnew,9.0.2*%
%TF.CreationDate,2025-10-14T11:54:41+02:00*%
%TF.ProjectId,nA_current_shunt_monitor_gum,6e415f63-7572-4726-956e-745f7368756e,rev?*%
%TF.SameCoordinates,Original*%
%TF.FileFunction,Copper,L1,Top*%
%TF.FilePolarity,Positive*%
%FSLAX46Y46*%
G04 Gerber Fmt 4.6, Leading zero omitted, Abs format (unit mm)*
G04 Created by KiCad (PCBNEW 9.0.2) date 2025-10-14 11:54:41*
%MOMM*%
%LPD*%
G01*
G04 APERTURE LIST*
G04 Aperture macros list*
%AMRoundRect*
0 Rectangle with rounded corners*
0 $1 Rounding radius*
0 $2 $3 $4 $5 $6 $7 $8 $9 X,Y pos of 4 corners*
0 Add a 4 corners polygon primitive as box body*
4,1,4,$2,$3,$4,$5,$6,$7,$8,$9,$2,$3,0*
0 Add four circle primitives for the rounded corners*
1,1,$1+$1,$2,$3*
1,1,$1+$1,$4,$5*
1,1,$1+$1,$6,$7*
1,1,$1+$1,$8,$9*
0 Add four rect primitives between the rounded corners*
20,1,$1+$1,$2,$3,$4,$5,0*
20,1,$1+$1,$4,$5,$6,$7,0*
20,1,$1+$1,$6,$7,$8,$9,0*
20,1,$1+$1,$8,$9,$2,$3,0*%
G04 Aperture macros list end*
%TA.AperFunction,SMDPad,CuDef*%
%ADD10R,1.500000X5.080000*%
%TD*%
%TA.AperFunction,ComponentPad*%
%ADD11R,1.700000X1.700000*%
%TD*%
%TA.AperFunction,ComponentPad*%
%ADD12C,1.700000*%
%TD*%
%TA.AperFunction,SMDPad,CuDef*%
%ADD13RoundRect,0.200000X-0.200000X-0.275000X0.200000X-0.275000X0.200000X0.275000X-0.200000X0.275000X0*%
%TD*%
%TA.AperFunction,SMDPad,CuDef*%
%ADD14RoundRect,0.200000X0.200000X0.275000X-0.200000X0.275000X-0.200000X-0.275000X0.200000X-0.275000X0*%
%TD*%
%TA.AperFunction,SMDPad,CuDef*%
%ADD15RoundRect,0.225000X-0.225000X-0.250000X0.225000X-0.250000X0.225000X0.250000X-0.225000X0.250000X0*%
%TD*%
%TA.AperFunction,SMDPad,CuDef*%
%ADD16RoundRect,0.225000X0.250000X-0.225000X0.250000X0.225000X-0.250000X0.225000X-0.250000X-0.225000X0*%
%TD*%
%TA.AperFunction,SMDPad,CuDef*%
%ADD17RoundRect,0.200000X0.275000X-0.200000X0.275000X0.200000X-0.275000X0.200000X-0.275000X-0.200000X0*%
%TD*%
%TA.AperFunction,SMDPad,CuDef*%
%ADD18RoundRect,0.150000X-0.150000X0.512500X-0.150000X-0.512500X0.150000X-0.512500X0.150000X0.512500X0*%
%TD*%
%TA.AperFunction,SMDPad,CuDef*%
%ADD19RoundRect,0.062500X-0.375000X-0.062500X0.375000X-0.062500X0.375000X0.062500X-0.375000X0.062500X0*%
%TD*%
%TA.AperFunction,SMDPad,CuDef*%
%ADD20RoundRect,0.062500X-0.062500X-0.375000X0.062500X-0.375000X0.062500X0.375000X-0.062500X0.375000X0*%
%TD*%
%TA.AperFunction,HeatsinkPad*%
%ADD21C,0.500000*%
%TD*%
%TA.AperFunction,HeatsinkPad*%
%ADD22R,0.800000X0.800000*%
%TD*%
%TA.AperFunction,SMDPad,CuDef*%
%ADD23RoundRect,0.225000X-0.250000X0.225000X-0.250000X-0.225000X0.250000X-0.225000X0.250000X0.225000X0*%
%TD*%
%TA.AperFunction,SMDPad,CuDef*%
%ADD24RoundRect,0.250000X0.750000X-1.650000X0.750000X1.650000X-0.750000X1.650000X-0.750000X-1.650000X0*%
%TD*%
%TA.AperFunction,SMDPad,CuDef*%
%ADD25RoundRect,0.100000X0.225000X0.100000X-0.225000X0.100000X-0.225000X-0.100000X0.225000X-0.100000X0*%
%TD*%
%TA.AperFunction,ComponentPad*%
%ADD26C,1.440000*%
%TD*%
%TA.AperFunction,SMDPad,CuDef*%
%ADD27RoundRect,0.225000X0.225000X0.250000X-0.225000X0.250000X-0.225000X-0.250000X0.225000X-0.250000X0*%
%TD*%
%TA.AperFunction,SMDPad,CuDef*%
%ADD28RoundRect,0.218750X0.218750X0.256250X-0.218750X0.256250X-0.218750X-0.256250X0.218750X-0.256250X0*%
%TD*%
%TA.AperFunction,SMDPad,CuDef*%
%ADD29RoundRect,0.135000X0.135000X0.185000X-0.135000X0.185000X-0.135000X-0.185000X0.135000X-0.185000X0*%
%TD*%
%TA.AperFunction,ComponentPad*%
%ADD30C,2.000000*%
%TD*%
%TA.AperFunction,SMDPad,CuDef*%
%ADD31RoundRect,0.150000X0.512500X0.150000X-0.512500X0.150000X-0.512500X-0.150000X0.512500X-0.150000X0*%
%TD*%
%TA.AperFunction,ViaPad*%
%ADD32C,0.600000*%
%TD*%
%TA.AperFunction,Conductor*%
%ADD33C,0.500000*%
%TD*%
%TA.AperFunction,Conductor*%
%ADD34C,0.250000*%
%TD*%
%TA.AperFunction,Conductor*%
%ADD35C,0.400000*%
%TD*%
%TA.AperFunction,Conductor*%
%ADD36C,0.750000*%
%TD*%
%TA.AperFunction,Conductor*%
%ADD37C,1.000000*%
%TD*%
%TA.AperFunction,Conductor*%
%ADD38C,0.200000*%
%TD*%
%TA.AperFunction,Conductor*%
%ADD39C,0.150000*%
%TD*%
G04 APERTURE END LIST*
D10*
%TO.P,J1,1,In*%
%TO.N,/ADC0*%
X131725000Y-69325000D03*
%TO.P,J1,2,Ext*%
%TO.N,GND*%
X127475000Y-69325000D03*
X135975000Y-69325000D03*
%TD*%
D11*
%TO.P,CG1,A1,5V*%
%TO.N,/5V*%
X123320000Y-86485000D03*
D12*
%TO.P,CG1,A2,3V3*%
%TO.N,3.3V*%
X123320000Y-89025000D03*
%TO.P,CG1,A3,SDA*%
%TO.N,/SDA*%
X123320000Y-91565000D03*
%TO.P,CG1,A4,SCL*%
%TO.N,/SCL*%
X123320000Y-94105000D03*
%TO.P,CG1,A5,GND*%
%TO.N,GND*%
X123320000Y-96645000D03*
D11*
%TO.P,CG1,B1,5V*%
%TO.N,/5V*%
X136020000Y-86485000D03*
D12*
%TO.P,CG1,B2,VDDIO*%
%TO.N,/VDDIO*%
X136020000Y-89025000D03*
%TO.P,CG1,B3,-5V*%
%TO.N,/-5V*%
X136020000Y-91565000D03*
%TO.P,CG1,B4,ENABLE*%
%TO.N,/LDO_EN_EXT*%
X136020000Y-94105000D03*
%TO.P,CG1,B5,GND*%
%TO.N,GND*%
X136020000Y-96645000D03*
D11*
%TO.P,CG1,C1,GND*%
X123320000Y-111250000D03*
D12*
%TO.P,CG1,C2,OUT_1*%
%TO.N,/V_LSL_load*%
X125860000Y-111250000D03*
%TO.P,CG1,C3,OUT_2*%
X128400000Y-111250000D03*
%TO.P,CG1,C4,OUT_3*%
%TO.N,/Vout_diff*%
X130940000Y-111250000D03*
%TO.P,CG1,C5,OUT_4*%
%TO.N,/Vout_B*%
X133480000Y-111250000D03*
%TO.P,CG1,C6,GND*%
%TO.N,GND*%
X136020000Y-111250000D03*
%TD*%
D13*
%TO.P,R4,1*%
%TO.N,/DAC_out*%
X122950000Y-79930000D03*
%TO.P,R4,2*%
%TO.N,GND*%
X124600000Y-79930000D03*
%TD*%
D14*
%TO.P,R2,1*%
%TO.N,Net-(D1-K)*%
X133860000Y-84430000D03*
%TO.P,R2,2*%
%TO.N,GND*%
X132210000Y-84430000D03*
%TD*%
D15*
%TO.P,C5,1*%
%TO.N,A3.3V*%
X129010000Y-101380000D03*
%TO.P,C5,2*%
%TO.N,GND*%
X130560000Y-101380000D03*
%TD*%
D16*
%TO.P,C6,1*%
%TO.N,3.3V*%
X136290000Y-100660000D03*
%TO.P,C6,2*%
%TO.N,GND*%
X136290000Y-99110000D03*
%TD*%
D17*
%TO.P,R9,1*%
%TO.N,Net-(U3-EN)*%
X124090000Y-100160000D03*
%TO.P,R9,2*%
%TO.N,3.3V*%
X124090000Y-98510000D03*
%TD*%
D15*
%TO.P,C10,1*%
%TO.N,3.3V*%
X125170000Y-89860000D03*
%TO.P,C10,2*%
%TO.N,GND*%
X126720000Y-89860000D03*
%TD*%
D18*
%TO.P,U3,1,IN*%
%TO.N,/5V*%
X127540000Y-97495000D03*
%TO.P,U3,2,GND*%
%TO.N,GND*%
X126590000Y-97495000D03*
%TO.P,U3,3,EN*%
%TO.N,Net-(U3-EN)*%
X125640000Y-97495000D03*
%TO.P,U3,4,FB*%
%TO.N,Net-(U3-FB)*%
X125640000Y-99770000D03*
%TO.P,U3,5,OUT*%
%TO.N,A3.3V*%
X127540000Y-99770000D03*
%TD*%
D19*
%TO.P,U2,1,!RESET*%
%TO.N,Net-(U2-!RESET)*%
X132912500Y-102522500D03*
%TO.P,U2,2,DGND*%
%TO.N,GND*%
X132912500Y-103022500D03*
%TO.P,U2,3,AGND*%
X132912500Y-103522500D03*
%TO.P,U2,4,AIN3*%
%TO.N,unconnected-(U2-AIN3-Pad4)*%
X132912500Y-104022500D03*
D20*
%TO.P,U2,5,AIN2*%
%TO.N,unconnected-(U2-AIN2-Pad5)*%
X133600000Y-104710000D03*
%TO.P,U2,6,REFN*%
%TO.N,GND*%
X134100000Y-104710000D03*
%TO.P,U2,7,REFP*%
%TO.N,A3.3V*%
X134600000Y-104710000D03*
%TO.P,U2,8,AIN1*%
%TO.N,/V_LSL_LDO*%
X135100000Y-104710000D03*
D19*
%TO.P,U2,9,AIN0*%
%TO.N,/ADC0*%
X135787500Y-104022500D03*
%TO.P,U2,10,AVDD*%
%TO.N,A3.3V*%
X135787500Y-103522500D03*
%TO.P,U2,11,DVDD*%
%TO.N,3.3V*%
X135787500Y-103022500D03*
%TO.P,U2,12,!DRDY*%
%TO.N,unconnected-(U2-!DRDY-Pad12)*%
X135787500Y-102522500D03*
D20*
%TO.P,U2,13,SDA*%
%TO.N,/SDA*%
X135100000Y-101835000D03*
%TO.P,U2,14,SCL*%
%TO.N,/SCL*%
X134600000Y-101835000D03*
%TO.P,U2,15,A0*%
%TO.N,GND*%
X134100000Y-101835000D03*
%TO.P,U2,16,A1*%
X133600000Y-101835000D03*
D21*
%TO.P,U2,17,EP*%
X134350000Y-103272500D03*
D22*
X134350000Y-103272500D03*
%TD*%
D17*
%TO.P,R7,1*%
%TO.N,Net-(U2-!RESET)*%
X133530000Y-100200000D03*
%TO.P,R7,2*%
%TO.N,3.3V*%
X133530000Y-98550000D03*
%TD*%
D11*
%TO.P,J2,1,Pin_1*%
%TO.N,/5V*%
X133560000Y-95410000D03*
D12*
%TO.P,J2,2,Pin_2*%
%TO.N,Net-(D1-A)*%
X133560000Y-92870000D03*
%TO.P,J2,3,Pin_3*%
%TO.N,/LDO_EN_EXT*%
X133560000Y-90330000D03*
%TD*%
D16*
%TO.P,C3,1*%
%TO.N,/V_LSL_LDO*%
X129290000Y-94340000D03*
%TO.P,C3,2*%
%TO.N,GND*%
X129290000Y-92790000D03*
%TD*%
D18*
%TO.P,U4,1,Vout*%
%TO.N,/DAC_out*%
X135075000Y-78237500D03*
%TO.P,U4,2,VSS*%
%TO.N,GND*%
X134125000Y-78237500D03*
%TO.P,U4,3,VDD*%
%TO.N,3.3V*%
X133175000Y-78237500D03*
%TO.P,U4,4,SDA*%
%TO.N,/SDA*%
X133175000Y-80512500D03*
%TO.P,U4,5,SCL*%
%TO.N,/SCL*%
X134125000Y-80512500D03*
%TO.P,U4,6,Vref*%
%TO.N,A3.3V*%
X135075000Y-80512500D03*
%TD*%
D23*
%TO.P,C1,1*%
%TO.N,A3.3V*%
X135875000Y-82475000D03*
%TO.P,C1,2*%
%TO.N,GND*%
X135875000Y-84025000D03*
%TD*%
D15*
%TO.P,C2,1*%
%TO.N,3.3V*%
X133325000Y-76275000D03*
%TO.P,C2,2*%
%TO.N,GND*%
X134875000Y-76275000D03*
%TD*%
D13*
%TO.P,R6,1*%
%TO.N,/V_ldo_feedback*%
X128130000Y-91130000D03*
%TO.P,R6,2*%
%TO.N,/V_LSL_LDO*%
X129780000Y-91130000D03*
%TD*%
D24*
%TO.P,TP14,1*%
%TO.N,GND*%
X123650000Y-69200000D03*
%TD*%
D25*
%TO.P,IC6,1,REF*%
%TO.N,GND*%
X131340000Y-104490000D03*
%TO.P,IC6,2,GND*%
X131340000Y-103840000D03*
%TO.P,IC6,3,V+*%
%TO.N,A3.3V*%
X131340000Y-103190000D03*
%TO.P,IC6,4,IN+*%
%TO.N,/V_LSL_LDO*%
X129440000Y-103190000D03*
%TO.P,IC6,5,IN-*%
%TO.N,/Shunt-*%
X129440000Y-103840000D03*
%TO.P,IC6,6,OUT*%
%TO.N,/ADC0*%
X129440000Y-104490000D03*
%TD*%
D13*
%TO.P,R3,1*%
%TO.N,Net-(D1-A)*%
X132210000Y-86020000D03*
%TO.P,R3,2*%
%TO.N,GND*%
X133860000Y-86020000D03*
%TD*%
D26*
%TO.P,RV1,1,1*%
%TO.N,unconnected-(RV1-Pad1)*%
X124730000Y-76290000D03*
%TO.P,RV1,2,2*%
%TO.N,Net-(J3-Pin_1)*%
X127270000Y-76290000D03*
%TO.P,RV1,3,3*%
%TO.N,Net-(R5-Pad1)*%
X129810000Y-76290000D03*
%TD*%
D27*
%TO.P,C8,1*%
%TO.N,A3.3V*%
X127375000Y-104750000D03*
%TO.P,C8,2*%
%TO.N,GND*%
X125825000Y-104750000D03*
%TD*%
D28*
%TO.P,D1,1,K*%
%TO.N,Net-(D1-K)*%
X133785000Y-87600000D03*
%TO.P,D1,2,A*%
%TO.N,Net-(D1-A)*%
X132210000Y-87600000D03*
%TD*%
D15*
%TO.P,C7,1*%
%TO.N,A3.3V*%
X129075000Y-99580000D03*
%TO.P,C7,2*%
%TO.N,GND*%
X130625000Y-99580000D03*
%TD*%
D29*
%TO.P,R13,1*%
%TO.N,Net-(J7-Pin_3)*%
X130110000Y-106075000D03*
%TO.P,R13,2*%
%TO.N,GND*%
X129090000Y-106075000D03*
%TD*%
D14*
%TO.P,R8,1*%
%TO.N,Net-(U3-FB)*%
X127395000Y-101540000D03*
%TO.P,R8,2*%
%TO.N,GND*%
X125745000Y-101540000D03*
%TD*%
D11*
%TO.P,J3,1,Pin_1*%
%TO.N,Net-(J3-Pin_1)*%
X129155000Y-82615000D03*
D12*
%TO.P,J3,2,Pin_2*%
%TO.N,/V_ldo_feedback*%
X126615000Y-82615000D03*
%TO.P,J3,3,Pin_3*%
%TO.N,/DAC_out*%
X124075000Y-82615000D03*
%TD*%
D30*
%TO.P,TP2,1*%
%TO.N,/V_LSL_LDO*%
X132625000Y-108750000D03*
%TD*%
D31*
%TO.P,U5,1,SCL*%
%TO.N,/SCL*%
X127487500Y-94522500D03*
%TO.P,U5,2,V_{SS}*%
%TO.N,GND*%
X127487500Y-93572500D03*
%TO.P,U5,3,SDA*%
%TO.N,/SDA*%
X127487500Y-92622500D03*
%TO.P,U5,4,V_{CC}*%
%TO.N,3.3V*%
X125212500Y-92622500D03*
%TO.P,U5,5,NC*%
%TO.N,unconnected-(U5-NC-Pad5)*%
X125212500Y-94522500D03*
%TD*%
D18*
%TO.P,U1,1,IN*%
%TO.N,/5V*%
X130530000Y-86900000D03*
%TO.P,U1,2,GND*%
%TO.N,GND*%
X129580000Y-86900000D03*
%TO.P,U1,3,EN*%
%TO.N,Net-(D1-A)*%
X128630000Y-86900000D03*
%TO.P,U1,4,FB*%
%TO.N,/V_ldo_feedback*%
X128630000Y-89175000D03*
%TO.P,U1,5,OUT*%
%TO.N,/V_LSL_LDO*%
X130530000Y-89175000D03*
%TD*%
D11*
%TO.P,J7,1,Pin_1*%
%TO.N,/V_LSL_load*%
X123920000Y-108400000D03*
D12*
%TO.P,J7,2,Pin_2*%
%TO.N,/Shunt-*%
X126460000Y-108400000D03*
%TO.P,J7,3,Pin_3*%
%TO.N,Net-(J7-Pin_3)*%
X129000000Y-108400000D03*
%TD*%
D14*
%TO.P,R5,1*%
%TO.N,Net-(R5-Pad1)*%
X130310000Y-79890000D03*
%TO.P,R5,2*%
%TO.N,GND*%
X128660000Y-79890000D03*
%TD*%
%TO.P,R10,1*%
%TO.N,A3.3V*%
X127400000Y-103130000D03*
%TO.P,R10,2*%
%TO.N,Net-(U3-FB)*%
X125750000Y-103130000D03*
%TD*%
D15*
%TO.P,C9,1*%
%TO.N,/5V*%
X129235000Y-97870000D03*
%TO.P,C9,2*%
%TO.N,GND*%
X130785000Y-97870000D03*
%TD*%
D27*
%TO.P,C4,1*%
%TO.N,/5V*%
X126670000Y-86980000D03*
%TO.P,C4,2*%
%TO.N,GND*%
X125120000Y-86980000D03*
%TD*%
D32*
%TO.N,GND*%
X135175000Y-107350000D03*
X127866000Y-83726000D03*
X124275000Y-106625000D03*
X127570000Y-96050000D03*
X127842500Y-72782500D03*
X128245685Y-85831958D03*
X131900000Y-73550000D03*
X125325000Y-106650000D03*
X123609000Y-77725000D03*
X126300000Y-93100000D03*
X136250000Y-72875000D03*
X136910000Y-103530000D03*
X125625000Y-69300000D03*
X134280000Y-77175000D03*
X136775000Y-107075000D03*
X134400000Y-106000000D03*
X123609000Y-72700000D03*
X136450000Y-76250000D03*
X136475000Y-80850000D03*
X136450000Y-79250000D03*
X135175000Y-84075000D03*
X130165000Y-92790000D03*
X130150000Y-92075000D03*
X132425000Y-83325000D03*
X126970000Y-91010000D03*
X127180000Y-77780000D03*
X131350000Y-82175000D03*
X136450000Y-77825000D03*
X126350000Y-106650000D03*
X129014315Y-85831958D03*
%TO.N,3.3V*%
X125000000Y-93490000D03*
X131910000Y-98990000D03*
X125851000Y-74700000D03*
X124700000Y-97975000D03*
%TO.N,/V_LSL_LDO*%
X130250000Y-95900000D03*
X128684975Y-102834975D03*
X129125000Y-96350000D03*
X129485000Y-95715000D03*
X135275000Y-105475000D03*
%TO.N,/5V*%
X129891052Y-85376102D03*
%TO.N,A3.3V*%
X128325000Y-98950000D03*
X135075000Y-81500000D03*
%TO.N,/SCL*%
X132259998Y-95050000D03*
X134275000Y-83325000D03*
X128475000Y-95500000D03*
X134425707Y-99674293D03*
%TO.N,/SDA*%
X133325000Y-83350000D03*
X131675000Y-94275000D03*
X128365000Y-92715025D03*
X135100000Y-100350000D03*
%TO.N,/ADC0*%
X136520000Y-105010000D03*
X133050000Y-72125000D03*
%TO.N,/V_ldo_feedback*%
X127925000Y-90000000D03*
%TO.N,Net-(R5-Pad1)*%
X131208999Y-79006949D03*
%TO.N,/Shunt-*%
X128275070Y-103780470D03*
%TD*%
D33*
%TO.N,GND*%
X132210000Y-84430000D02*
X132411412Y-84430000D01*
D34*
X133600000Y-102290000D02*
X134100000Y-102790000D01*
D35*
X136020000Y-98840000D02*
X136290000Y-99110000D01*
D34*
X135200000Y-84050000D02*
X135175000Y-84075000D01*
D33*
X136250000Y-74600000D02*
X136250000Y-72875000D01*
X133800000Y-86020000D02*
X132210000Y-84430000D01*
D35*
X134125000Y-77330000D02*
X134125000Y-78237500D01*
D33*
X128570000Y-84430000D02*
X132210000Y-84430000D01*
D34*
X134100000Y-102790000D02*
X134100000Y-102840000D01*
D35*
X134280000Y-77175000D02*
X134125000Y-77330000D01*
D33*
X124600000Y-79930000D02*
X123609000Y-78939000D01*
D35*
X136020000Y-96645000D02*
X136020000Y-98840000D01*
D36*
X122534000Y-106964000D02*
X124748000Y-104750000D01*
D33*
X123609000Y-72700000D02*
X123609000Y-69300000D01*
X129014315Y-85831958D02*
X129014315Y-85834573D01*
X128660000Y-79260000D02*
X127180000Y-77780000D01*
X128247612Y-85836500D02*
X127813500Y-85836500D01*
X123609000Y-77780000D02*
X123609000Y-77725000D01*
X128245685Y-85831958D02*
X129014315Y-85831958D01*
D35*
X132930000Y-106080000D02*
X131340000Y-104490000D01*
D33*
X123609000Y-77725000D02*
X123609000Y-72700000D01*
X134916000Y-97749000D02*
X136020000Y-96645000D01*
D34*
X134100000Y-103522500D02*
X134100000Y-104710000D01*
D33*
X130165000Y-92790000D02*
X129290000Y-92790000D01*
X127450000Y-69300000D02*
X127475000Y-69325000D01*
D34*
X132912500Y-103522500D02*
X134100000Y-103522500D01*
D33*
X129290000Y-92279950D02*
X129290000Y-92790000D01*
D34*
X134100000Y-102840000D02*
X134100000Y-103022500D01*
D35*
X127475000Y-72415000D02*
X127475000Y-69325000D01*
X131900000Y-73550000D02*
X128610000Y-73550000D01*
D36*
X122534000Y-110464000D02*
X122534000Y-106964000D01*
D33*
X130130000Y-92055000D02*
X129514950Y-92055000D01*
X126590000Y-96501112D02*
X126590000Y-97495000D01*
D34*
X134100000Y-101835000D02*
X134100000Y-102840000D01*
D35*
X136250000Y-74600000D02*
X135200000Y-73550000D01*
D33*
X129014315Y-85831958D02*
X129356958Y-85831958D01*
D34*
X131549516Y-103840000D02*
X131340000Y-103840000D01*
D36*
X124748000Y-104750000D02*
X125825000Y-104750000D01*
D35*
X134875000Y-76275000D02*
X134875000Y-75975000D01*
D33*
X123609000Y-69300000D02*
X125625000Y-69300000D01*
X123609000Y-78939000D02*
X123609000Y-77780000D01*
D35*
X134280000Y-76490000D02*
X134495000Y-76275000D01*
X134400000Y-106000000D02*
X134320000Y-106080000D01*
D33*
X125745000Y-101540000D02*
X124748000Y-102537000D01*
X130150000Y-92075000D02*
X130130000Y-92055000D01*
X127487500Y-93572500D02*
X126772500Y-93572500D01*
X135975000Y-71615000D02*
X135975000Y-69325000D01*
X127180000Y-77780000D02*
X130972000Y-77780000D01*
X125120000Y-88260000D02*
X126720000Y-89860000D01*
X126772500Y-93572500D02*
X126300000Y-93100000D01*
D35*
X134875000Y-75975000D02*
X136250000Y-74600000D01*
D34*
X132912500Y-103022500D02*
X134100000Y-103022500D01*
D35*
X127842500Y-72782500D02*
X127475000Y-72415000D01*
X127041112Y-96050000D02*
X126590000Y-96501112D01*
D33*
X125625000Y-69300000D02*
X127450000Y-69300000D01*
D34*
X133600000Y-101835000D02*
X133600000Y-102290000D01*
D35*
X135200000Y-73550000D02*
X131900000Y-73550000D01*
D33*
X130785000Y-97870000D02*
X130906000Y-97749000D01*
X136250000Y-71890000D02*
X135975000Y-71615000D01*
D34*
X134100000Y-103022500D02*
X134350000Y-103272500D01*
D33*
X123609000Y-77780000D02*
X127180000Y-77780000D01*
X127521000Y-86129000D02*
X127521000Y-89059000D01*
X127866000Y-83726000D02*
X128570000Y-84430000D01*
D34*
X135850000Y-84050000D02*
X135200000Y-84050000D01*
X128965000Y-105950000D02*
X127050000Y-105950000D01*
X135875000Y-84025000D02*
X135850000Y-84050000D01*
D35*
X128610000Y-73550000D02*
X127842500Y-72782500D01*
D33*
X124748000Y-102537000D02*
X124748000Y-104750000D01*
D35*
X131340000Y-103840000D02*
X131340000Y-104490000D01*
D33*
X136250000Y-72875000D02*
X136250000Y-71890000D01*
X130785000Y-99420000D02*
X130625000Y-99580000D01*
D35*
X134495000Y-76275000D02*
X134875000Y-76275000D01*
D33*
X130625000Y-99580000D02*
X130625000Y-101315000D01*
X129356958Y-85831958D02*
X129580000Y-86055000D01*
X127813500Y-85836500D02*
X127521000Y-86129000D01*
X133860000Y-86020000D02*
X133800000Y-86020000D01*
X125120000Y-86980000D02*
X125120000Y-88260000D01*
X130906000Y-97749000D02*
X134916000Y-97749000D01*
X126520388Y-96431500D02*
X126590000Y-96501112D01*
D34*
X134100000Y-103522500D02*
X134350000Y-103272500D01*
X129090000Y-106075000D02*
X128965000Y-105950000D01*
X127050000Y-105950000D02*
X126350000Y-106650000D01*
D33*
X123320000Y-96645000D02*
X123533500Y-96431500D01*
X129014315Y-85834573D02*
X129012388Y-85836500D01*
D35*
X127570000Y-96050000D02*
X127041112Y-96050000D01*
X134280000Y-77175000D02*
X134280000Y-76490000D01*
D36*
X123320000Y-111250000D02*
X122534000Y-110464000D01*
D33*
X127521000Y-89059000D02*
X126720000Y-89860000D01*
X129514950Y-92055000D02*
X129290000Y-92279950D01*
X126720000Y-89860000D02*
X126720000Y-90760000D01*
D35*
X134320000Y-106080000D02*
X132930000Y-106080000D01*
D33*
X129580000Y-86055000D02*
X129580000Y-86900000D01*
X123533500Y-96431500D02*
X126520388Y-96431500D01*
X130785000Y-97870000D02*
X130785000Y-99420000D01*
X130625000Y-101315000D02*
X130560000Y-101380000D01*
X136125000Y-111145000D02*
X136020000Y-111250000D01*
X126720000Y-90760000D02*
X126970000Y-91010000D01*
X128660000Y-79890000D02*
X128660000Y-79260000D01*
D35*
X131380000Y-104490000D02*
X131340000Y-104490000D01*
%TO.N,3.3V*%
X125000000Y-93490000D02*
X125000000Y-92835000D01*
D33*
X133330000Y-76390000D02*
X133325000Y-76385000D01*
X133325000Y-76385000D02*
X133325000Y-76275000D01*
D35*
X133530000Y-98550000D02*
X132350000Y-98550000D01*
D33*
X125851000Y-74700000D02*
X131640000Y-74700000D01*
D35*
X124625000Y-97975000D02*
X124090000Y-98510000D01*
D34*
X135787500Y-103022500D02*
X136205444Y-103022500D01*
D33*
X131640000Y-74700000D02*
X133215000Y-76275000D01*
D35*
X125000000Y-92835000D02*
X125212500Y-92622500D01*
D33*
X123320000Y-89025000D02*
X124335000Y-89025000D01*
D35*
X124700000Y-97975000D02*
X124625000Y-97975000D01*
D33*
X133330000Y-78290000D02*
X133330000Y-76390000D01*
D35*
X136290000Y-100619346D02*
X136290000Y-100660000D01*
D34*
X136501000Y-100871000D02*
X136290000Y-100660000D01*
D35*
X132350000Y-98550000D02*
X131910000Y-98990000D01*
D34*
X136205444Y-103022500D02*
X136501000Y-102726944D01*
X136501000Y-102726944D02*
X136501000Y-100871000D01*
D33*
X133215000Y-76275000D02*
X133325000Y-76275000D01*
X133300000Y-78290000D02*
X133330000Y-78290000D01*
D35*
X133530000Y-98550000D02*
X134220654Y-98550000D01*
D33*
X124335000Y-89025000D02*
X125170000Y-89860000D01*
D35*
X134220654Y-98550000D02*
X136290000Y-100619346D01*
D33*
%TO.N,/V_LSL_LDO*%
X130530000Y-89175000D02*
X131100000Y-89745000D01*
D37*
X131116000Y-89816000D02*
X131116000Y-91200000D01*
D36*
X130250000Y-94212587D02*
X131116000Y-93346587D01*
X130250000Y-95900000D02*
X130250000Y-94212587D01*
D38*
X135100000Y-104710000D02*
X135100000Y-105300000D01*
D37*
X131100000Y-89745000D02*
X131100000Y-89800000D01*
D33*
X129485000Y-95715000D02*
X129660000Y-95890000D01*
D39*
X129440000Y-103190000D02*
X129040000Y-103190000D01*
D33*
X129290000Y-95520000D02*
X129290000Y-94340000D01*
D38*
X131046000Y-91130000D02*
X131116000Y-91200000D01*
D33*
X130240000Y-95890000D02*
X130250000Y-95900000D01*
D37*
X131100000Y-89800000D02*
X131116000Y-89816000D01*
D33*
X129660000Y-95890000D02*
X130240000Y-95890000D01*
D38*
X135100000Y-105300000D02*
X135275000Y-105475000D01*
D33*
X129485000Y-95715000D02*
X129290000Y-95520000D01*
D36*
X131116000Y-93346587D02*
X131116000Y-91200000D01*
D38*
X129780000Y-91130000D02*
X131046000Y-91130000D01*
D39*
X129040000Y-103190000D02*
X128684975Y-102834975D01*
%TO.N,/5V*%
X136465000Y-95410000D02*
X137096000Y-94779000D01*
D36*
X135770000Y-86235000D02*
X136020000Y-86485000D01*
D33*
X130530000Y-85961399D02*
X130530000Y-86900000D01*
X123701000Y-86104000D02*
X125794000Y-86104000D01*
X125794000Y-86104000D02*
X126670000Y-86980000D01*
D39*
X133560000Y-95410000D02*
X136465000Y-95410000D01*
D33*
X129944703Y-85376102D02*
X130530000Y-85961399D01*
X128860000Y-97495000D02*
X129235000Y-97870000D01*
X131976000Y-96994000D02*
X133560000Y-95410000D01*
X129891052Y-85376102D02*
X129944703Y-85376102D01*
X129828364Y-85081000D02*
X126817000Y-85081000D01*
D39*
X137096000Y-87561000D02*
X136020000Y-86485000D01*
X137096000Y-94779000D02*
X137096000Y-87561000D01*
D33*
X123320000Y-86485000D02*
X123701000Y-86104000D01*
X126817000Y-85081000D02*
X125794000Y-86104000D01*
X129891052Y-85143688D02*
X129828364Y-85081000D01*
X129235000Y-97870000D02*
X130111000Y-96994000D01*
X127540000Y-97495000D02*
X128860000Y-97495000D01*
X130111000Y-96994000D02*
X131976000Y-96994000D01*
X129891052Y-85376102D02*
X129891052Y-85143688D01*
%TO.N,A3.3V*%
X127400000Y-103130000D02*
X127400000Y-104725000D01*
D34*
X134323999Y-105423500D02*
X133348884Y-105423500D01*
X134600000Y-105147499D02*
X134323999Y-105423500D01*
X134600000Y-104710000D02*
X134600000Y-105147499D01*
D35*
X130820000Y-103190000D02*
X129010000Y-101380000D01*
D33*
X129010000Y-101380000D02*
X129030000Y-101380000D01*
X135075000Y-81500000D02*
X135075000Y-80512500D01*
D34*
X135787500Y-103522500D02*
X135369556Y-103522500D01*
X133348884Y-105423500D02*
X131950516Y-104025132D01*
D33*
X128325000Y-98950000D02*
X128445000Y-98950000D01*
X129010000Y-101380000D02*
X129010000Y-101520000D01*
X129075000Y-101315000D02*
X129010000Y-101380000D01*
X128240000Y-99770000D02*
X128885000Y-99770000D01*
X129075000Y-99580000D02*
X129075000Y-101315000D01*
X135100000Y-81500000D02*
X135875000Y-82275000D01*
D34*
X131950516Y-103475517D02*
X131664999Y-103190000D01*
D33*
X127540000Y-99770000D02*
X128240000Y-99770000D01*
X135075000Y-81500000D02*
X135100000Y-81500000D01*
X129010000Y-101520000D02*
X127400000Y-103130000D01*
D35*
X131340000Y-103190000D02*
X130820000Y-103190000D01*
D33*
X135875000Y-82275000D02*
X135875000Y-82475000D01*
D34*
X131664999Y-103190000D02*
X131340000Y-103190000D01*
X131950516Y-104025132D02*
X131950516Y-103475517D01*
X135369556Y-103522500D02*
X134600000Y-104292056D01*
X134600000Y-104292056D02*
X134600000Y-104710000D01*
D33*
X128445000Y-98950000D02*
X129075000Y-99580000D01*
X128885000Y-99770000D02*
X129075000Y-99580000D01*
D36*
%TO.N,/V_LSL_load*%
X123910000Y-109300000D02*
X125860000Y-111250000D01*
X123910000Y-108340000D02*
X123910000Y-109300000D01*
X125860000Y-111250000D02*
X128400000Y-111250000D01*
X123920000Y-109310000D02*
X125860000Y-111250000D01*
X123920000Y-108400000D02*
X123920000Y-109310000D01*
D38*
%TO.N,/SCL*%
X128011450Y-95073500D02*
X124288500Y-95073500D01*
X128437950Y-95500000D02*
X128011450Y-95073500D01*
D33*
X123320000Y-94520000D02*
X123320000Y-94105000D01*
D38*
X127487500Y-94522500D02*
X127487500Y-95073500D01*
D34*
X134280000Y-83321139D02*
X134280000Y-80667500D01*
X134278861Y-83321139D02*
X134280000Y-83321139D01*
X134600000Y-100910000D02*
X134600000Y-101835000D01*
X134425707Y-100735707D02*
X134600000Y-100910000D01*
D38*
X128475000Y-95500000D02*
X128437950Y-95500000D01*
X127487500Y-95073500D02*
X128011450Y-95073500D01*
D34*
X134275000Y-83325000D02*
X134278861Y-83321139D01*
X134280000Y-80667500D02*
X134125000Y-80512500D01*
X134425707Y-99674293D02*
X134425707Y-100735707D01*
D38*
X124288500Y-95073500D02*
X123320000Y-94105000D01*
D33*
%TO.N,/LDO_EN_EXT*%
X133560000Y-90874182D02*
X133560000Y-90330000D01*
D38*
%TO.N,/SDA*%
X123320000Y-91565000D02*
X126430000Y-91565000D01*
X128365000Y-92715025D02*
X128272475Y-92622500D01*
D34*
X133325000Y-83350000D02*
X133325000Y-82684238D01*
X133330000Y-82679238D02*
X133330000Y-80667500D01*
D38*
X126430000Y-91565000D02*
X127487500Y-92622500D01*
D34*
X133325000Y-82684238D02*
X133330000Y-82679238D01*
D38*
X128272475Y-92622500D02*
X127487500Y-92622500D01*
D34*
X135100000Y-101835000D02*
X135100000Y-100350000D01*
X133330000Y-80667500D02*
X133175000Y-80512500D01*
D33*
%TO.N,Net-(D1-K)*%
X134661000Y-86724000D02*
X133785000Y-87600000D01*
X133860000Y-84430000D02*
X134661000Y-85231000D01*
X134661000Y-85231000D02*
X134661000Y-86724000D01*
D38*
%TO.N,Net-(D1-A)*%
X132210000Y-87600000D02*
X132387050Y-87600000D01*
D33*
X132210000Y-86020000D02*
X132210000Y-87600000D01*
D38*
X131996500Y-87813500D02*
X132210000Y-87600000D01*
X132387050Y-87600000D02*
X134661000Y-89873950D01*
X128630000Y-87562499D02*
X128881001Y-87813500D01*
X128881001Y-87813500D02*
X131996500Y-87813500D01*
X134661000Y-89873950D02*
X134661000Y-91769000D01*
X128630000Y-86900000D02*
X128630000Y-87562499D01*
X134661000Y-91769000D02*
X133560000Y-92870000D01*
D39*
%TO.N,/ADC0*%
X136650000Y-105400000D02*
X136650000Y-105140000D01*
X136302500Y-104022500D02*
X136300000Y-104025000D01*
X136650000Y-105140000D02*
X136520000Y-105010000D01*
X131600000Y-106650000D02*
X135400000Y-106650000D01*
X135787500Y-104022500D02*
X136302500Y-104022500D01*
X136520000Y-104245000D02*
X136520000Y-105010000D01*
X136300000Y-104025000D02*
X136520000Y-104245000D01*
X129440000Y-104490000D02*
X131600000Y-106650000D01*
X131725000Y-70800000D02*
X131725000Y-69325000D01*
X133050000Y-72125000D02*
X131725000Y-70800000D01*
X135400000Y-106650000D02*
X136650000Y-105400000D01*
D33*
%TO.N,/V_ldo_feedback*%
X128130000Y-90205000D02*
X128130000Y-91130000D01*
X127925000Y-90000000D02*
X128130000Y-90205000D01*
X128630000Y-89175000D02*
X128630000Y-89295000D01*
X128630000Y-89295000D02*
X127925000Y-90000000D01*
%TO.N,/DAC_out*%
X122950000Y-81490000D02*
X124075000Y-82615000D01*
D34*
X124075000Y-82615000D02*
X125597412Y-81092588D01*
X135075000Y-78899999D02*
X135075000Y-78237500D01*
X131214824Y-81092588D02*
X132957412Y-79350000D01*
X134624999Y-79350000D02*
X135075000Y-78899999D01*
X125597412Y-81092588D02*
X131214824Y-81092588D01*
X132957412Y-79350000D02*
X134624999Y-79350000D01*
D33*
X122950000Y-79930000D02*
X122950000Y-81490000D01*
D35*
%TO.N,Net-(R5-Pad1)*%
X130492000Y-79708000D02*
X130310000Y-79890000D01*
X130325948Y-79890000D02*
X131208999Y-79006949D01*
X130310000Y-79890000D02*
X130325948Y-79890000D01*
D34*
%TO.N,Net-(U2-!RESET)*%
X133530000Y-100200000D02*
X132912500Y-100817500D01*
X132912500Y-100817500D02*
X132912500Y-102522500D01*
D33*
%TO.N,Net-(U3-FB)*%
X127340000Y-101540000D02*
X125750000Y-103130000D01*
X125640000Y-99770000D02*
X125640000Y-99785000D01*
X127395000Y-101540000D02*
X127395000Y-101525000D01*
X127395000Y-101525000D02*
X125640000Y-99770000D01*
X127395000Y-101540000D02*
X127340000Y-101540000D01*
%TO.N,Net-(U3-EN)*%
X125640000Y-98324112D02*
X124090000Y-99874112D01*
X124090000Y-99874112D02*
X124090000Y-100160000D01*
X125640000Y-97495000D02*
X125640000Y-98324112D01*
D38*
%TO.N,Net-(J7-Pin_3)*%
X129810000Y-106375000D02*
X130110000Y-106075000D01*
X129000000Y-108400000D02*
X129810000Y-107590000D01*
X129810000Y-107590000D02*
X129810000Y-106375000D01*
D39*
%TO.N,/Shunt-*%
X129440000Y-103840000D02*
X128334600Y-103840000D01*
D35*
X128275070Y-103780470D02*
X128345600Y-103851000D01*
D39*
X128334600Y-103840000D02*
X128275070Y-103780470D01*
%TD*%
%TA.AperFunction,Conductor*%
%TO.N,/V_LSL_LDO*%
G36*
X131618039Y-89069685D02*
G01*
X131663794Y-89122489D01*
X131675000Y-89174000D01*
X131675000Y-93357052D01*
X131655315Y-93424091D01*
X131602511Y-93469846D01*
X131575192Y-93478669D01*
X131441508Y-93505261D01*
X131441498Y-93505264D01*
X131295827Y-93565602D01*
X131295814Y-93565609D01*
X131164711Y-93653210D01*
X131164707Y-93653213D01*
X131053213Y-93764707D01*
X131053210Y-93764711D01*
X130965609Y-93895814D01*
X130965602Y-93895827D01*
X130905264Y-94041498D01*
X130905261Y-94041510D01*
X130874500Y-94196153D01*
X130874500Y-94353846D01*
X130905261Y-94508489D01*
X130905264Y-94508501D01*
X130965602Y-94654172D01*
X130965609Y-94654185D01*
X131053210Y-94785288D01*
X131053213Y-94785292D01*
X131164707Y-94896786D01*
X131164711Y-94896789D01*
X131295814Y-94984390D01*
X131295823Y-94984395D01*
X131382962Y-95020489D01*
X131437365Y-95064330D01*
X131458912Y-95122894D01*
X131459498Y-95128848D01*
X131490259Y-95283489D01*
X131490262Y-95283501D01*
X131550600Y-95429172D01*
X131550607Y-95429185D01*
X131638208Y-95560288D01*
X131638672Y-95560752D01*
X131638837Y-95561055D01*
X131642074Y-95564999D01*
X131641326Y-95565612D01*
X131672163Y-95622071D01*
X131675000Y-95648442D01*
X131675000Y-96119500D01*
X131655315Y-96186539D01*
X131602511Y-96232294D01*
X131551000Y-96243500D01*
X130037080Y-96243500D01*
X129892092Y-96272340D01*
X129892086Y-96272342D01*
X129755508Y-96328914D01*
X129755496Y-96328921D01*
X129706270Y-96361811D01*
X129706271Y-96361812D01*
X129632581Y-96411049D01*
X129632578Y-96411052D01*
X129329950Y-96713681D01*
X129268627Y-96747166D01*
X129242269Y-96750000D01*
X128973781Y-96750000D01*
X128949588Y-96747617D01*
X128933919Y-96744500D01*
X128933918Y-96744500D01*
X128549000Y-96744500D01*
X128540314Y-96741949D01*
X128531353Y-96743238D01*
X128507312Y-96732259D01*
X128481961Y-96724815D01*
X128476033Y-96717974D01*
X128467797Y-96714213D01*
X128453507Y-96691978D01*
X128436206Y-96672011D01*
X128433918Y-96661496D01*
X128430023Y-96655435D01*
X128425000Y-96620500D01*
X128425000Y-96424500D01*
X128444685Y-96357461D01*
X128497489Y-96311706D01*
X128549000Y-96300500D01*
X128553844Y-96300500D01*
X128553845Y-96300499D01*
X128708497Y-96269737D01*
X128854179Y-96209394D01*
X128985289Y-96121789D01*
X129096789Y-96010289D01*
X129184394Y-95879179D01*
X129244737Y-95733497D01*
X129275500Y-95578842D01*
X129275500Y-95421158D01*
X129275500Y-95421155D01*
X129275499Y-95421153D01*
X129252451Y-95305284D01*
X129249411Y-95289999D01*
X129540000Y-95289999D01*
X129588308Y-95289999D01*
X129588322Y-95289998D01*
X129687607Y-95279855D01*
X129848481Y-95226547D01*
X129848492Y-95226542D01*
X129992728Y-95137575D01*
X129992732Y-95137572D01*
X130112572Y-95017732D01*
X130112575Y-95017728D01*
X130201542Y-94873492D01*
X130201547Y-94873481D01*
X130254855Y-94712606D01*
X130264999Y-94613322D01*
X130265000Y-94613309D01*
X130265000Y-94590000D01*
X129540000Y-94590000D01*
X129540000Y-95289999D01*
X129249411Y-95289999D01*
X129244737Y-95266503D01*
X129228185Y-95226542D01*
X129184397Y-95120827D01*
X129184390Y-95120814D01*
X129096789Y-94989711D01*
X129096786Y-94989707D01*
X129076319Y-94969240D01*
X129042834Y-94907917D01*
X129040000Y-94881559D01*
X129040000Y-94464000D01*
X129059685Y-94396961D01*
X129112489Y-94351206D01*
X129164000Y-94340000D01*
X129290000Y-94340000D01*
X129290000Y-94214000D01*
X129309685Y-94146961D01*
X129362489Y-94101206D01*
X129414000Y-94090000D01*
X130264999Y-94090000D01*
X130264999Y-94066692D01*
X130264998Y-94066677D01*
X130254855Y-93967392D01*
X130201547Y-93806518D01*
X130201542Y-93806507D01*
X130181181Y-93773497D01*
X130162740Y-93706105D01*
X130183662Y-93639441D01*
X130237304Y-93594672D01*
X130262528Y-93586783D01*
X130398497Y-93559737D01*
X130511166Y-93513067D01*
X130544172Y-93499397D01*
X130544172Y-93499396D01*
X130544179Y-93499394D01*
X130675289Y-93411789D01*
X130786789Y-93300289D01*
X130874394Y-93169179D01*
X130934737Y-93023497D01*
X130965500Y-92868842D01*
X130965500Y-92711158D01*
X130965500Y-92711155D01*
X130965499Y-92711153D01*
X130934738Y-92556510D01*
X130934737Y-92556503D01*
X130895527Y-92461843D01*
X130888059Y-92392377D01*
X130895529Y-92366939D01*
X130919735Y-92308502D01*
X130919735Y-92308501D01*
X130919737Y-92308497D01*
X130950500Y-92153842D01*
X130950500Y-91996158D01*
X130950500Y-91996155D01*
X130950499Y-91996153D01*
X130919737Y-91841503D01*
X130911659Y-91822000D01*
X130859397Y-91695827D01*
X130859390Y-91695814D01*
X130771789Y-91564711D01*
X130771786Y-91564707D01*
X130660292Y-91453213D01*
X130660284Y-91453207D01*
X130555110Y-91382932D01*
X130510304Y-91329320D01*
X130500000Y-91279830D01*
X130500000Y-90467500D01*
X130500000Y-90334795D01*
X130780000Y-90334795D01*
X130780001Y-90334795D01*
X130782486Y-90334600D01*
X130940198Y-90288781D01*
X131081552Y-90205185D01*
X131081561Y-90205178D01*
X131197678Y-90089061D01*
X131197685Y-90089052D01*
X131281282Y-89947696D01*
X131281283Y-89947693D01*
X131327099Y-89789995D01*
X131327100Y-89789989D01*
X131329999Y-89753149D01*
X131330000Y-89753134D01*
X131330000Y-89425000D01*
X130780000Y-89425000D01*
X130780000Y-90334795D01*
X130500000Y-90334795D01*
X130500000Y-89175000D01*
X130530000Y-89175000D01*
X130530000Y-89050000D01*
X131460000Y-89050000D01*
X131551000Y-89050000D01*
X131618039Y-89069685D01*
G37*
%TD.AperFunction*%
%TD*%
%TA.AperFunction,Conductor*%
%TO.N,GND*%
G36*
X135554075Y-111442993D02*
G01*
X135619901Y-111557007D01*
X135712993Y-111650099D01*
X135827007Y-111715925D01*
X135890590Y-111732962D01*
X135258282Y-112365269D01*
X135259109Y-112375770D01*
X135244745Y-112444148D01*
X135195694Y-112493905D01*
X135135491Y-112509500D01*
X134425689Y-112509500D01*
X134358650Y-112489815D01*
X134312895Y-112437011D01*
X134302951Y-112367853D01*
X134331976Y-112304297D01*
X134352804Y-112285181D01*
X134359792Y-112280104D01*
X134510104Y-112129792D01*
X134510106Y-112129788D01*
X134510109Y-112129786D01*
X134586055Y-112025254D01*
X134635051Y-111957816D01*
X134639793Y-111948508D01*
X134687763Y-111897711D01*
X134755583Y-111880911D01*
X134821719Y-111903445D01*
X134860763Y-111948500D01*
X134865373Y-111957547D01*
X134904728Y-112011716D01*
X135537037Y-111379408D01*
X135554075Y-111442993D01*
G37*
%TD.AperFunction*%
%TA.AperFunction,Conductor*%
G36*
X137135269Y-112011716D02*
G01*
X137145770Y-112010890D01*
X137214148Y-112025254D01*
X137263905Y-112074305D01*
X137279500Y-112134508D01*
X137279500Y-112385500D01*
X137259815Y-112452539D01*
X137207011Y-112498294D01*
X137155500Y-112509500D01*
X136904509Y-112509500D01*
X136837470Y-112489815D01*
X136791715Y-112437011D01*
X136780891Y-112375772D01*
X136781717Y-112365270D01*
X136149408Y-111732962D01*
X136212993Y-111715925D01*
X136327007Y-111650099D01*
X136420099Y-111557007D01*
X136485925Y-111442993D01*
X136502962Y-111379408D01*
X137135269Y-112011716D01*
G37*
%TD.AperFunction*%
%TA.AperFunction,Conductor*%
G36*
X137198834Y-105767560D02*
G01*
X137254767Y-105809432D01*
X137279184Y-105874896D01*
X137279500Y-105883742D01*
X137279500Y-110365490D01*
X137259815Y-110432529D01*
X137207011Y-110478284D01*
X137145772Y-110489108D01*
X137135270Y-110488281D01*
X136502962Y-111120590D01*
X136485925Y-111057007D01*
X136420099Y-110942993D01*
X136327007Y-110849901D01*
X136212993Y-110784075D01*
X136149409Y-110767037D01*
X136781716Y-110134728D01*
X136727550Y-110095375D01*
X136538217Y-109998904D01*
X136336129Y-109933242D01*
X136126246Y-109900000D01*
X135913754Y-109900000D01*
X135703872Y-109933242D01*
X135703869Y-109933242D01*
X135501782Y-109998904D01*
X135312439Y-110095380D01*
X135258282Y-110134727D01*
X135258282Y-110134728D01*
X135890591Y-110767037D01*
X135827007Y-110784075D01*
X135712993Y-110849901D01*
X135619901Y-110942993D01*
X135554075Y-111057007D01*
X135537037Y-111120591D01*
X134904728Y-110488282D01*
X134904727Y-110488282D01*
X134865380Y-110542440D01*
X134865376Y-110542446D01*
X134860760Y-110551505D01*
X134812781Y-110602297D01*
X134744959Y-110619087D01*
X134678826Y-110596543D01*
X134639794Y-110551493D01*
X134635051Y-110542184D01*
X134635049Y-110542181D01*
X134635048Y-110542179D01*
X134510109Y-110370213D01*
X134359786Y-110219890D01*
X134187820Y-110094951D01*
X133998416Y-109998444D01*
X133813605Y-109938395D01*
X133755930Y-109898957D01*
X133728732Y-109834598D01*
X133740647Y-109765752D01*
X133764245Y-109732781D01*
X133769517Y-109727510D01*
X133908343Y-109536433D01*
X134015568Y-109325992D01*
X134088553Y-109101368D01*
X134088919Y-109099056D01*
X134125500Y-108868097D01*
X134125500Y-108631902D01*
X134088553Y-108398631D01*
X134015566Y-108174003D01*
X133923266Y-107992855D01*
X133908343Y-107963567D01*
X133769517Y-107772490D01*
X133602510Y-107605483D01*
X133485146Y-107520213D01*
X133411431Y-107466655D01*
X133398339Y-107459985D01*
X133347542Y-107412011D01*
X133330747Y-107344190D01*
X133353284Y-107278055D01*
X133407999Y-107234603D01*
X133454633Y-107225500D01*
X135475764Y-107225500D01*
X135475766Y-107225500D01*
X135622135Y-107186281D01*
X135753365Y-107110515D01*
X137067819Y-105796061D01*
X137129142Y-105762576D01*
X137198834Y-105767560D01*
G37*
%TD.AperFunction*%
%TA.AperFunction,Conductor*%
G36*
X122854075Y-96837993D02*
G01*
X122919901Y-96952007D01*
X123012993Y-97045099D01*
X123127007Y-97110925D01*
X123190589Y-97127962D01*
X122558282Y-97760269D01*
X122558282Y-97760270D01*
X122612449Y-97799624D01*
X122801782Y-97896095D01*
X123003869Y-97961756D01*
X123039391Y-97967382D01*
X123102526Y-97997310D01*
X123139459Y-98056621D01*
X123138463Y-98126483D01*
X123138382Y-98126744D01*
X123120914Y-98182803D01*
X123114500Y-98253386D01*
X123114500Y-98766613D01*
X123120913Y-98837192D01*
X123120913Y-98837194D01*
X123120914Y-98837196D01*
X123143961Y-98911158D01*
X123171522Y-98999606D01*
X123259530Y-99145188D01*
X123361661Y-99247319D01*
X123395146Y-99308642D01*
X123390162Y-99378334D01*
X123361661Y-99422681D01*
X123259531Y-99524810D01*
X123259530Y-99524811D01*
X123171522Y-99670393D01*
X123120913Y-99832807D01*
X123118258Y-99862032D01*
X123114500Y-99903384D01*
X123114500Y-100416616D01*
X123116423Y-100437778D01*
X123120913Y-100487192D01*
X123120913Y-100487194D01*
X123120914Y-100487196D01*
X123171522Y-100649606D01*
X123253911Y-100785894D01*
X123259530Y-100795188D01*
X123379811Y-100915469D01*
X123379813Y-100915470D01*
X123379815Y-100915472D01*
X123525394Y-101003478D01*
X123687804Y-101054086D01*
X123758384Y-101060500D01*
X123758387Y-101060500D01*
X124421613Y-101060500D01*
X124421616Y-101060500D01*
X124492196Y-101054086D01*
X124654606Y-101003478D01*
X124668887Y-100994844D01*
X124736436Y-100977007D01*
X124802910Y-100998521D01*
X124847201Y-101052559D01*
X124855245Y-101121964D01*
X124851428Y-101137834D01*
X124851409Y-101137894D01*
X124845000Y-101208427D01*
X124845000Y-101290000D01*
X125621000Y-101290000D01*
X125688039Y-101309685D01*
X125733794Y-101362489D01*
X125745000Y-101414000D01*
X125745000Y-101666000D01*
X125725315Y-101733039D01*
X125672511Y-101778794D01*
X125621000Y-101790000D01*
X124845001Y-101790000D01*
X124845001Y-101871582D01*
X124851408Y-101942102D01*
X124851409Y-101942107D01*
X124901981Y-102104396D01*
X124989927Y-102249877D01*
X124994554Y-102255783D01*
X124993439Y-102256656D01*
X125022998Y-102310775D01*
X125018020Y-102380467D01*
X124997437Y-102412558D01*
X124999157Y-102413906D01*
X124994530Y-102419811D01*
X124906522Y-102565393D01*
X124855913Y-102727807D01*
X124849500Y-102798386D01*
X124849500Y-103461613D01*
X124855913Y-103532192D01*
X124855913Y-103532194D01*
X124855914Y-103532196D01*
X124906522Y-103694606D01*
X124984212Y-103823121D01*
X124994530Y-103840188D01*
X125026837Y-103872495D01*
X125060322Y-103933818D01*
X125055338Y-104003510D01*
X125031211Y-104041056D01*
X125031905Y-104041605D01*
X125027424Y-104047271D01*
X124938457Y-104191507D01*
X124938452Y-104191518D01*
X124885144Y-104352393D01*
X124875000Y-104451677D01*
X124875000Y-104500000D01*
X125701000Y-104500000D01*
X125768039Y-104519685D01*
X125813794Y-104572489D01*
X125825000Y-104624000D01*
X125825000Y-104750000D01*
X125951000Y-104750000D01*
X126018039Y-104769685D01*
X126063794Y-104822489D01*
X126075000Y-104874000D01*
X126075000Y-105724999D01*
X126098308Y-105724999D01*
X126098322Y-105724998D01*
X126197607Y-105714855D01*
X126358481Y-105661547D01*
X126358492Y-105661542D01*
X126502731Y-105572573D01*
X126511959Y-105563345D01*
X126573279Y-105529856D01*
X126642971Y-105534835D01*
X126687327Y-105563339D01*
X126696955Y-105572967D01*
X126696959Y-105572970D01*
X126841294Y-105661998D01*
X126841297Y-105661999D01*
X126841303Y-105662003D01*
X127002292Y-105715349D01*
X127101655Y-105725500D01*
X127648344Y-105725499D01*
X127648352Y-105725498D01*
X127648355Y-105725498D01*
X127702760Y-105719940D01*
X127747708Y-105715349D01*
X127908697Y-105662003D01*
X128053044Y-105572968D01*
X128172968Y-105453044D01*
X128262003Y-105308697D01*
X128315349Y-105147708D01*
X128325500Y-105048345D01*
X128325499Y-104688384D01*
X128334444Y-104657920D01*
X128341745Y-104627024D01*
X128344215Y-104624639D01*
X128345183Y-104621346D01*
X128369176Y-104600555D01*
X128392025Y-104578509D01*
X128396401Y-104576965D01*
X128397987Y-104575591D01*
X128425299Y-104566770D01*
X128471796Y-104557521D01*
X128541385Y-104563750D01*
X128596562Y-104606613D01*
X128618923Y-104662955D01*
X128629954Y-104746754D01*
X128629956Y-104746762D01*
X128690464Y-104892841D01*
X128786718Y-105018282D01*
X128835298Y-105055559D01*
X128837556Y-105057291D01*
X128878759Y-105113719D01*
X128882914Y-105183465D01*
X128848702Y-105244385D01*
X128796666Y-105274743D01*
X128700810Y-105302592D01*
X128700808Y-105302593D01*
X128562714Y-105384261D01*
X128562705Y-105384268D01*
X128449268Y-105497705D01*
X128449261Y-105497714D01*
X128367593Y-105635808D01*
X128367592Y-105635811D01*
X128322833Y-105789871D01*
X128322832Y-105789877D01*
X128320069Y-105825000D01*
X128966000Y-105825000D01*
X129033039Y-105844685D01*
X129078794Y-105897489D01*
X129090000Y-105949000D01*
X129090000Y-106201000D01*
X129070315Y-106268039D01*
X129017511Y-106313794D01*
X128966000Y-106325000D01*
X128320069Y-106325000D01*
X128322832Y-106360122D01*
X128322833Y-106360128D01*
X128367592Y-106514188D01*
X128367593Y-106514191D01*
X128449261Y-106652285D01*
X128449268Y-106652294D01*
X128562705Y-106765731D01*
X128562714Y-106765738D01*
X128700811Y-106847408D01*
X128703419Y-106848537D01*
X128705136Y-106849966D01*
X128707522Y-106851377D01*
X128707294Y-106851762D01*
X128757124Y-106893230D01*
X128778140Y-106959864D01*
X128759796Y-107027282D01*
X128707914Y-107074081D01*
X128688326Y-107081053D01*
X128688390Y-107081249D01*
X128683759Y-107082753D01*
X128683757Y-107082754D01*
X128598318Y-107110515D01*
X128481585Y-107148444D01*
X128292179Y-107244951D01*
X128120213Y-107369890D01*
X127969890Y-107520213D01*
X127844949Y-107692182D01*
X127840484Y-107700946D01*
X127792509Y-107751742D01*
X127724688Y-107768536D01*
X127658553Y-107745998D01*
X127619516Y-107700946D01*
X127615050Y-107692182D01*
X127490109Y-107520213D01*
X127339786Y-107369890D01*
X127167820Y-107244951D01*
X126978414Y-107148444D01*
X126978413Y-107148443D01*
X126978412Y-107148443D01*
X126776243Y-107082754D01*
X126776241Y-107082753D01*
X126776240Y-107082753D01*
X126614957Y-107057208D01*
X126566287Y-107049500D01*
X126353713Y-107049500D01*
X126305042Y-107057208D01*
X126143760Y-107082753D01*
X125941585Y-107148444D01*
X125752179Y-107244951D01*
X125580215Y-107369889D01*
X125466673Y-107483431D01*
X125405350Y-107516915D01*
X125335658Y-107511931D01*
X125279725Y-107470059D01*
X125262810Y-107439082D01*
X125213797Y-107307671D01*
X125213793Y-107307664D01*
X125127547Y-107192455D01*
X125127544Y-107192452D01*
X125012335Y-107106206D01*
X125012328Y-107106202D01*
X124877482Y-107055908D01*
X124877483Y-107055908D01*
X124817883Y-107049501D01*
X124817881Y-107049500D01*
X124817873Y-107049500D01*
X124817864Y-107049500D01*
X123022129Y-107049500D01*
X123022123Y-107049501D01*
X122962516Y-107055908D01*
X122827671Y-107106202D01*
X122827664Y-107106206D01*
X122712455Y-107192452D01*
X122712452Y-107192455D01*
X122626206Y-107307664D01*
X122626202Y-107307671D01*
X122575908Y-107442517D01*
X122569501Y-107502116D01*
X122569500Y-107502135D01*
X122569500Y-109297870D01*
X122569501Y-109297876D01*
X122575908Y-109357483D01*
X122626202Y-109492328D01*
X122626206Y-109492335D01*
X122712452Y-109607544D01*
X122712455Y-109607547D01*
X122804876Y-109676734D01*
X122846747Y-109732668D01*
X122851731Y-109802359D01*
X122818245Y-109863682D01*
X122756922Y-109897166D01*
X122730565Y-109900000D01*
X122422155Y-109900000D01*
X122362627Y-109906401D01*
X122362619Y-109906403D01*
X122227833Y-109956675D01*
X122158141Y-109961659D01*
X122096818Y-109928174D01*
X122063334Y-109866850D01*
X122060500Y-109840493D01*
X122060500Y-105048322D01*
X124875001Y-105048322D01*
X124885144Y-105147607D01*
X124938452Y-105308481D01*
X124938457Y-105308492D01*
X125027424Y-105452728D01*
X125027427Y-105452732D01*
X125147267Y-105572572D01*
X125147271Y-105572575D01*
X125291507Y-105661542D01*
X125291518Y-105661547D01*
X125452393Y-105714855D01*
X125551683Y-105724999D01*
X125575000Y-105724998D01*
X125575000Y-105000000D01*
X124875001Y-105000000D01*
X124875001Y-105048322D01*
X122060500Y-105048322D01*
X122060500Y-97529508D01*
X122080185Y-97462469D01*
X122132989Y-97416714D01*
X122194230Y-97405890D01*
X122204728Y-97406716D01*
X122837037Y-96774408D01*
X122854075Y-96837993D01*
G37*
%TD.AperFunction*%
%TA.AperFunction,Conductor*%
G36*
X130413325Y-103773596D02*
G01*
X130418238Y-103773342D01*
X130451057Y-103786325D01*
X130454802Y-103788466D01*
X130488189Y-103810775D01*
X130508578Y-103819220D01*
X130515411Y-103823128D01*
X130534387Y-103842866D01*
X130555708Y-103860047D01*
X130558251Y-103867689D01*
X130563834Y-103873496D01*
X130569126Y-103900360D01*
X130577774Y-103926341D01*
X130575782Y-103934145D01*
X130577339Y-103942049D01*
X130567266Y-103967510D01*
X130560496Y-103994040D01*
X130554601Y-103999528D01*
X130551638Y-104007019D01*
X130547081Y-104012528D01*
X130522988Y-104040000D01*
X130530442Y-104096627D01*
X130530443Y-104096629D01*
X130539108Y-104117549D01*
X130542616Y-104150185D01*
X130547284Y-104182647D01*
X130546437Y-104185731D01*
X130546576Y-104187018D01*
X130545489Y-104189187D01*
X130539109Y-104212449D01*
X130530443Y-104233370D01*
X130522987Y-104290000D01*
X131216000Y-104290000D01*
X131283039Y-104309685D01*
X131328794Y-104362489D01*
X131340000Y-104414000D01*
X131340000Y-104490000D01*
X131416000Y-104490000D01*
X131483039Y-104509685D01*
X131528794Y-104562489D01*
X131540000Y-104614000D01*
X131540000Y-105189999D01*
X131604324Y-105189999D01*
X131721628Y-105174557D01*
X131721633Y-105174555D01*
X131867587Y-105114100D01*
X131867590Y-105114098D01*
X131943879Y-105055559D01*
X132009048Y-105030364D01*
X132077493Y-105044402D01*
X132107047Y-105066253D01*
X132863023Y-105822229D01*
X132863026Y-105822233D01*
X132881757Y-105840964D01*
X132903613Y-105862821D01*
X132910206Y-105874896D01*
X132937096Y-105924142D01*
X132937095Y-105924143D01*
X132937097Y-105924145D01*
X132934173Y-105965005D01*
X132932112Y-105993834D01*
X132890240Y-106049767D01*
X132890239Y-106049767D01*
X132890238Y-106049769D01*
X132855642Y-106062671D01*
X132824776Y-106074184D01*
X132815930Y-106074500D01*
X131889742Y-106074500D01*
X131822703Y-106054815D01*
X131802061Y-106038181D01*
X131134620Y-105370740D01*
X131101135Y-105309417D01*
X131106119Y-105239725D01*
X131134621Y-105195377D01*
X131140000Y-105189998D01*
X131140000Y-104690000D01*
X130505242Y-104690000D01*
X130475801Y-104681355D01*
X130445815Y-104674832D01*
X130440799Y-104671077D01*
X130438203Y-104670315D01*
X130417561Y-104653681D01*
X130301818Y-104537938D01*
X130268333Y-104476615D01*
X130265499Y-104450257D01*
X130265499Y-104350638D01*
X130261652Y-104321418D01*
X130250044Y-104233238D01*
X130241434Y-104212454D01*
X130237927Y-104179832D01*
X130233257Y-104147353D01*
X130234210Y-104145265D01*
X130233965Y-104142986D01*
X130241435Y-104117545D01*
X130246424Y-104105500D01*
X130250044Y-104096762D01*
X130265500Y-103979361D01*
X130265499Y-103893964D01*
X130267136Y-103888389D01*
X130266013Y-103882686D01*
X130276869Y-103855241D01*
X130285183Y-103826928D01*
X130289575Y-103823121D01*
X130291714Y-103817716D01*
X130315680Y-103800500D01*
X130337986Y-103781172D01*
X130343740Y-103780344D01*
X130348461Y-103776954D01*
X130377931Y-103775428D01*
X130407145Y-103771228D01*
X130413325Y-103773596D01*
G37*
%TD.AperFunction*%
%TA.AperFunction,Conductor*%
G36*
X137238363Y-103004232D02*
G01*
X137275082Y-103063675D01*
X137279500Y-103096481D01*
X137279500Y-103946716D01*
X137259815Y-104013755D01*
X137207011Y-104059510D01*
X137137853Y-104069454D01*
X137074297Y-104040429D01*
X137048113Y-104008717D01*
X137020258Y-103960472D01*
X136980515Y-103891635D01*
X136873365Y-103784485D01*
X136781391Y-103692511D01*
X136772079Y-103682085D01*
X136766311Y-103674843D01*
X136763015Y-103669134D01*
X136756865Y-103662984D01*
X136752506Y-103657511D01*
X136741855Y-103631379D01*
X136728333Y-103606614D01*
X136727103Y-103595183D01*
X136726136Y-103592808D01*
X136726587Y-103590382D01*
X136725499Y-103580263D01*
X136725499Y-103438394D01*
X136745184Y-103371356D01*
X136761813Y-103350719D01*
X136899729Y-103212804D01*
X136899733Y-103212802D01*
X136986858Y-103125677D01*
X137023624Y-103070652D01*
X137052398Y-103027590D01*
X137106010Y-102982785D01*
X137175335Y-102974078D01*
X137238363Y-103004232D01*
G37*
%TD.AperFunction*%
%TA.AperFunction,Conductor*%
G36*
X131911374Y-97751987D02*
G01*
X131937672Y-97755836D01*
X131944380Y-97761679D01*
X131952915Y-97764185D01*
X131970316Y-97784267D01*
X131990360Y-97801724D01*
X131992845Y-97810266D01*
X131998670Y-97816989D01*
X132002452Y-97843292D01*
X132009876Y-97868813D01*
X132007348Y-97877342D01*
X132008614Y-97886147D01*
X131997574Y-97910320D01*
X131990022Y-97935803D01*
X131981433Y-97945664D01*
X131979589Y-97949703D01*
X131972365Y-97956075D01*
X131966842Y-97962418D01*
X131961088Y-97967378D01*
X131903457Y-98005886D01*
X131822416Y-98086926D01*
X131818946Y-98089918D01*
X131791134Y-98102534D01*
X131764337Y-98117166D01*
X131759622Y-98116828D01*
X131755317Y-98118782D01*
X131737980Y-98120000D01*
X131035000Y-98120000D01*
X131035000Y-98851000D01*
X131015315Y-98918039D01*
X130962511Y-98963794D01*
X130911000Y-98975000D01*
X130875000Y-98975000D01*
X130875000Y-100568638D01*
X130855315Y-100635677D01*
X130838681Y-100656319D01*
X130810000Y-100685000D01*
X130810000Y-101130000D01*
X131509999Y-101130000D01*
X131509999Y-101081692D01*
X131509998Y-101081677D01*
X131499855Y-100982392D01*
X131446547Y-100821518D01*
X131446542Y-100821507D01*
X131357575Y-100677271D01*
X131277642Y-100597337D01*
X131244158Y-100536013D01*
X131249142Y-100466322D01*
X131291014Y-100410388D01*
X131300232Y-100404114D01*
X131302734Y-100402570D01*
X131422572Y-100282732D01*
X131422575Y-100282728D01*
X131511542Y-100138492D01*
X131511547Y-100138481D01*
X131564856Y-99977606D01*
X131575040Y-99877919D01*
X131601436Y-99813227D01*
X131658616Y-99773076D01*
X131722588Y-99768904D01*
X131761713Y-99776686D01*
X131831155Y-99790500D01*
X131831158Y-99790500D01*
X131988844Y-99790500D01*
X131988845Y-99790499D01*
X132143497Y-99759737D01*
X132289179Y-99699394D01*
X132408999Y-99619332D01*
X132475675Y-99598455D01*
X132543055Y-99616939D01*
X132589746Y-99668918D01*
X132600922Y-99737888D01*
X132596275Y-99759324D01*
X132591990Y-99773076D01*
X132560914Y-99872804D01*
X132560411Y-99878345D01*
X132554500Y-99943386D01*
X132554500Y-100239546D01*
X132545857Y-100268977D01*
X132539339Y-100298961D01*
X132535578Y-100303984D01*
X132534815Y-100306585D01*
X132518191Y-100327217D01*
X132514897Y-100330512D01*
X132513770Y-100331639D01*
X132513767Y-100331642D01*
X132470204Y-100375205D01*
X132426641Y-100418767D01*
X132409760Y-100444030D01*
X132409761Y-100444031D01*
X132358189Y-100521212D01*
X132358185Y-100521219D01*
X132340259Y-100564499D01*
X132340259Y-100564500D01*
X132311038Y-100635045D01*
X132311035Y-100635055D01*
X132287000Y-100755889D01*
X132287000Y-101881420D01*
X132267315Y-101948459D01*
X132238489Y-101979793D01*
X132135964Y-102058464D01*
X132057352Y-102160914D01*
X132045719Y-102176074D01*
X131988991Y-102313027D01*
X131988990Y-102313029D01*
X131974500Y-102423098D01*
X131974500Y-102424064D01*
X131974417Y-102424343D01*
X131974234Y-102427150D01*
X131973605Y-102427108D01*
X131954815Y-102491103D01*
X131902011Y-102536858D01*
X131832853Y-102546802D01*
X131803048Y-102538625D01*
X131721765Y-102504957D01*
X131721760Y-102504955D01*
X131604370Y-102489501D01*
X131604367Y-102489500D01*
X131604361Y-102489500D01*
X131604354Y-102489500D01*
X131209789Y-102489500D01*
X131142750Y-102469815D01*
X131096995Y-102417011D01*
X131087051Y-102347853D01*
X131116076Y-102284297D01*
X131144691Y-102259962D01*
X131237731Y-102202573D01*
X131357572Y-102082732D01*
X131357575Y-102082728D01*
X131446542Y-101938492D01*
X131446547Y-101938481D01*
X131499855Y-101777606D01*
X131509999Y-101678322D01*
X131510000Y-101678309D01*
X131510000Y-101630000D01*
X130684000Y-101630000D01*
X130616961Y-101610315D01*
X130571206Y-101557511D01*
X130560000Y-101506000D01*
X130560000Y-101380000D01*
X130434000Y-101380000D01*
X130366961Y-101360315D01*
X130321206Y-101307511D01*
X130310000Y-101256000D01*
X130310000Y-100391362D01*
X130329685Y-100324323D01*
X130346319Y-100303681D01*
X130375000Y-100275000D01*
X130375000Y-98599000D01*
X130394685Y-98531961D01*
X130447489Y-98486206D01*
X130499000Y-98475000D01*
X130535000Y-98475000D01*
X130535000Y-97994000D01*
X130554685Y-97926961D01*
X130607489Y-97881206D01*
X130659000Y-97870000D01*
X130785000Y-97870000D01*
X130785000Y-97868500D01*
X130804685Y-97801461D01*
X130857489Y-97755706D01*
X130909000Y-97744500D01*
X131885876Y-97744500D01*
X131911374Y-97751987D01*
G37*
%TD.AperFunction*%
%TA.AperFunction,Conductor*%
G36*
X127664803Y-95693685D02*
G01*
X127710558Y-95746489D01*
X127712325Y-95750547D01*
X127765604Y-95879176D01*
X127765609Y-95879185D01*
X127853210Y-96010288D01*
X127853213Y-96010292D01*
X127930016Y-96087095D01*
X127936526Y-96099017D01*
X127946778Y-96107935D01*
X127952944Y-96129085D01*
X127963501Y-96148418D01*
X127962951Y-96163406D01*
X127966335Y-96175012D01*
X127961558Y-96201394D01*
X127961245Y-96209937D01*
X127959871Y-96214582D01*
X127959662Y-96215041D01*
X127949133Y-96250895D01*
X127948867Y-96251798D01*
X127930079Y-96280910D01*
X127911156Y-96310353D01*
X127911046Y-96310403D01*
X127910981Y-96310504D01*
X127879505Y-96324806D01*
X127847600Y-96339376D01*
X127847462Y-96339366D01*
X127847371Y-96339408D01*
X127846735Y-96339315D01*
X127798814Y-96335955D01*
X127798799Y-96336040D01*
X127798034Y-96335900D01*
X127795362Y-96335713D01*
X127792573Y-96334902D01*
X127792567Y-96334901D01*
X127755701Y-96332000D01*
X127755694Y-96332000D01*
X127324306Y-96332000D01*
X127324298Y-96332000D01*
X127287432Y-96334901D01*
X127287426Y-96334902D01*
X127129607Y-96380754D01*
X127129594Y-96380759D01*
X127127620Y-96381927D01*
X127125872Y-96382370D01*
X127122441Y-96383855D01*
X127122201Y-96383301D01*
X127059895Y-96399103D01*
X127007601Y-96383748D01*
X127007356Y-96384316D01*
X127002758Y-96382326D01*
X127001398Y-96381927D01*
X127000203Y-96381220D01*
X127000193Y-96381216D01*
X126842494Y-96335400D01*
X126842497Y-96335400D01*
X126840000Y-96335203D01*
X126840000Y-96600684D01*
X126822733Y-96663804D01*
X126788254Y-96722105D01*
X126788254Y-96722106D01*
X126742402Y-96879926D01*
X126742401Y-96879932D01*
X126739500Y-96916798D01*
X126739500Y-98073201D01*
X126742401Y-98110067D01*
X126742402Y-98110073D01*
X126788254Y-98267893D01*
X126788255Y-98267896D01*
X126788256Y-98267898D01*
X126822732Y-98326194D01*
X126825260Y-98336159D01*
X126840000Y-98389314D01*
X126840000Y-98654795D01*
X126866247Y-98679058D01*
X126902114Y-98739019D01*
X126899869Y-98808853D01*
X126875471Y-98848514D01*
X126876702Y-98849469D01*
X126871917Y-98855637D01*
X126788255Y-98997103D01*
X126788254Y-98997106D01*
X126742402Y-99154926D01*
X126742401Y-99154932D01*
X126739500Y-99191798D01*
X126739500Y-99508770D01*
X126733261Y-99530015D01*
X126731682Y-99552104D01*
X126723609Y-99562887D01*
X126719815Y-99575809D01*
X126703081Y-99590308D01*
X126689810Y-99608037D01*
X126677189Y-99612744D01*
X126667011Y-99621564D01*
X126645093Y-99624715D01*
X126624346Y-99632454D01*
X126611185Y-99629591D01*
X126597853Y-99631508D01*
X126577709Y-99622308D01*
X126556073Y-99617602D01*
X126538347Y-99604333D01*
X126534297Y-99602483D01*
X126527819Y-99596451D01*
X126476819Y-99545451D01*
X126443334Y-99484128D01*
X126440500Y-99457770D01*
X126440500Y-99191813D01*
X126440499Y-99191798D01*
X126437598Y-99154932D01*
X126437597Y-99154926D01*
X126391745Y-98997106D01*
X126391744Y-98997103D01*
X126391744Y-98997102D01*
X126308081Y-98855635D01*
X126308078Y-98855632D01*
X126303298Y-98849469D01*
X126304982Y-98848162D01*
X126276757Y-98796472D01*
X126281741Y-98726780D01*
X126284429Y-98720164D01*
X126296865Y-98691906D01*
X126301885Y-98684394D01*
X126305084Y-98679607D01*
X126361658Y-98543025D01*
X126375189Y-98475000D01*
X126390500Y-98398032D01*
X126390500Y-98289828D01*
X126390865Y-98287262D01*
X126390557Y-98286082D01*
X126391400Y-98283499D01*
X126395424Y-98255233D01*
X126437597Y-98110073D01*
X126437598Y-98110067D01*
X126440499Y-98073201D01*
X126440500Y-98073194D01*
X126440500Y-96916806D01*
X126437598Y-96879931D01*
X126428901Y-96849997D01*
X126391745Y-96722106D01*
X126391745Y-96722105D01*
X126391744Y-96722104D01*
X126391744Y-96722102D01*
X126357267Y-96663804D01*
X126340000Y-96600684D01*
X126340000Y-96335203D01*
X126337504Y-96335400D01*
X126179806Y-96381216D01*
X126179791Y-96381222D01*
X126178599Y-96381928D01*
X126177543Y-96382195D01*
X126172641Y-96384317D01*
X126172298Y-96383525D01*
X126110873Y-96399103D01*
X126057710Y-96383492D01*
X126057554Y-96383853D01*
X126054630Y-96382587D01*
X126052377Y-96381926D01*
X126050399Y-96380756D01*
X126050393Y-96380754D01*
X125892573Y-96334902D01*
X125892567Y-96334901D01*
X125855701Y-96332000D01*
X125855694Y-96332000D01*
X125424306Y-96332000D01*
X125424298Y-96332000D01*
X125387432Y-96334901D01*
X125387426Y-96334902D01*
X125229606Y-96380754D01*
X125229603Y-96380755D01*
X125088137Y-96464417D01*
X125088129Y-96464423D01*
X124971923Y-96580629D01*
X124971917Y-96580637D01*
X124900732Y-96701006D01*
X124849663Y-96748689D01*
X124780921Y-96761193D01*
X124716332Y-96734548D01*
X124676402Y-96677212D01*
X124670000Y-96637885D01*
X124670000Y-96538753D01*
X124636757Y-96328872D01*
X124636757Y-96328869D01*
X124571095Y-96126782D01*
X124474623Y-95937446D01*
X124426264Y-95870885D01*
X124402785Y-95805078D01*
X124418611Y-95737024D01*
X124468717Y-95688330D01*
X124526583Y-95674000D01*
X127408443Y-95674000D01*
X127597764Y-95674000D01*
X127664803Y-95693685D01*
G37*
%TD.AperFunction*%
%TA.AperFunction,Conductor*%
G36*
X134650846Y-96781712D02*
G01*
X134684332Y-96843035D01*
X134685640Y-96849997D01*
X134703242Y-96961129D01*
X134703242Y-96961130D01*
X134768904Y-97163217D01*
X134865375Y-97352550D01*
X134904728Y-97406716D01*
X135537036Y-96774407D01*
X135554075Y-96837993D01*
X135619901Y-96952007D01*
X135712993Y-97045099D01*
X135827007Y-97110925D01*
X135890590Y-97127962D01*
X135258282Y-97760269D01*
X135258282Y-97760270D01*
X135312449Y-97799624D01*
X135501782Y-97896095D01*
X135703865Y-97961755D01*
X135753243Y-97969576D01*
X135816378Y-97999505D01*
X135853309Y-98058816D01*
X135852313Y-98128679D01*
X135813703Y-98186912D01*
X135772852Y-98209755D01*
X135731521Y-98223451D01*
X135731507Y-98223457D01*
X135587271Y-98312424D01*
X135587267Y-98312427D01*
X135467426Y-98432268D01*
X135407132Y-98530019D01*
X135355183Y-98576743D01*
X135286221Y-98587964D01*
X135222139Y-98560120D01*
X135213913Y-98552602D01*
X134667200Y-98005888D01*
X134667199Y-98005887D01*
X134552461Y-97929222D01*
X134424984Y-97876420D01*
X134424976Y-97876418D01*
X134333415Y-97858205D01*
X134271504Y-97825820D01*
X134269925Y-97824268D01*
X134240188Y-97794530D01*
X134183515Y-97760270D01*
X134094606Y-97706522D01*
X133932196Y-97655914D01*
X133932194Y-97655913D01*
X133932192Y-97655913D01*
X133882778Y-97651423D01*
X133861616Y-97649500D01*
X133198384Y-97649500D01*
X133179145Y-97651248D01*
X133127807Y-97655913D01*
X132965393Y-97706522D01*
X132819811Y-97794530D01*
X132819810Y-97794531D01*
X132801161Y-97813181D01*
X132771419Y-97829421D01*
X132741949Y-97846188D01*
X132740378Y-97846370D01*
X132739838Y-97846666D01*
X132733385Y-97847184D01*
X132713480Y-97849500D01*
X132455291Y-97849500D01*
X132388252Y-97829815D01*
X132342497Y-97777011D01*
X132332553Y-97707853D01*
X132361578Y-97644297D01*
X132386400Y-97622398D01*
X132389493Y-97620330D01*
X132405703Y-97609500D01*
X132454416Y-97576952D01*
X133234548Y-96796817D01*
X133295871Y-96763333D01*
X133322229Y-96760499D01*
X134457871Y-96760499D01*
X134457872Y-96760499D01*
X134517483Y-96754091D01*
X134519832Y-96753214D01*
X134521784Y-96753075D01*
X134525031Y-96752308D01*
X134525155Y-96752834D01*
X134589522Y-96748229D01*
X134650846Y-96781712D01*
G37*
%TD.AperFunction*%
%TA.AperFunction,Conductor*%
G36*
X137135269Y-97406716D02*
G01*
X137145770Y-97405890D01*
X137214148Y-97420254D01*
X137263905Y-97469305D01*
X137279500Y-97529508D01*
X137279500Y-98299833D01*
X137259815Y-98366872D01*
X137207011Y-98412627D01*
X137137853Y-98422571D01*
X137074297Y-98393546D01*
X137067819Y-98387514D01*
X136992732Y-98312427D01*
X136992728Y-98312424D01*
X136848492Y-98223457D01*
X136848481Y-98223452D01*
X136687606Y-98170144D01*
X136588322Y-98160000D01*
X136508907Y-98160000D01*
X136441868Y-98140315D01*
X136396113Y-98087511D01*
X136386169Y-98018353D01*
X136415194Y-97954797D01*
X136470589Y-97918069D01*
X136538217Y-97896095D01*
X136727554Y-97799622D01*
X136781716Y-97760270D01*
X136781717Y-97760270D01*
X136149408Y-97127962D01*
X136212993Y-97110925D01*
X136327007Y-97045099D01*
X136420099Y-96952007D01*
X136485925Y-96837993D01*
X136502962Y-96774409D01*
X137135269Y-97406716D01*
G37*
%TD.AperFunction*%
%TA.AperFunction,Conductor*%
G36*
X122198523Y-94928472D02*
G01*
X122202147Y-94927951D01*
X122230839Y-94941054D01*
X122260221Y-94952494D01*
X122263678Y-94956051D01*
X122265703Y-94956976D01*
X122284819Y-94977804D01*
X122289896Y-94984792D01*
X122440213Y-95135109D01*
X122612179Y-95260048D01*
X122612181Y-95260049D01*
X122612184Y-95260051D01*
X122621493Y-95264794D01*
X122672290Y-95312766D01*
X122689087Y-95380587D01*
X122666552Y-95446722D01*
X122621505Y-95485760D01*
X122612446Y-95490376D01*
X122612440Y-95490380D01*
X122558282Y-95529727D01*
X122558282Y-95529728D01*
X123190591Y-96162037D01*
X123127007Y-96179075D01*
X123012993Y-96244901D01*
X122919901Y-96337993D01*
X122854075Y-96452007D01*
X122837037Y-96515591D01*
X122204727Y-95883281D01*
X122194228Y-95884108D01*
X122125851Y-95869743D01*
X122076095Y-95820692D01*
X122060500Y-95760490D01*
X122060500Y-95050689D01*
X122069383Y-95020435D01*
X122076528Y-94989713D01*
X122079154Y-94987160D01*
X122080185Y-94983650D01*
X122104009Y-94963005D01*
X122126634Y-94941019D01*
X122130222Y-94940291D01*
X122132989Y-94937895D01*
X122164201Y-94933407D01*
X122195112Y-94927144D01*
X122198523Y-94928472D01*
G37*
%TD.AperFunction*%
%TA.AperFunction,Conductor*%
G36*
X126255701Y-93264235D02*
G01*
X126303441Y-93296252D01*
X126327704Y-93322500D01*
X126593185Y-93322500D01*
X126656306Y-93339768D01*
X126714602Y-93374244D01*
X126756224Y-93386336D01*
X126872426Y-93420097D01*
X126872429Y-93420097D01*
X126872431Y-93420098D01*
X126909306Y-93423000D01*
X127363500Y-93423000D01*
X127372185Y-93425550D01*
X127381147Y-93424262D01*
X127405187Y-93435240D01*
X127430539Y-93442685D01*
X127436466Y-93449525D01*
X127444703Y-93453287D01*
X127458992Y-93475521D01*
X127476294Y-93495489D01*
X127478581Y-93506003D01*
X127482477Y-93512065D01*
X127487500Y-93547000D01*
X127487500Y-93598000D01*
X127467815Y-93665039D01*
X127415011Y-93710794D01*
X127363500Y-93722000D01*
X126909298Y-93722000D01*
X126872432Y-93724901D01*
X126872426Y-93724902D01*
X126714606Y-93770754D01*
X126714603Y-93770755D01*
X126656306Y-93805232D01*
X126593185Y-93822500D01*
X126327704Y-93822500D01*
X126303440Y-93848748D01*
X126243479Y-93884614D01*
X126173645Y-93882369D01*
X126133987Y-93857968D01*
X126133031Y-93859202D01*
X126126862Y-93854417D01*
X125985396Y-93770755D01*
X125985393Y-93770754D01*
X125881841Y-93740669D01*
X125855403Y-93723785D01*
X125828000Y-93708513D01*
X125826189Y-93705128D01*
X125822955Y-93703063D01*
X125809843Y-93674568D01*
X125795046Y-93646903D01*
X125795025Y-93642363D01*
X125793749Y-93639590D01*
X125792833Y-93611678D01*
X125793409Y-93604486D01*
X125800500Y-93568842D01*
X125800500Y-93516097D01*
X125800897Y-93511148D01*
X125811686Y-93482967D01*
X125820185Y-93454024D01*
X125824049Y-93450675D01*
X125825879Y-93445897D01*
X125850195Y-93428020D01*
X125872989Y-93408269D01*
X125881216Y-93405213D01*
X125882172Y-93404511D01*
X125883297Y-93404440D01*
X125889890Y-93401991D01*
X125985398Y-93374244D01*
X126126865Y-93290581D01*
X126126870Y-93290575D01*
X126133031Y-93285798D01*
X126134339Y-93287484D01*
X126186009Y-93259261D01*
X126255701Y-93264235D01*
G37*
%TD.AperFunction*%
%TA.AperFunction,Conductor*%
G36*
X125313039Y-86999685D02*
G01*
X125358794Y-87052489D01*
X125370000Y-87104000D01*
X125370000Y-87954999D01*
X125393308Y-87954999D01*
X125393322Y-87954998D01*
X125492607Y-87944855D01*
X125653481Y-87891547D01*
X125653492Y-87891542D01*
X125797731Y-87802573D01*
X125806959Y-87793345D01*
X125868279Y-87759856D01*
X125937971Y-87764835D01*
X125982327Y-87793339D01*
X125991955Y-87802967D01*
X125991959Y-87802970D01*
X126136294Y-87891998D01*
X126136297Y-87891999D01*
X126136303Y-87892003D01*
X126297292Y-87945349D01*
X126396655Y-87955500D01*
X126943344Y-87955499D01*
X126943352Y-87955498D01*
X126943355Y-87955498D01*
X126997760Y-87949940D01*
X127042708Y-87945349D01*
X127203697Y-87892003D01*
X127348044Y-87802968D01*
X127467968Y-87683044D01*
X127557003Y-87538697D01*
X127587939Y-87445334D01*
X127627711Y-87387891D01*
X127692227Y-87361067D01*
X127761003Y-87373382D01*
X127812203Y-87420924D01*
X127828486Y-87475831D01*
X127829309Y-87475767D01*
X127832401Y-87515067D01*
X127832402Y-87515073D01*
X127878254Y-87672893D01*
X127878255Y-87672896D01*
X127961917Y-87814362D01*
X127961923Y-87814370D01*
X128078129Y-87930576D01*
X128078140Y-87930585D01*
X128078455Y-87930771D01*
X128078650Y-87930980D01*
X128084298Y-87935361D01*
X128083591Y-87936272D01*
X128126136Y-87981843D01*
X128138637Y-88050585D01*
X128111988Y-88115173D01*
X128084078Y-88139356D01*
X128084298Y-88139639D01*
X128079092Y-88143676D01*
X128078455Y-88144229D01*
X128078140Y-88144414D01*
X128078129Y-88144423D01*
X127961923Y-88260629D01*
X127961917Y-88260637D01*
X127878255Y-88402103D01*
X127878254Y-88402106D01*
X127832402Y-88559926D01*
X127832401Y-88559932D01*
X127829500Y-88596798D01*
X127829500Y-88982770D01*
X127820855Y-89012209D01*
X127814332Y-89042197D01*
X127810577Y-89047212D01*
X127809815Y-89049809D01*
X127793185Y-89070446D01*
X127732345Y-89131287D01*
X127699461Y-89164171D01*
X127638137Y-89197655D01*
X127568446Y-89192671D01*
X127524434Y-89160620D01*
X127522680Y-89162375D01*
X127397732Y-89037427D01*
X127397728Y-89037424D01*
X127253492Y-88948457D01*
X127253481Y-88948452D01*
X127092606Y-88895144D01*
X126993322Y-88885000D01*
X126970000Y-88885000D01*
X126970000Y-90834999D01*
X126993308Y-90834999D01*
X126993322Y-90834998D01*
X127092898Y-90824826D01*
X127106046Y-90827270D01*
X127119218Y-90824945D01*
X127139731Y-90833532D01*
X127161591Y-90837596D01*
X127171330Y-90846760D01*
X127183668Y-90851925D01*
X127196282Y-90870239D01*
X127212475Y-90885476D01*
X127215713Y-90898451D01*
X127223301Y-90909467D01*
X127229500Y-90948184D01*
X127229500Y-91215903D01*
X127209815Y-91282942D01*
X127157011Y-91328697D01*
X127087853Y-91338641D01*
X127024297Y-91309616D01*
X127017819Y-91303584D01*
X126917590Y-91203355D01*
X126917588Y-91203352D01*
X126798717Y-91084481D01*
X126798716Y-91084480D01*
X126733084Y-91046588D01*
X126720610Y-91039386D01*
X126720608Y-91039385D01*
X126711904Y-91034360D01*
X126661785Y-91005423D01*
X126555915Y-90977054D01*
X126550108Y-90974857D01*
X126526992Y-90957378D01*
X126502245Y-90942294D01*
X126499459Y-90936560D01*
X126494377Y-90932717D01*
X126484380Y-90905517D01*
X126471717Y-90879447D01*
X126470810Y-90868593D01*
X126470275Y-90867136D01*
X126470576Y-90865783D01*
X126470000Y-90858885D01*
X126470000Y-88884999D01*
X126446693Y-88885000D01*
X126446674Y-88885001D01*
X126347392Y-88895144D01*
X126186518Y-88948452D01*
X126186507Y-88948457D01*
X126042271Y-89037424D01*
X126042265Y-89037428D01*
X126033031Y-89046663D01*
X125971707Y-89080146D01*
X125902015Y-89075159D01*
X125857672Y-89046660D01*
X125848044Y-89037032D01*
X125848040Y-89037029D01*
X125703705Y-88948001D01*
X125703699Y-88947998D01*
X125703697Y-88947997D01*
X125703694Y-88947996D01*
X125542709Y-88894651D01*
X125443352Y-88884500D01*
X125443345Y-88884500D01*
X125307229Y-88884500D01*
X125240190Y-88864815D01*
X125219548Y-88848181D01*
X124813418Y-88442049D01*
X124813416Y-88442047D01*
X124753637Y-88402106D01*
X124731355Y-88387218D01*
X124690495Y-88359916D01*
X124690494Y-88359915D01*
X124690492Y-88359914D01*
X124690490Y-88359913D01*
X124553915Y-88303342D01*
X124553907Y-88303340D01*
X124497571Y-88292134D01*
X124435660Y-88259749D01*
X124421447Y-88243405D01*
X124390824Y-88201255D01*
X124350107Y-88145211D01*
X124236570Y-88031674D01*
X124236566Y-88031670D01*
X124209360Y-87981843D01*
X124203084Y-87970350D01*
X124203717Y-87961505D01*
X124208068Y-87900658D01*
X124249940Y-87844724D01*
X124280915Y-87827810D01*
X124350147Y-87801988D01*
X124419839Y-87797005D01*
X124458577Y-87812633D01*
X124586507Y-87891542D01*
X124586518Y-87891547D01*
X124747393Y-87944855D01*
X124846683Y-87954999D01*
X124870000Y-87954998D01*
X124870000Y-87104000D01*
X124889685Y-87036961D01*
X124942489Y-86991206D01*
X124994000Y-86980000D01*
X125246000Y-86980000D01*
X125313039Y-86999685D01*
G37*
%TD.AperFunction*%
%TA.AperFunction,Conductor*%
G36*
X127902718Y-85851185D02*
G01*
X127948473Y-85903989D01*
X127958417Y-85973147D01*
X127942411Y-86018621D01*
X127878255Y-86127103D01*
X127878254Y-86127106D01*
X127832402Y-86284926D01*
X127832401Y-86284932D01*
X127829500Y-86321798D01*
X127829500Y-86475220D01*
X127809815Y-86542259D01*
X127757011Y-86588014D01*
X127687853Y-86597958D01*
X127624297Y-86568933D01*
X127587794Y-86514224D01*
X127572810Y-86469005D01*
X127557003Y-86421303D01*
X127556999Y-86421297D01*
X127556998Y-86421294D01*
X127467970Y-86276959D01*
X127467967Y-86276955D01*
X127348044Y-86157032D01*
X127348040Y-86157029D01*
X127203698Y-86067997D01*
X127203453Y-86067883D01*
X127203312Y-86067759D01*
X127197550Y-86064205D01*
X127198157Y-86063220D01*
X127151012Y-86021712D01*
X127131859Y-85954519D01*
X127152073Y-85887637D01*
X127205238Y-85842302D01*
X127255855Y-85831500D01*
X127835679Y-85831500D01*
X127902718Y-85851185D01*
G37*
%TD.AperFunction*%
%TA.AperFunction,Conductor*%
G36*
X132277169Y-80997825D02*
G01*
X132295387Y-80999128D01*
X132309312Y-81009552D01*
X132325651Y-81015514D01*
X132336699Y-81030055D01*
X132351320Y-81041000D01*
X132357530Y-81057469D01*
X132367922Y-81071146D01*
X132375671Y-81105579D01*
X132377401Y-81127568D01*
X132377402Y-81127573D01*
X132423254Y-81285393D01*
X132423255Y-81285396D01*
X132423256Y-81285398D01*
X132460681Y-81348681D01*
X132506917Y-81426862D01*
X132506923Y-81426870D01*
X132623127Y-81543074D01*
X132623133Y-81543079D01*
X132623135Y-81543081D01*
X132643620Y-81555195D01*
X132691303Y-81606261D01*
X132704500Y-81661927D01*
X132704500Y-82585281D01*
X132702119Y-82609462D01*
X132700901Y-82615588D01*
X132700898Y-82615603D01*
X132699500Y-82622629D01*
X132699500Y-82807650D01*
X132679815Y-82874689D01*
X132678602Y-82876541D01*
X132615609Y-82970815D01*
X132615602Y-82970828D01*
X132555264Y-83116498D01*
X132555261Y-83116510D01*
X132524500Y-83271153D01*
X132524500Y-83339138D01*
X132504815Y-83406177D01*
X132488181Y-83426819D01*
X132460000Y-83455000D01*
X132460000Y-84306000D01*
X132440315Y-84373039D01*
X132387511Y-84418794D01*
X132336000Y-84430000D01*
X132210000Y-84430000D01*
X132210000Y-84556000D01*
X132190315Y-84623039D01*
X132137511Y-84668794D01*
X132086000Y-84680000D01*
X131310001Y-84680000D01*
X131310001Y-84761582D01*
X131316408Y-84832102D01*
X131316409Y-84832107D01*
X131366981Y-84994396D01*
X131454927Y-85139877D01*
X131459554Y-85145783D01*
X131457646Y-85147277D01*
X131485500Y-85198288D01*
X131480516Y-85267980D01*
X131458006Y-85303004D01*
X131459157Y-85303906D01*
X131454530Y-85309811D01*
X131366521Y-85455395D01*
X131357255Y-85485132D01*
X131318517Y-85543279D01*
X131254491Y-85571252D01*
X131185506Y-85560170D01*
X131135768Y-85517131D01*
X131112952Y-85482983D01*
X131112949Y-85482980D01*
X131112947Y-85482977D01*
X130653700Y-85023731D01*
X130620215Y-84962408D01*
X130619784Y-84960342D01*
X130612710Y-84924775D01*
X130574324Y-84832102D01*
X130556139Y-84788199D01*
X130556132Y-84788186D01*
X130474004Y-84665273D01*
X130474003Y-84665272D01*
X130393074Y-84584343D01*
X130306780Y-84498048D01*
X130306779Y-84498047D01*
X130306778Y-84498046D01*
X130233093Y-84448812D01*
X130233093Y-84448813D01*
X130183855Y-84415913D01*
X130047281Y-84359343D01*
X130047271Y-84359340D01*
X129902284Y-84330500D01*
X129902282Y-84330500D01*
X126743082Y-84330500D01*
X126743080Y-84330500D01*
X126614471Y-84356083D01*
X126604603Y-84358045D01*
X126598085Y-84359342D01*
X126598082Y-84359343D01*
X126461511Y-84415912D01*
X126461498Y-84415919D01*
X126338584Y-84498048D01*
X126338580Y-84498051D01*
X125519451Y-85317181D01*
X125458128Y-85350666D01*
X125431770Y-85353500D01*
X124646543Y-85353500D01*
X124579504Y-85333815D01*
X124547278Y-85303813D01*
X124527546Y-85277454D01*
X124527544Y-85277452D01*
X124527543Y-85277451D01*
X124412335Y-85191206D01*
X124412328Y-85191202D01*
X124277482Y-85140908D01*
X124277483Y-85140908D01*
X124217883Y-85134501D01*
X124217881Y-85134500D01*
X124217873Y-85134500D01*
X124217864Y-85134500D01*
X122422129Y-85134500D01*
X122422123Y-85134501D01*
X122362516Y-85140908D01*
X122227833Y-85191142D01*
X122158141Y-85196126D01*
X122096818Y-85162641D01*
X122063334Y-85101317D01*
X122060500Y-85074960D01*
X122060500Y-84098427D01*
X131310000Y-84098427D01*
X131310000Y-84180000D01*
X131960000Y-84180000D01*
X131960000Y-83455000D01*
X131959999Y-83454999D01*
X131953436Y-83455000D01*
X131953417Y-83455001D01*
X131882897Y-83461408D01*
X131882892Y-83461409D01*
X131720603Y-83511981D01*
X131575122Y-83599927D01*
X131454927Y-83720122D01*
X131366980Y-83865604D01*
X131316409Y-84027893D01*
X131310000Y-84098427D01*
X122060500Y-84098427D01*
X122060500Y-81918405D01*
X122070043Y-81885904D01*
X122079005Y-81853238D01*
X122079861Y-81852468D01*
X122080185Y-81851366D01*
X122105769Y-81829197D01*
X122130984Y-81806548D01*
X122132120Y-81806363D01*
X122132989Y-81805611D01*
X122166520Y-81800789D01*
X122199954Y-81795372D01*
X122201007Y-81795830D01*
X122202147Y-81795667D01*
X122232967Y-81809742D01*
X122264018Y-81823258D01*
X122265029Y-81824384D01*
X122265703Y-81824692D01*
X122287599Y-81849511D01*
X122291598Y-81855495D01*
X122348933Y-81941305D01*
X122367051Y-81968420D01*
X122367052Y-81968421D01*
X122704824Y-82306192D01*
X122738309Y-82367515D01*
X122739616Y-82413271D01*
X122724500Y-82508707D01*
X122724500Y-82721286D01*
X122748796Y-82874689D01*
X122757754Y-82931243D01*
X122817951Y-83116510D01*
X122823444Y-83133414D01*
X122919951Y-83322820D01*
X123044890Y-83494786D01*
X123195213Y-83645109D01*
X123367179Y-83770048D01*
X123367181Y-83770049D01*
X123367184Y-83770051D01*
X123556588Y-83866557D01*
X123758757Y-83932246D01*
X123968713Y-83965500D01*
X123968714Y-83965500D01*
X124181286Y-83965500D01*
X124181287Y-83965500D01*
X124391243Y-83932246D01*
X124593412Y-83866557D01*
X124782816Y-83770051D01*
X124869138Y-83707335D01*
X124954786Y-83645109D01*
X124954788Y-83645106D01*
X124954792Y-83645104D01*
X125105104Y-83494792D01*
X125105106Y-83494788D01*
X125105109Y-83494786D01*
X125230048Y-83322820D01*
X125230047Y-83322820D01*
X125230051Y-83322816D01*
X125234514Y-83314054D01*
X125282488Y-83263259D01*
X125350308Y-83246463D01*
X125416444Y-83268999D01*
X125455486Y-83314056D01*
X125459951Y-83322820D01*
X125584890Y-83494786D01*
X125735213Y-83645109D01*
X125907179Y-83770048D01*
X125907181Y-83770049D01*
X125907184Y-83770051D01*
X126096588Y-83866557D01*
X126298757Y-83932246D01*
X126508713Y-83965500D01*
X126508714Y-83965500D01*
X126721286Y-83965500D01*
X126721287Y-83965500D01*
X126931243Y-83932246D01*
X127133412Y-83866557D01*
X127322816Y-83770051D01*
X127494792Y-83645104D01*
X127608329Y-83531566D01*
X127669648Y-83498084D01*
X127739340Y-83503068D01*
X127795274Y-83544939D01*
X127812189Y-83575917D01*
X127861202Y-83707328D01*
X127861206Y-83707335D01*
X127947452Y-83822544D01*
X127947455Y-83822547D01*
X128062664Y-83908793D01*
X128062671Y-83908797D01*
X128197517Y-83959091D01*
X128197516Y-83959091D01*
X128204444Y-83959835D01*
X128257127Y-83965500D01*
X130052872Y-83965499D01*
X130112483Y-83959091D01*
X130247331Y-83908796D01*
X130362546Y-83822546D01*
X130448796Y-83707331D01*
X130499091Y-83572483D01*
X130505500Y-83512873D01*
X130505499Y-81842087D01*
X130525184Y-81775049D01*
X130577987Y-81729294D01*
X130629499Y-81718088D01*
X131276431Y-81718088D01*
X131336853Y-81706069D01*
X131397276Y-81694051D01*
X131449068Y-81672598D01*
X131511110Y-81646900D01*
X131566459Y-81609916D01*
X131566460Y-81609916D01*
X131599264Y-81587996D01*
X131613557Y-81578446D01*
X131700682Y-81491321D01*
X131700682Y-81491319D01*
X131710890Y-81481112D01*
X131710891Y-81481109D01*
X132164373Y-81027628D01*
X132179637Y-81019293D01*
X132191849Y-81006906D01*
X132209666Y-81002896D01*
X132225695Y-80994144D01*
X132243044Y-80995384D01*
X132260014Y-80991566D01*
X132277169Y-80997825D01*
G37*
%TD.AperFunction*%
%TA.AperFunction,Conductor*%
G36*
X126168039Y-66755185D02*
G01*
X126213794Y-66807989D01*
X126225000Y-66859500D01*
X126225000Y-69075000D01*
X128725000Y-69075000D01*
X128725000Y-66859500D01*
X128744685Y-66792461D01*
X128797489Y-66746706D01*
X128849000Y-66735500D01*
X130350500Y-66735500D01*
X130417539Y-66755185D01*
X130463294Y-66807989D01*
X130474500Y-66859500D01*
X130474500Y-71912870D01*
X130474501Y-71912876D01*
X130480908Y-71972483D01*
X130531202Y-72107328D01*
X130531206Y-72107335D01*
X130617452Y-72222544D01*
X130617455Y-72222547D01*
X130732664Y-72308793D01*
X130732671Y-72308797D01*
X130867517Y-72359091D01*
X130867516Y-72359091D01*
X130874444Y-72359835D01*
X130927127Y-72365500D01*
X132200308Y-72365499D01*
X132267347Y-72385184D01*
X132313102Y-72437987D01*
X132314869Y-72442046D01*
X132340604Y-72504175D01*
X132340609Y-72504185D01*
X132428210Y-72635288D01*
X132428213Y-72635292D01*
X132539707Y-72746786D01*
X132539711Y-72746789D01*
X132670814Y-72834390D01*
X132670827Y-72834397D01*
X132816498Y-72894735D01*
X132816503Y-72894737D01*
X132971153Y-72925499D01*
X132971156Y-72925500D01*
X132971158Y-72925500D01*
X133128844Y-72925500D01*
X133128845Y-72925499D01*
X133283497Y-72894737D01*
X133429179Y-72834394D01*
X133560289Y-72746789D01*
X133671789Y-72635289D01*
X133759394Y-72504179D01*
X133819737Y-72358497D01*
X133850500Y-72203842D01*
X133850500Y-72046158D01*
X133850500Y-72046155D01*
X133850499Y-72046153D01*
X133823988Y-71912876D01*
X133823982Y-71912844D01*
X134725000Y-71912844D01*
X134731401Y-71972372D01*
X134731403Y-71972379D01*
X134781645Y-72107086D01*
X134781649Y-72107093D01*
X134867809Y-72222187D01*
X134867812Y-72222190D01*
X134982906Y-72308350D01*
X134982913Y-72308354D01*
X135117620Y-72358596D01*
X135117627Y-72358598D01*
X135177155Y-72364999D01*
X135177172Y-72365000D01*
X135725000Y-72365000D01*
X135725000Y-69575000D01*
X134725000Y-69575000D01*
X134725000Y-71912844D01*
X133823982Y-71912844D01*
X133819737Y-71891503D01*
X133819735Y-71891498D01*
X133759397Y-71745827D01*
X133759390Y-71745814D01*
X133671789Y-71614711D01*
X133671786Y-71614707D01*
X133560292Y-71503213D01*
X133560288Y-71503210D01*
X133429185Y-71415609D01*
X133429172Y-71415602D01*
X133283501Y-71355264D01*
X133283489Y-71355261D01*
X133128845Y-71324500D01*
X133128842Y-71324500D01*
X133114742Y-71324500D01*
X133085301Y-71315855D01*
X133055315Y-71309332D01*
X133050299Y-71305577D01*
X133047703Y-71304815D01*
X133027061Y-71288181D01*
X133011818Y-71272938D01*
X132978333Y-71211615D01*
X132975499Y-71185257D01*
X132975499Y-66859500D01*
X132995184Y-66792461D01*
X133047988Y-66746706D01*
X133099499Y-66735500D01*
X134601000Y-66735500D01*
X134668039Y-66755185D01*
X134713794Y-66807989D01*
X134725000Y-66859500D01*
X134725000Y-69075000D01*
X135851000Y-69075000D01*
X135918039Y-69094685D01*
X135963794Y-69147489D01*
X135975000Y-69199000D01*
X135975000Y-69325000D01*
X136101000Y-69325000D01*
X136168039Y-69344685D01*
X136213794Y-69397489D01*
X136225000Y-69449000D01*
X136225000Y-72365000D01*
X136772828Y-72365000D01*
X136772844Y-72364999D01*
X136832372Y-72358598D01*
X136832379Y-72358596D01*
X136967086Y-72308354D01*
X136967089Y-72308352D01*
X137088055Y-72217796D01*
X137153519Y-72193378D01*
X137221792Y-72208229D01*
X137271198Y-72257633D01*
X137286367Y-72317131D01*
X137279512Y-84557318D01*
X137279509Y-84562979D01*
X137279502Y-84575648D01*
X137279500Y-84575651D01*
X137279500Y-84580708D01*
X137279500Y-84580841D01*
X137279484Y-84608916D01*
X137279500Y-84608995D01*
X137279500Y-85074960D01*
X137259815Y-85141999D01*
X137207011Y-85187754D01*
X137137853Y-85197698D01*
X137112167Y-85191142D01*
X136977482Y-85140908D01*
X136977483Y-85140908D01*
X136917883Y-85134501D01*
X136917881Y-85134500D01*
X136917873Y-85134500D01*
X136917865Y-85134500D01*
X136509258Y-85134500D01*
X136442219Y-85114815D01*
X136396464Y-85062011D01*
X136386520Y-84992853D01*
X136415545Y-84929297D01*
X136444161Y-84904962D01*
X136577728Y-84822575D01*
X136577732Y-84822572D01*
X136697572Y-84702732D01*
X136697575Y-84702728D01*
X136786542Y-84558492D01*
X136786547Y-84558481D01*
X136839855Y-84397606D01*
X136849999Y-84298322D01*
X136850000Y-84298309D01*
X136850000Y-84275000D01*
X135999000Y-84275000D01*
X135931961Y-84255315D01*
X135886206Y-84202511D01*
X135875000Y-84151000D01*
X135875000Y-83899000D01*
X135894685Y-83831961D01*
X135947489Y-83786206D01*
X135999000Y-83775000D01*
X136849999Y-83775000D01*
X136849999Y-83751692D01*
X136849998Y-83751677D01*
X136839855Y-83652392D01*
X136786547Y-83491518D01*
X136786542Y-83491507D01*
X136697575Y-83347271D01*
X136697572Y-83347267D01*
X136688339Y-83338034D01*
X136654854Y-83276711D01*
X136659838Y-83207019D01*
X136688343Y-83162668D01*
X136697968Y-83153044D01*
X136787003Y-83008697D01*
X136840349Y-82847708D01*
X136850500Y-82748345D01*
X136850499Y-82201656D01*
X136840349Y-82102292D01*
X136787003Y-81941303D01*
X136786999Y-81941297D01*
X136786998Y-81941294D01*
X136697970Y-81796959D01*
X136697967Y-81796955D01*
X136578044Y-81677032D01*
X136578040Y-81677029D01*
X136433705Y-81588001D01*
X136433699Y-81587998D01*
X136433697Y-81587997D01*
X136361031Y-81563918D01*
X136272709Y-81534651D01*
X136272703Y-81534650D01*
X136231174Y-81530407D01*
X136166483Y-81504009D01*
X136156098Y-81494730D01*
X135905618Y-81244251D01*
X135872133Y-81182928D01*
X135873845Y-81134237D01*
X135871460Y-81133802D01*
X135872597Y-81127571D01*
X135872598Y-81127569D01*
X135875500Y-81090694D01*
X135875500Y-79934306D01*
X135872598Y-79897431D01*
X135867183Y-79878794D01*
X135826745Y-79739606D01*
X135826744Y-79739603D01*
X135826744Y-79739602D01*
X135743081Y-79598135D01*
X135743079Y-79598133D01*
X135743076Y-79598129D01*
X135626870Y-79481923D01*
X135626859Y-79481914D01*
X135626545Y-79481729D01*
X135626349Y-79481519D01*
X135620702Y-79477139D01*
X135621408Y-79476227D01*
X135578863Y-79430658D01*
X135566361Y-79361916D01*
X135593009Y-79297328D01*
X135620925Y-79273141D01*
X135620705Y-79272858D01*
X135625932Y-79268803D01*
X135626554Y-79268264D01*
X135626865Y-79268081D01*
X135743081Y-79151865D01*
X135826744Y-79010398D01*
X135872598Y-78852569D01*
X135875500Y-78815694D01*
X135875500Y-77659306D01*
X135872598Y-77622431D01*
X135826744Y-77464602D01*
X135743081Y-77323135D01*
X135743079Y-77323133D01*
X135743076Y-77323129D01*
X135622807Y-77202860D01*
X135589322Y-77141537D01*
X135594306Y-77071845D01*
X135622807Y-77027498D01*
X135672572Y-76977732D01*
X135672575Y-76977728D01*
X135761542Y-76833492D01*
X135761547Y-76833481D01*
X135814855Y-76672606D01*
X135824999Y-76573322D01*
X135825000Y-76573309D01*
X135825000Y-76525000D01*
X134999000Y-76525000D01*
X134931961Y-76505315D01*
X134886206Y-76452511D01*
X134875000Y-76401000D01*
X134875000Y-76275000D01*
X134749000Y-76275000D01*
X134681961Y-76255315D01*
X134636206Y-76202511D01*
X134625000Y-76151000D01*
X134625000Y-76025000D01*
X135125000Y-76025000D01*
X135824999Y-76025000D01*
X135824999Y-75976692D01*
X135824998Y-75976677D01*
X135814855Y-75877392D01*
X135761547Y-75716518D01*
X135761542Y-75716507D01*
X135672575Y-75572271D01*
X135672572Y-75572267D01*
X135552732Y-75452427D01*
X135552728Y-75452424D01*
X135408492Y-75363457D01*
X135408481Y-75363452D01*
X135247606Y-75310144D01*
X135148322Y-75300000D01*
X135125000Y-75300000D01*
X135125000Y-76025000D01*
X134625000Y-76025000D01*
X134625000Y-75299999D01*
X134601693Y-75300000D01*
X134601674Y-75300001D01*
X134502392Y-75310144D01*
X134341518Y-75363452D01*
X134341507Y-75363457D01*
X134197271Y-75452424D01*
X134197265Y-75452428D01*
X134188031Y-75461663D01*
X134126707Y-75495146D01*
X134057015Y-75490159D01*
X134012672Y-75461660D01*
X134003044Y-75452032D01*
X134003040Y-75452029D01*
X133858705Y-75363001D01*
X133858699Y-75362998D01*
X133858697Y-75362997D01*
X133846801Y-75359055D01*
X133697709Y-75309651D01*
X133598352Y-75299500D01*
X133598345Y-75299500D01*
X133352229Y-75299500D01*
X133285190Y-75279815D01*
X133264548Y-75263181D01*
X132118421Y-74117052D01*
X132118420Y-74117051D01*
X132060289Y-74078210D01*
X132018758Y-74050460D01*
X132018758Y-74050459D01*
X131995495Y-74034916D01*
X131995490Y-74034913D01*
X131858917Y-73978343D01*
X131858907Y-73978340D01*
X131713920Y-73949500D01*
X131713918Y-73949500D01*
X126155604Y-73949500D01*
X126108155Y-73940062D01*
X126084497Y-73930263D01*
X126084493Y-73930262D01*
X126084488Y-73930260D01*
X125929845Y-73899500D01*
X125929842Y-73899500D01*
X125772158Y-73899500D01*
X125772155Y-73899500D01*
X125617510Y-73930261D01*
X125617498Y-73930264D01*
X125471827Y-73990602D01*
X125471814Y-73990609D01*
X125340711Y-74078210D01*
X125340707Y-74078213D01*
X125229213Y-74189707D01*
X125229210Y-74189711D01*
X125141609Y-74320814D01*
X125141602Y-74320827D01*
X125081264Y-74466498D01*
X125081261Y-74466510D01*
X125050500Y-74621153D01*
X125050500Y-74778846D01*
X125082451Y-74939472D01*
X125080111Y-74939937D01*
X125080639Y-74999259D01*
X125043389Y-75058371D01*
X124980094Y-75087960D01*
X124941959Y-75087857D01*
X124826055Y-75069500D01*
X124633945Y-75069500D01*
X124572835Y-75079179D01*
X124444197Y-75099553D01*
X124261493Y-75158916D01*
X124090318Y-75246135D01*
X124016180Y-75300000D01*
X123934898Y-75359055D01*
X123934896Y-75359057D01*
X123934895Y-75359057D01*
X123799057Y-75494895D01*
X123799057Y-75494896D01*
X123799055Y-75494898D01*
X123785522Y-75513525D01*
X123686135Y-75650318D01*
X123598916Y-75821493D01*
X123539553Y-76004197D01*
X123509500Y-76193945D01*
X123509500Y-76386054D01*
X123539553Y-76575802D01*
X123598916Y-76758506D01*
X123598918Y-76758509D01*
X123686135Y-76929681D01*
X123799055Y-77085102D01*
X123934898Y-77220945D01*
X124090319Y-77333865D01*
X124261491Y-77421082D01*
X124261493Y-77421083D01*
X124352845Y-77450764D01*
X124444199Y-77480447D01*
X124633945Y-77510500D01*
X124633946Y-77510500D01*
X124826054Y-77510500D01*
X124826055Y-77510500D01*
X125015801Y-77480447D01*
X125198509Y-77421082D01*
X125369681Y-77333865D01*
X125525102Y-77220945D01*
X125660945Y-77085102D01*
X125773865Y-76929681D01*
X125861082Y-76758509D01*
X125861084Y-76758504D01*
X125882069Y-76693919D01*
X125921506Y-76636243D01*
X125985864Y-76609044D01*
X126054711Y-76620958D01*
X126106187Y-76668202D01*
X126117931Y-76693919D01*
X126138915Y-76758504D01*
X126138918Y-76758509D01*
X126226135Y-76929681D01*
X126339055Y-77085102D01*
X126474898Y-77220945D01*
X126630319Y-77333865D01*
X126801491Y-77421082D01*
X126801493Y-77421083D01*
X126892845Y-77450764D01*
X126984199Y-77480447D01*
X127173945Y-77510500D01*
X127173946Y-77510500D01*
X127366054Y-77510500D01*
X127366055Y-77510500D01*
X127555801Y-77480447D01*
X127738509Y-77421082D01*
X127909681Y-77333865D01*
X128065102Y-77220945D01*
X128200945Y-77085102D01*
X128313865Y-76929681D01*
X128401082Y-76758509D01*
X128401084Y-76758504D01*
X128422069Y-76693919D01*
X128461506Y-76636243D01*
X128525864Y-76609044D01*
X128594711Y-76620958D01*
X128646187Y-76668202D01*
X128657931Y-76693919D01*
X128678915Y-76758504D01*
X128678918Y-76758509D01*
X128766135Y-76929681D01*
X128879055Y-77085102D01*
X129014898Y-77220945D01*
X129170319Y-77333865D01*
X129341491Y-77421082D01*
X129341493Y-77421083D01*
X129432845Y-77450764D01*
X129524199Y-77480447D01*
X129713945Y-77510500D01*
X129713946Y-77510500D01*
X129906054Y-77510500D01*
X129906055Y-77510500D01*
X130095801Y-77480447D01*
X130278509Y-77421082D01*
X130449681Y-77333865D01*
X130605102Y-77220945D01*
X130740945Y-77085102D01*
X130853865Y-76929681D01*
X130941082Y-76758509D01*
X131000447Y-76575801D01*
X131030500Y-76386055D01*
X131030500Y-76193945D01*
X131000447Y-76004199D01*
X130966104Y-75898502D01*
X130941083Y-75821493D01*
X130887595Y-75716518D01*
X130853865Y-75650319D01*
X130851733Y-75647385D01*
X130828254Y-75581579D01*
X130844079Y-75513525D01*
X130894185Y-75464830D01*
X130952052Y-75450500D01*
X131277770Y-75450500D01*
X131344809Y-75470185D01*
X131365451Y-75486819D01*
X132338181Y-76459549D01*
X132371666Y-76520872D01*
X132374500Y-76547226D01*
X132374500Y-76573334D01*
X132374501Y-76573356D01*
X132384650Y-76672707D01*
X132384651Y-76672710D01*
X132437996Y-76833694D01*
X132438001Y-76833705D01*
X132527029Y-76978040D01*
X132527032Y-76978044D01*
X132543181Y-76994193D01*
X132557884Y-77021120D01*
X132574477Y-77046939D01*
X132575368Y-77053139D01*
X132576666Y-77055516D01*
X132579500Y-77081874D01*
X132579500Y-77199191D01*
X132559815Y-77266230D01*
X132543181Y-77286872D01*
X132506923Y-77323129D01*
X132506917Y-77323137D01*
X132423255Y-77464603D01*
X132423254Y-77464606D01*
X132377402Y-77622426D01*
X132377401Y-77622432D01*
X132374500Y-77659298D01*
X132374500Y-78815701D01*
X132377401Y-78852567D01*
X132377402Y-78852573D01*
X132400357Y-78931581D01*
X132400319Y-78944874D01*
X132404965Y-78957330D01*
X132400221Y-78979135D01*
X132400158Y-79001450D01*
X132392608Y-79014133D01*
X132390113Y-79025603D01*
X132368962Y-79053857D01*
X132217218Y-79205601D01*
X132155895Y-79239086D01*
X132086203Y-79234102D01*
X132030270Y-79192230D01*
X132005853Y-79126766D01*
X132007921Y-79093723D01*
X132009499Y-79085791D01*
X132009499Y-78928104D01*
X132009498Y-78928102D01*
X131987140Y-78815701D01*
X131978736Y-78773452D01*
X131925735Y-78645495D01*
X131918396Y-78627776D01*
X131918389Y-78627763D01*
X131830788Y-78496660D01*
X131830785Y-78496656D01*
X131719291Y-78385162D01*
X131719287Y-78385159D01*
X131588184Y-78297558D01*
X131588171Y-78297551D01*
X131442500Y-78237213D01*
X131442488Y-78237210D01*
X131287844Y-78206449D01*
X131287841Y-78206449D01*
X131130157Y-78206449D01*
X131130154Y-78206449D01*
X130975509Y-78237210D01*
X130975497Y-78237213D01*
X130829826Y-78297551D01*
X130829813Y-78297558D01*
X130698710Y-78385159D01*
X130698706Y-78385162D01*
X130587212Y-78496656D01*
X130587209Y-78496660D01*
X130499608Y-78627763D01*
X130499603Y-78627773D01*
X130439808Y-78772132D01*
X130435176Y-78779064D01*
X130434080Y-78784104D01*
X130412930Y-78812359D01*
X130347111Y-78878180D01*
X130285788Y-78911666D01*
X130259428Y-78914500D01*
X130053384Y-78914500D01*
X130034145Y-78916248D01*
X129982807Y-78920913D01*
X129820393Y-78971522D01*
X129674811Y-79059530D01*
X129674810Y-79059531D01*
X129572327Y-79162015D01*
X129511004Y-79195500D01*
X129441312Y-79190516D01*
X129396965Y-79162015D01*
X129294877Y-79059927D01*
X129149395Y-78971980D01*
X129149396Y-78971980D01*
X128987105Y-78921409D01*
X128987106Y-78921409D01*
X128916572Y-78915000D01*
X128910000Y-78915000D01*
X128910000Y-79766000D01*
X128890315Y-79833039D01*
X128837511Y-79878794D01*
X128786000Y-79890000D01*
X128660000Y-79890000D01*
X128660000Y-80016000D01*
X128640315Y-80083039D01*
X128587511Y-80128794D01*
X128536000Y-80140000D01*
X127760001Y-80140000D01*
X127760001Y-80221582D01*
X127766408Y-80292101D01*
X127770800Y-80306195D01*
X127771952Y-80376055D01*
X127735153Y-80435448D01*
X127672085Y-80465518D01*
X127652415Y-80467088D01*
X125665150Y-80467088D01*
X125659023Y-80467087D01*
X125659019Y-80467087D01*
X125617101Y-80467087D01*
X125550062Y-80447401D01*
X125516008Y-80408099D01*
X125504310Y-80394598D01*
X125504309Y-80394596D01*
X125504305Y-80394571D01*
X125493613Y-80331866D01*
X125500000Y-80261572D01*
X125500000Y-80180000D01*
X124850000Y-80180000D01*
X124850000Y-80904046D01*
X124830315Y-80971085D01*
X124813681Y-80991727D01*
X124532837Y-81272570D01*
X124471514Y-81306055D01*
X124406842Y-81302821D01*
X124391246Y-81297754D01*
X124220192Y-81270662D01*
X124181287Y-81264500D01*
X123968713Y-81264500D01*
X123968708Y-81264500D01*
X123873271Y-81279616D01*
X123867845Y-81278914D01*
X123862719Y-81280827D01*
X123833568Y-81274485D01*
X123803978Y-81270662D01*
X123798372Y-81266829D01*
X123794446Y-81265975D01*
X123766192Y-81244824D01*
X123736819Y-81215451D01*
X123703334Y-81154128D01*
X123700500Y-81127770D01*
X123700500Y-80794812D01*
X123720185Y-80727773D01*
X123772989Y-80682018D01*
X123842147Y-80672074D01*
X123905703Y-80701099D01*
X123912181Y-80707131D01*
X123965122Y-80760072D01*
X124110604Y-80848019D01*
X124110603Y-80848019D01*
X124272894Y-80898590D01*
X124272893Y-80898590D01*
X124343408Y-80904998D01*
X124343426Y-80904999D01*
X124349999Y-80904998D01*
X124350000Y-80904998D01*
X124350000Y-79680000D01*
X124850000Y-79680000D01*
X125499999Y-79680000D01*
X125499999Y-79598416D01*
X125499998Y-79598413D01*
X125497130Y-79566833D01*
X125496366Y-79558427D01*
X127760000Y-79558427D01*
X127760000Y-79640000D01*
X128410000Y-79640000D01*
X128410000Y-78915000D01*
X128409999Y-78914999D01*
X128403436Y-78915000D01*
X128403417Y-78915001D01*
X128332897Y-78921408D01*
X128332892Y-78921409D01*
X128170603Y-78971981D01*
X128025122Y-79059927D01*
X127904927Y-79180122D01*
X127816980Y-79325604D01*
X127766409Y-79487893D01*
X127760000Y-79558427D01*
X125496366Y-79558427D01*
X125493591Y-79527897D01*
X125493590Y-79527892D01*
X125443018Y-79365603D01*
X125355072Y-79220122D01*
X125234877Y-79099927D01*
X125089395Y-79011980D01*
X125089396Y-79011980D01*
X124927105Y-78961409D01*
X124927106Y-78961409D01*
X124856572Y-78955000D01*
X124850000Y-78955000D01*
X124850000Y-79680000D01*
X124350000Y-79680000D01*
X124350000Y-78955000D01*
X124349999Y-78954999D01*
X124343436Y-78955000D01*
X124343417Y-78955001D01*
X124272897Y-78961408D01*
X124272892Y-78961409D01*
X124110603Y-79011981D01*
X123965122Y-79099927D01*
X123965121Y-79099928D01*
X123863035Y-79202015D01*
X123801712Y-79235500D01*
X123732020Y-79230516D01*
X123687673Y-79202015D01*
X123585188Y-79099530D01*
X123519020Y-79059530D01*
X123439606Y-79011522D01*
X123277196Y-78960914D01*
X123277194Y-78960913D01*
X123277192Y-78960913D01*
X123227778Y-78956423D01*
X123206616Y-78954500D01*
X122693384Y-78954500D01*
X122674145Y-78956248D01*
X122622807Y-78960913D01*
X122460393Y-79011522D01*
X122314811Y-79099530D01*
X122314810Y-79099531D01*
X122272181Y-79142161D01*
X122210858Y-79175646D01*
X122141166Y-79170662D01*
X122085233Y-79128790D01*
X122060816Y-79063326D01*
X122060500Y-79054480D01*
X122060500Y-71912844D01*
X126225000Y-71912844D01*
X126231401Y-71972372D01*
X126231403Y-71972379D01*
X126281645Y-72107086D01*
X126281649Y-72107093D01*
X126367809Y-72222187D01*
X126367812Y-72222190D01*
X126482906Y-72308350D01*
X126482913Y-72308354D01*
X126617620Y-72358596D01*
X126617627Y-72358598D01*
X126677155Y-72364999D01*
X126677172Y-72365000D01*
X127225000Y-72365000D01*
X127725000Y-72365000D01*
X128272828Y-72365000D01*
X128272844Y-72364999D01*
X128332372Y-72358598D01*
X128332379Y-72358596D01*
X128467086Y-72308354D01*
X128467093Y-72308350D01*
X128582187Y-72222190D01*
X128582190Y-72222187D01*
X128668350Y-72107093D01*
X128668354Y-72107086D01*
X128718596Y-71972379D01*
X128718598Y-71972372D01*
X128724999Y-71912844D01*
X128725000Y-71912827D01*
X128725000Y-69575000D01*
X127725000Y-69575000D01*
X127725000Y-72365000D01*
X127225000Y-72365000D01*
X127225000Y-69575000D01*
X126225000Y-69575000D01*
X126225000Y-71912844D01*
X122060500Y-71912844D01*
X122060500Y-71354834D01*
X122080185Y-71287795D01*
X122132989Y-71242040D01*
X122202147Y-71232096D01*
X122265703Y-71261121D01*
X122290039Y-71289738D01*
X122307682Y-71318343D01*
X122431654Y-71442315D01*
X122580875Y-71534356D01*
X122580880Y-71534358D01*
X122747302Y-71589505D01*
X122747309Y-71589506D01*
X122850019Y-71599999D01*
X123399999Y-71599999D01*
X123900000Y-71599999D01*
X124449972Y-71599999D01*
X124449986Y-71599998D01*
X124552697Y-71589505D01*
X124719119Y-71534358D01*
X124719124Y-71534356D01*
X124868345Y-71442315D01*
X124992315Y-71318345D01*
X125084356Y-71169124D01*
X125084358Y-71169119D01*
X125139505Y-71002697D01*
X125139506Y-71002690D01*
X125149999Y-70899986D01*
X125150000Y-70899973D01*
X125150000Y-69450000D01*
X123900000Y-69450000D01*
X123900000Y-71599999D01*
X123399999Y-71599999D01*
X123400000Y-71599998D01*
X123400000Y-69324000D01*
X123419685Y-69256961D01*
X123472489Y-69211206D01*
X123524000Y-69200000D01*
X123650000Y-69200000D01*
X123650000Y-69074000D01*
X123669685Y-69006961D01*
X123722489Y-68961206D01*
X123774000Y-68950000D01*
X125149999Y-68950000D01*
X125149999Y-67500028D01*
X125149998Y-67500013D01*
X125139505Y-67397302D01*
X125084358Y-67230880D01*
X125084356Y-67230875D01*
X124992315Y-67081654D01*
X124868346Y-66957685D01*
X124867185Y-66956767D01*
X124866595Y-66955934D01*
X124863237Y-66952576D01*
X124863810Y-66952002D01*
X124826808Y-66899746D01*
X124823668Y-66829947D01*
X124858763Y-66769530D01*
X124920951Y-66737679D01*
X124944095Y-66735500D01*
X126101000Y-66735500D01*
X126168039Y-66755185D01*
G37*
%TD.AperFunction*%
%TD*%
M02*
