M48
; DRILL file {KiCad 9.0.2} date 2025-10-14T11:54:41+0200
; FORMAT={-:-/ absolute / inch / decimal}
; #@! TF.CreationDate,2025-10-14T11:54:41+02:00
; #@! TF.GenerationSoftware,Kicad,Pcbnew,9.0.2
; #@! TF.FileFunction,Plated,1,4,PTH
FMAT,2
INCH
; #@! TA.AperFunction,Plated,PTH,ComponentDrill
T1C0.0079
; #@! TA.AperFunction,Plated,PTH,ViaDrill
T2C0.0138
; #@! TA.AperFunction,Plated,PTH,ComponentDrill
T3C0.0315
; #@! TA.AperFunction,Plated,PTH,ComponentDrill
T4C0.0394
%
G90
G05
T1
X5.2894Y-4.0658
T2
X4.8665Y-2.8622
X4.8665Y-3.06
X4.8927Y-4.1978
X4.9094Y-3.8573
X4.9213Y-3.6807
X4.9341Y-4.1988
X4.9459Y-2.7283
X4.9548Y-2.9409
X4.9724Y-3.6654
X4.9744Y-4.1988
X4.9988Y-3.5831
X5.0071Y-3.0622
X5.0224Y-3.7815
X5.0332Y-2.8655
X5.0341Y-3.2963
X5.0364Y-3.5433
X5.049Y-3.3792
X5.0502Y-4.0858
X5.0522Y-3.8957
X5.0537Y-3.6502
X5.0581Y-3.7598
X5.0663Y-4.0486
X5.0793Y-3.3792
X5.0837Y-3.7933
X5.0978Y-3.7683
X5.1138Y-3.3613
X5.124Y-3.625
X5.1246Y-3.6531
X5.128Y-3.7756
X5.1657Y-3.1105
X5.1713Y-3.2352
X5.1841Y-3.7116
X5.1929Y-2.8957
X5.1933Y-3.8972
X5.2071Y-3.7421
X5.2136Y-3.2805
X5.2382Y-2.8396
X5.249Y-3.2815
X5.2864Y-3.2805
X5.2866Y-3.0384
X5.2913Y-4.1732
X5.2924Y-3.9242
X5.3179Y-3.2087
X5.3189Y-3.9508
X5.3219Y-3.31
X5.3219Y-4.2264
X5.3258Y-4.1526
X5.3642Y-2.8691
X5.372Y-3.002
X5.372Y-3.064
X5.372Y-3.1201
X5.373Y-3.1831
X5.3748Y-4.1343
X5.3848Y-4.2156
X5.3902Y-4.076
T3
X4.9106Y-3.0035
X5.0106Y-3.0035
X5.1106Y-3.0035
T4
X4.8551Y-3.4049
X4.8551Y-3.5049
X4.8551Y-3.6049
X4.8551Y-3.7049
X4.8551Y-3.8049
X4.8551Y-4.3799
X4.8787Y-4.2677
X4.8848Y-3.2526
X4.9551Y-4.3799
X4.9787Y-4.2677
X4.9848Y-3.2526
X5.0551Y-4.3799
X5.0787Y-4.2677
X5.0848Y-3.2526
X5.1551Y-4.3799
X5.2215Y-4.2815
X5.2551Y-4.3799
X5.2583Y-3.5563
X5.2583Y-3.6563
X5.2583Y-3.7563
X5.3551Y-3.4049
X5.3551Y-3.5049
X5.3551Y-3.6049
X5.3551Y-3.7049
X5.3551Y-3.8049
X5.3551Y-4.3799
M30
