%TF.GenerationSoftware,KiCad,Pcbnew,9.0.2*%
%TF.CreationDate,2025-10-14T11:48:54+02:00*%
%TF.ProjectId,main-board,6d61696e-2d62-46f6-9172-642e6b696361,rev?*%
%TF.SameCoordinates,Original*%
%TF.FileFunction,Legend,Bot*%
%TF.FilePolarity,Positive*%
%FSLAX46Y46*%
G04 Gerber Fmt 4.6, Leading zero omitted, Abs format (unit mm)*
G04 Created by KiCad (PCBNEW 9.0.2) date 2025-10-14 11:48:54*
%MOMM*%
%LPD*%
G01*
G04 APERTURE LIST*
%ADD10R,1.700000X1.700000*%
%ADD11C,1.700000*%
%ADD12C,10.160000*%
%ADD13C,2.000000*%
%ADD14R,4.600000X2.000000*%
%ADD15O,4.200000X2.000000*%
%ADD16O,2.000000X4.200000*%
%ADD17C,2.050000*%
%ADD18C,2.250000*%
%ADD19C,1.440000*%
%ADD20C,0.650000*%
%ADD21O,1.000000X2.100000*%
%ADD22O,1.000000X1.800000*%
G04 APERTURE END LIST*
%LPC*%
D10*
%TO.C,CG10*%
X240645000Y-94270000D03*
D11*
X238105000Y-94270000D03*
X235565000Y-94270000D03*
X233025000Y-94270000D03*
X230485000Y-94270000D03*
D10*
X240645000Y-106970000D03*
D11*
X238105000Y-106970000D03*
X235565000Y-106970000D03*
X233025000Y-106970000D03*
X230485000Y-106970000D03*
D10*
X215880000Y-94270000D03*
D11*
X215880000Y-96810000D03*
X215880000Y-99350000D03*
X215880000Y-101890000D03*
X215880000Y-104430000D03*
X215880000Y-106970000D03*
D12*
X224135000Y-100620000D03*
%TD*%
D10*
%TO.C,CG4*%
X110855000Y-90460000D03*
D11*
X113395000Y-90460000D03*
X115935000Y-90460000D03*
X118475000Y-90460000D03*
X121015000Y-90460000D03*
D10*
X110855000Y-77760000D03*
D11*
X113395000Y-77760000D03*
X115935000Y-77760000D03*
X118475000Y-77760000D03*
X121015000Y-77760000D03*
D10*
X135620000Y-90460000D03*
D11*
X135620000Y-87920000D03*
X135620000Y-85380000D03*
X135620000Y-82840000D03*
X135620000Y-80300000D03*
X135620000Y-77760000D03*
D12*
X127365000Y-84110000D03*
%TD*%
D10*
%TO.C,CG5*%
X110855000Y-73825000D03*
D11*
X113395000Y-73825000D03*
X115935000Y-73825000D03*
X118475000Y-73825000D03*
X121015000Y-73825000D03*
D10*
X110855000Y-61125000D03*
D11*
X113395000Y-61125000D03*
X115935000Y-61125000D03*
X118475000Y-61125000D03*
X121015000Y-61125000D03*
D10*
X135620000Y-73825000D03*
D11*
X135620000Y-71285000D03*
X135620000Y-68745000D03*
X135620000Y-66205000D03*
X135620000Y-63665000D03*
X135620000Y-61125000D03*
D12*
X127365000Y-67475000D03*
%TD*%
D10*
%TO.C,CG6*%
X110855000Y-57315000D03*
D11*
X113395000Y-57315000D03*
X115935000Y-57315000D03*
X118475000Y-57315000D03*
X121015000Y-57315000D03*
D10*
X110855000Y-44615000D03*
D11*
X113395000Y-44615000D03*
X115935000Y-44615000D03*
X118475000Y-44615000D03*
X121015000Y-44615000D03*
D10*
X135620000Y-57315000D03*
D11*
X135620000Y-54775000D03*
X135620000Y-52235000D03*
X135620000Y-49695000D03*
X135620000Y-47155000D03*
X135620000Y-44615000D03*
D12*
X127365000Y-50965000D03*
%TD*%
D10*
%TO.C,CG11*%
X240645000Y-110780000D03*
D11*
X238105000Y-110780000D03*
X235565000Y-110780000D03*
X233025000Y-110780000D03*
X230485000Y-110780000D03*
D10*
X240645000Y-123480000D03*
D11*
X238105000Y-123480000D03*
X235565000Y-123480000D03*
X233025000Y-123480000D03*
X230485000Y-123480000D03*
D10*
X215880000Y-110780000D03*
D11*
X215880000Y-113320000D03*
X215880000Y-115860000D03*
X215880000Y-118400000D03*
X215880000Y-120940000D03*
X215880000Y-123480000D03*
D12*
X224135000Y-117130000D03*
%TD*%
D10*
%TO.C,CG7*%
X240645000Y-44740000D03*
D11*
X238105000Y-44740000D03*
X235565000Y-44740000D03*
X233025000Y-44740000D03*
X230485000Y-44740000D03*
D10*
X240645000Y-57440000D03*
D11*
X238105000Y-57440000D03*
X235565000Y-57440000D03*
X233025000Y-57440000D03*
X230485000Y-57440000D03*
D10*
X215880000Y-44740000D03*
D11*
X215880000Y-47280000D03*
X215880000Y-49820000D03*
X215880000Y-52360000D03*
X215880000Y-54900000D03*
X215880000Y-57440000D03*
D12*
X224135000Y-51090000D03*
%TD*%
D13*
%TO.C,TP5*%
X180475000Y-28000000D03*
%TD*%
D14*
%TO.C,J47*%
X187560000Y-37940000D03*
D15*
X187560000Y-31640000D03*
D16*
X182760000Y-35040000D03*
%TD*%
D17*
%TO.C,J7*%
X169010000Y-139585001D03*
D18*
X166470000Y-137045002D03*
X166470001Y-142125001D03*
X171549999Y-137045001D03*
X171550000Y-142125000D03*
%TD*%
D10*
%TO.C,U23*%
X113376000Y-152657455D03*
D11*
X115916000Y-152657455D03*
X118456000Y-152657455D03*
X120996000Y-152657455D03*
X123536000Y-152657455D03*
X126076000Y-152657455D03*
X128616000Y-152657455D03*
X131156000Y-152657455D03*
X133696000Y-152657455D03*
X136236000Y-152657455D03*
X138776000Y-152657455D03*
X141316000Y-152657455D03*
X143856000Y-152657455D03*
X146396000Y-152657455D03*
X148936000Y-152657455D03*
X151476000Y-152657455D03*
X154016000Y-152657455D03*
X156556000Y-152657455D03*
X159096000Y-152657455D03*
X161636000Y-152657455D03*
X164176000Y-152657455D03*
X166716000Y-152657455D03*
X169256000Y-152657455D03*
X171796000Y-152657455D03*
X174336000Y-152657455D03*
X176876000Y-152657455D03*
X179416000Y-152657455D03*
X181956000Y-152657455D03*
X184496000Y-152657455D03*
X187036000Y-152657455D03*
X189576000Y-152657455D03*
X192116000Y-152657455D03*
X194656000Y-152657455D03*
X197196000Y-152657455D03*
X199736000Y-152657455D03*
X202276000Y-152657455D03*
X204816000Y-152657455D03*
X207356000Y-152657455D03*
X209896000Y-152657455D03*
X212436000Y-152657455D03*
X214976000Y-152657455D03*
X217516000Y-152657455D03*
X220056000Y-152657455D03*
X222596000Y-152657455D03*
X225136000Y-152657455D03*
X227676000Y-152657455D03*
X230216000Y-152657455D03*
X232756000Y-152657455D03*
X235296000Y-152657455D03*
X237836000Y-152657455D03*
X113376000Y-155197455D03*
X115916000Y-155197455D03*
X118456000Y-155197455D03*
X120996000Y-155197455D03*
X123536000Y-155197455D03*
X126076000Y-155197455D03*
X128616000Y-155197455D03*
X131156000Y-155197455D03*
X133696000Y-155197455D03*
X136236000Y-155197455D03*
X138776000Y-155197455D03*
X141316000Y-155197455D03*
X143856000Y-155197455D03*
X146396000Y-155197455D03*
X148936000Y-155197455D03*
X151476000Y-155197455D03*
X154016000Y-155197455D03*
X156556000Y-155197455D03*
X159096000Y-155197455D03*
X161636000Y-155197455D03*
X164176000Y-155197455D03*
X166716000Y-155197455D03*
X169256000Y-155197455D03*
X171796000Y-155197455D03*
X174336000Y-155197455D03*
X176876000Y-155197455D03*
X179416000Y-155197455D03*
X181956000Y-155197455D03*
X184496000Y-155197455D03*
X187036000Y-155197455D03*
X189576000Y-155197455D03*
X192116000Y-155197455D03*
X194656000Y-155197455D03*
X197196000Y-155197455D03*
X199736000Y-155197455D03*
X202276000Y-155197455D03*
X204816000Y-155197455D03*
X207356000Y-155197455D03*
X209896000Y-155197455D03*
X212436000Y-155197455D03*
X214976000Y-155197455D03*
X217516000Y-155197455D03*
X220056000Y-155197455D03*
X222596000Y-155197455D03*
X225136000Y-155197455D03*
X227676000Y-155197455D03*
X230216000Y-155197455D03*
X232756000Y-155197455D03*
X235296000Y-155197455D03*
X237836000Y-155197455D03*
X113376000Y-157737455D03*
X115916000Y-157737455D03*
X118456000Y-157737455D03*
X120996000Y-157737455D03*
X123536000Y-157737455D03*
X126076000Y-157737455D03*
X128616000Y-157737455D03*
X131156000Y-157737455D03*
X133696000Y-157737455D03*
X136236000Y-157737455D03*
X138776000Y-157737455D03*
X141316000Y-157737455D03*
X143856000Y-157737455D03*
X146396000Y-157737455D03*
X148936000Y-157737455D03*
X151476000Y-157737455D03*
X154016000Y-157737455D03*
X156556000Y-157737455D03*
X159096000Y-157737455D03*
X161636000Y-157737455D03*
X164176000Y-157737455D03*
X166716000Y-157737455D03*
X169256000Y-157737455D03*
X171796000Y-157737455D03*
X174336000Y-157737455D03*
X176876000Y-157737455D03*
X179416000Y-157737455D03*
X181956000Y-157737455D03*
X184496000Y-157737455D03*
X187036000Y-157737455D03*
X189576000Y-157737455D03*
X192116000Y-157737455D03*
X194656000Y-157737455D03*
X197196000Y-157737455D03*
X199736000Y-157737455D03*
X202276000Y-157737455D03*
X204816000Y-157737455D03*
X207356000Y-157737455D03*
X209896000Y-157737455D03*
X212436000Y-157737455D03*
X214976000Y-157737455D03*
X217516000Y-157737455D03*
X220056000Y-157737455D03*
X222596000Y-157737455D03*
X225136000Y-157737455D03*
X227676000Y-157737455D03*
X230216000Y-157737455D03*
X232756000Y-157737455D03*
X235296000Y-157737455D03*
X237836000Y-157737455D03*
%TD*%
D10*
%TO.C,CG2*%
X110855000Y-123355000D03*
D11*
X113395000Y-123355000D03*
X115935000Y-123355000D03*
X118475000Y-123355000D03*
X121015000Y-123355000D03*
D10*
X110855000Y-110655000D03*
D11*
X113395000Y-110655000D03*
X115935000Y-110655000D03*
X118475000Y-110655000D03*
X121015000Y-110655000D03*
D10*
X135620000Y-123355000D03*
D11*
X135620000Y-120815000D03*
X135620000Y-118275000D03*
X135620000Y-115735000D03*
X135620000Y-113195000D03*
X135620000Y-110655000D03*
D12*
X127365000Y-117005000D03*
%TD*%
D10*
%TO.C,CG9*%
X240645000Y-77760000D03*
D11*
X238105000Y-77760000D03*
X235565000Y-77760000D03*
X233025000Y-77760000D03*
X230485000Y-77760000D03*
D10*
X240645000Y-90460000D03*
D11*
X238105000Y-90460000D03*
X235565000Y-90460000D03*
X233025000Y-90460000D03*
X230485000Y-90460000D03*
D10*
X215880000Y-77760000D03*
D11*
X215880000Y-80300000D03*
X215880000Y-82840000D03*
X215880000Y-85380000D03*
X215880000Y-87920000D03*
X215880000Y-90460000D03*
D12*
X224135000Y-84110000D03*
%TD*%
%TO.C,J2*%
X149590000Y-42200000D03*
%TD*%
D10*
%TO.C,J3*%
X193278000Y-88301000D03*
D11*
X195818000Y-88301000D03*
X198358000Y-88301000D03*
X200898000Y-88301000D03*
%TD*%
D10*
%TO.C,J73*%
X202630000Y-77940000D03*
D11*
X202630000Y-80480000D03*
X202630000Y-83020000D03*
%TD*%
D10*
%TO.C,CG12*%
X240649000Y-127163000D03*
D11*
X238109000Y-127163000D03*
X235569000Y-127163000D03*
X233029000Y-127163000D03*
X230489000Y-127163000D03*
D10*
X240649000Y-139863000D03*
D11*
X238109000Y-139863000D03*
X235569000Y-139863000D03*
X233029000Y-139863000D03*
X230489000Y-139863000D03*
D10*
X215884000Y-127163000D03*
D11*
X215884000Y-129703000D03*
X215884000Y-132243000D03*
X215884000Y-134783000D03*
X215884000Y-137323000D03*
X215884000Y-139863000D03*
D12*
X224139000Y-133513000D03*
%TD*%
D19*
%TO.C,RV1*%
X204000000Y-69900000D03*
X206540000Y-69900000D03*
X209080000Y-69900000D03*
%TD*%
D13*
%TO.C,TP3*%
X195200000Y-28000000D03*
%TD*%
D12*
%TO.C,J66*%
X204700000Y-48200000D03*
%TD*%
D13*
%TO.C,TP6*%
X196300000Y-70100000D03*
%TD*%
D10*
%TO.C,CG8*%
X240645000Y-61250000D03*
D11*
X238105000Y-61250000D03*
X235565000Y-61250000D03*
X233025000Y-61250000D03*
X230485000Y-61250000D03*
D10*
X240645000Y-73950000D03*
D11*
X238105000Y-73950000D03*
X235565000Y-73950000D03*
X233025000Y-73950000D03*
X230485000Y-73950000D03*
D10*
X215880000Y-61250000D03*
D11*
X215880000Y-63790000D03*
X215880000Y-66330000D03*
X215880000Y-68870000D03*
X215880000Y-71410000D03*
X215880000Y-73950000D03*
D12*
X224135000Y-67600000D03*
%TD*%
D20*
%TO.C,J8*%
X171510000Y-30280000D03*
X165730000Y-30280000D03*
D21*
X172940000Y-30780000D03*
D22*
X172940000Y-26600000D03*
D21*
X164300000Y-30780000D03*
D22*
X164300000Y-26600000D03*
%TD*%
D13*
%TO.C,TP2*%
X180500000Y-47400000D03*
%TD*%
D10*
%TO.C,CG1*%
X110855000Y-139865000D03*
D11*
X113395000Y-139865000D03*
X115935000Y-139865000D03*
X118475000Y-139865000D03*
X121015000Y-139865000D03*
D10*
X110855000Y-127165000D03*
D11*
X113395000Y-127165000D03*
X115935000Y-127165000D03*
X118475000Y-127165000D03*
X121015000Y-127165000D03*
D10*
X135620000Y-139865000D03*
D11*
X135620000Y-137325000D03*
X135620000Y-134785000D03*
X135620000Y-132245000D03*
X135620000Y-129705000D03*
X135620000Y-127165000D03*
D12*
X127365000Y-133515000D03*
%TD*%
D13*
%TO.C,TP1*%
X208200000Y-28000000D03*
%TD*%
%TO.C,TP4*%
X176350000Y-28000000D03*
%TD*%
D10*
%TO.C,CG3*%
X110855000Y-106970000D03*
D11*
X113395000Y-106970000D03*
X115935000Y-106970000D03*
X118475000Y-106970000D03*
X121015000Y-106970000D03*
D10*
X110855000Y-94270000D03*
D11*
X113395000Y-94270000D03*
X115935000Y-94270000D03*
X118475000Y-94270000D03*
X121015000Y-94270000D03*
D10*
X135620000Y-106970000D03*
D11*
X135620000Y-104430000D03*
X135620000Y-101890000D03*
X135620000Y-99350000D03*
X135620000Y-96810000D03*
X135620000Y-94270000D03*
D12*
X127365000Y-100620000D03*
%TD*%
%LPD*%
M02*
