%TF.GenerationSoftware,KiCad,Pcbnew,9.0.2*%
%TF.CreationDate,2025-10-14T11:48:54+02:00*%
%TF.ProjectId,main-board,6d61696e-2d62-46f6-9172-642e6b696361,rev?*%
%TF.SameCoordinates,Original*%
%TF.FileFunction,Soldermask,Top*%
%TF.FilePolarity,Negative*%
%FSLAX46Y46*%
G04 Gerber Fmt 4.6, Leading zero omitted, Abs format (unit mm)*
G04 Created by KiCad (PCBNEW 9.0.2) date 2025-10-14 11:48:54*
%MOMM*%
%LPD*%
G01*
G04 APERTURE LIST*
G04 Aperture macros list*
%AMRoundRect*
0 Rectangle with rounded corners*
0 $1 Rounding radius*
0 $2 $3 $4 $5 $6 $7 $8 $9 X,Y pos of 4 corners*
0 Add a 4 corners polygon primitive as box body*
4,1,4,$2,$3,$4,$5,$6,$7,$8,$9,$2,$3,0*
0 Add four circle primitives for the rounded corners*
1,1,$1+$1,$2,$3*
1,1,$1+$1,$4,$5*
1,1,$1+$1,$6,$7*
1,1,$1+$1,$8,$9*
0 Add four rect primitives between the rounded corners*
20,1,$1+$1,$2,$3,$4,$5,0*
20,1,$1+$1,$4,$5,$6,$7,0*
20,1,$1+$1,$6,$7,$8,$9,0*
20,1,$1+$1,$8,$9,$2,$3,0*%
G04 Aperture macros list end*
%ADD10C,0.000000*%
%ADD11RoundRect,0.218750X0.256250X-0.218750X0.256250X0.218750X-0.256250X0.218750X-0.256250X-0.218750X0*%
%ADD12RoundRect,0.200000X-0.275000X0.200000X-0.275000X-0.200000X0.275000X-0.200000X0.275000X0.200000X0*%
%ADD13RoundRect,0.200000X0.275000X-0.200000X0.275000X0.200000X-0.275000X0.200000X-0.275000X-0.200000X0*%
%ADD14R,1.700000X1.700000*%
%ADD15C,1.700000*%
%ADD16C,10.160000*%
%ADD17RoundRect,0.225000X0.225000X0.250000X-0.225000X0.250000X-0.225000X-0.250000X0.225000X-0.250000X0*%
%ADD18RoundRect,0.218750X-0.256250X0.218750X-0.256250X-0.218750X0.256250X-0.218750X0.256250X0.218750X0*%
%ADD19R,3.150000X1.000000*%
%ADD20RoundRect,0.200000X-0.200000X-0.275000X0.200000X-0.275000X0.200000X0.275000X-0.200000X0.275000X0*%
%ADD21RoundRect,0.250000X-0.750000X1.650000X-0.750000X-1.650000X0.750000X-1.650000X0.750000X1.650000X0*%
%ADD22RoundRect,0.225000X-0.225000X-0.250000X0.225000X-0.250000X0.225000X0.250000X-0.225000X0.250000X0*%
%ADD23RoundRect,0.225000X0.250000X-0.225000X0.250000X0.225000X-0.250000X0.225000X-0.250000X-0.225000X0*%
%ADD24R,0.200000X0.600000*%
%ADD25R,0.250000X0.150000*%
%ADD26R,0.600000X0.200000*%
%ADD27RoundRect,0.100000X0.637500X0.100000X-0.637500X0.100000X-0.637500X-0.100000X0.637500X-0.100000X0*%
%ADD28R,1.000000X2.510000*%
%ADD29RoundRect,0.050000X-0.050000X0.300000X-0.050000X-0.300000X0.050000X-0.300000X0.050000X0.300000X0*%
%ADD30RoundRect,0.050000X-0.050000X0.250000X-0.050000X-0.250000X0.050000X-0.250000X0.050000X0.250000X0*%
%ADD31RoundRect,0.050000X-0.250000X-0.050000X0.250000X-0.050000X0.250000X0.050000X-0.250000X0.050000X0*%
%ADD32RoundRect,0.050000X0.050000X-0.250000X0.050000X0.250000X-0.050000X0.250000X-0.050000X-0.250000X0*%
%ADD33RoundRect,0.050000X0.250000X0.050000X-0.250000X0.050000X-0.250000X-0.050000X0.250000X-0.050000X0*%
%ADD34RoundRect,0.150000X0.512500X0.150000X-0.512500X0.150000X-0.512500X-0.150000X0.512500X-0.150000X0*%
%ADD35RoundRect,0.200000X0.200000X0.275000X-0.200000X0.275000X-0.200000X-0.275000X0.200000X-0.275000X0*%
%ADD36RoundRect,0.050000X-0.300000X-0.050000X0.300000X-0.050000X0.300000X0.050000X-0.300000X0.050000X0*%
%ADD37RoundRect,0.100000X0.425000X0.100000X-0.425000X0.100000X-0.425000X-0.100000X0.425000X-0.100000X0*%
%ADD38RoundRect,0.050000X0.050000X0.250000X-0.050000X0.250000X-0.050000X-0.250000X0.050000X-0.250000X0*%
%ADD39RoundRect,0.225000X0.017678X-0.335876X0.335876X-0.017678X-0.017678X0.335876X-0.335876X0.017678X0*%
%ADD40RoundRect,0.218750X-0.218750X-0.256250X0.218750X-0.256250X0.218750X0.256250X-0.218750X0.256250X0*%
%ADD41RoundRect,0.050000X-0.150000X-0.300000X0.150000X-0.300000X0.150000X0.300000X-0.150000X0.300000X0*%
%ADD42RoundRect,0.225000X-0.250000X0.225000X-0.250000X-0.225000X0.250000X-0.225000X0.250000X0.225000X0*%
%ADD43R,1.000000X0.900000*%
%ADD44R,0.900000X1.000000*%
%ADD45RoundRect,0.150000X-0.512500X-0.150000X0.512500X-0.150000X0.512500X0.150000X-0.512500X0.150000X0*%
%ADD46RoundRect,0.059250X-0.462750X-0.177750X0.462750X-0.177750X0.462750X0.177750X-0.462750X0.177750X0*%
%ADD47RoundRect,0.102000X-0.850000X-1.250000X0.850000X-1.250000X0.850000X1.250000X-0.850000X1.250000X0*%
%ADD48RoundRect,0.150000X0.150000X-0.512500X0.150000X0.512500X-0.150000X0.512500X-0.150000X-0.512500X0*%
%ADD49RoundRect,0.218750X0.218750X0.256250X-0.218750X0.256250X-0.218750X-0.256250X0.218750X-0.256250X0*%
%ADD50RoundRect,0.250000X0.450000X0.350000X-0.450000X0.350000X-0.450000X-0.350000X0.450000X-0.350000X0*%
%ADD51C,2.000000*%
%ADD52R,0.150000X0.250000*%
%ADD53RoundRect,0.250000X-1.650000X-0.750000X1.650000X-0.750000X1.650000X0.750000X-1.650000X0.750000X0*%
%ADD54RoundRect,0.250000X0.750000X-1.650000X0.750000X1.650000X-0.750000X1.650000X-0.750000X-1.650000X0*%
%ADD55R,4.600000X2.000000*%
%ADD56O,4.200000X2.000000*%
%ADD57O,2.000000X4.200000*%
%ADD58C,2.050000*%
%ADD59C,2.250000*%
%ADD60RoundRect,0.100000X0.100000X-0.225000X0.100000X0.225000X-0.100000X0.225000X-0.100000X-0.225000X0*%
%ADD61RoundRect,0.162500X-0.650000X-0.162500X0.650000X-0.162500X0.650000X0.162500X-0.650000X0.162500X0*%
%ADD62RoundRect,0.075000X-0.075000X0.700000X-0.075000X-0.700000X0.075000X-0.700000X0.075000X0.700000X0*%
%ADD63RoundRect,0.075000X-0.700000X0.075000X-0.700000X-0.075000X0.700000X-0.075000X0.700000X0.075000X0*%
%ADD64RoundRect,0.075000X0.075000X-0.650000X0.075000X0.650000X-0.075000X0.650000X-0.075000X-0.650000X0*%
%ADD65RoundRect,0.200000X0.053033X-0.335876X0.335876X-0.053033X-0.053033X0.335876X-0.335876X0.053033X0*%
%ADD66RoundRect,0.225000X-0.017678X0.335876X-0.335876X0.017678X0.017678X-0.335876X0.335876X-0.017678X0*%
%ADD67RoundRect,0.100000X0.100000X-0.637500X0.100000X0.637500X-0.100000X0.637500X-0.100000X-0.637500X0*%
%ADD68RoundRect,0.275000X-0.275000X-0.825000X0.275000X-0.825000X0.275000X0.825000X-0.275000X0.825000X0*%
%ADD69RoundRect,0.200000X-0.053033X0.335876X-0.335876X0.053033X0.053033X-0.335876X0.335876X-0.053033X0*%
%ADD70RoundRect,0.075000X-0.075000X0.650000X-0.075000X-0.650000X0.075000X-0.650000X0.075000X0.650000X0*%
%ADD71R,1.880000X1.680000*%
%ADD72RoundRect,0.062500X-0.375000X-0.062500X0.375000X-0.062500X0.375000X0.062500X-0.375000X0.062500X0*%
%ADD73RoundRect,0.062500X-0.062500X-0.375000X0.062500X-0.375000X0.062500X0.375000X-0.062500X0.375000X0*%
%ADD74R,2.600000X2.600000*%
%ADD75RoundRect,0.250000X-0.350000X0.450000X-0.350000X-0.450000X0.350000X-0.450000X0.350000X0.450000X0*%
%ADD76R,2.100000X2.100000*%
%ADD77RoundRect,0.250000X-0.565685X0.070711X0.070711X-0.565685X0.565685X-0.070711X-0.070711X0.565685X0*%
%ADD78RoundRect,0.062500X0.062500X-0.375000X0.062500X0.375000X-0.062500X0.375000X-0.062500X-0.375000X0*%
%ADD79RoundRect,0.062500X0.375000X-0.062500X0.375000X0.062500X-0.375000X0.062500X-0.375000X-0.062500X0*%
%ADD80RoundRect,0.250000X-1.697056X0.636396X0.636396X-1.697056X1.697056X-0.636396X-0.636396X1.697056X0*%
%ADD81RoundRect,0.250000X-0.550000X1.250000X-0.550000X-1.250000X0.550000X-1.250000X0.550000X1.250000X0*%
%ADD82C,1.440000*%
%ADD83RoundRect,0.075000X-0.650000X-0.075000X0.650000X-0.075000X0.650000X0.075000X-0.650000X0.075000X0*%
%ADD84RoundRect,0.225000X0.335876X0.017678X0.017678X0.335876X-0.335876X-0.017678X-0.017678X-0.335876X0*%
%ADD85RoundRect,0.150000X0.150000X0.425000X-0.150000X0.425000X-0.150000X-0.425000X0.150000X-0.425000X0*%
%ADD86RoundRect,0.075000X0.075000X0.500000X-0.075000X0.500000X-0.075000X-0.500000X0.075000X-0.500000X0*%
%ADD87O,1.000000X2.100000*%
%ADD88O,1.000000X1.800000*%
%ADD89R,1.903000X2.790000*%
%ADD90RoundRect,0.050000X0.150000X0.300000X-0.150000X0.300000X-0.150000X-0.300000X0.150000X-0.300000X0*%
G04 APERTURE END LIST*
D10*
%TO.C,REF\u002A\u002A*%
G36*
X148413302Y-25613696D02*
G01*
X148509691Y-25669436D01*
X148618874Y-25732602D01*
X148727743Y-25795610D01*
X148823190Y-25850874D01*
X148827161Y-25853174D01*
X148915224Y-25904158D01*
X149009182Y-25958516D01*
X149098455Y-26010130D01*
X149172467Y-26052883D01*
X149179939Y-26057196D01*
X149262511Y-26104863D01*
X149355510Y-26158568D01*
X149443313Y-26209289D01*
X149473920Y-26226975D01*
X149615096Y-26308485D01*
X149731916Y-26375749D01*
X149827107Y-26430327D01*
X149903398Y-26473778D01*
X149963517Y-26507661D01*
X150009650Y-26533240D01*
X150047496Y-26554450D01*
X150107383Y-26588578D01*
X150184275Y-26632728D01*
X150273134Y-26684003D01*
X150368925Y-26739506D01*
X150425144Y-26772186D01*
X150597481Y-26872373D01*
X150775668Y-26975751D01*
X150953249Y-27078587D01*
X151123769Y-27177145D01*
X151280771Y-27267691D01*
X151417800Y-27346489D01*
X151429877Y-27353420D01*
X151506883Y-27397736D01*
X151596821Y-27449704D01*
X151685555Y-27501148D01*
X151727778Y-27525706D01*
X151794930Y-27564664D01*
X151880975Y-27614344D01*
X151977565Y-27669940D01*
X152076349Y-27726644D01*
X152143272Y-27764959D01*
X152229672Y-27814552D01*
X152311338Y-27861778D01*
X152382514Y-27903283D01*
X152437449Y-27935714D01*
X152468584Y-27954582D01*
X152535191Y-27996286D01*
X152535219Y-28499017D01*
X152535247Y-29001748D01*
X152437254Y-29056720D01*
X152394807Y-29080769D01*
X152330689Y-29117405D01*
X152250361Y-29163491D01*
X152159284Y-29215892D01*
X152062921Y-29271472D01*
X152021460Y-29295429D01*
X151930231Y-29347987D01*
X151847234Y-29395449D01*
X151776590Y-29435486D01*
X151722422Y-29465770D01*
X151688852Y-29483972D01*
X151680441Y-29488077D01*
X151673918Y-29487325D01*
X151668719Y-29477503D01*
X151664700Y-29455592D01*
X151661716Y-29418569D01*
X151659623Y-29363415D01*
X151658276Y-29287108D01*
X151657531Y-29186629D01*
X151657243Y-29058955D01*
X151657223Y-29002946D01*
X151657223Y-28508905D01*
X151512192Y-28422726D01*
X151444609Y-28382810D01*
X151379912Y-28345022D01*
X151327246Y-28314680D01*
X151304445Y-28301832D01*
X151274859Y-28285120D01*
X151222223Y-28255035D01*
X151150617Y-28213925D01*
X151064125Y-28164138D01*
X150966829Y-28108021D01*
X150862810Y-28047921D01*
X150841914Y-28035836D01*
X150730795Y-27971566D01*
X150619966Y-27907481D01*
X150514770Y-27846671D01*
X150420551Y-27792223D01*
X150342651Y-27747224D01*
X150286413Y-27714764D01*
X150285309Y-27714128D01*
X150201447Y-27665668D01*
X150107417Y-27611187D01*
X150018129Y-27559329D01*
X149979568Y-27536877D01*
X149897915Y-27489422D01*
X149806561Y-27436548D01*
X149720667Y-27387023D01*
X149689507Y-27369125D01*
X149612513Y-27324820D01*
X149522588Y-27272849D01*
X149433863Y-27221387D01*
X149391605Y-27196791D01*
X149349094Y-27172020D01*
X149307635Y-27147895D01*
X149264313Y-27122729D01*
X149216212Y-27094838D01*
X149160417Y-27062534D01*
X149094013Y-27024130D01*
X149014084Y-26977942D01*
X148917715Y-26922281D01*
X148801991Y-26855463D01*
X148663995Y-26775800D01*
X148556440Y-26713715D01*
X148466321Y-26661876D01*
X148385481Y-26615716D01*
X148317792Y-26577418D01*
X148267124Y-26549165D01*
X148237349Y-26533138D01*
X148231100Y-26530298D01*
X148229229Y-26545346D01*
X148227535Y-26587967D01*
X148226078Y-26654374D01*
X148224916Y-26740783D01*
X148224107Y-26843409D01*
X148223710Y-26958465D01*
X148223680Y-27012428D01*
X148223841Y-27494558D01*
X148376551Y-27582028D01*
X148425629Y-27610168D01*
X148480882Y-27641911D01*
X148545060Y-27678840D01*
X148620911Y-27722540D01*
X148711183Y-27774597D01*
X148818624Y-27836595D01*
X148945985Y-27910119D01*
X149096012Y-27996754D01*
X149203457Y-28058809D01*
X149292971Y-28110539D01*
X149403128Y-28174245D01*
X149527444Y-28246172D01*
X149659434Y-28322568D01*
X149792614Y-28399678D01*
X149920498Y-28473749D01*
X150036604Y-28541028D01*
X150105001Y-28580681D01*
X150171208Y-28619030D01*
X150232107Y-28654223D01*
X150279661Y-28681619D01*
X150300988Y-28693834D01*
X150333234Y-28712185D01*
X150385289Y-28741806D01*
X150449705Y-28778458D01*
X150512655Y-28814274D01*
X150584610Y-28855576D01*
X150653548Y-28895786D01*
X150710928Y-28929884D01*
X150744137Y-28950255D01*
X150810990Y-28992570D01*
X150806853Y-29495836D01*
X150802717Y-29999101D01*
X150598889Y-30116653D01*
X150506427Y-30169848D01*
X150403857Y-30228648D01*
X150303446Y-30286033D01*
X150217458Y-30334982D01*
X150214754Y-30336516D01*
X150126294Y-30386763D01*
X150027693Y-30442853D01*
X149932454Y-30497100D01*
X149869815Y-30532834D01*
X149801698Y-30571635D01*
X149740158Y-30606518D01*
X149692231Y-30633505D01*
X149665988Y-30648061D01*
X149640461Y-30662347D01*
X149592725Y-30689485D01*
X149527727Y-30726648D01*
X149450414Y-30771006D01*
X149365731Y-30819733D01*
X149360247Y-30822893D01*
X149093704Y-30976502D01*
X149089705Y-32469326D01*
X149089206Y-32682743D01*
X149088871Y-32887040D01*
X149088694Y-33080067D01*
X149088671Y-33259671D01*
X149088798Y-33423702D01*
X149089071Y-33570009D01*
X149089484Y-33696439D01*
X149090034Y-33800843D01*
X149090716Y-33881068D01*
X149091525Y-33934964D01*
X149092458Y-33960379D01*
X149092800Y-33962150D01*
X149108194Y-33954589D01*
X149147434Y-33933147D01*
X149207244Y-33899686D01*
X149284352Y-33856071D01*
X149375482Y-33804162D01*
X149477361Y-33745824D01*
X149586713Y-33682918D01*
X149700266Y-33617308D01*
X149767902Y-33578086D01*
X149829518Y-33542367D01*
X149911532Y-33494915D01*
X150007166Y-33439648D01*
X150109642Y-33380480D01*
X150212183Y-33321329D01*
X150238272Y-33306289D01*
X150341894Y-33246550D01*
X150464504Y-33175845D01*
X150597933Y-33098884D01*
X150734013Y-33020381D01*
X150864576Y-32945047D01*
X150943828Y-32899310D01*
X151189187Y-32757718D01*
X151408721Y-32631079D01*
X151603749Y-32518639D01*
X151775586Y-32419643D01*
X151925551Y-32333339D01*
X152054960Y-32258972D01*
X152165130Y-32195789D01*
X152257379Y-32143037D01*
X152333023Y-32099962D01*
X152393381Y-32065809D01*
X152439768Y-32039827D01*
X152473502Y-32021260D01*
X152495901Y-32009356D01*
X152508281Y-32003360D01*
X152511630Y-32002274D01*
X152513559Y-32017332D01*
X152515307Y-32060022D01*
X152516816Y-32126620D01*
X152518027Y-32213399D01*
X152518883Y-32316636D01*
X152519326Y-32432603D01*
X152519373Y-32500082D01*
X152519178Y-32997891D01*
X152241071Y-33161034D01*
X152144738Y-33217466D01*
X152046198Y-33275053D01*
X151952859Y-33329476D01*
X151872128Y-33376415D01*
X151814013Y-33410053D01*
X151741771Y-33451801D01*
X151669073Y-33493979D01*
X151606589Y-33530387D01*
X151578828Y-33546656D01*
X151521847Y-33580009D01*
X151445903Y-33624172D01*
X151349063Y-33680265D01*
X151229395Y-33749406D01*
X151084967Y-33832715D01*
X151041822Y-33857583D01*
X150962784Y-33903222D01*
X150871147Y-33956275D01*
X150781397Y-34008349D01*
X150740001Y-34032418D01*
X150679856Y-34067337D01*
X150600742Y-34113142D01*
X150508564Y-34166427D01*
X150409226Y-34223786D01*
X150308635Y-34281812D01*
X150212695Y-34337098D01*
X150127311Y-34386237D01*
X150058389Y-34425823D01*
X150018766Y-34448499D01*
X149989753Y-34465210D01*
X149939241Y-34494468D01*
X149872820Y-34533028D01*
X149796081Y-34577646D01*
X149736544Y-34612303D01*
X149654275Y-34660175D01*
X149576767Y-34705202D01*
X149510062Y-34743880D01*
X149460200Y-34772705D01*
X149438643Y-34785092D01*
X149328360Y-34848223D01*
X149223892Y-34908300D01*
X149130598Y-34962226D01*
X149053841Y-35006901D01*
X148998982Y-35039227D01*
X148998807Y-35039331D01*
X148939400Y-35074391D01*
X148877313Y-35110480D01*
X148849856Y-35126212D01*
X148759562Y-35177722D01*
X148664675Y-35232173D01*
X148572281Y-35285470D01*
X148489465Y-35333521D01*
X148423313Y-35372233D01*
X148398798Y-35386749D01*
X148341956Y-35419751D01*
X148285430Y-35451188D01*
X148255928Y-35466799D01*
X148196482Y-35497126D01*
X147774908Y-35253434D01*
X147670095Y-35192731D01*
X147573780Y-35136729D01*
X147489393Y-35087439D01*
X147420363Y-35046873D01*
X147370119Y-35017041D01*
X147342089Y-34999956D01*
X147337655Y-34996976D01*
X147320968Y-34986595D01*
X147280071Y-34962436D01*
X147217992Y-34926253D01*
X147137762Y-34879799D01*
X147042412Y-34824828D01*
X146934972Y-34763093D01*
X146818472Y-34696348D01*
X146788889Y-34679429D01*
X146650385Y-34600193D01*
X146502678Y-34515606D01*
X146352188Y-34429350D01*
X146205336Y-34345108D01*
X146068540Y-34266561D01*
X145948221Y-34197392D01*
X145879507Y-34157832D01*
X145771811Y-34095782D01*
X145664743Y-34034097D01*
X145563776Y-33975931D01*
X145474388Y-33924439D01*
X145402055Y-33882776D01*
X145358180Y-33857509D01*
X145275901Y-33810080D01*
X145182688Y-33756265D01*
X145094729Y-33705413D01*
X145068118Y-33690007D01*
X144931280Y-33610781D01*
X144814564Y-33543269D01*
X144710972Y-33483440D01*
X144613508Y-33427262D01*
X144515175Y-33370705D01*
X144408976Y-33309737D01*
X144287914Y-33240326D01*
X144234218Y-33209558D01*
X143864785Y-32997891D01*
X143864782Y-32490614D01*
X144774136Y-32490614D01*
X144786698Y-32502981D01*
X144819807Y-32525876D01*
X144866602Y-32554593D01*
X144872130Y-32557812D01*
X145188004Y-32740817D01*
X145477694Y-32908643D01*
X145742149Y-33061838D01*
X145982313Y-33200949D01*
X146199133Y-33326524D01*
X146393556Y-33439111D01*
X146566528Y-33539257D01*
X146718996Y-33627510D01*
X146851906Y-33704417D01*
X146966205Y-33770526D01*
X147062838Y-33826385D01*
X147142753Y-33872541D01*
X147206896Y-33909542D01*
X147256213Y-33937935D01*
X147291650Y-33958268D01*
X147314155Y-33971089D01*
X147324673Y-33976945D01*
X147325735Y-33977460D01*
X147326274Y-33962193D01*
X147326793Y-33917718D01*
X147327286Y-33846184D01*
X147327749Y-33749741D01*
X147328174Y-33630538D01*
X147328558Y-33490727D01*
X147328893Y-33332455D01*
X147329175Y-33157873D01*
X147329397Y-32969130D01*
X147329555Y-32768377D01*
X147329641Y-32557762D01*
X147329654Y-32483806D01*
X147329814Y-30989783D01*
X146910401Y-30751563D01*
X146490988Y-30513343D01*
X146483149Y-31005660D01*
X146480984Y-31126674D01*
X146478550Y-31237294D01*
X146475967Y-31333711D01*
X146473353Y-31412114D01*
X146470829Y-31468693D01*
X146468514Y-31499638D01*
X146467470Y-31504310D01*
X146448385Y-31516312D01*
X146404353Y-31542020D01*
X146337882Y-31579989D01*
X146263643Y-31621928D01*
X146224669Y-31644277D01*
X146168867Y-31676788D01*
X146106342Y-31713563D01*
X146085958Y-31725628D01*
X146031549Y-31757616D01*
X145988434Y-31782448D01*
X145962871Y-31796543D01*
X145958637Y-31798446D01*
X145944218Y-31805915D01*
X145907927Y-31826362D01*
X145854909Y-31856846D01*
X145790311Y-31894428D01*
X145775705Y-31902976D01*
X145565500Y-32025949D01*
X145381719Y-32133084D01*
X145223886Y-32224655D01*
X145091524Y-32300939D01*
X144984156Y-32362213D01*
X144934846Y-32390029D01*
X144872027Y-32426107D01*
X144820711Y-32457165D01*
X144786288Y-32479831D01*
X144774136Y-32490614D01*
X143864782Y-32490614D01*
X143864769Y-30495118D01*
X143864769Y-30492191D01*
X144764013Y-30492191D01*
X144778263Y-30501075D01*
X144815506Y-30523324D01*
X144871741Y-30556598D01*
X144942966Y-30598556D01*
X145025181Y-30646856D01*
X145114384Y-30699158D01*
X145206575Y-30753121D01*
X145297752Y-30806404D01*
X145383913Y-30856664D01*
X145461059Y-30901563D01*
X145525187Y-30938757D01*
X145572297Y-30965907D01*
X145598387Y-30980670D01*
X145602301Y-30982676D01*
X145617065Y-30975367D01*
X145652049Y-30955489D01*
X145700702Y-30926797D01*
X145719894Y-30915279D01*
X145767488Y-30887036D01*
X145836429Y-30846723D01*
X145920805Y-30797771D01*
X146014699Y-30743605D01*
X146112199Y-30687654D01*
X146142703Y-30670214D01*
X146231095Y-30619446D01*
X146309294Y-30574000D01*
X146373542Y-30536103D01*
X146420083Y-30507982D01*
X146445160Y-30491866D01*
X146448444Y-30488926D01*
X146434239Y-30480405D01*
X146396168Y-30458230D01*
X146337574Y-30424330D01*
X146261801Y-30380635D01*
X146172192Y-30329075D01*
X146072093Y-30271581D01*
X146028506Y-30246574D01*
X145613061Y-30008304D01*
X145534617Y-30048536D01*
X145491993Y-30070768D01*
X145448284Y-30094510D01*
X145397966Y-30122913D01*
X145335520Y-30159126D01*
X145255422Y-30206298D01*
X145189630Y-30245307D01*
X145118839Y-30286735D01*
X145034236Y-30335335D01*
X144949534Y-30383259D01*
X144912199Y-30404089D01*
X144851708Y-30438132D01*
X144803345Y-30466302D01*
X144772472Y-30485412D01*
X144764013Y-30492191D01*
X143864769Y-30492191D01*
X143864754Y-27992345D01*
X144025464Y-27898151D01*
X144091895Y-27859415D01*
X144177733Y-27809660D01*
X144275147Y-27753408D01*
X144376308Y-27695181D01*
X144464070Y-27644835D01*
X144741967Y-27485713D01*
X144848206Y-27546700D01*
X144888638Y-27569901D01*
X144951886Y-27606185D01*
X145033565Y-27653036D01*
X145129287Y-27707937D01*
X145234666Y-27768374D01*
X145345317Y-27831829D01*
X145385618Y-27854940D01*
X145503458Y-27922546D01*
X145623287Y-27991350D01*
X145739475Y-28058117D01*
X145846397Y-28119610D01*
X145938423Y-28172594D01*
X146009926Y-28213834D01*
X146020618Y-28220012D01*
X146188529Y-28317042D01*
X146330475Y-28399004D01*
X146447616Y-28466566D01*
X146541113Y-28520397D01*
X146612124Y-28561164D01*
X146661809Y-28589536D01*
X146686976Y-28603753D01*
X146723580Y-28624584D01*
X146778740Y-28656399D01*
X146843973Y-28694294D01*
X146890803Y-28721642D01*
X146972419Y-28769308D01*
X147063732Y-28822464D01*
X147149605Y-28872304D01*
X147180865Y-28890393D01*
X147259880Y-28936131D01*
X147350803Y-28988869D01*
X147438458Y-29039801D01*
X147470926Y-29058698D01*
X147601408Y-29134554D01*
X147711909Y-29198466D01*
X147809437Y-29254460D01*
X147900999Y-29306561D01*
X147980494Y-29351425D01*
X148044635Y-29387777D01*
X148102586Y-29421111D01*
X148146220Y-29446728D01*
X148162304Y-29456538D01*
X148180860Y-29466969D01*
X148198746Y-29470606D01*
X148221799Y-29465505D01*
X148255855Y-29449720D01*
X148306752Y-29421307D01*
X148358292Y-29391241D01*
X148496815Y-29310191D01*
X148640977Y-29226181D01*
X148799279Y-29134261D01*
X148893797Y-29079498D01*
X148949543Y-29045915D01*
X148993228Y-29017112D01*
X149018883Y-28997161D01*
X149023149Y-28991310D01*
X149010284Y-28979005D01*
X148975106Y-28954820D01*
X148922735Y-28922064D01*
X148858293Y-28884042D01*
X148846760Y-28877437D01*
X148759935Y-28827851D01*
X148663792Y-28772822D01*
X148571658Y-28719983D01*
X148513581Y-28686599D01*
X148442696Y-28645839D01*
X148374143Y-28606498D01*
X148316961Y-28573760D01*
X148287059Y-28556705D01*
X148231339Y-28524661D01*
X148168057Y-28487743D01*
X148138108Y-28470073D01*
X148082899Y-28437537D01*
X148028877Y-28406040D01*
X148004013Y-28391717D01*
X147874435Y-28317543D01*
X147768228Y-28256488D01*
X147687235Y-28209612D01*
X147677907Y-28204179D01*
X147618393Y-28169763D01*
X147555352Y-28133713D01*
X147533643Y-28121418D01*
X147476560Y-28089011D01*
X147417937Y-28055413D01*
X147400371Y-28045262D01*
X147323280Y-28000541D01*
X147245216Y-27955217D01*
X147173676Y-27913648D01*
X147116159Y-27880189D01*
X147086791Y-27863071D01*
X147054131Y-27844110D01*
X147002013Y-27813975D01*
X146938160Y-27777127D01*
X146882964Y-27745322D01*
X146808387Y-27702324D01*
X146732587Y-27658530D01*
X146666189Y-27620082D01*
X146632099Y-27600283D01*
X146572582Y-27565868D01*
X146513506Y-27532072D01*
X146475309Y-27510504D01*
X146420413Y-27479471D01*
X146347106Y-27437518D01*
X146264007Y-27389629D01*
X146179732Y-27340786D01*
X146102899Y-27295970D01*
X146042125Y-27260163D01*
X146035473Y-27256204D01*
X145976098Y-27221282D01*
X145914035Y-27185509D01*
X145886523Y-27169953D01*
X145788127Y-27114710D01*
X145714458Y-27072406D01*
X145662809Y-27040796D01*
X145630471Y-27017636D01*
X145614736Y-27000679D01*
X145612896Y-26987681D01*
X145622242Y-26976394D01*
X145639353Y-26965008D01*
X145676438Y-26942938D01*
X145732499Y-26910175D01*
X145803398Y-26869084D01*
X145884997Y-26822031D01*
X145973161Y-26771381D01*
X146063751Y-26719499D01*
X146152631Y-26668751D01*
X146235664Y-26621501D01*
X146308712Y-26580116D01*
X146367638Y-26546960D01*
X146408306Y-26524398D01*
X146426578Y-26514796D01*
X146427133Y-26514619D01*
X146443274Y-26507114D01*
X146479500Y-26487103D01*
X146529086Y-26458344D01*
X146549228Y-26446385D01*
X146587622Y-26423749D01*
X146649638Y-26387553D01*
X146731709Y-26339865D01*
X146830271Y-26282749D01*
X146941757Y-26218271D01*
X147062601Y-26148496D01*
X147189236Y-26075491D01*
X147243581Y-26044196D01*
X147372131Y-25970158D01*
X147496863Y-25898250D01*
X147614129Y-25830581D01*
X147720281Y-25769258D01*
X147811673Y-25716387D01*
X147884656Y-25674078D01*
X147935585Y-25644437D01*
X147949136Y-25636498D01*
X148013822Y-25598759D01*
X148076621Y-25562612D01*
X148126791Y-25534225D01*
X148138919Y-25527517D01*
X148203270Y-25492279D01*
X148413302Y-25613696D01*
G37*
%TD*%
D11*
%TO.C,D20*%
X149800000Y-123800000D03*
X149800000Y-122225000D03*
%TD*%
D12*
%TO.C,R14*%
X186110257Y-93485000D03*
X186110257Y-95135000D03*
%TD*%
D13*
%TO.C,R67*%
X213800000Y-58000000D03*
X213800000Y-56350000D03*
%TD*%
D14*
%TO.C,CG10*%
X240645000Y-94270000D03*
D15*
X238105000Y-94270000D03*
X235565000Y-94270000D03*
X233025000Y-94270000D03*
X230485000Y-94270000D03*
D14*
X240645000Y-106970000D03*
D15*
X238105000Y-106970000D03*
X235565000Y-106970000D03*
X233025000Y-106970000D03*
X230485000Y-106970000D03*
D14*
X215880000Y-94270000D03*
D15*
X215880000Y-96810000D03*
X215880000Y-99350000D03*
X215880000Y-101890000D03*
X215880000Y-104430000D03*
X215880000Y-106970000D03*
D16*
X224135000Y-100620000D03*
%TD*%
D17*
%TO.C,C35*%
X190650000Y-91200000D03*
X189100000Y-91200000D03*
%TD*%
D18*
%TO.C,D4*%
X190100000Y-115013750D03*
X190100000Y-116588750D03*
%TD*%
D19*
%TO.C,J9*%
X206550000Y-63700000D03*
X201500000Y-63700000D03*
X206550000Y-61160000D03*
X201500000Y-61160000D03*
X206550000Y-58620000D03*
X201500000Y-58620000D03*
X206550000Y-56080000D03*
X201500000Y-56080000D03*
%TD*%
D20*
%TO.C,R66*%
X186250000Y-63900000D03*
X187900000Y-63900000D03*
%TD*%
D21*
%TO.C,TP9*%
X105900000Y-148100000D03*
%TD*%
D22*
%TO.C,C53*%
X159650000Y-71100000D03*
X161200000Y-71100000D03*
%TD*%
D23*
%TO.C,C29*%
X222650000Y-31700000D03*
X222650000Y-30150000D03*
%TD*%
D24*
%TO.C,U26*%
X162500000Y-75450000D03*
D25*
X162675000Y-75675000D03*
D24*
X162100000Y-75450000D03*
X161700000Y-75450000D03*
X161300000Y-75450000D03*
X160900000Y-75450000D03*
D26*
X160900000Y-76100000D03*
D24*
X160900000Y-76750000D03*
X161300000Y-76750000D03*
X161700000Y-76750000D03*
X162100000Y-76750000D03*
X162500000Y-76750000D03*
D26*
X162500000Y-76100000D03*
%TD*%
D27*
%TO.C,U17*%
X193487501Y-128230000D03*
X193487501Y-127580000D03*
X193487501Y-126930000D03*
X193487501Y-126280000D03*
X193487501Y-125630000D03*
X193487501Y-124980000D03*
X193487501Y-124330000D03*
X193487501Y-123680000D03*
X193487501Y-123030000D03*
X193487501Y-122380000D03*
X187762501Y-122380000D03*
X187762501Y-123030000D03*
X187762501Y-123680000D03*
X187762501Y-124330000D03*
X187762501Y-124980000D03*
X187762501Y-125630000D03*
X187762501Y-126280000D03*
X187762501Y-126930000D03*
X187762501Y-127580000D03*
X187762501Y-128230000D03*
%TD*%
D28*
%TO.C,J6*%
X194385000Y-139140000D03*
X196925000Y-142450000D03*
X199465000Y-139140000D03*
%TD*%
D14*
%TO.C,CG4*%
X110855000Y-90460000D03*
D15*
X113395000Y-90460000D03*
X115935000Y-90460000D03*
X118475000Y-90460000D03*
X121015000Y-90460000D03*
D14*
X110855000Y-77760000D03*
D15*
X113395000Y-77760000D03*
X115935000Y-77760000D03*
X118475000Y-77760000D03*
X121015000Y-77760000D03*
D14*
X135620000Y-90460000D03*
D15*
X135620000Y-87920000D03*
X135620000Y-85380000D03*
X135620000Y-82840000D03*
X135620000Y-80300000D03*
X135620000Y-77760000D03*
D16*
X127365000Y-84110000D03*
%TD*%
D29*
%TO.C,IC10*%
X183250257Y-77135397D03*
D30*
X182850257Y-77085397D03*
X182450257Y-77085397D03*
X182050257Y-77085398D03*
D31*
X181450257Y-77285397D03*
X181450257Y-77685398D03*
X181450257Y-78085396D03*
X181450257Y-78485397D03*
D32*
X182050257Y-78685396D03*
X182450257Y-78685397D03*
X182850257Y-78685397D03*
X183250257Y-78685396D03*
D33*
X183850257Y-78485397D03*
X183850257Y-78085396D03*
X183850257Y-77685398D03*
X183850257Y-77285397D03*
%TD*%
D34*
%TO.C,U20*%
X199252501Y-127745000D03*
X199252501Y-126795000D03*
X199252501Y-125845000D03*
X196977501Y-125845000D03*
X196977501Y-127745000D03*
%TD*%
D12*
%TO.C,R28*%
X197400000Y-107050000D03*
X197400000Y-108700000D03*
%TD*%
D11*
%TO.C,D19*%
X149850000Y-117825000D03*
X149850000Y-116250000D03*
%TD*%
D12*
%TO.C,R74*%
X176006000Y-95223000D03*
X176006000Y-96873000D03*
%TD*%
%TO.C,R114*%
X151725000Y-126175000D03*
X151725000Y-127825000D03*
%TD*%
%TO.C,R80*%
X115173000Y-51218000D03*
X115173000Y-52868000D03*
%TD*%
D22*
%TO.C,C49*%
X163025000Y-72850000D03*
X164575000Y-72850000D03*
%TD*%
D11*
%TO.C,D21*%
X149850000Y-112200000D03*
X149850000Y-110625000D03*
%TD*%
D35*
%TO.C,R49*%
X222700000Y-33300000D03*
X221050000Y-33300000D03*
%TD*%
D14*
%TO.C,CG5*%
X110855000Y-73825000D03*
D15*
X113395000Y-73825000D03*
X115935000Y-73825000D03*
X118475000Y-73825000D03*
X121015000Y-73825000D03*
D14*
X110855000Y-61125000D03*
D15*
X113395000Y-61125000D03*
X115935000Y-61125000D03*
X118475000Y-61125000D03*
X121015000Y-61125000D03*
D14*
X135620000Y-73825000D03*
D15*
X135620000Y-71285000D03*
X135620000Y-68745000D03*
X135620000Y-66205000D03*
X135620000Y-63665000D03*
X135620000Y-61125000D03*
D16*
X127365000Y-67475000D03*
%TD*%
D13*
%TO.C,R45*%
X197060257Y-33965000D03*
X197060257Y-32315000D03*
%TD*%
D18*
%TO.C,D6*%
X196660000Y-114980000D03*
X196660000Y-116555000D03*
%TD*%
D36*
%TO.C,IC2*%
X196028750Y-75190000D03*
D31*
X195978750Y-75590000D03*
X195978750Y-75990000D03*
X195978750Y-76390000D03*
D32*
X196178750Y-76990000D03*
X196578750Y-76990000D03*
X196978750Y-76990000D03*
X197378750Y-76990000D03*
D33*
X197578750Y-76390000D03*
X197578750Y-75990000D03*
X197578750Y-75590000D03*
X197578750Y-75190000D03*
D30*
X197378750Y-74590000D03*
X196978750Y-74590000D03*
X196578750Y-74590000D03*
X196178750Y-74590000D03*
%TD*%
D37*
%TO.C,IC13*%
X187075257Y-47320000D03*
X187075257Y-46620000D03*
D38*
X187150257Y-45670000D03*
X186650257Y-45670000D03*
X186150257Y-45670000D03*
X185650257Y-45670000D03*
D37*
X185725257Y-46620000D03*
X185725257Y-47320000D03*
D38*
X185650257Y-48270000D03*
X186150257Y-48270000D03*
X186650257Y-48270000D03*
X187150257Y-48270000D03*
%TD*%
D13*
%TO.C,R104*%
X234553000Y-133449000D03*
X234553000Y-131799000D03*
%TD*%
D12*
%TO.C,R89*%
X114919000Y-133640000D03*
X114919000Y-135290000D03*
%TD*%
D39*
%TO.C,C25*%
X171012992Y-119710008D03*
X172109008Y-118613992D03*
%TD*%
D20*
%TO.C,R55*%
X223050000Y-25150000D03*
X224700000Y-25150000D03*
%TD*%
D12*
%TO.C,R34*%
X118500000Y-100750000D03*
X118500000Y-102400000D03*
%TD*%
D40*
%TO.C,D17*%
X186412500Y-66100000D03*
X187987500Y-66100000D03*
%TD*%
D23*
%TO.C,C44*%
X195600000Y-59100000D03*
X195600000Y-57550000D03*
%TD*%
D41*
%TO.C,D14*%
X169400000Y-34000000D03*
X170100000Y-34000000D03*
%TD*%
D14*
%TO.C,CG6*%
X110855000Y-57315000D03*
D15*
X113395000Y-57315000D03*
X115935000Y-57315000D03*
X118475000Y-57315000D03*
X121015000Y-57315000D03*
D14*
X110855000Y-44615000D03*
D15*
X113395000Y-44615000D03*
X115935000Y-44615000D03*
X118475000Y-44615000D03*
X121015000Y-44615000D03*
D14*
X135620000Y-57315000D03*
D15*
X135620000Y-54775000D03*
X135620000Y-52235000D03*
X135620000Y-49695000D03*
X135620000Y-47155000D03*
X135620000Y-44615000D03*
D16*
X127365000Y-50965000D03*
%TD*%
D13*
%TO.C,R22*%
X196670000Y-119645000D03*
X196670000Y-117995000D03*
%TD*%
D20*
%TO.C,R83*%
X162037000Y-122591000D03*
X163687000Y-122591000D03*
%TD*%
D13*
%TO.C,R41*%
X233029000Y-67663000D03*
X233029000Y-66013000D03*
%TD*%
%TO.C,R102*%
X234680000Y-117002000D03*
X234680000Y-115352000D03*
%TD*%
D42*
%TO.C,C33*%
X154475000Y-123025000D03*
X154475000Y-124575000D03*
%TD*%
D13*
%TO.C,R117*%
X139975000Y-129175000D03*
X139975000Y-127525000D03*
%TD*%
D43*
%TO.C,SW1*%
X201900000Y-110550000D03*
X201900000Y-106450000D03*
X203500000Y-110550000D03*
X203500000Y-106450000D03*
%TD*%
D22*
%TO.C,C39*%
X216025000Y-31450000D03*
X217575000Y-31450000D03*
%TD*%
D14*
%TO.C,CG11*%
X240645000Y-110780000D03*
D15*
X238105000Y-110780000D03*
X235565000Y-110780000D03*
X233025000Y-110780000D03*
X230485000Y-110780000D03*
D14*
X240645000Y-123480000D03*
D15*
X238105000Y-123480000D03*
X235565000Y-123480000D03*
X233025000Y-123480000D03*
X230485000Y-123480000D03*
D14*
X215880000Y-110780000D03*
D15*
X215880000Y-113320000D03*
X215880000Y-115860000D03*
X215880000Y-118400000D03*
X215880000Y-120940000D03*
X215880000Y-123480000D03*
D16*
X224135000Y-117130000D03*
%TD*%
D13*
%TO.C,R23*%
X198310000Y-119655000D03*
X198310000Y-118005000D03*
%TD*%
D12*
%TO.C,R88*%
X116824000Y-84237000D03*
X116824000Y-85887000D03*
%TD*%
D14*
%TO.C,CG7*%
X240645000Y-44740000D03*
D15*
X238105000Y-44740000D03*
X235565000Y-44740000D03*
X233025000Y-44740000D03*
X230485000Y-44740000D03*
D14*
X240645000Y-57440000D03*
D15*
X238105000Y-57440000D03*
X235565000Y-57440000D03*
X233025000Y-57440000D03*
X230485000Y-57440000D03*
D14*
X215880000Y-44740000D03*
D15*
X215880000Y-47280000D03*
X215880000Y-49820000D03*
X215880000Y-52360000D03*
X215880000Y-54900000D03*
X215880000Y-57440000D03*
D16*
X224135000Y-51090000D03*
%TD*%
D13*
%TO.C,R106*%
X234680000Y-84046000D03*
X234680000Y-82396000D03*
%TD*%
D42*
%TO.C,C13*%
X159270000Y-51665000D03*
X159270000Y-53215000D03*
%TD*%
D44*
%TO.C,SW4*%
X147000000Y-123510000D03*
X142900000Y-123510000D03*
X147000000Y-121910000D03*
X142900000Y-121910000D03*
%TD*%
D12*
%TO.C,R85*%
X115173000Y-67601000D03*
X115173000Y-69251000D03*
%TD*%
D35*
%TO.C,R11*%
X147085257Y-119730000D03*
X145435257Y-119730000D03*
%TD*%
D45*
%TO.C,U5*%
X191425000Y-59200000D03*
X191425000Y-60150000D03*
X191425000Y-61100000D03*
X193700000Y-61100000D03*
X193700000Y-59200000D03*
%TD*%
D46*
%TO.C,U4*%
X216480000Y-27610000D03*
X216480000Y-28110000D03*
X216480000Y-28610000D03*
X216480000Y-29110000D03*
X216480000Y-29610000D03*
X216480000Y-30110000D03*
X219370000Y-30110000D03*
X219370000Y-29610000D03*
X219370000Y-29110000D03*
X219370000Y-28610000D03*
X219370000Y-28110000D03*
X219370000Y-27610000D03*
D47*
X217925000Y-28860000D03*
%TD*%
D18*
%TO.C,D10*%
X199400000Y-107050000D03*
X199400000Y-108625000D03*
%TD*%
D12*
%TO.C,R69*%
X200100000Y-69875000D03*
X200100000Y-71525000D03*
%TD*%
D22*
%TO.C,C34*%
X185230257Y-77135397D03*
X186780257Y-77135397D03*
%TD*%
D48*
%TO.C,U12*%
X188775000Y-95342500D03*
X189725000Y-95342500D03*
X190675000Y-95342500D03*
X190675000Y-93067500D03*
X188775000Y-93067500D03*
%TD*%
D49*
%TO.C,D11*%
X159875000Y-38100000D03*
X158300000Y-38100000D03*
%TD*%
D20*
%TO.C,R7*%
X172725000Y-69900000D03*
X174375000Y-69900000D03*
%TD*%
D22*
%TO.C,C51*%
X167400000Y-74400000D03*
X168950000Y-74400000D03*
%TD*%
D44*
%TO.C,SW6*%
X147010257Y-117880000D03*
X142910257Y-117880000D03*
X147010257Y-116280000D03*
X142910257Y-116280000D03*
%TD*%
D18*
%TO.C,D2*%
X184695001Y-115049939D03*
X184695001Y-116624939D03*
%TD*%
D50*
%TO.C,X1*%
X197900000Y-145250000D03*
X195500000Y-145250000D03*
X195500000Y-147150000D03*
X197900000Y-147150000D03*
%TD*%
D51*
%TO.C,TP5*%
X180475000Y-28000000D03*
%TD*%
D13*
%TO.C,R105*%
X236331000Y-84046000D03*
X236331000Y-82396000D03*
%TD*%
D22*
%TO.C,C3*%
X174250000Y-42700000D03*
X175800000Y-42700000D03*
%TD*%
D13*
%TO.C,R21*%
X191790000Y-119682500D03*
X191790000Y-118032500D03*
%TD*%
D22*
%TO.C,C37*%
X200050000Y-74125000D03*
X201600000Y-74125000D03*
%TD*%
D20*
%TO.C,R24*%
X151994743Y-62577041D03*
X153644743Y-62577041D03*
%TD*%
D42*
%TO.C,C46*%
X188300000Y-100850000D03*
X188300000Y-102400000D03*
%TD*%
D22*
%TO.C,C7*%
X174440256Y-34449493D03*
X175990256Y-34449493D03*
%TD*%
D35*
%TO.C,R30*%
X197425000Y-110400000D03*
X195775000Y-110400000D03*
%TD*%
D26*
%TO.C,U24*%
X157000000Y-72650000D03*
D52*
X157225000Y-72475000D03*
D26*
X157000000Y-73050000D03*
X157000000Y-73450000D03*
X157000000Y-73850000D03*
X157000000Y-74250000D03*
D24*
X157650000Y-74250000D03*
D26*
X158300000Y-74250000D03*
X158300000Y-73850000D03*
X158300000Y-73450000D03*
X158300000Y-73050000D03*
X158300000Y-72650000D03*
D24*
X157650000Y-72650000D03*
%TD*%
D13*
%TO.C,R71*%
X170425000Y-131275000D03*
X170425000Y-129625000D03*
%TD*%
D18*
%TO.C,L2*%
X165600000Y-34875000D03*
X165600000Y-36450000D03*
%TD*%
D53*
%TO.C,TP7*%
X114000000Y-37400000D03*
%TD*%
D12*
%TO.C,R29*%
X193400000Y-107050000D03*
X193400000Y-108700000D03*
%TD*%
D40*
%TO.C,D16*%
X219512500Y-26200000D03*
X221087500Y-26200000D03*
%TD*%
D22*
%TO.C,C18*%
X177171699Y-83966462D03*
X178721699Y-83966462D03*
%TD*%
D42*
%TO.C,C60*%
X190220257Y-48000000D03*
X190220257Y-49550000D03*
%TD*%
D54*
%TO.C,TP10*%
X245200000Y-148100000D03*
%TD*%
D35*
%TO.C,R16*%
X147015257Y-114100000D03*
X145365257Y-114100000D03*
%TD*%
D55*
%TO.C,J47*%
X187560000Y-37940000D03*
D56*
X187560000Y-31640000D03*
D57*
X182760000Y-35040000D03*
%TD*%
D17*
%TO.C,C11*%
X159885000Y-46310000D03*
X158335000Y-46310000D03*
%TD*%
D13*
%TO.C,R1*%
X200100000Y-147025000D03*
X200100000Y-145375000D03*
%TD*%
%TO.C,R110*%
X234680000Y-51153000D03*
X234680000Y-49503000D03*
%TD*%
D58*
%TO.C,J7*%
X169010000Y-139585001D03*
D59*
X166470000Y-137045002D03*
X166470001Y-142125001D03*
X171549999Y-137045001D03*
X171550000Y-142125000D03*
%TD*%
D22*
%TO.C,C36*%
X185235257Y-78695397D03*
X186785257Y-78695397D03*
%TD*%
D60*
%TO.C,U9*%
X158350000Y-43300001D03*
X159000000Y-43300000D03*
X159650000Y-43300001D03*
X159650000Y-41400001D03*
X158350000Y-41400001D03*
%TD*%
D61*
%TO.C,U2*%
X163227757Y-66910397D03*
X163227757Y-68180397D03*
X163227757Y-69450397D03*
X163227757Y-70720397D03*
X170402757Y-70720397D03*
X170402757Y-69450397D03*
X170402757Y-68180397D03*
X170402757Y-66910397D03*
%TD*%
D35*
%TO.C,R59*%
X189385257Y-41810000D03*
X187735257Y-41810000D03*
%TD*%
D12*
%TO.C,R98*%
X198358000Y-83984000D03*
X198358000Y-85634000D03*
%TD*%
D53*
%TO.C,TP11*%
X177000000Y-61800000D03*
%TD*%
D35*
%TO.C,R44*%
X160050000Y-30750000D03*
X158400000Y-30750000D03*
%TD*%
D23*
%TO.C,C42*%
X214450000Y-27750000D03*
X214450000Y-26200000D03*
%TD*%
D13*
%TO.C,R99*%
X236331000Y-100619000D03*
X236331000Y-98969000D03*
%TD*%
%TO.C,R38*%
X233000000Y-117000000D03*
X233000000Y-115350000D03*
%TD*%
D35*
%TO.C,R8*%
X161250000Y-69500000D03*
X159600000Y-69500000D03*
%TD*%
%TO.C,R25*%
X185594000Y-73200000D03*
X183944000Y-73200000D03*
%TD*%
D62*
%TO.C,U1*%
X171765257Y-42817500D03*
X171265257Y-42817500D03*
X170765257Y-42817500D03*
X170265257Y-42817500D03*
X169765257Y-42817500D03*
X169265257Y-42817500D03*
X168765257Y-42817500D03*
X168265257Y-42817500D03*
X167765257Y-42817500D03*
X167265257Y-42817500D03*
X166765257Y-42817500D03*
X166265257Y-42817500D03*
X165765257Y-42817500D03*
X165265257Y-42817500D03*
X164765257Y-42817500D03*
X164265257Y-42817500D03*
D63*
X162340257Y-44742500D03*
X162340257Y-45242500D03*
X162340257Y-45742500D03*
X162340257Y-46242500D03*
X162340257Y-46742500D03*
X162340257Y-47242500D03*
X162340257Y-47742500D03*
X162340257Y-48242500D03*
X162340257Y-48742500D03*
X162340257Y-49242500D03*
X162340257Y-49742500D03*
X162340257Y-50242500D03*
X162340257Y-50742500D03*
X162340257Y-51242500D03*
X162340257Y-51742500D03*
X162340257Y-52242500D03*
D62*
X164265257Y-54167500D03*
X164765257Y-54167500D03*
X165265257Y-54167500D03*
X165765257Y-54167500D03*
X166265257Y-54167500D03*
X166765257Y-54167500D03*
X167265257Y-54167500D03*
X167765257Y-54167500D03*
X168265257Y-54167500D03*
X168765257Y-54167500D03*
X169265257Y-54167500D03*
X169765257Y-54167500D03*
X170265257Y-54167500D03*
X170765257Y-54167500D03*
X171265257Y-54167500D03*
X171765257Y-54167500D03*
D63*
X173690257Y-52242500D03*
X173690257Y-51742500D03*
X173690257Y-51242500D03*
X173690257Y-50742500D03*
X173690257Y-50242500D03*
X173690257Y-49742500D03*
X173690257Y-49242500D03*
X173690257Y-48742500D03*
X173690257Y-48242500D03*
X173690257Y-47742500D03*
X173690257Y-47242500D03*
X173690257Y-46742500D03*
X173690257Y-46242500D03*
X173690257Y-45742500D03*
X173690257Y-45242500D03*
X173690257Y-44742500D03*
%TD*%
D22*
%TO.C,C8*%
X174490256Y-36499493D03*
X176040256Y-36499493D03*
%TD*%
D64*
%TO.C,U28*%
X147440000Y-60693302D03*
X147940000Y-60693302D03*
X148440000Y-60693302D03*
X148940000Y-60693302D03*
X149440000Y-60693302D03*
X149440000Y-56293302D03*
X148940000Y-56293302D03*
X148440000Y-56293302D03*
X147940000Y-56293302D03*
X147440000Y-56293302D03*
%TD*%
D65*
%TO.C,R4*%
X165133274Y-129866726D03*
X166300000Y-128700000D03*
%TD*%
D35*
%TO.C,R6*%
X161266699Y-66746462D03*
X159616699Y-66746462D03*
%TD*%
D14*
%TO.C,U23*%
X113376000Y-152657455D03*
D15*
X115916000Y-152657455D03*
X118456000Y-152657455D03*
X120996000Y-152657455D03*
X123536000Y-152657455D03*
X126076000Y-152657455D03*
X128616000Y-152657455D03*
X131156000Y-152657455D03*
X133696000Y-152657455D03*
X136236000Y-152657455D03*
X138776000Y-152657455D03*
X141316000Y-152657455D03*
X143856000Y-152657455D03*
X146396000Y-152657455D03*
X148936000Y-152657455D03*
X151476000Y-152657455D03*
X154016000Y-152657455D03*
X156556000Y-152657455D03*
X159096000Y-152657455D03*
X161636000Y-152657455D03*
X164176000Y-152657455D03*
X166716000Y-152657455D03*
X169256000Y-152657455D03*
X171796000Y-152657455D03*
X174336000Y-152657455D03*
X176876000Y-152657455D03*
X179416000Y-152657455D03*
X181956000Y-152657455D03*
X184496000Y-152657455D03*
X187036000Y-152657455D03*
X189576000Y-152657455D03*
X192116000Y-152657455D03*
X194656000Y-152657455D03*
X197196000Y-152657455D03*
X199736000Y-152657455D03*
X202276000Y-152657455D03*
X204816000Y-152657455D03*
X207356000Y-152657455D03*
X209896000Y-152657455D03*
X212436000Y-152657455D03*
X214976000Y-152657455D03*
X217516000Y-152657455D03*
X220056000Y-152657455D03*
X222596000Y-152657455D03*
X225136000Y-152657455D03*
X227676000Y-152657455D03*
X230216000Y-152657455D03*
X232756000Y-152657455D03*
X235296000Y-152657455D03*
X237836000Y-152657455D03*
X113376000Y-155197455D03*
X115916000Y-155197455D03*
X118456000Y-155197455D03*
X120996000Y-155197455D03*
X123536000Y-155197455D03*
X126076000Y-155197455D03*
X128616000Y-155197455D03*
X131156000Y-155197455D03*
X133696000Y-155197455D03*
X136236000Y-155197455D03*
X138776000Y-155197455D03*
X141316000Y-155197455D03*
X143856000Y-155197455D03*
X146396000Y-155197455D03*
X148936000Y-155197455D03*
X151476000Y-155197455D03*
X154016000Y-155197455D03*
X156556000Y-155197455D03*
X159096000Y-155197455D03*
X161636000Y-155197455D03*
X164176000Y-155197455D03*
X166716000Y-155197455D03*
X169256000Y-155197455D03*
X171796000Y-155197455D03*
X174336000Y-155197455D03*
X176876000Y-155197455D03*
X179416000Y-155197455D03*
X181956000Y-155197455D03*
X184496000Y-155197455D03*
X187036000Y-155197455D03*
X189576000Y-155197455D03*
X192116000Y-155197455D03*
X194656000Y-155197455D03*
X197196000Y-155197455D03*
X199736000Y-155197455D03*
X202276000Y-155197455D03*
X204816000Y-155197455D03*
X207356000Y-155197455D03*
X209896000Y-155197455D03*
X212436000Y-155197455D03*
X214976000Y-155197455D03*
X217516000Y-155197455D03*
X220056000Y-155197455D03*
X222596000Y-155197455D03*
X225136000Y-155197455D03*
X227676000Y-155197455D03*
X230216000Y-155197455D03*
X232756000Y-155197455D03*
X235296000Y-155197455D03*
X237836000Y-155197455D03*
X113376000Y-157737455D03*
X115916000Y-157737455D03*
X118456000Y-157737455D03*
X120996000Y-157737455D03*
X123536000Y-157737455D03*
X126076000Y-157737455D03*
X128616000Y-157737455D03*
X131156000Y-157737455D03*
X133696000Y-157737455D03*
X136236000Y-157737455D03*
X138776000Y-157737455D03*
X141316000Y-157737455D03*
X143856000Y-157737455D03*
X146396000Y-157737455D03*
X148936000Y-157737455D03*
X151476000Y-157737455D03*
X154016000Y-157737455D03*
X156556000Y-157737455D03*
X159096000Y-157737455D03*
X161636000Y-157737455D03*
X164176000Y-157737455D03*
X166716000Y-157737455D03*
X169256000Y-157737455D03*
X171796000Y-157737455D03*
X174336000Y-157737455D03*
X176876000Y-157737455D03*
X179416000Y-157737455D03*
X181956000Y-157737455D03*
X184496000Y-157737455D03*
X187036000Y-157737455D03*
X189576000Y-157737455D03*
X192116000Y-157737455D03*
X194656000Y-157737455D03*
X197196000Y-157737455D03*
X199736000Y-157737455D03*
X202276000Y-157737455D03*
X204816000Y-157737455D03*
X207356000Y-157737455D03*
X209896000Y-157737455D03*
X212436000Y-157737455D03*
X214976000Y-157737455D03*
X217516000Y-157737455D03*
X220056000Y-157737455D03*
X222596000Y-157737455D03*
X225136000Y-157737455D03*
X227676000Y-157737455D03*
X230216000Y-157737455D03*
X232756000Y-157737455D03*
X235296000Y-157737455D03*
X237836000Y-157737455D03*
%TD*%
D13*
%TO.C,R19*%
X186385001Y-119719939D03*
X186385001Y-118069939D03*
%TD*%
D66*
%TO.C,C26*%
X173252008Y-119756992D03*
X172155992Y-120853008D03*
%TD*%
D13*
%TO.C,R40*%
X233029000Y-84046000D03*
X233029000Y-82396000D03*
%TD*%
D12*
%TO.C,R86*%
X116824000Y-67600000D03*
X116824000Y-69250000D03*
%TD*%
D35*
%TO.C,R12*%
X164840000Y-101610000D03*
X163190000Y-101610000D03*
%TD*%
D67*
%TO.C,U11*%
X153900000Y-132462500D03*
X154550000Y-132462500D03*
X155200000Y-132462500D03*
X155850000Y-132462500D03*
X156500000Y-132462500D03*
X157150000Y-132462500D03*
X157800000Y-132462500D03*
X158450000Y-132462500D03*
X159100000Y-132462500D03*
X159750000Y-132462500D03*
X159750000Y-126737500D03*
X159100000Y-126737500D03*
X158450000Y-126737500D03*
X157800000Y-126737500D03*
X157150000Y-126737500D03*
X156500000Y-126737500D03*
X155850000Y-126737500D03*
X155200000Y-126737500D03*
X154550000Y-126737500D03*
X153900000Y-126737500D03*
%TD*%
D22*
%TO.C,C65*%
X175790256Y-44341826D03*
X177340256Y-44341826D03*
%TD*%
D12*
%TO.C,R33*%
X118500000Y-84275000D03*
X118500000Y-85925000D03*
%TD*%
D23*
%TO.C,C45*%
X152800000Y-51005000D03*
X152800000Y-49455000D03*
%TD*%
D35*
%TO.C,R10*%
X146935257Y-125250000D03*
X145285257Y-125250000D03*
%TD*%
D14*
%TO.C,CG2*%
X110855000Y-123355000D03*
D15*
X113395000Y-123355000D03*
X115935000Y-123355000D03*
X118475000Y-123355000D03*
X121015000Y-123355000D03*
D14*
X110855000Y-110655000D03*
D15*
X113395000Y-110655000D03*
X115935000Y-110655000D03*
X118475000Y-110655000D03*
X121015000Y-110655000D03*
D14*
X135620000Y-123355000D03*
D15*
X135620000Y-120815000D03*
X135620000Y-118275000D03*
X135620000Y-115735000D03*
X135620000Y-113195000D03*
X135620000Y-110655000D03*
D16*
X127365000Y-117005000D03*
%TD*%
D12*
%TO.C,R90*%
X116697000Y-133640000D03*
X116697000Y-135290000D03*
%TD*%
%TO.C,R81*%
X116824000Y-51217000D03*
X116824000Y-52867000D03*
%TD*%
%TO.C,R61*%
X195600000Y-62050000D03*
X195600000Y-63700000D03*
%TD*%
D17*
%TO.C,C14*%
X167900000Y-100000000D03*
X166350000Y-100000000D03*
%TD*%
D35*
%TO.C,R64*%
X159950000Y-34700000D03*
X158300000Y-34700000D03*
%TD*%
D13*
%TO.C,R77*%
X156150000Y-124625000D03*
X156150000Y-122975000D03*
%TD*%
D42*
%TO.C,C10*%
X162200000Y-34650000D03*
X162200000Y-36200000D03*
%TD*%
D17*
%TO.C,C47*%
X155275000Y-94700000D03*
X153725000Y-94700000D03*
%TD*%
D11*
%TO.C,D24*%
X144550000Y-140350000D03*
X144550000Y-138775000D03*
%TD*%
D13*
%TO.C,R100*%
X234680000Y-100619000D03*
X234680000Y-98969000D03*
%TD*%
D68*
%TO.C,U15*%
X186126763Y-106416506D03*
X183586763Y-106416506D03*
X181046763Y-106416506D03*
X178506763Y-106416506D03*
X186126763Y-97616506D03*
X178506763Y-97616506D03*
%TD*%
D66*
%TO.C,C27*%
X167348008Y-129851992D03*
X166251992Y-130948008D03*
%TD*%
D69*
%TO.C,R5*%
X193325000Y-147175000D03*
X192158274Y-148341726D03*
%TD*%
D13*
%TO.C,R37*%
X232900000Y-133449000D03*
X232900000Y-131799000D03*
%TD*%
D42*
%TO.C,C40*%
X214450000Y-29325000D03*
X214450000Y-30875000D03*
%TD*%
D65*
%TO.C,R70*%
X166133274Y-133266726D03*
X167300000Y-132100000D03*
%TD*%
D23*
%TO.C,C38*%
X199700000Y-78850000D03*
X199700000Y-77300000D03*
%TD*%
D13*
%TO.C,R103*%
X236204000Y-133449000D03*
X236204000Y-131799000D03*
%TD*%
D70*
%TO.C,U10*%
X170430257Y-122047500D03*
X169930257Y-122047500D03*
X169430257Y-122047500D03*
X168930257Y-122047500D03*
X168430257Y-122047500D03*
X168430257Y-126347500D03*
X168930257Y-126347500D03*
X169430257Y-126347500D03*
X169930257Y-126347500D03*
X170430257Y-126347500D03*
D71*
X169430257Y-124197500D03*
%TD*%
D20*
%TO.C,R82*%
X162037000Y-120813000D03*
X163687000Y-120813000D03*
%TD*%
D14*
%TO.C,CG9*%
X240645000Y-77760000D03*
D15*
X238105000Y-77760000D03*
X235565000Y-77760000D03*
X233025000Y-77760000D03*
X230485000Y-77760000D03*
D14*
X240645000Y-90460000D03*
D15*
X238105000Y-90460000D03*
X235565000Y-90460000D03*
X233025000Y-90460000D03*
X230485000Y-90460000D03*
D14*
X215880000Y-77760000D03*
D15*
X215880000Y-80300000D03*
X215880000Y-82840000D03*
X215880000Y-85380000D03*
X215880000Y-87920000D03*
X215880000Y-90460000D03*
D16*
X224135000Y-84110000D03*
%TD*%
D42*
%TO.C,C6*%
X174385256Y-53656826D03*
X174385256Y-55206826D03*
%TD*%
D18*
%TO.C,D3*%
X186415001Y-115049939D03*
X186415001Y-116624939D03*
%TD*%
D54*
%TO.C,TP14*%
X142000000Y-92000000D03*
%TD*%
D13*
%TO.C,R20*%
X190070000Y-119683750D03*
X190070000Y-118033750D03*
%TD*%
D11*
%TO.C,D22*%
X149600000Y-140375000D03*
X149600000Y-138800000D03*
%TD*%
D22*
%TO.C,C30*%
X216025000Y-33050000D03*
X217575000Y-33050000D03*
%TD*%
D35*
%TO.C,R13*%
X164850000Y-100000000D03*
X163200000Y-100000000D03*
%TD*%
D12*
%TO.C,R32*%
X118500000Y-67575000D03*
X118500000Y-69225000D03*
%TD*%
D20*
%TO.C,R75*%
X181975000Y-95400000D03*
X183625000Y-95400000D03*
%TD*%
D35*
%TO.C,R48*%
X160050000Y-27450000D03*
X158400000Y-27450000D03*
%TD*%
D20*
%TO.C,R9*%
X172726699Y-68266462D03*
X174376699Y-68266462D03*
%TD*%
D35*
%TO.C,R43*%
X160050000Y-29100000D03*
X158400000Y-29100000D03*
%TD*%
D72*
%TO.C,U6*%
X166602500Y-103120000D03*
X166602500Y-103620000D03*
X166602500Y-104120000D03*
X166602500Y-104620000D03*
X166602500Y-105120000D03*
X166602500Y-105620000D03*
D73*
X167290000Y-106307500D03*
X167790000Y-106307500D03*
X168290000Y-106307500D03*
X168790000Y-106307500D03*
X169290000Y-106307500D03*
X169790000Y-106307500D03*
D72*
X170477500Y-105620000D03*
X170477500Y-105120000D03*
X170477500Y-104620000D03*
X170477500Y-104120000D03*
X170477500Y-103620000D03*
X170477500Y-103120000D03*
D73*
X169790000Y-102432500D03*
X169290000Y-102432500D03*
X168790000Y-102432500D03*
X168290000Y-102432500D03*
X167790000Y-102432500D03*
X167290000Y-102432500D03*
D74*
X168540000Y-104370000D03*
%TD*%
D42*
%TO.C,C9*%
X163800000Y-34650000D03*
X163800000Y-36200000D03*
%TD*%
D17*
%TO.C,C1*%
X163775000Y-39900000D03*
X162225000Y-39900000D03*
%TD*%
D20*
%TO.C,R63*%
X158275000Y-39800000D03*
X159925000Y-39800000D03*
%TD*%
%TO.C,R84*%
X147209743Y-62737041D03*
X148859743Y-62737041D03*
%TD*%
D12*
%TO.C,R93*%
X115173000Y-100748000D03*
X115173000Y-102398000D03*
%TD*%
D75*
%TO.C,Y1*%
X174250000Y-38600000D03*
X174250000Y-40800000D03*
X175950000Y-40800000D03*
X175950000Y-38600000D03*
%TD*%
D13*
%TO.C,R96*%
X155310000Y-60918302D03*
X155310000Y-59268302D03*
%TD*%
D72*
%TO.C,U21*%
X155017500Y-99475000D03*
X155017500Y-99975000D03*
X155017500Y-100475000D03*
X155017500Y-100975000D03*
X155017500Y-101475000D03*
X155017500Y-101975000D03*
D73*
X155705000Y-102662500D03*
X156205000Y-102662500D03*
X156705000Y-102662500D03*
X157205000Y-102662500D03*
X157705000Y-102662500D03*
X158205000Y-102662500D03*
D72*
X158892500Y-101975000D03*
X158892500Y-101475000D03*
X158892500Y-100975000D03*
X158892500Y-100475000D03*
X158892500Y-99975000D03*
X158892500Y-99475000D03*
D73*
X158205000Y-98787500D03*
X157705000Y-98787500D03*
X157205000Y-98787500D03*
X156705000Y-98787500D03*
X156205000Y-98787500D03*
X155705000Y-98787500D03*
D76*
X156955000Y-100725000D03*
%TD*%
D16*
%TO.C,J2*%
X149590000Y-42200000D03*
%TD*%
D22*
%TO.C,C16*%
X172775000Y-66600000D03*
X174325000Y-66600000D03*
%TD*%
D14*
%TO.C,J3*%
X193278000Y-88301000D03*
D15*
X195818000Y-88301000D03*
X198358000Y-88301000D03*
X200898000Y-88301000D03*
%TD*%
D36*
%TO.C,IC3*%
X196048750Y-79765000D03*
D31*
X195998750Y-80165000D03*
X195998750Y-80565000D03*
X195998750Y-80965000D03*
D32*
X196198750Y-81565000D03*
X196598750Y-81565000D03*
X196998750Y-81565000D03*
X197398750Y-81565000D03*
D33*
X197598750Y-80965000D03*
X197598750Y-80565000D03*
X197598750Y-80165000D03*
X197598750Y-79765000D03*
D30*
X197398750Y-79165000D03*
X196998750Y-79165000D03*
X196598750Y-79165000D03*
X196198750Y-79165000D03*
%TD*%
D77*
%TO.C,Y2*%
X167201398Y-117700723D03*
X168757033Y-119256358D03*
X169959114Y-118054277D03*
X168403479Y-116498642D03*
%TD*%
D13*
%TO.C,R109*%
X236331000Y-51153000D03*
X236331000Y-49503000D03*
%TD*%
D24*
%TO.C,U25*%
X165750000Y-75450000D03*
D25*
X165925000Y-75675000D03*
D24*
X165350000Y-75450000D03*
X164950000Y-75450000D03*
X164550000Y-75450000D03*
X164150000Y-75450000D03*
D26*
X164150000Y-76100000D03*
D24*
X164150000Y-76750000D03*
X164550000Y-76750000D03*
X164950000Y-76750000D03*
X165350000Y-76750000D03*
X165750000Y-76750000D03*
D26*
X165750000Y-76100000D03*
%TD*%
D78*
%TO.C,U22*%
X191775000Y-102942500D03*
X192275000Y-102942500D03*
X192775000Y-102942500D03*
X193275000Y-102942500D03*
X193775000Y-102942500D03*
X194275000Y-102942500D03*
D79*
X194962500Y-102255000D03*
X194962500Y-101755000D03*
X194962500Y-101255000D03*
X194962500Y-100755000D03*
X194962500Y-100255000D03*
X194962500Y-99755000D03*
D78*
X194275000Y-99067500D03*
X193775000Y-99067500D03*
X193275000Y-99067500D03*
X192775000Y-99067500D03*
X192275000Y-99067500D03*
X191775000Y-99067500D03*
D79*
X191087500Y-99755000D03*
X191087500Y-100255000D03*
X191087500Y-100755000D03*
X191087500Y-101255000D03*
X191087500Y-101755000D03*
X191087500Y-102255000D03*
D76*
X193025000Y-101005000D03*
%TD*%
D20*
%TO.C,R111*%
X163225000Y-95500000D03*
X164875000Y-95500000D03*
%TD*%
D18*
%TO.C,D5*%
X191820000Y-115012500D03*
X191820000Y-116587500D03*
%TD*%
D22*
%TO.C,C12*%
X175500256Y-48591826D03*
X177050256Y-48591826D03*
%TD*%
D42*
%TO.C,C43*%
X189200000Y-59450000D03*
X189200000Y-61000000D03*
%TD*%
%TO.C,C21*%
X154670000Y-135926000D03*
X154670000Y-137476000D03*
%TD*%
D12*
%TO.C,R116*%
X139975000Y-133200000D03*
X139975000Y-134850000D03*
%TD*%
D17*
%TO.C,C32*%
X194338750Y-78940000D03*
X192788750Y-78940000D03*
%TD*%
D40*
%TO.C,D26*%
X166925000Y-95525000D03*
X168500000Y-95525000D03*
%TD*%
D23*
%TO.C,C41*%
X212750000Y-27750000D03*
X212750000Y-26200000D03*
%TD*%
D13*
%TO.C,R50*%
X221100000Y-31750000D03*
X221100000Y-30100000D03*
%TD*%
%TO.C,R108*%
X234680000Y-67663000D03*
X234680000Y-66013000D03*
%TD*%
D14*
%TO.C,J73*%
X202630000Y-77940000D03*
D15*
X202630000Y-80480000D03*
X202630000Y-83020000D03*
%TD*%
D18*
%TO.C,D12*%
X195400000Y-107050000D03*
X195400000Y-108625000D03*
%TD*%
D22*
%TO.C,C22*%
X203335257Y-30515000D03*
X204885257Y-30515000D03*
%TD*%
D13*
%TO.C,R101*%
X236331000Y-117002000D03*
X236331000Y-115352000D03*
%TD*%
%TO.C,R53*%
X187500000Y-61100000D03*
X187500000Y-59450000D03*
%TD*%
%TO.C,R18*%
X184635001Y-119719939D03*
X184635001Y-118069939D03*
%TD*%
D22*
%TO.C,C15*%
X169835000Y-57480000D03*
X171385000Y-57480000D03*
%TD*%
D34*
%TO.C,U19*%
X199182501Y-124177500D03*
X199182501Y-123227500D03*
X199182501Y-122277500D03*
X196907501Y-122277500D03*
X196907501Y-124177500D03*
%TD*%
D44*
%TO.C,SW5*%
X184230257Y-93380000D03*
X180130257Y-93380000D03*
X184230257Y-91780000D03*
X180130257Y-91780000D03*
%TD*%
D80*
%TO.C,TP12*%
X177200000Y-131300000D03*
%TD*%
D12*
%TO.C,R112*%
X151750000Y-132550000D03*
X151750000Y-134200000D03*
%TD*%
D14*
%TO.C,CG12*%
X240649000Y-127163000D03*
D15*
X238109000Y-127163000D03*
X235569000Y-127163000D03*
X233029000Y-127163000D03*
X230489000Y-127163000D03*
D14*
X240649000Y-139863000D03*
D15*
X238109000Y-139863000D03*
X235569000Y-139863000D03*
X233029000Y-139863000D03*
X230489000Y-139863000D03*
D14*
X215884000Y-127163000D03*
D15*
X215884000Y-129703000D03*
X215884000Y-132243000D03*
X215884000Y-134783000D03*
X215884000Y-137323000D03*
X215884000Y-139863000D03*
D16*
X224139000Y-133513000D03*
%TD*%
D12*
%TO.C,R31*%
X118500000Y-51200000D03*
X118500000Y-52850000D03*
%TD*%
D23*
%TO.C,C4*%
X172400000Y-40775000D03*
X172400000Y-39225000D03*
%TD*%
D42*
%TO.C,C59*%
X187790257Y-49655000D03*
X187790257Y-51205000D03*
%TD*%
D12*
%TO.C,R52*%
X212750000Y-29300000D03*
X212750000Y-30950000D03*
%TD*%
D42*
%TO.C,C52*%
X165900000Y-79425000D03*
X165900000Y-80975000D03*
%TD*%
D13*
%TO.C,R42*%
X233050000Y-51153000D03*
X233050000Y-49503000D03*
%TD*%
D12*
%TO.C,R97*%
X195818000Y-83984000D03*
X195818000Y-85634000D03*
%TD*%
%TO.C,R57*%
X183825257Y-41870000D03*
X183825257Y-43520000D03*
%TD*%
D81*
%TO.C,C61*%
X194630257Y-46160000D03*
X194630257Y-50560000D03*
%TD*%
D35*
%TO.C,R15*%
X200152757Y-28550000D03*
X198502757Y-28550000D03*
%TD*%
D11*
%TO.C,D23*%
X147025000Y-140375000D03*
X147025000Y-138800000D03*
%TD*%
D82*
%TO.C,RV1*%
X204000000Y-69900000D03*
X206540000Y-69900000D03*
X209080000Y-69900000D03*
%TD*%
D12*
%TO.C,R58*%
X185575257Y-41870000D03*
X185575257Y-43520000D03*
%TD*%
D51*
%TO.C,TP3*%
X195200000Y-28000000D03*
%TD*%
D18*
%TO.C,D1*%
X182965001Y-115049939D03*
X182965001Y-116624939D03*
%TD*%
D12*
%TO.C,R54*%
X184600000Y-49600000D03*
X184600000Y-51250000D03*
%TD*%
D83*
%TO.C,U8*%
X175860257Y-85611170D03*
X175860257Y-86111170D03*
X175860257Y-86611170D03*
X175860257Y-87111170D03*
X175860257Y-87611170D03*
X180260257Y-87611170D03*
X180260257Y-87111170D03*
X180260257Y-86611170D03*
X180260257Y-86111170D03*
X180260257Y-85611170D03*
%TD*%
D11*
%TO.C,D15*%
X182975000Y-51200000D03*
X182975000Y-49625000D03*
%TD*%
D20*
%TO.C,R60*%
X185115257Y-40230000D03*
X186765257Y-40230000D03*
%TD*%
%TO.C,R65*%
X158300000Y-36400000D03*
X159950000Y-36400000D03*
%TD*%
D12*
%TO.C,R26*%
X193200000Y-94250000D03*
X193200000Y-95900000D03*
%TD*%
D13*
%TO.C,R46*%
X203135257Y-33975000D03*
X203135257Y-32325000D03*
%TD*%
D12*
%TO.C,R51*%
X211150000Y-29300000D03*
X211150000Y-30950000D03*
%TD*%
D20*
%TO.C,R3*%
X162175000Y-38200000D03*
X163825000Y-38200000D03*
%TD*%
D17*
%TO.C,C31*%
X194275000Y-81925000D03*
X192725000Y-81925000D03*
%TD*%
D13*
%TO.C,R107*%
X236331000Y-67663000D03*
X236331000Y-66013000D03*
%TD*%
D34*
%TO.C,U18*%
X199212501Y-131525000D03*
X199212501Y-130575000D03*
X199212501Y-129625000D03*
X196937501Y-129625000D03*
X196937501Y-131525000D03*
%TD*%
D45*
%TO.C,U3*%
X198897757Y-32390000D03*
X198897757Y-33340000D03*
X198897757Y-34290000D03*
X201172757Y-34290000D03*
X201172757Y-32390000D03*
%TD*%
D12*
%TO.C,R113*%
X151725000Y-129275000D03*
X151725000Y-130925000D03*
%TD*%
D17*
%TO.C,C20*%
X198535257Y-30490000D03*
X196985257Y-30490000D03*
%TD*%
D16*
%TO.C,J66*%
X204700000Y-48200000D03*
%TD*%
D64*
%TO.C,U14*%
X151670000Y-60703302D03*
X152170000Y-60703302D03*
X152670000Y-60703302D03*
X153170000Y-60703302D03*
X153670000Y-60703302D03*
X153670000Y-56303302D03*
X153170000Y-56303302D03*
X152670000Y-56303302D03*
X152170000Y-56303302D03*
X151670000Y-56303302D03*
%TD*%
D12*
%TO.C,R2*%
X170700000Y-37175000D03*
X170700000Y-38825000D03*
%TD*%
D84*
%TO.C,C23*%
X166768265Y-119775508D03*
X165672249Y-118679492D03*
%TD*%
D40*
%TO.C,D7*%
X200170257Y-30620000D03*
X201745257Y-30620000D03*
%TD*%
D51*
%TO.C,TP6*%
X196300000Y-70100000D03*
%TD*%
D18*
%TO.C,L1*%
X172765256Y-34649493D03*
X172765256Y-36224493D03*
%TD*%
D13*
%TO.C,R62*%
X213800000Y-54900000D03*
X213800000Y-53250000D03*
%TD*%
D12*
%TO.C,R94*%
X116824000Y-100748000D03*
X116824000Y-102398000D03*
%TD*%
D17*
%TO.C,C24*%
X197900000Y-149100000D03*
X196350000Y-149100000D03*
%TD*%
D13*
%TO.C,R95*%
X159450000Y-124625000D03*
X159450000Y-122975000D03*
%TD*%
D17*
%TO.C,C5*%
X167275257Y-58330000D03*
X165725257Y-58330000D03*
%TD*%
D13*
%TO.C,R39*%
X233029000Y-100575000D03*
X233029000Y-98925000D03*
%TD*%
%TO.C,R17*%
X182955001Y-119719939D03*
X182955001Y-118069939D03*
%TD*%
D14*
%TO.C,CG8*%
X240645000Y-61250000D03*
D15*
X238105000Y-61250000D03*
X235565000Y-61250000D03*
X233025000Y-61250000D03*
X230485000Y-61250000D03*
D14*
X240645000Y-73950000D03*
D15*
X238105000Y-73950000D03*
X235565000Y-73950000D03*
X233025000Y-73950000D03*
X230485000Y-73950000D03*
D14*
X215880000Y-61250000D03*
D15*
X215880000Y-63790000D03*
X215880000Y-66330000D03*
X215880000Y-68870000D03*
X215880000Y-71410000D03*
X215880000Y-73950000D03*
D16*
X224135000Y-67600000D03*
%TD*%
D18*
%TO.C,D18*%
X191400000Y-107050000D03*
X191400000Y-108625000D03*
%TD*%
D13*
%TO.C,R47*%
X204885257Y-33975000D03*
X204885257Y-32325000D03*
%TD*%
D23*
%TO.C,C17*%
X182075257Y-43420000D03*
X182075257Y-41870000D03*
%TD*%
D12*
%TO.C,R87*%
X115173000Y-84235000D03*
X115173000Y-85885000D03*
%TD*%
D85*
%TO.C,J8*%
X171820000Y-31355000D03*
X171020000Y-31355000D03*
D86*
X169870000Y-31355000D03*
X168870000Y-31355000D03*
X168370000Y-31355000D03*
X167370000Y-31355000D03*
D85*
X166220000Y-31355000D03*
X165420000Y-31355000D03*
X165420000Y-31355000D03*
X166220000Y-31355000D03*
D86*
X166870000Y-31355000D03*
X167870000Y-31355000D03*
X169370000Y-31355000D03*
X170370000Y-31355000D03*
D85*
X171020000Y-31355000D03*
X171820000Y-31355000D03*
D87*
X172940000Y-30780000D03*
D88*
X172940000Y-26600000D03*
D87*
X164300000Y-30780000D03*
D88*
X164300000Y-26600000D03*
%TD*%
D12*
%TO.C,R35*%
X118450000Y-117175000D03*
X118450000Y-118825000D03*
%TD*%
D89*
%TO.C,L3*%
X224747000Y-29300000D03*
X229600000Y-29300000D03*
%TD*%
D13*
%TO.C,R79*%
X157825000Y-124625000D03*
X157825000Y-122975000D03*
%TD*%
%TO.C,R72*%
X188300000Y-99000000D03*
X188300000Y-97350000D03*
%TD*%
D18*
%TO.C,D9*%
X199980000Y-114980000D03*
X199980000Y-116555000D03*
%TD*%
D51*
%TO.C,TP2*%
X180500000Y-47400000D03*
%TD*%
D23*
%TO.C,C50*%
X148440000Y-50875000D03*
X148440000Y-49325000D03*
%TD*%
D11*
%TO.C,D25*%
X141975000Y-140350000D03*
X141975000Y-138775000D03*
%TD*%
D12*
%TO.C,R92*%
X116824000Y-117131000D03*
X116824000Y-118781000D03*
%TD*%
%TO.C,R91*%
X115173000Y-117130000D03*
X115173000Y-118780000D03*
%TD*%
D14*
%TO.C,CG1*%
X110855000Y-139865000D03*
D15*
X113395000Y-139865000D03*
X115935000Y-139865000D03*
X118475000Y-139865000D03*
X121015000Y-139865000D03*
D14*
X110855000Y-127165000D03*
D15*
X113395000Y-127165000D03*
X115935000Y-127165000D03*
X118475000Y-127165000D03*
X121015000Y-127165000D03*
D14*
X135620000Y-139865000D03*
D15*
X135620000Y-137325000D03*
X135620000Y-134785000D03*
X135620000Y-132245000D03*
X135620000Y-129705000D03*
X135620000Y-127165000D03*
D16*
X127365000Y-133515000D03*
%TD*%
D54*
%TO.C,TP13*%
X211000000Y-88500000D03*
%TD*%
D22*
%TO.C,C19*%
X187800000Y-43700000D03*
X189350000Y-43700000D03*
%TD*%
D90*
%TO.C,D13*%
X167850000Y-34000000D03*
X167150000Y-34000000D03*
%TD*%
D21*
%TO.C,TP8*%
X241100000Y-36600000D03*
%TD*%
D12*
%TO.C,R115*%
X151725000Y-123050000D03*
X151725000Y-124700000D03*
%TD*%
D42*
%TO.C,C54*%
X163150000Y-79400000D03*
X163150000Y-80950000D03*
%TD*%
D12*
%TO.C,R78*%
X189400000Y-107050000D03*
X189400000Y-108700000D03*
%TD*%
D23*
%TO.C,C28*%
X187655001Y-131129939D03*
X187655001Y-129579939D03*
%TD*%
D72*
%TO.C,U7*%
X155092757Y-139750000D03*
X155092757Y-140250000D03*
X155092757Y-140750000D03*
X155092757Y-141250000D03*
X155092757Y-141750000D03*
X155092757Y-142250000D03*
D73*
X155780257Y-142937500D03*
X156280257Y-142937500D03*
X156780257Y-142937500D03*
X157280257Y-142937500D03*
X157780257Y-142937500D03*
X158280257Y-142937500D03*
D72*
X158967757Y-142250000D03*
X158967757Y-141750000D03*
X158967757Y-141250000D03*
X158967757Y-140750000D03*
X158967757Y-140250000D03*
X158967757Y-139750000D03*
D73*
X158280257Y-139062500D03*
X157780257Y-139062500D03*
X157280257Y-139062500D03*
X156780257Y-139062500D03*
X156280257Y-139062500D03*
X155780257Y-139062500D03*
D74*
X157030257Y-141000000D03*
%TD*%
D51*
%TO.C,TP1*%
X208200000Y-28000000D03*
%TD*%
%TO.C,TP4*%
X176350000Y-28000000D03*
%TD*%
D13*
%TO.C,R27*%
X199970000Y-119652500D03*
X199970000Y-118002500D03*
%TD*%
D18*
%TO.C,D8*%
X198310000Y-114985000D03*
X198310000Y-116560000D03*
%TD*%
D12*
%TO.C,R56*%
X186200000Y-49600000D03*
X186200000Y-51250000D03*
%TD*%
D22*
%TO.C,C66*%
X175470256Y-51911826D03*
X177020256Y-51911826D03*
%TD*%
D44*
%TO.C,SW7*%
X146970257Y-112190000D03*
X142870257Y-112190000D03*
X146970257Y-110590000D03*
X142870257Y-110590000D03*
%TD*%
D14*
%TO.C,CG3*%
X110855000Y-106970000D03*
D15*
X113395000Y-106970000D03*
X115935000Y-106970000D03*
X118475000Y-106970000D03*
X121015000Y-106970000D03*
D14*
X110855000Y-94270000D03*
D15*
X113395000Y-94270000D03*
X115935000Y-94270000D03*
X118475000Y-94270000D03*
X121015000Y-94270000D03*
D14*
X135620000Y-106970000D03*
D15*
X135620000Y-104430000D03*
X135620000Y-101890000D03*
X135620000Y-99350000D03*
X135620000Y-96810000D03*
X135620000Y-94270000D03*
D16*
X127365000Y-100620000D03*
%TD*%
D12*
%TO.C,R36*%
X118500000Y-133600000D03*
X118500000Y-135250000D03*
%TD*%
D13*
%TO.C,R68*%
X213800000Y-61125000D03*
X213800000Y-59475000D03*
%TD*%
D42*
%TO.C,C2*%
X176035256Y-53646826D03*
X176035256Y-55196826D03*
%TD*%
D68*
%TO.C,U16*%
X149640257Y-135500000D03*
X147100257Y-135500000D03*
X144560257Y-135500000D03*
X142020257Y-135500000D03*
X149640257Y-126700000D03*
X142020257Y-126700000D03*
%TD*%
M02*
