M48
; DRILL file {KiCad 9.0.2} date 2025-10-14T11:48:54+0200
; FORMAT={-:-/ absolute / inch / decimal}
; #@! TF.CreationDate,2025-10-14T11:48:54+02:00
; #@! TF.GenerationSoftware,Kicad,Pcbnew,9.0.2
; #@! TF.FileFunction,Plated,1,4,PTH
FMAT,2
INCH
; #@! TA.AperFunction,Plated,PTH,ViaDrill
T1C0.0138
; #@! TA.AperFunction,Plated,PTH,ComponentDrill
T2C0.0236
; #@! TA.AperFunction,Plated,PTH,ComponentDrill
T3C0.0315
; #@! TA.AperFunction,Plated,PTH,ComponentDrill
T4C0.0394
; #@! TA.AperFunction,Plated,PTH,ComponentDrill
T5C0.0591
; #@! TA.AperFunction,Plated,PTH,ComponentDrill
T6C0.0669
; #@! TA.AperFunction,Plated,PTH,ComponentDrill
T7C0.2559
%
G90
G05
T1
X4.1394Y-1.0114
X4.1394Y-1.2114
X4.1394Y-1.3114
X4.1394Y-1.4114
X4.1394Y-1.5114
X4.1894Y-1.2614
X4.1894Y-1.3614
X4.1894Y-1.4614
X4.1894Y-6.3614
X4.1894Y-6.4614
X4.1894Y-6.5614
X4.2394Y-1.0114
X4.2394Y-1.2114
X4.2394Y-1.3114
X4.2394Y-1.4114
X4.2394Y-6.4114
X4.2394Y-6.5114
X4.2894Y-1.0614
X4.2894Y-1.1614
X4.2894Y-1.2614
X4.2894Y-1.3614
X4.2894Y-6.3614
X4.2894Y-6.4614
X4.2894Y-6.5614
X4.3394Y-1.0114
X4.3394Y-1.1114
X4.3394Y-1.2114
X4.3394Y-1.3114
X4.3394Y-2.1114
X4.3394Y-2.5614
X4.3394Y-2.6614
X4.3394Y-2.7614
X4.3394Y-3.2114
X4.3394Y-3.3114
X4.3394Y-3.4114
X4.3394Y-3.8614
X4.3394Y-3.9614
X4.3394Y-4.0614
X4.3394Y-4.5114
X4.3394Y-4.6114
X4.3394Y-4.7114
X4.3394Y-5.1614
X4.3394Y-5.2614
X4.3394Y-5.3614
X4.3394Y-6.3114
X4.3394Y-6.4114
X4.3394Y-6.5114
X4.3867Y-5.3087
X4.3894Y-1.0614
X4.3894Y-1.1614
X4.3894Y-1.2614
X4.3894Y-2.0614
X4.3894Y-2.6114
X4.3894Y-2.7114
X4.3894Y-3.2614
X4.3894Y-3.3614
X4.3894Y-3.9114
X4.3894Y-4.0114
X4.3894Y-4.5614
X4.3894Y-4.6614
X4.3894Y-5.2114
X4.3894Y-6.3614
X4.3894Y-6.4614
X4.3894Y-6.5614
X4.4394Y-1.0114
X4.4394Y-1.1114
X4.4394Y-1.2114
X4.4394Y-1.3114
X4.4394Y-2.0114
X4.4394Y-2.1114
X4.4394Y-2.5614
X4.4394Y-2.6614
X4.4394Y-2.7614
X4.4394Y-3.2114
X4.4394Y-3.3114
X4.4394Y-3.4114
X4.4394Y-3.8614
X4.4394Y-3.9614
X4.4394Y-4.0614
X4.4394Y-4.5114
X4.4394Y-4.6114
X4.4394Y-4.7114
X4.4394Y-5.1614
X4.4394Y-5.2614
X4.4394Y-5.3614
X4.4394Y-5.6114
X4.4394Y-6.3114
X4.4394Y-6.4114
X4.4394Y-6.5114
X4.4894Y-1.0614
X4.4894Y-1.1614
X4.4894Y-1.2614
X4.4894Y-1.9614
X4.4894Y-2.6114
X4.4894Y-3.2614
X4.4894Y-3.9114
X4.4894Y-4.5614
X4.4894Y-5.2114
X4.4894Y-5.6614
X4.4894Y-6.3614
X4.4894Y-6.4614
X4.4894Y-6.5614
X4.5394Y-1.0114
X4.5394Y-1.1114
X4.5394Y-1.2114
X4.5394Y-1.3114
X4.5394Y-1.9114
X4.5394Y-2.4614
X4.5394Y-2.5614
X4.5394Y-3.1114
X4.5394Y-3.2114
X4.5394Y-3.7614
X4.5394Y-3.8614
X4.5394Y-4.4114
X4.5394Y-4.5114
X4.5394Y-5.0614
X4.5394Y-5.1614
X4.5394Y-5.6114
X4.5394Y-5.7114
X4.5394Y-6.4114
X4.5394Y-6.5114
X4.5894Y-1.0614
X4.5894Y-1.1614
X4.5894Y-1.2614
X4.5894Y-1.8614
X4.5894Y-1.9614
X4.5894Y-2.5114
X4.5894Y-2.6114
X4.5894Y-3.2614
X4.5894Y-3.8114
X4.5894Y-3.9114
X4.5894Y-4.4614
X4.5894Y-4.5614
X4.5894Y-5.1114
X4.5894Y-5.2114
X4.5894Y-5.6614
X4.5894Y-5.7614
X4.5894Y-6.3614
X4.5894Y-6.4614
X4.5894Y-6.5614
X4.5908Y-3.1611
X4.6394Y-1.0114
X4.6394Y-1.1114
X4.6394Y-1.2114
X4.6394Y-1.3114
X4.6394Y-1.8114
X4.6394Y-1.9114
X4.6394Y-2.4614
X4.6394Y-2.5614
X4.6394Y-3.1114
X4.6394Y-3.2114
X4.6394Y-3.7614
X4.6394Y-3.8614
X4.6394Y-4.4114
X4.6394Y-4.5114
X4.6394Y-5.0614
X4.6394Y-5.1614
X4.6394Y-5.6114
X4.6394Y-5.7114
X4.6394Y-5.8114
X4.6394Y-6.4114
X4.6394Y-6.5114
X4.6894Y-1.0614
X4.6894Y-1.1614
X4.6894Y-1.2614
X4.6894Y-3.8114
X4.6894Y-3.9114
X4.6894Y-4.1114
X4.6894Y-4.4614
X4.6894Y-5.1114
X4.6894Y-5.6614
X4.6894Y-5.7614
X4.6894Y-5.8614
X4.6894Y-6.3614
X4.6894Y-6.4614
X4.6894Y-6.5614
X4.7394Y-1.0114
X4.7394Y-1.1114
X4.7394Y-1.2114
X4.7394Y-1.3114
X4.7394Y-1.6614
X4.7394Y-3.8614
X4.7394Y-3.9614
X4.7394Y-4.0614
X4.7394Y-4.1614
X4.7394Y-4.4114
X4.7394Y-4.5114
X4.7394Y-4.6114
X4.7394Y-4.7114
X4.7394Y-5.0614
X4.7394Y-5.1614
X4.7394Y-5.2614
X4.7394Y-5.3614
X4.7394Y-5.6114
X4.7394Y-5.7114
X4.7394Y-5.8114
X4.7394Y-6.4114
X4.7394Y-6.5114
X4.7598Y-1.8614
X4.7598Y-1.9614
X4.7598Y-2.0614
X4.7598Y-2.1614
X4.7894Y-1.0614
X4.7894Y-1.1614
X4.7894Y-1.2614
X4.7894Y-1.7114
X4.7894Y-1.8114
X4.7894Y-3.8114
X4.7894Y-4.1114
X4.7894Y-4.4614
X4.7894Y-4.7614
X4.7894Y-5.1114
X4.7894Y-5.4114
X4.7894Y-5.6614
X4.7894Y-5.7614
X4.7894Y-6.3614
X4.7894Y-6.4614
X4.7894Y-6.5614
X4.8394Y-1.0114
X4.8394Y-1.1114
X4.8394Y-1.2114
X4.8394Y-1.3114
X4.8394Y-1.6614
X4.8394Y-1.7614
X4.8394Y-2.2614
X4.8394Y-2.3614
X4.8394Y-2.9114
X4.8394Y-3.0614
X4.8394Y-3.7614
X4.8394Y-4.1614
X4.8394Y-4.3114
X4.8394Y-4.4114
X4.8394Y-4.8114
X4.8394Y-4.9614
X4.8394Y-5.0614
X4.8394Y-5.4614
X4.8394Y-5.6114
X4.8394Y-5.7114
X4.8394Y-6.4114
X4.8394Y-6.5114
X4.8894Y-1.0614
X4.8894Y-1.1614
X4.8894Y-1.2614
X4.8894Y-1.7114
X4.8894Y-2.4114
X4.8894Y-3.7114
X4.8894Y-4.2114
X4.8894Y-4.3614
X4.8894Y-4.8614
X4.8894Y-5.0114
X4.8894Y-5.5114
X4.8894Y-5.6614
X4.8894Y-6.3614
X4.8894Y-6.4614
X4.8894Y-6.5614
X4.9394Y-1.0114
X4.9394Y-1.1114
X4.9394Y-1.2114
X4.9394Y-1.3114
X4.9394Y-1.6614
X4.9394Y-1.7614
X4.9394Y-2.2614
X4.9394Y-2.3614
X4.9394Y-2.9114
X4.9394Y-3.0614
X4.9394Y-3.5614
X4.9394Y-4.3114
X4.9394Y-4.9614
X4.9394Y-5.6114
X4.9394Y-5.8614
X4.9394Y-6.4114
X4.9394Y-6.5114
X4.9894Y-1.0614
X4.9894Y-1.1614
X4.9894Y-1.2614
X4.9894Y-1.7114
X4.9894Y-4.8614
X4.9894Y-5.8114
X4.9894Y-6.3614
X4.9894Y-6.4614
X4.9894Y-6.5614
X5.0394Y-1.0114
X5.0394Y-1.1114
X5.0394Y-1.2114
X5.0394Y-1.6614
X5.0394Y-2.2614
X5.0394Y-2.3614
X5.0394Y-4.3114
X5.0394Y-4.9614
X5.0394Y-5.7614
X5.0394Y-5.8614
X5.0394Y-6.4114
X5.0394Y-6.5114
X5.0894Y-1.0614
X5.0894Y-1.1614
X5.0894Y-1.3114
X5.0894Y-1.7114
X5.0894Y-2.4114
X5.0894Y-2.9114
X5.0894Y-3.0614
X5.0894Y-4.3614
X5.0894Y-4.8614
X5.0894Y-5.7114
X5.0894Y-5.8114
X5.0894Y-6.3614
X5.0894Y-6.4614
X5.0894Y-6.5614
X5.1394Y-1.0114
X5.1394Y-1.1114
X5.1394Y-1.2614
X5.1394Y-1.6614
X5.1394Y-1.7614
X5.1394Y-2.2614
X5.1394Y-2.3614
X5.1394Y-3.5614
X5.1394Y-3.7114
X5.1394Y-4.2114
X5.1394Y-4.3114
X5.1394Y-4.9614
X5.1394Y-5.6614
X5.1394Y-5.7614
X5.1394Y-6.4114
X5.1394Y-6.5114
X5.1894Y-1.0614
X5.1894Y-1.2114
X5.1894Y-1.3114
X5.1894Y-1.7114
X5.1894Y-1.8114
X5.1894Y-2.2114
X5.1894Y-2.4114
X5.1894Y-2.9114
X5.1894Y-3.0614
X5.1894Y-3.7614
X5.1894Y-4.1614
X5.1894Y-4.3614
X5.1894Y-4.8614
X5.1894Y-5.0114
X5.1894Y-5.6114
X5.1894Y-5.7114
X5.1894Y-5.9114
X5.1894Y-6.3614
X5.1894Y-6.4614
X5.1894Y-6.5614
X5.2394Y-1.0114
X5.2394Y-1.2614
X5.2394Y-1.6614
X5.2394Y-1.7614
X5.2394Y-1.8614
X5.2394Y-2.1614
X5.2394Y-2.2614
X5.2394Y-2.3614
X5.2394Y-2.4614
X5.2394Y-2.8614
X5.2394Y-3.1114
X5.2394Y-3.5614
X5.2394Y-3.7114
X5.2394Y-3.8114
X5.2394Y-4.1114
X5.2394Y-4.2114
X5.2394Y-4.3114
X5.2394Y-4.4114
X5.2394Y-4.8114
X5.2394Y-4.9614
X5.2394Y-5.0614
X5.2394Y-5.6614
X5.2394Y-5.8614
X5.2394Y-6.4114
X5.2394Y-6.5114
X5.2894Y-1.0614
X5.2894Y-1.2114
X5.2894Y-1.3114
X5.2894Y-3.7614
X5.2894Y-3.8614
X5.2894Y-3.9614
X5.2894Y-4.0614
X5.2894Y-4.1614
X5.2894Y-5.6114
X5.2894Y-5.8114
X5.2894Y-6.3614
X5.2894Y-6.4614
X5.2894Y-6.5614
X5.3228Y-1.126
X5.3394Y-1.2614
X5.3394Y-5.7614
X5.3394Y-6.4114
X5.3394Y-6.5114
X5.3622Y-1.126
X5.3894Y-1.0614
X5.3894Y-1.2114
X5.3894Y-1.3114
X5.3894Y-6.3614
X5.3894Y-6.4614
X5.3894Y-6.5614
X5.4016Y-1.126
X5.4291Y-5.8504
X5.4394Y-1.2614
X5.4394Y-1.3614
X5.4394Y-6.4114
X5.4394Y-6.5114
X5.4409Y-1.126
X5.4586Y-5.8543
X5.4894Y-1.2114
X5.4894Y-1.3114
X5.4894Y-1.4114
X5.4894Y-6.3614
X5.4894Y-6.4614
X5.4894Y-6.5614
X5.5351Y-2.1609
X5.5394Y-1.1614
X5.5394Y-1.2614
X5.5394Y-1.3614
X5.5394Y-1.4614
X5.5394Y-2.0614
X5.5394Y-6.4114
X5.5394Y-6.5114
X5.5879Y-1.4106
X5.5894Y-1.1114
X5.5894Y-1.2114
X5.5894Y-1.3114
X5.5894Y-1.5114
X5.5894Y-2.1114
X5.5894Y-2.2114
X5.5894Y-2.3114
X5.5894Y-2.4114
X5.5894Y-6.3614
X5.5894Y-6.4614
X5.5894Y-6.5614
X5.5925Y-5.8691
X5.6394Y-1.1614
X5.6394Y-1.2614
X5.6394Y-1.3614
X5.6394Y-1.4614
X5.6394Y-1.5614
X5.6394Y-2.1614
X5.6394Y-2.2614
X5.6394Y-2.3614
X5.6394Y-2.4614
X5.6394Y-2.6614
X5.6394Y-2.7614
X5.6394Y-2.8614
X5.6394Y-2.9614
X5.6394Y-3.0614
X5.6394Y-3.1614
X5.6394Y-3.2614
X5.6394Y-6.4114
X5.6394Y-6.5114
X5.6894Y-1.4114
X5.6894Y-1.5114
X5.6894Y-2.2114
X5.6894Y-2.3114
X5.6894Y-2.4114
X5.6894Y-2.5114
X5.6894Y-2.7114
X5.6894Y-2.8114
X5.6894Y-2.9114
X5.6894Y-3.0114
X5.6894Y-3.1114
X5.6894Y-3.2114
X5.6894Y-3.3114
X5.6894Y-3.5114
X5.6894Y-3.7114
X5.6894Y-3.8114
X5.6894Y-5.8114
X5.6894Y-5.9114
X5.6894Y-6.3614
X5.6894Y-6.4614
X5.6894Y-6.5614
X5.7394Y-1.4614
X5.7394Y-2.2614
X5.7394Y-2.3614
X5.7394Y-2.4614
X5.7394Y-2.5614
X5.7394Y-2.8614
X5.7394Y-2.9614
X5.7394Y-3.0614
X5.7394Y-3.1614
X5.7394Y-3.2614
X5.7394Y-3.3614
X5.7394Y-3.5614
X5.7394Y-3.6614
X5.7394Y-3.7614
X5.7394Y-3.8614
X5.7394Y-4.0614
X5.7394Y-4.1614
X5.7394Y-6.4114
X5.7394Y-6.5114
X5.7402Y-2.7618
X5.777Y-5.8706
X5.7884Y-2.9133
X5.7884Y-5.205
X5.7884Y-5.2345
X5.7884Y-5.5551
X5.7894Y-2.5114
X5.7894Y-2.6114
X5.7894Y-2.8114
X5.7894Y-3.0114
X5.7894Y-3.1114
X5.7894Y-3.2114
X5.7894Y-3.3114
X5.7894Y-3.4114
X5.7894Y-3.7114
X5.7894Y-3.8114
X5.7894Y-3.9114
X5.7894Y-4.1114
X5.7894Y-6.3614
X5.7913Y-5.2776
X5.7927Y-1.4094
X5.7953Y-5.0295
X5.8047Y-1.9709
X5.8051Y-4.9787
X5.8102Y-5.1517
X5.8117Y-5.9048
X5.8346Y-1.9065
X5.8346Y-4.5358
X5.8346Y-4.7524
X5.8394Y-2.5614
X5.8394Y-2.6614
X5.8394Y-2.8614
X5.8394Y-2.9614
X5.8394Y-3.0614
X5.8394Y-3.1614
X5.8394Y-3.2614
X5.8394Y-3.3614
X5.8394Y-3.4614
X5.8394Y-3.7614
X5.8394Y-3.8614
X5.8408Y-3.9608
X5.8441Y-2.0449
X5.8445Y-2.3396
X5.8701Y-4.9055
X5.8769Y-5.8612
X5.8823Y-2.5207
X5.8888Y-2.4419
X5.8888Y-5.9124
X5.8894Y-1.4114
X5.8894Y-2.6114
X5.8894Y-2.9114
X5.8894Y-3.0114
X5.8894Y-3.1114
X5.8894Y-3.2114
X5.8894Y-3.3114
X5.8894Y-3.4114
X5.8894Y-3.5114
X5.8894Y-3.8114
X5.8894Y-3.9114
X5.8894Y-4.0114
X5.8894Y-4.2114
X5.8894Y-6.3614
X5.8917Y-5.2106
X5.8921Y-2.3421
X5.8976Y-4.7844
X5.9006Y-4.4547
X5.9006Y-4.6713
X5.9074Y-5.6744
X5.9177Y-1.95
X5.9252Y-4.7203
X5.9252Y-4.6083
X5.9301Y-4.3799
X5.9331Y-5.689
X5.935Y-5.56
X5.9394Y-3.4614
X5.9394Y-3.5614
X5.9449Y-5.5266
X5.9493Y-4.7454
X5.9598Y-5.5011
X5.9665Y-4.7186
X5.9715Y-5.4695
X5.9764Y-2.5207
X5.9823Y-5.4419
X5.9894Y-2.6114
X5.9894Y-3.0114
X5.9894Y-3.1114
X5.9894Y-3.2114
X5.9894Y-3.3114
X5.9894Y-3.4114
X5.9894Y-3.5114
X5.9894Y-6.3614
X5.9911Y-4.6984
X5.9927Y-1.4094
X5.9936Y-5.4147
X6.0089Y-2.3406
X6.0106Y-2.0476
X6.0118Y-4.7213
X6.0153Y-5.3946
X6.0217Y-1.8947
X6.0303Y-2.4321
X6.0325Y-4.7461
X6.0368Y-3.9255
X6.0374Y-5.2156
X6.0382Y-3.9771
X6.0394Y-1.0614
X6.0394Y-1.1614
X6.0394Y-1.2614
X6.0394Y-1.3614
X6.0394Y-1.4614
X6.0394Y-1.8614
X6.0394Y-2.5614
X6.0394Y-2.6614
X6.0394Y-3.0614
X6.0394Y-3.1614
X6.0394Y-3.2614
X6.0394Y-3.3614
X6.0394Y-3.4614
X6.0394Y-4.0714
X6.0394Y-5.6417
X6.04Y-5.8488
X6.0426Y-4.6378
X6.0443Y-4.3789
X6.0477Y-3.8981
X6.0522Y-5.1634
X6.0561Y-5.5357
X6.0564Y-5.0426
X6.0569Y-5.5045
X6.0631Y-3.9612
X6.0644Y-4.0464
X6.0674Y-5.7476
X6.0734Y-4.1722
X6.0768Y-5.4752
X6.0769Y-4.2463
X6.0778Y-2.3984
X6.0787Y-4.7933
X6.0795Y-4.2168
X6.0827Y-4.935
X6.0837Y-5.8976
X6.0894Y-1.1114
X6.0894Y-1.2114
X6.0894Y-1.3114
X6.0894Y-1.5114
X6.0894Y-1.8114
X6.0894Y-2.6114
X6.0894Y-4.4614
X6.0894Y-4.5614
X6.0894Y-4.6614
X6.0894Y-5.3114
X6.0894Y-6.3614
X6.0927Y-1.4094
X6.0945Y-3.6772
X6.0967Y-4.1929
X6.0984Y-4.1511
X6.1002Y-5.7185
X6.1042Y-5.0825
X6.1053Y-5.0522
X6.1061Y-4.2528
X6.1142Y-2.2874
X6.1142Y-5.7943
X6.1144Y-4.0714
X6.1209Y-5.7587
X6.1378Y-4.8002
X6.1394Y-1.2614
X6.1394Y-1.3614
X6.1394Y-1.4614
X6.1394Y-1.5614
X6.1394Y-1.6614
X6.1394Y-1.7614
X6.1394Y-1.8614
X6.1394Y-2.5614
X6.1394Y-4.4114
X6.1394Y-4.5114
X6.1394Y-4.6114
X6.1394Y-4.7114
X6.1469Y-4.0814
X6.1538Y-5.7168
X6.1575Y-3.7087
X6.1575Y-3.7402
X6.1602Y-3.7835
X6.1602Y-3.8087
X6.1685Y-4.1039
X6.1811Y-2.9449
X6.185Y-5.0521
X6.187Y-1.8219
X6.189Y-5.437
X6.1894Y-1.3114
X6.1894Y-1.4114
X6.1894Y-1.5114
X6.1894Y-1.6114
X6.1894Y-1.7114
X6.1894Y-3.0614
X6.1894Y-3.1614
X6.1894Y-3.2614
X6.1894Y-3.3614
X6.1894Y-5.8114
X6.1894Y-6.3614
X6.1931Y-5.6809
X6.1969Y-1.0807
X6.1969Y-1.1437
X6.1988Y-5.4016
X6.1988Y-1.2096
X6.1994Y-4.0914
X6.2028Y-2.8268
X6.2156Y-2.6742
X6.2165Y-5.378
X6.2196Y-5.6678
X6.2211Y-3.8138
X6.2244Y-2.0325
X6.2291Y-4.0816
X6.2353Y-2.9449
X6.2394Y-1.2614
X6.2394Y-3.1114
X6.2394Y-3.2114
X6.2394Y-3.3114
X6.2394Y-3.5614
X6.2394Y-5.8614
X6.2421Y-5.3514
X6.2431Y-5.0394
X6.2437Y-3.7911
X6.2544Y-4.0664
X6.2638Y-5.437
X6.2638Y-5.6457
X6.2712Y-5.3464
X6.2744Y-4.0414
X6.2874Y-3.0591
X6.2894Y-1.3114
X6.2894Y-2.5114
X6.2894Y-3.1614
X6.2894Y-3.2614
X6.2894Y-3.5114
X6.2894Y-3.6114
X6.2894Y-4.3614
X6.2894Y-4.4614
X6.2894Y-4.5614
X6.2894Y-4.6614
X6.2894Y-4.7614
X6.2894Y-5.9114
X6.2894Y-6.3614
X6.2932Y-2.9291
X6.2933Y-1.7825
X6.2933Y-5.6693
X6.2944Y-5.5787
X6.297Y-5.505
X6.2981Y-5.5345
X6.2992Y-5.6102
X6.3012Y-3.875
X6.3063Y-3.9829
X6.3091Y-3.9154
X6.313Y-1.7372
X6.313Y-2.9026
X6.3131Y-1.9709
X6.3177Y-5.5607
X6.3218Y-2.0341
X6.3219Y-2.065
X6.3287Y-5.8366
X6.3297Y-1.2106
X6.3299Y-1.8206
X6.3307Y-1.0807
X6.3307Y-1.1457
X6.3307Y-1.3583
X6.3307Y-4.0094
X6.3331Y-1.9492
X6.3383Y-3.5606
X6.3385Y-2.4593
X6.3386Y-2.8742
X6.3394Y-3.4614
X6.3394Y-4.3114
X6.3394Y-4.4114
X6.3394Y-4.5114
X6.3394Y-4.6114
X6.3394Y-4.7114
X6.3394Y-4.8114
X6.3394Y-4.9114
X6.3394Y-4.9614
X6.3394Y-5.3114
X6.3394Y-5.3614
X6.3394Y-5.4114
X6.3406Y-1.2602
X6.3425Y-1.5709
X6.3435Y-5.2421
X6.3553Y-5.7589
X6.3626Y-1.4719
X6.3642Y-5.8318
X6.3819Y-2.7357
X6.3894Y-2.4114
X6.3894Y-2.5114
X6.3894Y-3.4114
X6.3894Y-3.5114
X6.3894Y-3.6114
X6.3894Y-4.2614
X6.3894Y-4.3614
X6.3894Y-4.4614
X6.3894Y-4.5614
X6.3894Y-4.6614
X6.3894Y-4.9114
X6.3894Y-6.3614
X6.3976Y-5.8701
X6.4035Y-3.0571
X6.4154Y-3.2343
X6.4173Y-5.7146
X6.4272Y-3.0787
X6.4331Y-2.9449
X6.4394Y-2.3614
X6.4394Y-2.4614
X6.4394Y-3.3614
X6.4394Y-3.4614
X6.4394Y-3.5614
X6.4394Y-3.6614
X6.4394Y-4.3114
X6.4394Y-4.4114
X6.4394Y-4.5114
X6.4394Y-4.6114
X6.4394Y-4.7114
X6.4465Y-2.8465
X6.4484Y-1.8831
X6.4488Y-1.4606
X6.4493Y-1.7992
X6.4506Y-1.8399
X6.4544Y-1.6331
X6.4665Y-5.9193
X6.4739Y-1.781
X6.4764Y-2.685
X6.4764Y-2.7205
X6.4894Y-2.5114
X6.4894Y-3.3114
X6.4894Y-3.4114
X6.4894Y-3.5114
X6.4894Y-3.6114
X6.4894Y-4.6364
X6.4894Y-5.4614
X6.4894Y-5.5114
X6.4894Y-5.6614
X6.4894Y-5.7114
X6.4894Y-6.3614
X6.4962Y-1.7616
X6.5044Y-4.7564
X6.5157Y-1.3189
X6.5163Y-6.3114
X6.5165Y-4.8635
X6.5194Y-1.7814
X6.5197Y-5.1811
X6.5217Y-3.0571
X6.5217Y-5.8484
X6.5256Y-3.2323
X6.5295Y-2.8756
X6.5325Y-4.0069
X6.5335Y-4.0366
X6.5341Y-4.7559
X6.5354Y-5.9449
X6.5394Y-2.4114
X6.5394Y-3.2614
X6.5394Y-3.3614
X6.5394Y-3.4614
X6.5394Y-3.5614
X6.5394Y-3.6614
X6.5394Y-4.2614
X6.5394Y-4.3614
X6.5394Y-4.4614
X6.5394Y-4.5614
X6.5394Y-5.7614
X6.5443Y-4.9463
X6.5512Y-2.815
X6.5531Y-3.0591
X6.5551Y-1.1929
X6.563Y-1.0925
X6.563Y-1.378
X6.563Y-1.4075
X6.5827Y-1.2795
X6.5827Y-1.437
X6.5827Y-1.4665
X6.5827Y-1.4961
X6.5827Y-1.5256
X6.5827Y-1.5551
X6.5827Y-5.874
X6.5843Y-1.1883
X6.5894Y-2.3614
X6.5894Y-3.1114
X6.5894Y-3.2114
X6.5894Y-3.3114
X6.5894Y-3.4114
X6.5894Y-3.5114
X6.5894Y-3.6114
X6.5894Y-5.2614
X6.5894Y-5.7114
X6.5894Y-6.3614
X6.59Y-2.4616
X6.5906Y-2.8878
X6.5925Y-1.0925
X6.5925Y-1.7323
X6.6044Y-4.6814
X6.6181Y-1.1929
X6.622Y-1.0925
X6.6289Y-2.8888
X6.6361Y-5.081
X6.6388Y-5.0463
X6.6394Y-2.4114
X6.6394Y-2.5114
X6.6394Y-3.1614
X6.6394Y-3.2614
X6.6394Y-3.3614
X6.6394Y-3.4614
X6.6394Y-3.5614
X6.6394Y-3.6614
X6.6394Y-5.2114
X6.6398Y-1.2739
X6.6398Y-1.3091
X6.6476Y-5.6791
X6.6506Y-3.9654
X6.6516Y-1.0925
X6.6575Y-2.7362
X6.6614Y-1.1929
X6.6634Y-2.6614
X6.6654Y-5.8799
X6.6722Y-1.9557
X6.6752Y-5.7382
X6.6798Y-4.536
X6.6802Y-3.9654
X6.6811Y-1.0925
X6.6811Y-1.437
X6.6811Y-1.4665
X6.6811Y-1.4961
X6.6811Y-1.5256
X6.6811Y-1.5551
X6.6811Y-1.7323
X6.6831Y-3.7697
X6.6885Y-1.1737
X6.6894Y-2.4614
X6.6894Y-3.0114
X6.6894Y-3.1114
X6.6894Y-3.2114
X6.6894Y-3.3114
X6.6894Y-3.4114
X6.6894Y-3.5114
X6.6894Y-3.6114
X6.6894Y-3.7114
X6.6894Y-4.244
X6.6894Y-4.4614
X6.6894Y-6.3614
X6.7008Y-1.2795
X6.7008Y-1.378
X6.7008Y-1.4075
X6.7067Y-3.9783
X6.7106Y-1.0925
X6.7146Y-5.9606
X6.7165Y-2.3024
X6.7244Y-5.6752
X6.7323Y-3.9961
X6.7378Y-3.1622
X6.7394Y-2.5114
X6.7394Y-2.9614
X6.7394Y-3.2614
X6.7394Y-3.3614
X6.7394Y-3.4614
X6.7394Y-3.5614
X6.7394Y-3.6614
X6.7394Y-3.7614
X6.7394Y-5.0614
X6.7394Y-5.2614
X6.748Y-5.8819
X6.7598Y-5.7224
X6.7717Y-4.8142
X6.7717Y-4.877
X6.7825Y-1.874
X6.7825Y-2.0177
X6.7894Y-1.6364
X6.7894Y-2.3614
X6.7894Y-3.0114
X6.7894Y-3.1114
X6.7894Y-3.2114
X6.7894Y-3.3114
X6.7894Y-3.4114
X6.7894Y-3.5114
X6.7894Y-3.6114
X6.7894Y-3.7114
X6.7894Y-3.8114
X6.7894Y-5.1114
X6.7894Y-5.2114
X6.7894Y-5.3114
X6.7894Y-5.5114
X6.7894Y-6.3614
X6.7992Y-1.311
X6.7992Y-5.7638
X6.8219Y-2.867
X6.8264Y-4.1752
X6.8264Y-4.2849
X6.8283Y-4.1163
X6.8283Y-4.0868
X6.8294Y-4.6614
X6.8295Y-4.1458
X6.8394Y-2.3114
X6.8394Y-2.4114
X6.8394Y-3.1614
X6.8394Y-3.2614
X6.8394Y-3.3614
X6.8394Y-3.4614
X6.8394Y-3.5614
X6.8394Y-3.6614
X6.8394Y-3.7614
X6.8394Y-4.5114
X6.8394Y-4.6114
X6.8394Y-5.1614
X6.8394Y-5.2614
X6.8394Y-5.3614
X6.8394Y-5.4614
X6.8394Y-5.5614
X6.8394Y-5.6614
X6.8484Y-5.939
X6.8544Y-4.2642
X6.8587Y-5.0457
X6.8594Y-3.4114
X6.8606Y-4.9748
X6.8606Y-5.0102
X6.8606Y-5.0744
X6.874Y-3.8425
X6.874Y-4.2323
X6.8819Y-5.8878
X6.8875Y-3.2117
X6.8894Y-2.8114
X6.8894Y-3.1114
X6.8894Y-3.3114
X6.8894Y-3.5114
X6.8894Y-3.6114
X6.8894Y-3.7114
X6.8894Y-4.4614
X6.8894Y-4.5614
X6.8894Y-5.2114
X6.8894Y-5.3114
X6.8894Y-5.4114
X6.8894Y-5.5114
X6.8894Y-5.6114
X6.8894Y-5.7114
X6.8894Y-6.3614
X6.9083Y-1.8551
X6.9083Y-1.9472
X6.9083Y-1.9799
X6.9083Y-2.0091
X6.9173Y-4.1929
X6.9261Y-1.3993
X6.9394Y-3.5614
X6.9394Y-3.6614
X6.9394Y-4.5114
X6.9394Y-4.6114
X6.9394Y-4.7114
X6.9394Y-4.8114
X6.9394Y-4.9114
X6.9394Y-5.0114
X6.9394Y-5.2614
X6.9394Y-5.3614
X6.9394Y-5.4614
X6.9412Y-3.0723
X6.9567Y-5.9016
X6.965Y-5.7392
X6.9682Y-3.0132
X6.9744Y-1.9864
X6.9844Y-1.7014
X6.9844Y-1.8564
X6.9894Y-2.2614
X6.9894Y-3.5114
X6.9894Y-3.6114
X6.9894Y-3.7114
X6.9894Y-4.2614
X6.9894Y-4.4614
X6.9894Y-4.5614
X6.9894Y-4.6614
X6.9894Y-4.7614
X6.9894Y-4.8614
X6.9894Y-4.9614
X6.9894Y-5.0614
X6.9894Y-5.3114
X6.9894Y-5.4114
X6.9894Y-6.3614
X6.9949Y-4.0146
X7.0005Y-5.6947
X7.0073Y-5.6111
X7.0166Y-4.0362
X7.0262Y-5.6801
X7.0262Y-5.7096
X7.0394Y-2.2114
X7.0394Y-2.3114
X7.0394Y-2.7114
X7.0394Y-2.8114
X7.0394Y-2.9114
X7.0394Y-3.1614
X7.0394Y-3.2614
X7.0394Y-3.5614
X7.0394Y-3.6614
X7.0394Y-4.5114
X7.0394Y-4.6114
X7.0394Y-4.7114
X7.0394Y-4.8114
X7.0394Y-4.9114
X7.0394Y-5.0114
X7.0394Y-5.1114
X7.0394Y-5.3614
X7.0403Y-4.0579
X7.0601Y-4.0798
X7.0628Y-5.6189
X7.0644Y-5.9114
X7.0728Y-5.5453
X7.0837Y-5.7205
X7.0844Y-3.3064
X7.0894Y-1.3614
X7.0894Y-1.4114
X7.0894Y-1.4614
X7.0894Y-1.5114
X7.0894Y-1.5614
X7.0894Y-2.1614
X7.0894Y-2.2614
X7.0894Y-2.3614
X7.0894Y-2.7614
X7.0894Y-2.8614
X7.0894Y-2.9614
X7.0894Y-3.2114
X7.0894Y-3.5114
X7.0894Y-4.4614
X7.0894Y-4.5614
X7.0894Y-4.6614
X7.0894Y-4.7614
X7.0894Y-4.8614
X7.0894Y-4.9614
X7.0894Y-5.0614
X7.0894Y-5.1614
X7.0894Y-6.3614
X7.1082Y-5.7041
X7.1095Y-5.455
X7.1244Y-3.1173
X7.1365Y-3.3705
X7.1378Y-5.6988
X7.1394Y-1.5114
X7.1394Y-1.5614
X7.1394Y-2.1114
X7.1394Y-2.2114
X7.1394Y-2.3114
X7.1394Y-2.4114
X7.1394Y-2.7114
X7.1394Y-2.8114
X7.1394Y-2.9114
X7.1394Y-3.1614
X7.1394Y-3.2614
X7.1479Y-5.7396
X7.1694Y-1.5664
X7.185Y-5.7697
X7.185Y-5.7992
X7.1894Y-2.1614
X7.1894Y-2.2614
X7.1894Y-2.3614
X7.1894Y-2.4614
X7.1894Y-3.2114
X7.1894Y-3.4114
X7.1894Y-3.5114
X7.1894Y-4.9614
X7.1894Y-5.0614
X7.1894Y-5.1614
X7.1894Y-5.2614
X7.1894Y-6.3614
X7.2232Y-3.1368
X7.2313Y-2.9762
X7.2323Y-1.8898
X7.2394Y-1.0614
X7.2394Y-1.1614
X7.2394Y-1.2614
X7.2394Y-2.1114
X7.2394Y-2.2114
X7.2394Y-2.3114
X7.2394Y-2.4114
X7.2394Y-2.5114
X7.2394Y-3.3614
X7.2394Y-3.4614
X7.2394Y-3.5614
X7.2394Y-5.0114
X7.2394Y-5.1114
X7.2394Y-5.2114
X7.2394Y-5.3114
X7.2494Y-1.5664
X7.252Y-1.8622
X7.2598Y-5.6988
X7.2598Y-5.7402
X7.2598Y-5.7697
X7.2598Y-5.7992
X7.2677Y-1.8898
X7.2677Y-2.0531
X7.2885Y-2.1614
X7.2894Y-1.1114
X7.2894Y-1.2114
X7.2894Y-1.3114
X7.2894Y-2.3614
X7.2894Y-2.4614
X7.2894Y-2.8114
X7.2894Y-3.2114
X7.2894Y-3.3114
X7.2894Y-3.4114
X7.2894Y-3.5114
X7.2894Y-5.0614
X7.2894Y-5.1614
X7.2894Y-5.2614
X7.2894Y-5.6114
X7.2894Y-5.8614
X7.2894Y-6.3614
X7.2909Y-3.7449
X7.2921Y-2.2609
X7.2923Y-2.9941
X7.2992Y-1.9758
X7.3081Y-1.7606
X7.315Y-3.1437
X7.3297Y-5.0522
X7.3297Y-2.0531
X7.3309Y-1.3564
X7.3394Y-1.0614
X7.3394Y-1.1614
X7.3394Y-2.1114
X7.3394Y-2.2114
X7.3394Y-2.9614
X7.3394Y-3.2614
X7.3394Y-3.3614
X7.3394Y-3.4614
X7.3394Y-3.5614
X7.3394Y-4.7614
X7.3394Y-5.1114
X7.3394Y-5.2114
X7.3394Y-5.5614
X7.3394Y-5.6614
X7.3394Y-5.9114
X7.3687Y-5.0703
X7.3701Y-1.7606
X7.3892Y-3.3106
X7.3894Y-1.1114
X7.3894Y-1.3114
X7.3894Y-2.1614
X7.3894Y-2.2614
X7.3894Y-2.4614
X7.3894Y-2.9114
X7.3894Y-3.2114
X7.3894Y-4.5114
X7.3894Y-4.6114
X7.3894Y-4.7114
X7.3894Y-5.5114
X7.3894Y-6.3614
X7.3937Y-2.0531
X7.4016Y-3.5906
X7.402Y-4.7965
X7.4094Y-1.863
X7.437Y-5.1654
X7.4374Y-4.8693
X7.4394Y-1.1614
X7.4394Y-1.3614
X7.4394Y-2.1114
X7.4394Y-2.2114
X7.4394Y-2.5164
X7.4394Y-4.5614
X7.4394Y-4.6614
X7.4394Y-4.7614
X7.4394Y-5.4614
X7.4399Y-1.9521
X7.4441Y-4.9339
X7.4449Y-1.8622
X7.4453Y-1.0598
X7.4494Y-2.4364
X7.4496Y-4.0429
X7.4496Y-4.0146
X7.4567Y-3.937
X7.474Y-3.9772
X7.4793Y-3.9137
X7.4843Y-4.9291
X7.4882Y-2.3701
X7.4882Y-4.0315
X7.4894Y-1.1114
X7.4894Y-1.2114
X7.4894Y-1.3114
X7.4894Y-2.5114
X7.4894Y-4.1114
X7.4894Y-4.4114
X7.4894Y-5.1114
X7.4894Y-5.4114
X7.4894Y-5.6114
X7.4894Y-5.7114
X7.4894Y-5.8114
X7.4894Y-6.3614
X7.4911Y-4.2008
X7.4925Y-2.6246
X7.5276Y-1.811
X7.5276Y-1.8504
X7.5276Y-1.8898
X7.5276Y-3.8819
X7.5394Y-1.0614
X7.5394Y-1.1614
X7.5394Y-1.2614
X7.5394Y-1.3614
X7.5394Y-2.1614
X7.5394Y-2.2614
X7.5394Y-2.4614
X7.5394Y-2.5614
X7.5394Y-5.1614
X7.5394Y-5.3614
X7.5394Y-5.5614
X7.5394Y-5.6614
X7.5394Y-5.7614
X7.5433Y-4.0854
X7.5472Y-4.3504
X7.5551Y-3.5906
X7.5633Y-4.1071
X7.5669Y-1.7717
X7.5669Y-1.811
X7.5669Y-1.8504
X7.5669Y-1.8898
X7.5758Y-4.2008
X7.5866Y-3.2648
X7.5894Y-2.1114
X7.5894Y-2.2114
X7.5894Y-2.5114
X7.5894Y-2.7114
X7.5894Y-2.8114
X7.5894Y-3.3114
X7.5894Y-4.4114
X7.5894Y-4.5114
X7.5894Y-4.6114
X7.5894Y-4.7114
X7.5894Y-5.1114
X7.5894Y-5.5114
X7.5894Y-5.6114
X7.5894Y-5.7114
X7.5894Y-5.9114
X7.5894Y-6.3614
X7.5902Y-4.1236
X7.5909Y-2.6244
X7.6063Y-1.7717
X7.6063Y-1.811
X7.6063Y-1.8504
X7.6063Y-1.8898
X7.6128Y-4.1031
X7.6181Y-5.1077
X7.6346Y-2.9917
X7.6394Y-2.1614
X7.6394Y-2.4614
X7.6394Y-2.7614
X7.6394Y-3.3614
X7.6394Y-4.5614
X7.6394Y-4.6614
X7.6394Y-5.1614
X7.6394Y-5.8614
X7.6403Y-2.2615
X7.6404Y-4.1136
X7.6496Y-4.7835
X7.6563Y-2.9618
X7.6602Y-4.0917
X7.6689Y-4.8677
X7.6746Y-2.5407
X7.6753Y-3.0138
X7.6823Y-2.9477
X7.687Y-3.1348
X7.6894Y-2.1114
X7.6894Y-4.4114
X7.6894Y-4.5114
X7.6894Y-4.6114
X7.6894Y-5.9114
X7.6894Y-6.3614
X7.69Y-3.2261
X7.6925Y-3.1039
X7.6929Y-5.1772
X7.6929Y-5.3819
X7.6987Y-4.9942
X7.6988Y-3.0317
X7.7008Y-2.2244
X7.7087Y-2.3622
X7.7087Y-2.3858
X7.719Y-3.2418
X7.7234Y-2.8583
X7.7234Y-2.8965
X7.7244Y-3.0609
X7.7244Y-1.7717
X7.7244Y-1.811
X7.7244Y-1.8504
X7.7244Y-1.8898
X7.7283Y-4.3071
X7.7344Y-3.9884
X7.7362Y-4.1772
X7.7394Y-2.1614
X7.7394Y-4.1114
X7.7394Y-5.3614
X7.7494Y-3.2564
X7.7638Y-1.124
X7.7644Y-3.9514
X7.7644Y-4.0064
X7.7795Y-4.8504
X7.7854Y-3.913
X7.7886Y-5.1539
X7.7894Y-2.1114
X7.7894Y-2.2114
X7.7894Y-2.3114
X7.7894Y-4.1614
X7.7894Y-4.4114
X7.7894Y-6.3614
X7.8031Y-1.5748
X7.8031Y-1.6142
X7.8037Y-4.0271
X7.8094Y-3.9714
X7.815Y-3.0823
X7.8183Y-3.8998
X7.8199Y-2.9114
X7.8317Y-5.8701
X7.8394Y-3.2614
X7.8394Y-4.1114
X7.8394Y-4.5114
X7.8394Y-5.3614
X7.8425Y-1.5354
X7.8425Y-1.5748
X7.8425Y-1.6142
X7.8543Y-4.1693
X7.8819Y-1.4961
X7.8819Y-1.5354
X7.8819Y-1.5748
X7.8819Y-1.6142
X7.8819Y-4.815
X7.8858Y-4.9567
X7.8894Y-3.3114
X7.8894Y-3.8614
X7.8894Y-3.9614
X7.8894Y-4.4114
X7.8894Y-4.7614
X7.8894Y-6.3614
X7.8903Y-5.0585
X7.8917Y-1.3126
X7.8937Y-5.2043
X7.9213Y-1.4567
X7.9213Y-1.4961
X7.9213Y-1.5354
X7.9213Y-1.5748
X7.9331Y-5.4685
X7.939Y-2.8563
X7.9394Y-1.0614
X7.9394Y-3.8114
X7.9394Y-3.9114
X7.9394Y-4.0114
X7.9394Y-4.4614
X7.9528Y-5.0591
X7.9606Y-1.4567
X7.9606Y-1.4961
X7.9606Y-1.5354
X7.9774Y-1.187
X7.9788Y-1.2362
X7.9894Y-1.1114
X7.9894Y-2.7114
X7.9894Y-2.8114
X7.9894Y-2.9114
X7.9894Y-3.7614
X7.9894Y-3.8614
X7.9894Y-3.9614
X7.9894Y-4.0614
X7.9894Y-4.5114
X7.9894Y-4.6114
X7.9894Y-4.7114
X7.9894Y-4.8114
X7.9894Y-4.9114
X7.9894Y-5.0114
X7.9894Y-6.3614
X8.0Y-1.4961
X8.0079Y-4.4213
X8.038Y-2.8596
X8.0394Y-1.0614
X8.0394Y-3.4114
X8.0394Y-3.7114
X8.0394Y-3.8114
X8.0394Y-3.9114
X8.0394Y-4.0114
X8.0394Y-4.1114
X8.0394Y-4.4614
X8.0394Y-4.5614
X8.0394Y-4.6614
X8.0394Y-4.7614
X8.0394Y-6.4114
X8.0669Y-1.2382
X8.0894Y-1.1114
X8.0894Y-2.7114
X8.0894Y-2.8114
X8.0894Y-2.9114
X8.0894Y-6.3614
X8.0894Y-6.4614
X8.1339Y-1.0669
X8.1339Y-1.0906
X8.1339Y-1.1161
X8.1394Y-1.0114
X8.1394Y-1.3114
X8.1394Y-2.8614
X8.1394Y-2.9614
X8.1394Y-3.0614
X8.1394Y-3.1614
X8.1394Y-3.2614
X8.1394Y-6.4114
X8.1394Y-6.5114
X8.1894Y-2.7114
X8.1894Y-2.8114
X8.1894Y-2.9114
X8.1894Y-3.0114
X8.1894Y-3.1114
X8.1894Y-3.2114
X8.1894Y-5.7614
X8.1894Y-5.8614
X8.1894Y-6.3614
X8.1894Y-6.4614
X8.1894Y-6.5614
X8.2394Y-1.2114
X8.2394Y-2.8614
X8.2394Y-2.9614
X8.2394Y-3.0614
X8.2394Y-3.1614
X8.2394Y-3.2614
X8.2394Y-5.8114
X8.2394Y-5.9114
X8.2394Y-6.4114
X8.2394Y-6.5114
X8.2894Y-1.0114
X8.2894Y-6.3614
X8.2894Y-6.4614
X8.2894Y-6.5614
X8.3327Y-1.0315
X8.3366Y-1.0925
X8.3394Y-6.4114
X8.3394Y-6.5114
X8.3894Y-6.3614
X8.3894Y-6.4614
X8.3894Y-6.5614
X8.4094Y-1.0315
X8.4094Y-1.0925
X8.4394Y-6.4114
X8.4394Y-6.5114
X8.4783Y-1.0315
X8.4783Y-1.0925
X8.4894Y-6.3614
X8.4894Y-6.4614
X8.4894Y-6.5614
X8.5394Y-4.8114
X8.5394Y-6.4114
X8.5394Y-6.5114
X8.5894Y-1.7614
X8.5894Y-2.3114
X8.5894Y-2.4114
X8.5894Y-2.5114
X8.5894Y-2.8114
X8.5894Y-2.9114
X8.5894Y-3.1114
X8.5894Y-3.2114
X8.5894Y-3.4114
X8.5894Y-3.5114
X8.5894Y-3.7614
X8.5894Y-3.8614
X8.5894Y-4.0614
X8.5894Y-4.1614
X8.5894Y-4.3614
X8.5894Y-4.4614
X8.5894Y-4.7614
X8.5894Y-4.8614
X8.5894Y-5.0114
X8.5894Y-5.1114
X8.5894Y-5.5614
X8.5894Y-6.3614
X8.5894Y-6.4614
X8.5894Y-6.5614
X8.6394Y-2.2614
X8.6394Y-2.4614
X8.6394Y-2.8614
X8.6394Y-3.0614
X8.6394Y-3.7114
X8.6394Y-4.2114
X8.6394Y-4.3114
X8.6394Y-4.4114
X8.6394Y-4.8114
X8.6394Y-4.9614
X8.6394Y-5.0614
X8.6394Y-5.5114
X8.6394Y-5.6114
X8.6394Y-5.8614
X8.6394Y-6.4114
X8.6394Y-6.5114
X8.685Y-1.15
X8.6894Y-1.7614
X8.6894Y-2.3114
X8.6894Y-2.4114
X8.6894Y-2.9114
X8.6894Y-4.3614
X8.6894Y-5.0114
X8.6894Y-5.5614
X8.6894Y-5.9114
X8.6894Y-6.3614
X8.6894Y-6.4614
X8.6894Y-6.5614
X8.7394Y-2.2614
X8.7394Y-3.0614
X8.7394Y-3.5614
X8.7394Y-3.7114
X8.7394Y-4.2114
X8.7394Y-4.3114
X8.7394Y-4.8614
X8.7394Y-4.9614
X8.7394Y-5.5114
X8.7394Y-5.6114
X8.7394Y-5.8614
X8.7394Y-6.4114
X8.7394Y-6.5114
X8.7894Y-2.3114
X8.7894Y-2.4114
X8.7894Y-2.9114
X8.7894Y-4.3614
X8.7894Y-5.5614
X8.7894Y-6.3614
X8.7894Y-6.4614
X8.7894Y-6.5614
X8.8209Y-1.311
X8.8394Y-4.3114
X8.8394Y-4.9614
X8.8394Y-5.6114
X8.8394Y-6.4114
X8.8394Y-6.5114
X8.8894Y-2.4114
X8.8894Y-4.3614
X8.8894Y-5.0114
X8.8894Y-5.5614
X8.8894Y-5.6614
X8.8894Y-6.3614
X8.8894Y-6.4614
X8.8894Y-6.5614
X8.9394Y-1.7614
X8.9394Y-2.3614
X8.9394Y-2.9614
X8.9394Y-3.0614
X8.9394Y-3.5614
X8.9394Y-4.2114
X8.9394Y-4.3114
X8.9394Y-4.8614
X8.9394Y-4.9614
X8.9394Y-5.5114
X8.9394Y-5.6114
X8.9394Y-5.7114
X8.9394Y-6.4114
X8.9394Y-6.5114
X8.9843Y-1.2933
X8.9846Y-1.0181
X8.9846Y-1.1555
X8.9894Y-1.8114
X8.9894Y-2.3114
X8.9894Y-2.4114
X8.9894Y-2.9114
X8.9894Y-3.1114
X8.9894Y-3.5114
X8.9894Y-4.1614
X8.9894Y-4.3614
X8.9894Y-4.8114
X8.9894Y-5.0114
X8.9894Y-5.5614
X8.9894Y-5.6614
X8.9894Y-5.7614
X8.9894Y-6.3614
X8.9894Y-6.4614
X8.9894Y-6.5614
X9.0354Y-1.0748
X9.0394Y-1.0114
X9.0394Y-1.2323
X9.0394Y-1.8614
X9.0394Y-2.3614
X9.0394Y-2.9614
X9.0394Y-3.1614
X9.0394Y-3.4614
X9.0394Y-4.1114
X9.0394Y-4.3114
X9.0394Y-4.4114
X9.0394Y-4.7614
X9.0394Y-5.0614
X9.0394Y-5.4114
X9.0394Y-5.6114
X9.0394Y-5.7114
X9.0394Y-5.8114
X9.0394Y-6.4114
X9.0394Y-6.5114
X9.0894Y-1.0614
X9.0894Y-1.1614
X9.0894Y-1.2614
X9.0894Y-1.9114
X9.0894Y-2.0114
X9.0894Y-2.3114
X9.0894Y-3.2114
X9.0894Y-3.3114
X9.0894Y-3.4114
X9.0894Y-3.9614
X9.0894Y-4.0614
X9.0894Y-4.4614
X9.0894Y-4.7114
X9.0894Y-5.1114
X9.0894Y-5.2614
X9.0894Y-5.3614
X9.0894Y-5.5614
X9.0894Y-5.6614
X9.0894Y-5.7614
X9.0894Y-5.8614
X9.0894Y-6.3614
X9.0894Y-6.4614
X9.0894Y-6.5614
X9.1394Y-1.0114
X9.1394Y-1.1114
X9.1394Y-1.2114
X9.1394Y-1.3114
X9.1394Y-1.8614
X9.1394Y-1.9614
X9.1394Y-2.3614
X9.1394Y-2.8114
X9.1394Y-4.7614
X9.1394Y-5.3114
X9.1394Y-5.4114
X9.1394Y-5.6114
X9.1394Y-5.7114
X9.1394Y-5.8114
X9.1394Y-5.9114
X9.1394Y-6.4114
X9.1394Y-6.5114
X9.1894Y-1.0614
X9.1894Y-1.1614
X9.1894Y-1.2614
X9.1894Y-2.3114
X9.1894Y-2.7614
X9.1894Y-5.5614
X9.1894Y-5.6614
X9.1894Y-5.7614
X9.1894Y-5.8614
X9.1894Y-6.3614
X9.1894Y-6.4614
X9.1894Y-6.5614
X9.2055Y-2.6984
X9.2067Y-2.0492
X9.2394Y-1.0114
X9.2394Y-1.1114
X9.2394Y-1.2114
X9.2394Y-1.3114
X9.2394Y-2.1114
X9.2394Y-2.3614
X9.2394Y-2.7114
X9.2394Y-2.8114
X9.2394Y-3.3614
X9.2394Y-3.4614
X9.2394Y-4.1114
X9.2394Y-5.3114
X9.2394Y-5.4114
X9.2394Y-5.6114
X9.2394Y-5.7114
X9.2394Y-5.8114
X9.2394Y-5.9114
X9.2394Y-6.4114
X9.2394Y-6.5114
X9.2717Y-1.9815
X9.2732Y-2.6311
X9.2894Y-1.0614
X9.2894Y-1.1614
X9.2894Y-1.2614
X9.2894Y-2.0614
X9.2894Y-2.1614
X9.2894Y-2.3114
X9.2894Y-2.7614
X9.2894Y-3.4114
X9.2894Y-4.0614
X9.2894Y-5.3614
X9.2894Y-5.5614
X9.2894Y-5.6614
X9.2894Y-5.7614
X9.2894Y-5.8614
X9.2894Y-6.3614
X9.2894Y-6.4614
X9.2894Y-6.5614
X9.3394Y-1.0114
X9.3394Y-1.1114
X9.3394Y-1.2114
X9.3394Y-1.3114
X9.3394Y-2.1114
X9.3394Y-2.3614
X9.3394Y-2.7114
X9.3394Y-3.3614
X9.3394Y-4.0114
X9.3394Y-5.3114
X9.3394Y-5.6114
X9.3394Y-5.7114
X9.3394Y-5.8114
X9.3394Y-6.4114
X9.3394Y-6.5114
X9.3894Y-1.0614
X9.3894Y-1.1614
X9.3894Y-1.2614
X9.3894Y-1.9614
X9.3894Y-2.0614
X9.3894Y-2.6614
X9.3894Y-2.7614
X9.3894Y-3.3114
X9.3894Y-3.4114
X9.3894Y-3.8614
X9.3894Y-3.9614
X9.3894Y-4.0614
X9.3894Y-4.6114
X9.3894Y-4.7114
X9.3894Y-5.1614
X9.3894Y-5.2614
X9.3894Y-5.3614
X9.3894Y-5.6614
X9.3894Y-5.7614
X9.3894Y-6.3614
X9.3894Y-6.4614
X9.3894Y-6.5614
X9.4394Y-1.0114
X9.4394Y-1.1114
X9.4394Y-1.2114
X9.4394Y-1.3114
X9.4394Y-1.9114
X9.4394Y-2.0114
X9.4394Y-2.1114
X9.4394Y-2.6114
X9.4394Y-2.7114
X9.4394Y-3.2614
X9.4394Y-3.3614
X9.4394Y-3.9114
X9.4394Y-4.0114
X9.4394Y-4.5614
X9.4394Y-4.6614
X9.4394Y-5.2114
X9.4394Y-5.3114
X9.4394Y-5.6114
X9.4394Y-5.7114
X9.4394Y-6.3114
X9.4394Y-6.4114
X9.4394Y-6.5114
X9.4894Y-1.0614
X9.4894Y-1.1614
X9.4894Y-1.2614
X9.4894Y-1.8614
X9.4894Y-1.9614
X9.4894Y-2.0614
X9.4894Y-2.5614
X9.4894Y-2.6614
X9.4894Y-2.7614
X9.4894Y-3.2114
X9.4894Y-3.3114
X9.4894Y-3.4114
X9.4894Y-3.8614
X9.4894Y-3.9614
X9.4894Y-4.0614
X9.4894Y-4.5114
X9.4894Y-4.6114
X9.4894Y-4.7114
X9.4894Y-5.1614
X9.4894Y-5.2614
X9.4894Y-5.3614
X9.4894Y-5.6614
X9.4894Y-6.3614
X9.4894Y-6.4614
X9.4894Y-6.5614
X9.5394Y-1.0114
X9.5394Y-1.2114
X9.5394Y-1.3114
X9.5394Y-6.3114
X9.5394Y-6.4114
X9.5394Y-6.5114
X9.5894Y-1.2614
X9.5894Y-1.3614
X9.5894Y-6.3614
X9.5894Y-6.4614
X9.5894Y-6.5614
X9.6394Y-1.0114
X9.6394Y-1.2114
X9.6394Y-1.3114
X9.6394Y-1.4114
X9.6394Y-6.4114
X9.6394Y-6.5114
X9.6894Y-1.0614
X9.6894Y-1.1614
X9.6894Y-1.2614
X9.6894Y-1.3614
X9.6894Y-1.4614
X9.6894Y-6.3614
X9.6894Y-6.4614
X9.6925Y-6.5596
T3
X8.0315Y-2.752
X8.1315Y-2.752
X8.2315Y-2.752
T4
X4.3644Y-1.7565
X4.3644Y-2.2565
X4.3644Y-2.4065
X4.3644Y-2.9065
X4.3644Y-3.0614
X4.3644Y-3.5614
X4.3644Y-3.7114
X4.3644Y-4.2114
X4.3644Y-4.3565
X4.3644Y-4.8565
X4.3644Y-5.0065
X4.3644Y-5.5065
X4.4636Y-6.0101
X4.4636Y-6.1101
X4.4636Y-6.2101
X4.4644Y-1.7565
X4.4644Y-2.2565
X4.4644Y-2.4065
X4.4644Y-2.9065
X4.4644Y-3.0614
X4.4644Y-3.5614
X4.4644Y-3.7114
X4.4644Y-4.2114
X4.4644Y-4.3565
X4.4644Y-4.8565
X4.4644Y-5.0065
X4.4644Y-5.5065
X4.5636Y-6.0101
X4.5636Y-6.1101
X4.5636Y-6.2101
X4.5644Y-1.7565
X4.5644Y-2.2565
X4.5644Y-2.4065
X4.5644Y-2.9065
X4.5644Y-3.0614
X4.5644Y-3.5614
X4.5644Y-3.7114
X4.5644Y-4.2114
X4.5644Y-4.3565
X4.5644Y-4.8565
X4.5644Y-5.0065
X4.5644Y-5.5065
X4.6636Y-6.0101
X4.6636Y-6.1101
X4.6636Y-6.2101
X4.6644Y-1.7565
X4.6644Y-2.2565
X4.6644Y-2.4065
X4.6644Y-2.9065
X4.6644Y-3.0614
X4.6644Y-3.5614
X4.6644Y-3.7114
X4.6644Y-4.2114
X4.6644Y-4.3565
X4.6644Y-4.8565
X4.6644Y-5.0065
X4.6644Y-5.5065
X4.7636Y-6.0101
X4.7636Y-6.1101
X4.7636Y-6.2101
X4.7644Y-1.7565
X4.7644Y-2.2565
X4.7644Y-2.4065
X4.7644Y-2.9065
X4.7644Y-3.0614
X4.7644Y-3.5614
X4.7644Y-3.7114
X4.7644Y-4.2114
X4.7644Y-4.3565
X4.7644Y-4.8565
X4.7644Y-5.0065
X4.7644Y-5.5065
X4.8636Y-6.0101
X4.8636Y-6.1101
X4.8636Y-6.2101
X4.9636Y-6.0101
X4.9636Y-6.1101
X4.9636Y-6.2101
X5.0636Y-6.0101
X5.0636Y-6.1101
X5.0636Y-6.2101
X5.1636Y-6.0101
X5.1636Y-6.1101
X5.1636Y-6.2101
X5.2636Y-6.0101
X5.2636Y-6.1101
X5.2636Y-6.2101
X5.3394Y-1.7565
X5.3394Y-1.8565
X5.3394Y-1.9565
X5.3394Y-2.0565
X5.3394Y-2.1565
X5.3394Y-2.2565
X5.3394Y-2.4065
X5.3394Y-2.5065
X5.3394Y-2.6065
X5.3394Y-2.7065
X5.3394Y-2.8065
X5.3394Y-2.9065
X5.3394Y-3.0614
X5.3394Y-3.1614
X5.3394Y-3.2614
X5.3394Y-3.3614
X5.3394Y-3.4614
X5.3394Y-3.5614
X5.3394Y-3.7114
X5.3394Y-3.8114
X5.3394Y-3.9114
X5.3394Y-4.0114
X5.3394Y-4.1114
X5.3394Y-4.2114
X5.3394Y-4.3565
X5.3394Y-4.4565
X5.3394Y-4.5565
X5.3394Y-4.6565
X5.3394Y-4.7565
X5.3394Y-4.8565
X5.3394Y-5.0065
X5.3394Y-5.1065
X5.3394Y-5.2065
X5.3394Y-5.3065
X5.3394Y-5.4065
X5.3394Y-5.5065
X5.3636Y-6.0101
X5.3636Y-6.1101
X5.3636Y-6.2101
X5.4636Y-6.0101
X5.4636Y-6.1101
X5.4636Y-6.2101
X5.5636Y-6.0101
X5.5636Y-6.1101
X5.5636Y-6.2101
X5.6636Y-6.0101
X5.6636Y-6.1101
X5.6636Y-6.2101
X5.7636Y-6.0101
X5.7636Y-6.1101
X5.7636Y-6.2101
X5.8636Y-6.0101
X5.8636Y-6.1101
X5.8636Y-6.2101
X5.9636Y-6.0101
X5.9636Y-6.1101
X5.9636Y-6.2101
X6.0636Y-6.0101
X6.0636Y-6.1101
X6.0636Y-6.2101
X6.1636Y-6.0101
X6.1636Y-6.1101
X6.1636Y-6.2101
X6.2636Y-6.0101
X6.2636Y-6.1101
X6.2636Y-6.2101
X6.3636Y-6.0101
X6.3636Y-6.1101
X6.3636Y-6.2101
X6.4636Y-6.0101
X6.4636Y-6.1101
X6.4636Y-6.2101
X6.5636Y-6.0101
X6.5636Y-6.1101
X6.5636Y-6.2101
X6.6636Y-6.0101
X6.6636Y-6.1101
X6.6636Y-6.2101
X6.7636Y-6.0101
X6.7636Y-6.1101
X6.7636Y-6.2101
X6.8636Y-6.0101
X6.8636Y-6.1101
X6.8636Y-6.2101
X6.9429Y-1.1024
X6.9636Y-6.0101
X6.9636Y-6.1101
X6.9636Y-6.2101
X7.0636Y-6.0101
X7.0636Y-6.1101
X7.0636Y-6.2101
X7.1053Y-1.1024
X7.1063Y-1.8661
X7.1636Y-6.0101
X7.1636Y-6.1101
X7.1636Y-6.2101
X7.2636Y-6.0101
X7.2636Y-6.1101
X7.2636Y-6.2101
X7.3636Y-6.0101
X7.3636Y-6.1101
X7.3636Y-6.2101
X7.4636Y-6.0101
X7.4636Y-6.1101
X7.4636Y-6.2101
X7.5636Y-6.0101
X7.5636Y-6.1101
X7.5636Y-6.2101
X7.6094Y-3.4764
X7.6636Y-6.0101
X7.6636Y-6.1101
X7.6636Y-6.2101
X7.685Y-1.1024
X7.7094Y-3.4764
X7.7283Y-2.7598
X7.7636Y-6.0101
X7.7636Y-6.1101
X7.7636Y-6.2101
X7.8094Y-3.4764
X7.8636Y-6.0101
X7.8636Y-6.1101
X7.8636Y-6.2101
X7.9094Y-3.4764
X7.9636Y-6.0101
X7.9636Y-6.1101
X7.9636Y-6.2101
X7.9776Y-3.0685
X7.9776Y-3.1685
X7.9776Y-3.2685
X8.0636Y-6.0101
X8.0636Y-6.1101
X8.0636Y-6.2101
X8.1636Y-6.0101
X8.1636Y-6.1101
X8.1636Y-6.2101
X8.1969Y-1.1024
X8.2636Y-6.0101
X8.2636Y-6.1101
X8.2636Y-6.2101
X8.3636Y-6.0101
X8.3636Y-6.1101
X8.3636Y-6.2101
X8.4636Y-6.0101
X8.4636Y-6.1101
X8.4636Y-6.2101
X8.4992Y-1.7614
X8.4992Y-1.8614
X8.4992Y-1.9614
X8.4992Y-2.0614
X8.4992Y-2.1614
X8.4992Y-2.2614
X8.4992Y-2.4114
X8.4992Y-2.5114
X8.4992Y-2.6114
X8.4992Y-2.7114
X8.4992Y-2.8114
X8.4992Y-2.9114
X8.4992Y-3.0614
X8.4992Y-3.1614
X8.4992Y-3.2614
X8.4992Y-3.3614
X8.4992Y-3.4614
X8.4992Y-3.5614
X8.4992Y-3.7114
X8.4992Y-3.8114
X8.4992Y-3.9114
X8.4992Y-4.0114
X8.4992Y-4.1114
X8.4992Y-4.2114
X8.4992Y-4.3614
X8.4992Y-4.4614
X8.4992Y-4.5614
X8.4992Y-4.6614
X8.4992Y-4.7614
X8.4992Y-4.8614
X8.4994Y-5.0064
X8.4994Y-5.1064
X8.4994Y-5.2064
X8.4994Y-5.3064
X8.4994Y-5.4064
X8.4994Y-5.5064
X8.5636Y-6.0101
X8.5636Y-6.1101
X8.5636Y-6.2101
X8.6636Y-6.0101
X8.6636Y-6.1101
X8.6636Y-6.2101
X8.7636Y-6.0101
X8.7636Y-6.1101
X8.7636Y-6.2101
X8.8636Y-6.0101
X8.8636Y-6.1101
X8.8636Y-6.2101
X8.9636Y-6.0101
X8.9636Y-6.1101
X8.9636Y-6.2101
X9.0636Y-6.0101
X9.0636Y-6.1101
X9.0636Y-6.2101
X9.0742Y-1.7614
X9.0742Y-2.2614
X9.0742Y-2.4114
X9.0742Y-2.9114
X9.0742Y-3.0614
X9.0742Y-3.5614
X9.0742Y-3.7114
X9.0742Y-4.2114
X9.0742Y-4.3614
X9.0742Y-4.8614
X9.0744Y-5.0064
X9.0744Y-5.5064
X9.1636Y-6.0101
X9.1636Y-6.1101
X9.1636Y-6.2101
X9.1742Y-1.7614
X9.1742Y-2.2614
X9.1742Y-2.4114
X9.1742Y-2.9114
X9.1742Y-3.0614
X9.1742Y-3.5614
X9.1742Y-3.7114
X9.1742Y-4.2114
X9.1742Y-4.3614
X9.1742Y-4.8614
X9.1744Y-5.0064
X9.1744Y-5.5064
X9.2636Y-6.0101
X9.2636Y-6.1101
X9.2636Y-6.2101
X9.2742Y-1.7614
X9.2742Y-2.2614
X9.2742Y-2.4114
X9.2742Y-2.9114
X9.2742Y-3.0614
X9.2742Y-3.5614
X9.2742Y-3.7114
X9.2742Y-4.2114
X9.2742Y-4.3614
X9.2742Y-4.8614
X9.2744Y-5.0064
X9.2744Y-5.5064
X9.3636Y-6.0101
X9.3636Y-6.1101
X9.3636Y-6.2101
X9.3742Y-1.7614
X9.3742Y-2.2614
X9.3742Y-2.4114
X9.3742Y-2.9114
X9.3742Y-3.0614
X9.3742Y-3.5614
X9.3742Y-3.7114
X9.3742Y-4.2114
X9.3742Y-4.3614
X9.3742Y-4.8614
X9.3744Y-5.0064
X9.3744Y-5.5064
X9.4742Y-1.7614
X9.4742Y-2.2614
X9.4742Y-2.4114
X9.4742Y-2.9114
X9.4742Y-3.0614
X9.4742Y-3.5614
X9.4742Y-3.7114
X9.4742Y-4.2114
X9.4742Y-4.3614
X9.4742Y-4.8614
X9.4744Y-5.0064
X9.4744Y-5.5064
T5
X6.6539Y-5.4955
T6
X6.5539Y-5.3955
X6.5539Y-5.5955
X6.7539Y-5.3955
X6.7539Y-5.5955
T7
X5.0144Y-2.0065
X5.0144Y-2.6565
X5.0144Y-3.3114
X5.0144Y-3.9614
X5.0144Y-4.6065
X5.0144Y-5.2565
X5.8894Y-1.6614
X8.0591Y-1.8976
X8.8242Y-2.0114
X8.8242Y-2.6614
X8.8242Y-3.3114
X8.8242Y-3.9614
X8.8242Y-4.6114
X8.8244Y-5.2564
T2
G00X6.4685Y-1.063
M15
G01X6.4685Y-1.0315
M16
G05
G00X6.4685Y-1.2335
M15
G01X6.4685Y-1.1902
M16
G05
G00X6.8087Y-1.063
M15
G01X6.8087Y-1.0315
M16
G05
G00X6.8087Y-1.2335
M15
G01X6.8087Y-1.1902
M16
G05
T4
G00X7.1953Y-1.4228
M15
G01X7.1953Y-1.3362
M16
G05
G00X7.4276Y-1.2457
M15
G01X7.3409Y-1.2457
M16
G05
G00X7.4354Y-1.4937
M15
G01X7.3331Y-1.4937
M16
G05
M30
